<svg xmlns="http://www.w3.org/2000/svg" width="18.001" height="36.002" viewBox="0 0 18.001 36.002">
  <g id="グループ_1603" data-name="グループ 1603" transform="translate(0 0)">
    <path id="前面オブジェクトで型抜き_1" data-name="前面オブジェクトで型抜き 1" d="M0,0H0V36a17.888,17.888,0,0,0,7.007-1.415,17.951,17.951,0,0,0,5.723-3.858,17.966,17.966,0,0,0,3.857-5.722,18.063,18.063,0,0,0,0-14.012,17.966,17.966,0,0,0-3.857-5.722A17.951,17.951,0,0,0,7.007,1.415,17.885,17.885,0,0,0,0,0Z" transform="translate(18.001 36.002) rotate(180)" fill="#01124d"/>
    <path id="Icon_awesome-chevron-right" data-name="Icon awesome-chevron-right" d="M9.333,9.4,3.758,14.971a.688.688,0,0,1-.973,0l-.65-.65a.688.688,0,0,1,0-.972L6.551,8.91,2.134,4.472a.688.688,0,0,1,0-.972l.65-.65a.688.688,0,0,1,.973,0L9.333,8.424A.688.688,0,0,1,9.333,9.4Z" transform="translate(5.488 9.091)" fill="#fff"/>
  </g>
</svg>
