<svg xmlns="http://www.w3.org/2000/svg" width="18.001" height="36.002" viewBox="0 0 18.001 36.002">
  <g id="グループ_1602" data-name="グループ 1602" transform="translate(-211 -491.999)">
    <path id="前面オブジェクトで型抜き_1" data-name="前面オブジェクトで型抜き 1" d="M12355,44h0V8a18,18,0,1,1,0,36Z" transform="translate(-12144 484)" fill="#01124d"/>
    <path id="Icon_awesome-chevron-right" data-name="Icon awesome-chevron-right" d="M2.135,9.4l5.574,5.574a.688.688,0,0,0,.973,0l.65-.65a.688.688,0,0,0,0-.972L4.916,8.91,9.334,4.472a.688.688,0,0,0,0-.972l-.65-.65a.688.688,0,0,0-.973,0L2.135,8.424A.688.688,0,0,0,2.135,9.4Z" transform="translate(212.046 501.09)" fill="#fff"/>
  </g>
</svg>
