<svg xmlns="http://www.w3.org/2000/svg" width="69.968" height="74.626" viewBox="0 0 69.968 74.626">
  <g id="グループ_1400" data-name="グループ 1400" transform="translate(-696.136 -816.678)">
    <path id="パス_2633" data-name="パス 2633" d="M10.224-1.824a15.3,15.3,0,0,1-2.048.112h-4.8V-5.488h3.9a12.537,12.537,0,0,1,2.08.112v-2.1a16.652,16.652,0,0,1-2.08.112H3.392v-3.3H8a14.329,14.329,0,0,1,2.064.112v-2.112A17.1,17.1,0,0,1,8-12.544H3.168c-.976,0-1.392-.016-2.032-.048a14.155,14.155,0,0,1,.128,2.064v8.656A12.942,12.942,0,0,1,1.136.24C1.776.208,2.208.192,3.168.192H8.16A13.756,13.756,0,0,1,10.224.3ZM26.16.192a12.072,12.072,0,0,1-.128-2.064v-8.464a13.989,13.989,0,0,1,.128-2.208H23.824a13.989,13.989,0,0,1,.128,2.208V-4.96c0,.672.048,1.632.112,2.256-.352-.64-.864-1.472-1.248-2.048l-4.048-6.1a8.775,8.775,0,0,1-.976-1.7H15.3a13.328,13.328,0,0,1,.128,2.064v8.256A17.311,17.311,0,0,1,15.3.192h2.336a17.709,17.709,0,0,1-.128-2.4V-7.456c0-.368-.032-1.088-.048-1.392-.048-.592-.048-.592-.064-.816.384.752.784,1.44,1.088,1.92L22.608-1.52A15.941,15.941,0,0,1,23.632.192ZM37.248-10.624h2a16.824,16.824,0,0,1,2.352.112v-2.144a16.976,16.976,0,0,1-2.352.112H32.912a16.093,16.093,0,0,1-2.176-.112v2.144a15.888,15.888,0,0,1,2.192-.112h2.16v8.736A13.412,13.412,0,0,1,34.96.192h2.416a13.281,13.281,0,0,1-.128-2.08Zm18.016,8.8a15.3,15.3,0,0,1-2.048.112h-4.8V-5.488h3.9a12.537,12.537,0,0,1,2.08.112v-2.1a16.652,16.652,0,0,1-2.08.112H48.432v-3.3H53.04a14.329,14.329,0,0,1,2.064.112v-2.112a17.1,17.1,0,0,1-2.064.112H48.208c-.976,0-1.392-.016-2.032-.048a14.156,14.156,0,0,1,.128,2.064v8.656A12.943,12.943,0,0,1,46.176.24c.64-.032,1.072-.048,2.032-.048H53.2A13.756,13.756,0,0,1,55.264.3ZM71.1.192c-.224-.432-.624-1.3-.752-1.584-1.584-3.744-1.888-4.192-2.9-4.512a3.383,3.383,0,0,0,1.776-.928,3.29,3.29,0,0,0,.816-2.384c0-2.112-1.392-3.328-3.824-3.328h-3.84c-.88,0-1.376-.016-2.048-.048a14.236,14.236,0,0,1,.128,2.08v8.624a12.521,12.521,0,0,1-.128,2.08H62.72a12.486,12.486,0,0,1-.128-2.1V-5.168h2.384c1.232,0,1.792.592,2.656,2.8a12.953,12.953,0,0,1,.832,2.56ZM62.592-6.992V-10.72h3.28c1.312,0,1.968.592,1.968,1.744a1.9,1.9,0,0,1-.512,1.408,2.157,2.157,0,0,1-1.52.576Z" transform="translate(695 891)" fill="#fff"/>
    <path id="Icon_metro-enter" data-name="Icon metro-enter" d="M17.709,23.064H4.5V17.78h13.21V12.5l7.926,7.926-7.926,7.926ZM44.129,1.928V36.274L28.277,44.2V36.274H12.425V25.706h2.642v7.926h13.21V9.854L38.845,4.57H15.067V15.138H12.425V1.928Z" transform="translate(700.812 814.75)" fill="#fff"/>
  </g>
</svg>
