<svg id="ログアウト" xmlns="http://www.w3.org/2000/svg" width="53.965" height="11.886" viewBox="0 0 53.965 11.886">
  <path id="パス_2434" data-name="パス 2434" d="M-24.02-4.156a8.425,8.425,0,0,1-1.134.056h-2.235V-8.315a7.279,7.279,0,0,1,.064-1.173H-28.53a7.784,7.784,0,0,1,.064,1.181v4.143A6.334,6.334,0,0,1-28.53-3.11c.287-.016.567-.024,1.014-.024h2.363a7.75,7.75,0,0,1,1.134.056Zm3.784-5.46a2.767,2.767,0,0,0-2.06.8,3.418,3.418,0,0,0-.91,2.491C-23.205-4.3-22.04-3-20.228-3s2.986-1.309,2.986-3.329a3.443,3.443,0,0,0-.894-2.491A2.8,2.8,0,0,0-20.236-9.616Zm.024,5.668a1.724,1.724,0,0,1-1.237-.487A2.637,2.637,0,0,1-22.1-6.319c0-1.445.726-2.355,1.876-2.355a1.718,1.718,0,0,1,1.229.487,2.579,2.579,0,0,1,.631,1.86C-18.36-4.858-19.07-3.948-20.212-3.948Zm9.508-1.66a6.693,6.693,0,0,1,.056-.99c-.343.024-.575.032-.942.032h-.415a5.958,5.958,0,0,1-.958-.048v1.03a4.37,4.37,0,0,1,.814-.048h.431v1.3a2.382,2.382,0,0,1-1.357.359,1.671,1.671,0,0,1-1.389-.551,2.819,2.819,0,0,1-.543-1.868,2.5,2.5,0,0,1,.591-1.82A1.687,1.687,0,0,1-13.2-8.7a1.309,1.309,0,0,1,1.469.982l1.094-.3a2.25,2.25,0,0,0-.591-.95,2.607,2.607,0,0,0-1.836-.687,3.027,3.027,0,0,0-1.772.471,3.193,3.193,0,0,0-1.277,2.8,3.75,3.75,0,0,0,.75,2.427A2.794,2.794,0,0,0-13.1-3.03a4.727,4.727,0,0,0,1.173-.152,5.062,5.062,0,0,0,1.277-.551A6.6,6.6,0,0,1-10.7-4.77Zm4.263-4.007a2.767,2.767,0,0,0-2.06.8,3.418,3.418,0,0,0-.91,2.491C-9.411-4.3-8.245-3-6.433-3s2.986-1.309,2.986-3.329a3.443,3.443,0,0,0-.894-2.491A2.8,2.8,0,0,0-6.441-9.616Zm.024,5.668a1.724,1.724,0,0,1-1.237-.487A2.637,2.637,0,0,1-8.3-6.319c0-1.445.726-2.355,1.876-2.355A1.718,1.718,0,0,1-5.2-8.187a2.579,2.579,0,0,1,.631,1.86C-4.565-4.858-5.276-3.948-6.417-3.948Zm8.606-5.54a6.5,6.5,0,0,1,.064,1.094v2.81A1.457,1.457,0,0,1,.632-3.932,1.463,1.463,0,0,1-1-5.577V-8.395A6.26,6.26,0,0,1-.941-9.488H-2.131a6.558,6.558,0,0,1,.064,1.094v2.818a2.571,2.571,0,0,0,.6,1.836,2.75,2.75,0,0,0,2.06.75A2.4,2.4,0,0,0,3.314-5.569V-8.4a6.452,6.452,0,0,1,.064-1.086ZM7.7-8.53h1a8.394,8.394,0,0,1,1.173.056v-1.07A8.47,8.47,0,0,1,8.7-9.488H5.541a8.029,8.029,0,0,1-1.086-.056v1.07A7.927,7.927,0,0,1,5.549-8.53H6.627v4.359a6.692,6.692,0,0,1-.064,1.038H7.768A6.626,6.626,0,0,1,7.7-4.172Z" transform="translate(44.09 11.789)" fill="#4b4b4b"/>
  <g id="グループ_225" data-name="グループ 225" transform="translate(0 0)">
    <path id="Icon_metro-enter" data-name="Icon metro-enter" d="M4.5,1.928v9.657l4.457,2.229V11.585h4.457V8.614H12.67v2.229H8.956V4.157L5.984,2.671H12.67V5.642h.743V1.928Z" transform="translate(-4.499 -1.928)" fill="#4b4b4b"/>
    <rect id="長方形_112" data-name="長方形 112" width="4.244" height="1.886" transform="translate(5.621 4.197)" fill="#4b4b4b"/>
    <path id="多角形_1" data-name="多角形 1" d="M2.358,0,4.716,2.829H0Z" transform="translate(12.223 2.782) rotate(90)" fill="#4b4b4b"/>
  </g>
</svg>
