<?xml version="1.0" encoding="UTF-8"?><svg id="_イヤー_2" xmlns="http://www.w3.org/2000/svg" xmlns:xlink="http://www.w3.org/1999/xlink" viewBox="0 0 262.85 114.47"><defs><style>.cls-1{fill:url(#_称未設定グラデーション_188);}.cls-2{fill:url(#_称未設定グラデーション_248);}.cls-3{fill:#036eb7;}.cls-4{fill:#fff;}</style><linearGradient id="_称未設定グラデーション_248" x1="31.39" y1="54.59" x2="50.51" y2="43.56" gradientTransform="matrix(1, 0, 0, 1, 0, 0)" gradientUnits="userSpaceOnUse"><stop offset="0" stop-color="#ff4a5d"/><stop offset=".12" stop-color="#ff4f5a"/><stop offset=".27" stop-color="#ff5e52"/><stop offset=".44" stop-color="#ff7845"/><stop offset=".62" stop-color="#ff9b33"/><stop offset=".81" stop-color="#ffc81b"/><stop offset="1" stop-color="#ff0"/></linearGradient><linearGradient id="_称未設定グラデーション_188" x1="154.39" y1="17.54" x2="169.65" y2="8.73" gradientTransform="matrix(1, 0, 0, 1, 0, 0)" gradientUnits="userSpaceOnUse"><stop offset="0" stop-color="#007aff"/><stop offset=".1" stop-color="#057cf9"/><stop offset=".22" stop-color="#1484ea"/><stop offset=".36" stop-color="#2e92d0"/><stop offset=".51" stop-color="#51a4ad"/><stop offset=".66" stop-color="#7ebc80"/><stop offset=".82" stop-color="#b6d948"/><stop offset=".98" stop-color="#f7fa07"/><stop offset="1" stop-color="#ff0"/></linearGradient></defs><g id="_イヤー_2-2"><g><path class="cls-3" d="M10.77,25.43c0,.26,.21,.47,.47,.47h5c.26,0,.47-.21,.47-.47v-6.01L27.27,1.01c.08-.14,.08-.32,0-.47-.08-.14-.24-.23-.4-.23h-5.66c-.17,0-.33,.09-.41,.25l-7.08,13.26L6.54,.56c-.08-.15-.24-.24-.41-.24H.47C.3,.32,.15,.4,.06,.55c-.08,.14-.08,.32,0,.47L10.77,19.45v5.98Z"/><path class="cls-3" d="M35.05,25.9h5.27c.18,0,.35-.11,.42-.27l1.78-3.88h13.81l1.85,3.88c.08,.16,.24,.27,.42,.27h5.25c.16,0,.31-.08,.39-.22,.08-.14,.09-.31,.02-.45L52.35,.58c-.08-.16-.24-.26-.42-.26h-5.3c-.18,0-.34,.1-.42,.27l-11.58,24.65c-.07,.14-.06,.31,.03,.45s.23,.22,.39,.22Zm9.81-9.2l4.46-9.64,4.59,9.64h-9.05Z"/><path class="cls-3" d="M102.04,20.88c.7-1.18,1.05-2.53,1.05-4.03,0-1.12-.21-2.16-.63-3.07-.42-.92-1.04-1.72-1.85-2.36-.8-.64-1.8-1.14-2.98-1.48-1.76-.51-4-.62-6.4-.39-.82,.08-1.62,.17-2.41,.26-.78,.09-1.53,.18-2.24,.26-2.31,.26-3.77,.08-4.59-.5-.54-.38-.8-.85-.8-1.43,0-.3,.08-.61,.25-.92,.16-.31,.47-.59,.92-.86,.48-.28,1.15-.52,1.99-.71,.85-.19,1.96-.29,3.3-.29,.95,0,1.89,.05,2.79,.16,.91,.11,1.81,.26,2.66,.44,.85,.18,1.68,.41,2.46,.66,.78,.25,1.52,.53,2.19,.83,.22,.1,.48,0,.6-.2l2.19-4.04c.06-.11,.07-.25,.03-.37-.04-.12-.13-.22-.25-.28-.86-.38-1.79-.74-2.78-1.05-.99-.31-2.03-.59-3.1-.81-1.07-.22-2.18-.4-3.3-.52-2.69-.29-5.44-.23-7.54,.15-1.22,.22-2.31,.53-3.25,.92-.95,.39-1.77,.87-2.44,1.42-.67,.55-1.23,1.15-1.66,1.79-.43,.64-.75,1.33-.94,2.03-.19,.7-.29,1.41-.29,2.13,0,1.21,.25,2.29,.75,3.2,.49,.91,1.17,1.68,2.01,2.28,.82,.6,1.78,1.05,2.84,1.35,1.67,.47,3.42,.55,5.48,.31,.75-.09,1.52-.19,2.3-.29,.77-.11,1.53-.2,2.29-.29,.74-.09,1.45-.13,2.11-.13,1.45,0,2.52,.23,3.19,.7,.62,.43,.92,1,.92,1.74,0,.47-.12,.9-.38,1.3-.25,.4-.68,.76-1.26,1.06-.61,.32-1.43,.57-2.42,.76-1.01,.19-2.25,.28-3.7,.28-1.2,0-2.35-.07-3.41-.22-1.06-.14-2.09-.35-3.05-.63-.96-.27-1.91-.61-2.8-1-.9-.4-1.8-.85-2.68-1.34-.21-.12-.48-.05-.62,.15l-2.67,4.05c-.07,.11-.09,.24-.06,.36s.11,.23,.22,.3c.95,.54,2,1.05,3.11,1.5,1.11,.45,2.3,.85,3.53,1.17,1.22,.32,2.53,.58,3.87,.75,1.34,.18,2.73,.26,4.13,.26,2.13,0,4.09-.2,5.83-.6,1.76-.4,3.28-1.01,4.53-1.79,1.27-.8,2.27-1.8,2.96-2.96Z"/><path class="cls-3" d="M115.44,25.9h5c.26,0,.47-.21,.47-.47V11.96h11.42v13.48c0,.26,.21,.47,.47,.47h5.01c.26,0,.47-.21,.47-.47V.78c0-.26-.21-.47-.47-.47h-5.01c-.26,0-.47,.21-.47,.47V6.75h-11.42V.78c0-.26-.21-.47-.47-.47h-5c-.26,0-.47,.21-.47,.47V25.43c0,.26,.21,.47,.47,.47Z"/><path class="cls-3" d="M185.94,25.9h5c.26,0,.47-.21,.47-.47V8.8l8.17,7.87c.18,.17,.47,.17,.65,0l8.17-7.87V25.43c0,.26,.21,.47,.47,.47h5c.26,0,.47-.21,.47-.47V.78c0-.26-.21-.47-.47-.47h-5c-.12,0-.24,.05-.33,.14l-8.63,8.66L191.27,.45c-.09-.09-.21-.14-.33-.14h-5c-.26,0-.47,.21-.47,.47V25.43c0,.26,.21,.47,.47,.47Z"/><path class="cls-3" d="M253.56,25.23L241.63,.58c-.08-.16-.24-.26-.42-.26h-5.3c-.18,0-.34,.1-.42,.27l-11.58,24.65c-.07,.14-.06,.31,.03,.45s.23,.22,.39,.22h5.27c.18,0,.35-.11,.42-.27l1.78-3.88h13.81l1.85,3.88c.08,.16,.24,.27,.42,.27h5.25c.16,0,.31-.08,.39-.22,.08-.14,.09-.31,.02-.45Zm-10.35-8.53h-9.05l4.46-9.64,4.59,9.64Z"/><path class="cls-3" d="M25.58,57.21H9.73v-5.93h13.7c.26,0,.47-.21,.47-.47v-4.12c0-.26-.21-.47-.47-.47H9.73v-3.99h15.53c.26,0,.47-.21,.47-.47v-4.38c0-.26-.21-.47-.47-.47H4.26c-.26,0-.47,.21-.47,.47v24.65c0,.26,.21,.47,.47,.47H25.58c.26,0,.47-.21,.47-.47v-4.37c0-.26-.21-.47-.47-.47Z"/><path class="cls-3" d="M98.85,39.43c-.96-.81-2.18-1.44-3.62-1.87-1.43-.42-3.13-.63-5.05-.63h-13c-.26,0-.47,.21-.47,.47v24.65c0,.26,.21,.47,.47,.47h5c.26,0,.47-.21,.47-.47v-6.08l7.56,.02c1.93,0,3.64-.24,5.07-.71,1.44-.48,2.66-1.15,3.61-2,.96-.86,1.68-1.89,2.15-3.07,.46-1.16,.7-2.45,.7-3.81,0-1.45-.24-2.78-.7-3.94-.47-1.18-1.2-2.2-2.17-3.01Zm-6.21,10.97c-.66,.21-1.45,.32-2.34,.32h-7.66v-8.5h7.66c1.77,0,3.1,.37,3.96,1.11,.85,.73,1.26,1.73,1.26,3.06,0,.66-.11,1.27-.32,1.81-.21,.52-.52,.97-.95,1.33-.43,.37-.97,.66-1.62,.87Z"/><path class="cls-3" d="M137.48,51.21c.48-.73,.85-1.54,1.08-2.42,.23-.86,.35-1.78,.35-2.73,0-1.41-.24-2.7-.71-3.82-.47-1.14-1.21-2.12-2.18-2.91-.96-.78-2.18-1.39-3.62-1.8-1.42-.4-3.12-.61-5.05-.61h-12.54c-.26,0-.47,.21-.47,.47v24.65c0,.26,.21,.47,.47,.47h5c.26,0,.47-.21,.47-.47v-6.55l7,.02,4.5,6.79c.09,.13,.23,.21,.39,.21h6.12c.17,0,.33-.1,.41-.25,.08-.15,.07-.34-.03-.48l-5.04-7.41c.76-.33,1.43-.73,2.02-1.19,.73-.57,1.35-1.23,1.83-1.96Zm-4.77-5.15c0,.64-.11,1.23-.32,1.74-.21,.5-.52,.93-.94,1.28-.43,.36-.98,.64-1.62,.84-.66,.21-1.45,.31-2.35,.31h-7.2v-8.03h7.2c1.79,0,3.13,.35,3.98,1.03,.84,.66,1.24,1.59,1.24,2.83Z"/><path class="cls-3" d="M173.48,57.21h-15.86v-5.93h13.7c.26,0,.47-.21,.47-.47v-4.12c0-.26-.21-.47-.47-.47h-13.7v-3.99h15.53c.26,0,.47-.21,.47-.47v-4.38c0-.26-.21-.47-.47-.47h-20.99c-.26,0-.47,.21-.47,.47v24.65c0,.26,.21,.47,.47,.47h21.32c.26,0,.47-.21,.47-.47v-4.37c0-.26-.21-.47-.47-.47Z"/><path class="cls-3" d="M212.04,48.03c-.8-.64-1.8-1.14-2.98-1.48-1.76-.51-4-.62-6.4-.39-.82,.08-1.62,.17-2.41,.26-.78,.09-1.53,.18-2.24,.26-2.31,.26-3.77,.08-4.59-.5-.54-.38-.8-.85-.8-1.43,0-.3,.08-.61,.25-.92,.16-.31,.47-.59,.92-.86,.48-.28,1.15-.52,1.99-.71,.85-.19,1.96-.29,3.3-.29,.95,0,1.89,.05,2.79,.16,.91,.11,1.81,.26,2.66,.44,.85,.18,1.68,.41,2.46,.66,.78,.25,1.52,.53,2.19,.83,.22,.1,.48,0,.6-.2l2.19-4.04c.06-.11,.07-.25,.03-.37-.04-.12-.13-.22-.25-.28-.86-.38-1.79-.74-2.78-1.05-.99-.31-2.03-.59-3.1-.81-1.07-.22-2.18-.4-3.3-.52-2.69-.29-5.44-.23-7.54,.15-1.22,.22-2.31,.53-3.25,.92-.95,.39-1.77,.87-2.44,1.42-.67,.55-1.23,1.15-1.66,1.79-.43,.64-.75,1.33-.94,2.03-.19,.7-.29,1.41-.29,2.13,0,1.21,.25,2.29,.75,3.2,.49,.91,1.17,1.68,2.01,2.28,.82,.6,1.78,1.05,2.84,1.35,1.67,.47,3.42,.55,5.48,.31,.75-.09,1.52-.19,2.3-.29,.77-.11,1.53-.2,2.29-.29,.74-.09,1.45-.13,2.11-.13,1.45,0,2.52,.23,3.19,.7,.62,.43,.92,1,.92,1.74,0,.47-.12,.9-.38,1.3-.25,.4-.68,.76-1.26,1.06-.61,.32-1.43,.57-2.42,.76-1.01,.19-2.25,.28-3.7,.28-1.2,0-2.35-.07-3.41-.22-1.06-.14-2.09-.35-3.05-.63-.96-.27-1.91-.61-2.8-1-.9-.4-1.8-.85-2.68-1.34-.21-.12-.48-.06-.62,.15l-2.67,4.05c-.07,.11-.09,.24-.06,.36s.11,.23,.22,.3c.95,.54,2,1.05,3.11,1.5,1.11,.45,2.3,.85,3.53,1.17,1.22,.32,2.53,.58,3.87,.75,1.34,.18,2.73,.26,4.13,.26,2.13,0,4.09-.2,5.83-.6,1.76-.4,3.28-1.01,4.53-1.79,1.27-.8,2.27-1.8,2.96-2.96,.7-1.18,1.05-2.53,1.05-4.03,0-1.12-.21-2.16-.63-3.07-.42-.92-1.04-1.72-1.85-2.36Z"/><path class="cls-3" d="M250.88,48.03c-.8-.64-1.8-1.14-2.98-1.48-1.77-.51-4-.62-6.4-.39-.82,.08-1.62,.17-2.41,.26-.78,.09-1.53,.18-2.24,.26-2.31,.26-3.77,.08-4.59-.5-.54-.38-.8-.85-.8-1.43,0-.3,.08-.61,.25-.92,.16-.31,.47-.59,.92-.86,.48-.28,1.15-.52,1.99-.71,.85-.19,1.96-.29,3.3-.29,.95,0,1.89,.05,2.79,.16,.91,.11,1.81,.26,2.66,.44,.85,.18,1.68,.41,2.46,.66,.78,.25,1.52,.53,2.19,.83,.22,.1,.48,0,.6-.2l2.19-4.04c.06-.11,.07-.25,.03-.37-.04-.12-.13-.22-.25-.28-.86-.38-1.79-.74-2.78-1.05-.99-.31-2.03-.59-3.1-.81-1.07-.22-2.18-.4-3.3-.52-2.69-.29-5.44-.23-7.54,.15-1.22,.22-2.31,.53-3.25,.92-.95,.39-1.77,.87-2.44,1.42-.67,.55-1.23,1.15-1.66,1.79-.43,.64-.75,1.33-.94,2.03-.19,.7-.29,1.41-.29,2.13,0,1.21,.25,2.29,.75,3.2,.49,.91,1.17,1.68,2.01,2.28,.82,.6,1.78,1.05,2.84,1.35,1.67,.47,3.42,.55,5.48,.31,.75-.09,1.52-.19,2.3-.29,.77-.11,1.53-.2,2.29-.29,.74-.09,1.45-.13,2.11-.13,1.45,0,2.52,.23,3.19,.7,.62,.43,.92,1,.92,1.74,0,.47-.12,.9-.38,1.3-.25,.4-.68,.76-1.26,1.06-.61,.32-1.43,.57-2.42,.76-1.01,.19-2.25,.28-3.7,.28-1.2,0-2.35-.07-3.41-.22-1.06-.14-2.09-.35-3.05-.63-.96-.27-1.91-.61-2.8-1-.9-.4-1.8-.85-2.68-1.34-.21-.12-.48-.06-.62,.15l-2.67,4.05c-.07,.11-.09,.24-.06,.36s.11,.23,.22,.3c.95,.54,2,1.05,3.11,1.5,1.11,.45,2.3,.85,3.53,1.17,1.22,.32,2.53,.58,3.87,.75,1.34,.18,2.73,.26,4.13,.26,2.13,0,4.09-.2,5.83-.6,1.76-.4,3.28-1.01,4.53-1.79,1.27-.8,2.27-1.8,2.96-2.96,.7-1.18,1.05-2.53,1.05-4.03,0-1.12-.21-2.16-.63-3.07-.42-.92-1.04-1.72-1.85-2.36Z"/><path class="cls-2" d="M49.99,44.7l-6.12-7.38c-.06-.22-.26-.38-.48-.38h-6.54c-.33,0-.58,.34-.48,.67l9.75,11.75-10.35,12.47c-.09,.34,.15,.67,.48,.67h6.54c.22,0,.42-.15,.48-.38l6.72-8.1,3.87-4.67-3.87-4.67Z"/><path class="cls-3" d="M63.62,37.6c.09-.34-.15-.67-.48-.67h-6.54c-.22,0-.42,.15-.48,.38l-6.13,7.39,3.87,4.67,9.76-11.77Z"/><path class="cls-3" d="M64.22,61.86l-10.36-12.49-3.87,4.67,6.73,8.11c.06,.22,.26,.38,.48,.38h6.54c.33,0,.58-.34,.48-.67Z"/><path class="cls-1" d="M159.51,.32h5.01c.26,0,.47,.21,.47,.47V25.48c0,.26-.21,.47-.47,.47h-5.01c-.26,0-.46-.21-.46-.46V.78c0-.26,.21-.47,.47-.47Z"/><g><path class="cls-3" d="M247.24,94.01c.12,.12,.19,.29,.19,.47,0-.18-.07-.35-.19-.47Z"/><path class="cls-3" d="M236.67,94.48c0-.18,.07-.35,.19-.47-.12,.12-.19,.29-.19,.47Z"/><rect class="cls-3" x="238.49" y="95.63" width="7.14" height="7.14"/><rect class="cls-3" x="231.47" y="106.09" width="3.96" height="3.96"/><rect class="cls-3" x="249.32" y="75.41" width="13.53" height="13.53"/><path class="cls-4" d="M246.53,91.04c0,.09,.02,.18,.05,.26-.03-.08-.05-.17-.05-.26h0Z"/><path class="cls-3" d="M247.21,91.72c-.19,0-.36-.08-.48-.2-.06-.06-.11-.13-.15-.22s-.05-.17-.05-.26v-10.99h-33.8c-.34,0-.61,.27-.61,.61v33.2c0,.34,.27,.61,.61,.61h15.42v-16.95h8.51v-3.04c0-.18,.07-.35,.19-.47s.29-.19,.47-.19h9.44c.18,0,.35,.07,.47,.19,.12,.12,.19,.29,.19,.47v9.44c0,.18-.07,.35-.19,.47s-.29,.19-.47,.19h-1.75v9.89h8.01c.34,0,.61-.27,.61-.61v-22.14h-6.43Z"/></g><g><path class="cls-3" d="M7.11,82.37l-.45-2.75,1.9-.26,.44,2.85,6.9-.67c-.56,3.04-1.78,5.22-3.69,6.64l-1.71-1.38c1.34-.86,2.11-1.75,2.73-3.21l-3.95,.37,1.1,6.92-1.9,.32-1.1-7.04-2.9,.29-.23-1.81,2.86-.26Z"/><path class="cls-3" d="M27.3,82.67c1.38,.6,2.52,1.29,3.64,2.21l-1.27,1.52c-1.25-1.01-2.26-1.64-3.64-2.25l1.27-1.48Zm10.19,.79c-1.14,2.74-2.08,4.12-3.6,5.29-1.55,1.19-4.01,2.01-6.62,2.21l-.95-1.96c5.49-.23,7.62-1.75,9.56-6.89l1.6,1.36Zm-8.4-3.69c1.59,.77,2.48,1.32,3.56,2.22l-1.27,1.48c-1.27-1.05-1.75-1.37-3.45-2.29l1.16-1.41Z"/><path class="cls-3" d="M46.58,80.77h11.49c-.4,1.79-2.34,4.71-4.69,7.04,.64,.78,.85,1.04,1.56,2.07l-1.75,1.29c-1.11-1.85-3.1-4.11-5.04-5.73l1.63-1.22c1.07,.88,1.53,1.3,2.33,2.16,1.12-1.08,2.44-2.77,2.94-3.81h-8.48v-1.81Z"/><path class="cls-3" d="M72.71,88.25h4.82v-5.49h-4.15v-1.85h10.27v1.85h-4.19v5.49h4.82v1.85h-11.58v-1.85Z"/><path class="cls-3" d="M99.93,79.59c-.14,.58-.2,.81-.44,1.37h5.27c-.25,2.81-1.05,5.22-2.3,6.81-1.32,1.71-3.21,2.74-6.62,3.58l-1.18-1.84c2.1-.41,3.69-.97,4.67-1.64,1.58-1,2.64-2.77,3.08-5.08h-3.82c-.97,1.77-1.73,2.67-3.21,3.85l-.11,.1-1.36-1.52c2.15-1.71,3.11-3.14,3.84-5.74l2.16,.12Z"/><path class="cls-3" d="M116.02,82.22v-1.81h8.56c-.36,2.05-1.12,4.29-1.85,5.37,1.4,.97,3.1,2.47,4.14,3.64l-1.47,1.62c-.73-1.04-2.51-2.82-3.77-3.75-1.37,1.69-3.12,2.9-5.48,3.84l-1.16-1.81c3.85-1.21,6.23-3.59,7.1-7.1h-6.07Z"/><path class="cls-3" d="M146.92,82.35c-.64,5.04-3.25,7.53-8.89,8.51l-1.08-1.9c2.21-.26,4-.82,5.18-1.6,1.64-1.21,2.38-2.51,2.74-4.89h-8.36v-1.9h8.63c.01-.93,.64-1.59,1.52-1.59s1.53,.68,1.53,1.52c0,.74-.47,1.32-1.22,1.49l-.05,.37Zm-.95-1.85c0,.37,.31,.68,.68,.68s.7-.32,.7-.7-.31-.68-.7-.68-.68,.31-.68,.7Z"/><path class="cls-3" d="M160.46,79.92h2.06v8.63c3.07-.67,5.18-2.55,6.59-5.82l1.71,1.48c-1.15,2.4-2.73,4.23-4.3,5.01-1.79,1.04-4.03,1.62-6.06,1.58v-10.88Z"/><path class="cls-3" d="M180.47,82.22v-1.81h8.56c-.36,2.05-1.12,4.29-1.85,5.37,1.4,.97,3.1,2.47,4.14,3.64l-1.47,1.62c-.73-1.04-2.51-2.82-3.77-3.75-1.37,1.69-3.12,2.9-5.48,3.84l-1.16-1.81c3.85-1.21,6.23-3.59,7.1-7.1h-6.07Z"/></g></g></g></svg>