<svg xmlns="http://www.w3.org/2000/svg" width="122.777" height="57.315" viewBox="0 0 122.777 57.315">
  <g id="グループ_1398" data-name="グループ 1398" transform="translate(-79 -67.999)">
    <path id="パス_1" data-name="パス 1" d="M3.412,43.519H5.9l.259,2.539,6.565-.192c-.014.355-.014.683-.027.806-.027,3.344-.109,3.726-1.119,4.776-.928.764-1.174.833-3.616,1.037L7.67,50.248c1.556-.082,1.761-.123,2.062-.355.382-.273.519-.724.519-1.679v-.041l-3.794.068.764,7.274H4.763L3.971,48.3.86,48.4V46.167l2.866-.082Z" transform="translate(79.036 69.797)" fill="#1379dc"/>
    <path id="パス_2" data-name="パス 2" d="M14.4,52.858H18.58c2.375-.014,3.044-.109,3.781-.587a2.777,2.777,0,0,0,1.01-2.512V45.173h2.456v4.559c0,2.306-.709,3.685-2.415,4.709-1.175.6-2.321.792-4.954.778H14.4Zm.054-9.076.86.135,3.167.56c.641.109.955.177,1.979.382V47.22c-2.239-.49-3.685-.764-6.006-1.174Zm0,3.753c1.256.192,1.31.205,2.1.342.4.068,1.3.231,2.7.5l1.2.233v2.32L19.222,50.7c-.628-.123-1.27-.246-1.9-.355-.546-.1-1.229-.219-2.867-.478Z" transform="translate(79.595 69.808)" fill="#1379dc"/>
    <path id="パス_3" data-name="パス 3" d="M27.173,44.135h11.67v2.948c-.014,3.508-1.557,5.064-5.582,5.692.423.8.682,1.337,1.242,2.511H31.828c-1.065-2.155-2.279-4.271-3.727-6.592h2.7l.67,1.12c.123.218.191.327.532.914,3.317-.314,4.409-1.188,4.449-3.577v-.832H27.173Z" transform="translate(80.122 69.823)" fill="#1379dc"/>
    <path id="パス_4" data-name="パス 4" d="M40.363,52.361h4.668v-5.8H41.318V44.239H51.432v2.321H47.474v5.8h4.654v2.4H40.363Z" transform="translate(80.667 69.827)" fill="#1379dc"/>
    <path id="パス_5" data-name="パス 5" d="M53.539,48.1c1.529-.3,2.157-1.515,2.184-4.231h9.185v5.446a6.21,6.21,0,0,1-1.037,4.026A4.848,4.848,0,0,1,59.64,55.2h-5.6V52.963h4.7c2.743.014,3.645-.86,3.712-3.577v-3.18h-4.64a4.4,4.4,0,0,1-4.272,4.259Z" transform="translate(81.211 69.812)" fill="#1379dc"/>
    <path id="パス_6" data-name="パス 6" d="M67.368,46.177V43.925h9.868a30.934,30.934,0,0,1-2.211,5.569,37.944,37.944,0,0,1,3.521,5.855H75.585a21.6,21.6,0,0,0-1.83-3.534A6.492,6.492,0,0,1,68.146,55.5H66.427V53.192h.859c2.075.014,3.139-.505,4.15-2.02a25.969,25.969,0,0,0,2.4-5Z" transform="translate(81.743 69.814)" fill="#1379dc"/>
    <path id="パス_7" data-name="パス 7" d="M80.01,44.518h8.708a1.954,1.954,0,0,0,2.019,2.17v2.662c-.027,4.177-2.007,6.087-6.374,6.1H80.542V53.2h3.439c3.194,0,4.313-1.2,4.286-4.571V46.8H80.01Zm12.256.192a1.61,1.61,0,1,1-1.583-1.6,1.612,1.612,0,0,1,1.583,1.6m-2.238,0a.632.632,0,0,0,.614.628.621.621,0,1,0,0-1.242.629.629,0,0,0-.614.614" transform="translate(82.304 69.781)" fill="#1379dc"/>
    <path id="パス_8" data-name="パス 8" d="M95.665,43.742v9.089h1.323c3.686-.108,4.641-1.364,4.791-6.25h2.485c-.137,2.907-.614,4.8-1.529,6.209-1.311,1.87-2.784,2.4-6.729,2.444H93.318V43.742Z" transform="translate(82.853 69.807)" fill="#1379dc"/>
    <path id="パス_9" data-name="パス 9" d="M106.7,46.177V43.925h9.868a30.853,30.853,0,0,1-2.212,5.569,37.872,37.872,0,0,1,3.522,5.855h-2.961a21.6,21.6,0,0,0-1.83-3.534,6.492,6.492,0,0,1-5.609,3.685H105.76V53.192h.859c2.075.014,3.139-.505,4.15-2.02a25.968,25.968,0,0,0,2.4-5Z" transform="translate(83.367 69.814)" fill="#1379dc"/>
    <path id="パス_10" data-name="パス 10" d="M7.332,0,10.92,7.448,14.508,0H18.66l-5.9,11.182v5.946H9v-6.05L3.326,0Z" transform="translate(79.137 68.001)" fill="#1379dc"/>
    <path id="パス_11" data-name="パス 11" d="M24.874,0h5.131L35.68,17.127H31.7l-1.314-3.984H24.227l-1.21,3.984H19.053Zm4.694,9.846L27.294,2.858,25.165,9.846Z" transform="translate(79.787 68.001)" fill="#1379dc"/>
    <path id="パス_12" data-name="パス 12" d="M51.428,3.275h-9.2c-1.294.021-1.523.209-1.544,1.21V5.57c.021.792.271.917,1.857.938h5.32c2.045.021,2.42.064,3.108.459.9.563,1.21,1.232,1.231,2.671v3.713a3.5,3.5,0,0,1-1.626,3.212c-.856.418-1.773.543-4.047.563h-9.6v-3.3h8.8c2.274-.021,2.525-.125,2.546-1.023V11.14c-.021-1.085-.459-1.293-2.733-1.314H40.559c-2.566-.021-3.713-.917-3.734-2.962V3.838C36.887,1.148,37.952.063,40.6,0H51.428Z" transform="translate(80.52 68)" fill="#1379dc"/>
    <path id="パス_13" data-name="パス 13" d="M57.988,0V6.551h7.3V0H69V17.128H65.29V9.847h-7.3v7.281H54.3V0Z" transform="translate(81.242 68.001)" fill="#1379dc"/>
    <rect id="長方形_1" data-name="長方形 1" width="3.776" height="17.128" transform="translate(154.21 68)" fill="#1379dc"/>
    <path id="パス_14" data-name="パス 14" d="M85.168,0,88.38,11.162,91.156,0H97V17.128H93.367V5.4L90.3,17.128H86.4L83.249,5.654V17.128H79.66V0Z" transform="translate(82.289 68.001)" fill="#1379dc"/>
    <path id="パス_15" data-name="パス 15" d="M104.134,0h5.132l5.675,17.127h-3.985l-1.314-3.984h-6.154l-1.21,3.984H98.313Zm4.694,9.846-2.274-6.988-2.128,6.988Z" transform="translate(83.059 68.001)" fill="#1379dc"/>
    <path id="パス_16" data-name="パス 16" d="M14.917,20.036v3.276H3.734v3.254H13.748v3.3H3.734v4H14.917v3.3H0V20.036Z" transform="translate(79 68.828)" fill="#1379dc"/>
    <path id="パス_17" data-name="パス 17" d="M21.7,28.673,16.26,20.036h4.486L24,25.168l3.3-5.131H31.76l-5.528,8.387,5.821,8.741H27.609l-3.692-5.382-3.443,5.382H15.989Z" transform="translate(79.66 68.828)" fill="#1379dc"/>
    <path id="パス_18" data-name="パス 18" d="M45.218,20.035c3.087-.083,4.465,1.232,4.507,4.257V28.4c-.021,2.462-1.544,3.692-4.548,3.713H38.4v5.048H34.661V20.035ZM44.008,28.8c1.544-.021,1.9-.312,1.919-1.626v-1.92c-.021-1.418-.647-1.919-2.419-1.94H38.4V28.8Z" transform="translate(80.431 68.828)" fill="#1379dc"/>
    <path id="パス_19" data-name="パス 19" d="M62.3,20.035c3.484-.042,4.444.647,4.528,3.3v3.192c-.021,1.648-.293,2.149-1.628,2.838a2.805,2.805,0,0,1,1.565,2.817v4.986H62.951v-2.9c.021-3.046-.146-3.3-1.982-3.379H55.712v6.279H51.833V20.035Zm-1.793,7.532c2.105-.021,2.336-.168,2.419-1.523V25.022c-.021-1.482-.334-1.69-2.378-1.711h-4.84v4.256Z" transform="translate(81.14 68.828)" fill="#1379dc"/>
    <path id="パス_20" data-name="パス 20" d="M83.959,20.036v3.276H72.777v3.254H82.791v3.3H72.777v4H83.959v3.3H69.043V20.036Z" transform="translate(81.851 68.828)" fill="#1379dc"/>
    <path id="パス_21" data-name="パス 21" d="M100.476,23.311h-9.2c-1.294.021-1.523.209-1.544,1.21v1.085c.021.792.271.917,1.857.938h5.32c2.045.021,2.42.064,3.108.459.9.563,1.21,1.232,1.231,2.671v3.713A3.5,3.5,0,0,1,99.621,36.6c-.856.418-1.773.543-4.047.563h-9.6v-3.3h8.8c2.274-.021,2.525-.125,2.546-1.023V31.176c-.021-1.085-.459-1.293-2.733-1.314H89.607c-2.566-.021-3.713-.917-3.734-2.962V23.874c.062-2.691,1.127-3.776,3.776-3.839h10.827Z" transform="translate(82.546 68.828)" fill="#1379dc"/>
    <path id="パス_22" data-name="パス 22" d="M117.747,23.311h-9.2c-1.293.021-1.523.209-1.543,1.21v1.085c.02.792.27.917,1.856.938h5.321c2.044.021,2.419.064,3.108.459.9.563,1.209,1.232,1.231,2.671v3.713a3.5,3.5,0,0,1-1.628,3.212c-.856.418-1.772.543-4.046.563h-9.6v-3.3h8.8c2.274-.021,2.524-.125,2.546-1.023V31.176c-.022-1.085-.46-1.293-2.733-1.314h-4.987c-2.565-.021-3.713-.917-3.733-2.962V23.874c.061-2.691,1.127-3.776,3.776-3.839h10.827Z" transform="translate(83.259 68.828)" fill="#1379dc"/>
  </g>
</svg>
