<svg xmlns="http://www.w3.org/2000/svg" xmlns:xlink="http://www.w3.org/1999/xlink" width="76" height="95" viewBox="0 0 76 95">
  <defs>
    <clipPath id="clip-path">
      <rect id="長方形_581" data-name="長方形 581" width="47.909" height="65.178" fill="none"/>
    </clipPath>
  </defs>
  <g id="グループ_1402" data-name="グループ 1402" transform="translate(-1550 -4538)">
    <rect id="長方形_582" data-name="長方形 582" width="76" height="95" transform="translate(1550 4538)" fill="none"/>
    <g id="グループ_1401" data-name="グループ 1401" transform="translate(163.619 -3.802)">
      <g id="グループ_1396" data-name="グループ 1396" transform="translate(1400.426 4541.802)">
        <rect id="長方形_580" data-name="長方形 580" width="0.055" height="0.055" transform="translate(4.802 65.123)"/>
        <g id="グループ_1395" data-name="グループ 1395">
          <g id="グループ_1394" data-name="グループ 1394" clip-path="url(#clip-path)">
            <path id="パス_2622" data-name="パス 2622" d="M44.8,163.674H30.652a12.1,12.1,0,0,0-12.1,12.1v1.222H56.9v-1.222a12.1,12.1,0,0,0-12.1-12.1" transform="translate(-13.796 -121.698)"/>
            <path id="パス_2623" data-name="パス 2623" d="M43.378,14.4a2.706,2.706,0,0,0-.87.129C40.083,6.128,32.674,0,23.932,0S7.789,6.122,5.361,14.513a2.724,2.724,0,0,0-.829-.118C3.022,14.4,0,18.259,0,21.657s3.185,7.328,4.7,7.328c1.856,0,1.8-2,1.8-2V17.454c1.369-8.9,8.665-15.708,17.435-15.708,8.868,0,16.229,6.964,17.48,16.005v9.235a2.6,2.6,0,0,0,.078.623c-1.51,4.908-5.483,8.01-12.018,9.376-.608-1.148-2.8-2-5.42-2-3.086,0-5.588,1.183-5.588,2.641s2.5,2.641,5.588,2.641a7.944,7.944,0,0,0,4.887-1.361C36.3,37.57,40.972,34.24,42.927,28.966a2.29,2.29,0,0,0,.286.019c1.51,0,4.7-3.931,4.7-7.328S44.888,14.4,43.378,14.4"/>
            <path id="パス_2624" data-name="パス 2624" d="M41.4,48.548c.8-1.066,3.129-1.838,5.885-1.838,2.693,0,4.983.737,5.828,1.766a15.919,15.919,0,1,0-11.713.072" transform="translate(-23.234 -13.229)"/>
          </g>
        </g>
      </g>
      <path id="パス_2626" data-name="パス 2626" d="M3.927-8.435A2.941,2.941,0,0,0,2.64-6.275a1.783,1.783,0,0,0,1.276,1.69,7.9,7.9,0,0,0,2.574.347A18.258,18.258,0,0,0,9.512-4.5a3.478,3.478,0,0,1,.381-.056l-.1-.918a10.618,10.618,0,0,1-3.358.425,7.127,7.127,0,0,1-2.048-.224c-.627-.213-.951-.582-.951-1.1S3.77-7.406,4.5-8.01ZM3.256-11.3c.157.011.157.011.369.034a21.894,21.894,0,0,0,2.462.146,8.847,8.847,0,0,0,1.69-.146A17.407,17.407,0,0,0,5.8-10.081l.571.459a17.071,17.071,0,0,1,2.821-1.7l-.056-.739a12.241,12.241,0,0,1-2.832.235A12.8,12.8,0,0,1,3.323-12.1ZM8.348-9.868A8.728,8.728,0,0,1,9.49-8.088l.56-.336a8.922,8.922,0,0,0-1.142-1.735Zm1.242-.649A9.387,9.387,0,0,1,10.732-8.76l.56-.313a8.63,8.63,0,0,0-1.164-1.746Zm6.391-.884H14.739a6.8,6.8,0,0,1-1.03-.067v.761a5.884,5.884,0,0,1,1-.056h2.328a10.276,10.276,0,0,1-.548,2.91,25.5,25.5,0,0,0-1.8-2.026l-.526.448a19.455,19.455,0,0,1,2.026,2.283A7.836,7.836,0,0,1,13.6-4.092a1.972,1.972,0,0,1,.56.537,9.107,9.107,0,0,0,2.485-2.988A20.847,20.847,0,0,1,18.008-4.35l.56-.537a21.884,21.884,0,0,0-1.6-2.35,10.74,10.74,0,0,0,.795-3.526,7.893,7.893,0,0,1,1.019.045v-.75a6.8,6.8,0,0,1-1.03.067H16.687v-.75a8.261,8.261,0,0,1,.056-1.13h-.828a6.4,6.4,0,0,1,.067,1.13Zm5.708,1.321V-4.35c0,.235-.09.28-.593.28a10.745,10.745,0,0,1-1.433-.123,2.686,2.686,0,0,1,.235.75c.492.022.772.034,1.276.034,1.007,0,1.231-.168,1.231-.907v-5.764h.269a6.712,6.712,0,0,1,1.1.067v-.772a6.982,6.982,0,0,1-1.086.067h-.28v-1.254a7.578,7.578,0,0,1,.067-1.22h-.862a6.417,6.417,0,0,1,.078,1.22v1.254H19.944a6.457,6.457,0,0,1-1.063-.056v.761a6.909,6.909,0,0,1,1.052-.067ZM18.657-8.8A9.834,9.834,0,0,1,20.269-6.23l.616-.425a12.726,12.726,0,0,0-1.657-2.5Zm12.223-3.369H27.925a8.566,8.566,0,0,1-1.13-.056,12.057,12.057,0,0,1,.056,1.511c0,4.041-.2,5.339-1.041,6.772a2.945,2.945,0,0,1,.627.515,7.11,7.11,0,0,0,.873-2.541,32.81,32.81,0,0,0,.269-5.552h7.208a8.608,8.608,0,0,1,1.209.056v-.772a7.688,7.688,0,0,1-1.209.067H31.607v-.582a2.5,2.5,0,0,1,.067-.716h-.862a3.589,3.589,0,0,1,.067.705ZM28.35-4.428A11.117,11.117,0,0,0,29.335-8.3l-.705-.19a8.466,8.466,0,0,1-.951,3.66Zm1.8-5.037a5.479,5.479,0,0,1,.067,1.007v4.276c0,.66.269.772,1.847.772,1.086,0,1.522-.078,1.757-.347a4.588,4.588,0,0,0,.459-2.362,2.585,2.585,0,0,1-.716-.28v.28a6.416,6.416,0,0,1-.19,1.735c-.112.235-.392.3-1.354.3a3.685,3.685,0,0,1-.907-.067c-.146-.056-.179-.112-.179-.291V-8.446A5.536,5.536,0,0,1,31-9.465Zm3.347.123a14.153,14.153,0,0,0-2.72-1.768l-.47.492a9.83,9.83,0,0,1,2.7,1.847ZM36.1-4.91A16.184,16.184,0,0,0,34.73-8.581l-.649.28a11.906,11.906,0,0,1,1.287,3.7Z" transform="translate(1406.354 4640.211)"/>
    </g>
  </g>
</svg>
