<svg xmlns="http://www.w3.org/2000/svg" xmlns:xlink="http://www.w3.org/1999/xlink" width="76" height="95" viewBox="0 0 76 95">
  <defs>
    <clipPath id="clip-path">
      <rect id="長方形_581" data-name="長方形 581" width="43.403" height="59.047" fill="none"/>
    </clipPath>
  </defs>
  <g id="グループ_1399" data-name="グループ 1399" transform="translate(558 -4800.406)">
    <rect id="長方形_583" data-name="長方形 583" width="76" height="95" transform="translate(-558 4800.406)" fill="none"/>
    <g id="グループ_1398" data-name="グループ 1398" transform="translate(-1751.93 267.53)">
      <path id="パス_2477" data-name="パス 2477" d="M5.364-5.9A11.473,11.473,0,0,0,3.823-7.906a10.369,10.369,0,0,0,.821-3.3H5.3v-.811H2.89l.578-.233a7.907,7.907,0,0,0-.608-1.3l-.73.314a5.417,5.417,0,0,1,.588,1.217H.528v.811H3.782a8.345,8.345,0,0,1-.6,2.626,19.587,19.587,0,0,0-1.795-1.633L.8-9.619A15.958,15.958,0,0,1,2.809-7.784,7.6,7.6,0,0,1,.416-5.077l.568.75A9,9,0,0,0,3.417-7.094,12.415,12.415,0,0,1,4.665-5.371Zm3.63-7.646H8.133V-11.6H5.506v.842H8.133v5.536c0,.243-.081.233-.324.233L6.206-5l.213.872H7.96c.8,0,1.034-.324,1.034-.872v-5.76h.933V-11.6H8.994ZM7.413-6.993a13.658,13.658,0,0,0-1.4-2.718L5.253-9.3A11.408,11.408,0,0,1,6.591-6.6Zm8.315-6.338a6.727,6.727,0,0,1,.466.811H12.5v4.076a10.825,10.825,0,0,1-.284,2.19,4.677,4.677,0,0,1-.669,1.44l.669.649a7.371,7.371,0,0,0,1.126-4.32v-3.235H20.99v-.8H17.076a7.867,7.867,0,0,0-.517-1.065ZM13.963-5.056a9.449,9.449,0,0,0,1.024-3.63l-.74-.132a8.914,8.914,0,0,1-.953,3.356Zm1.764-4.31v4.31c0,.324.1.75.811.75H18.11a.948.948,0,0,0,.872-.436,7.346,7.346,0,0,0,.335-1.947l-.852-.193a13.677,13.677,0,0,1-.152,1.572c-.041.132-.091.223-.375.223H16.863c-.223,0-.324-.01-.324-.274V-9.366Zm2.657-.477a9.933,9.933,0,0,0-2.3-1.562l-.507.649A7.652,7.652,0,0,1,17.816-9.2ZM21.162-5.31a19.892,19.892,0,0,0-1.237-3.873l-.811.284a13.586,13.586,0,0,1,1.2,3.823ZM27.53-9.873a1.043,1.043,0,0,0-1.044,1.044A1.043,1.043,0,0,0,27.53-7.784a1.049,1.049,0,0,0,1.044-1.044A1.049,1.049,0,0,0,27.53-9.873ZM42.244-7.023c-.183-.487-.811-2.221-1.44-3.508.02-.142.02-.152.051-.406h1.42V-5.32c0,.274-.051.335-.314.335L40.793-5l.213.852h1.338c.72,0,.72-.507.72-.71V-11.7h-2.16v-1.815h-.781V-11.7H38.015v7.554h.8v-6.794h1.278a6.386,6.386,0,0,1-1.268,3.752l.517.73a8.551,8.551,0,0,0,1.278-2.87c.345.963.69,1.937.913,2.789Zm-5.79-2.718a4.53,4.53,0,0,1,.416.963c-.436.091-.943.172-1.521.254a31.812,31.812,0,0,0,2.211-3.8l-.791-.294A15.9,15.9,0,0,1,36-11.008c-.466.1-.679.142-1.115.2a16.033,16.033,0,0,0,1.207-2.515l-.8-.223a18.091,18.091,0,0,1-1.126,2.606c-.122.213-.172.233-.274.254l.152.74c.243-.041.375-.061,1.521-.274a16.23,16.23,0,0,1-.973,1.531.826.826,0,0,1-.517.335l.193.74a27.756,27.756,0,0,0,2.849-.466c.071.253.1.345.132.466l.7-.3a13.354,13.354,0,0,0-.821-2.109ZM34.4-7.034a13.217,13.217,0,0,1-.578,2.586L34.5-4.2A12.512,12.512,0,0,0,35.1-6.912Zm3.569,2.018a16.747,16.747,0,0,0-.629-2.292l-.679.223a13.3,13.3,0,0,1,.6,2.363Zm-1.45.426a15.505,15.505,0,0,0-.335-2.444l-.7.152a15.951,15.951,0,0,1,.3,2.464Zm16.914-.061v.517h.781v-4.6H50.2v4.6h.781v-.517ZM50.984-5.4V-8h2.444v2.6Zm-2.454.75v.517h.781v-4.6H45.427v4.6h.781v-.517ZM46.208-5.4V-8H48.53v2.6Zm.213-7.808V-9.65h6.824v-3.559Zm.811.74h5.212v2.058H47.232Z" transform="translate(1204.617 4632)"/>
      <g id="グループ_1396" data-name="グループ 1396" transform="translate(1209.681 4541.802)">
        <rect id="長方形_580" data-name="長方形 580" width="0.05" height="0.05" transform="translate(4.35 58.998)"/>
        <g id="グループ_1395" data-name="グループ 1395">
          <g id="グループ_1394" data-name="グループ 1394" clip-path="url(#clip-path)">
            <path id="パス_2622" data-name="パス 2622" d="M42.335,163.674H29.514a10.96,10.96,0,0,0-10.96,10.96v1.107H53.295v-1.107a10.96,10.96,0,0,0-10.96-10.96" transform="translate(-14.243 -125.646)"/>
            <path id="パス_2623" data-name="パス 2623" d="M39.3,13.041a2.452,2.452,0,0,0-.789.117A17.765,17.765,0,0,0,21.681,0,17.765,17.765,0,0,0,4.857,13.148a2.468,2.468,0,0,0-.751-.107C2.737,13.041,0,16.542,0,19.62s2.886,6.639,4.254,6.639c1.682,0,1.632-1.811,1.632-1.811V15.812c1.24-8.059,7.85-14.231,15.8-14.231,8.034,0,14.7,6.309,15.835,14.5v8.367a2.353,2.353,0,0,0,.071.564C36.22,29.459,32.62,32.269,26.7,33.506c-.551-1.04-2.54-1.81-4.91-1.81-2.8,0-5.062,1.071-5.062,2.393s2.266,2.393,5.062,2.393a7.2,7.2,0,0,0,4.428-1.233c6.663-1.213,10.9-4.23,12.671-9.008a2.074,2.074,0,0,0,.26.018c1.368,0,4.254-3.561,4.254-6.639s-2.737-6.579-4.105-6.579"/>
            <path id="パス_2624" data-name="パス 2624" d="M40.447,45.655c.72-.966,2.835-1.665,5.331-1.665,2.44,0,4.514.668,5.28,1.6a14.421,14.421,0,1,0-10.611.066" transform="translate(-23.988 -13.658)"/>
          </g>
        </g>
      </g>
    </g>
  </g>
</svg>
