<svg xmlns="http://www.w3.org/2000/svg" width="76" height="95" viewBox="0 0 76 95">
  <g id="グループ_1401" data-name="グループ 1401" transform="translate(-793 -184.832)">
    <g id="グループ_1397" data-name="グループ 1397">
      <path id="Icon_awesome-user-tie" data-name="Icon awesome-user-tie" d="M20.387,23.3A11.649,11.649,0,1,0,8.737,11.649,11.649,11.649,0,0,0,20.387,23.3Zm8.719,2.967-4.35,17.42L21.843,31.308l2.912-5.1H16.018l2.912,5.1L16.018,43.686l-4.35-17.42A12.211,12.211,0,0,0,0,38.443v3.786A4.37,4.37,0,0,0,4.369,46.6H36.4a4.37,4.37,0,0,0,4.369-4.369V38.443A12.211,12.211,0,0,0,29.106,26.266Z" transform="translate(808.91 193.47)"/>
      <path id="Icon_awesome-satellite-dish" data-name="Icon awesome-satellite-dish" d="M30.345,0a1.032,1.032,0,0,0-1.09,1.025V3.05a1.015,1.015,0,0,0,.961,1.019A16.46,16.46,0,0,1,45.655,19.547a1.024,1.024,0,0,0,1.019.961h2.057a1.032,1.032,0,0,0,1.025-1.09A20.558,20.558,0,0,0,30.345,0Zm.019,6.152a1.034,1.034,0,0,0-1.109,1.032V9.241A1.022,1.022,0,0,0,30.2,10.26a10.236,10.236,0,0,1,9.286,9.306,1.03,1.03,0,0,0,1.019.942h2.064A1.038,1.038,0,0,0,43.6,19.4,14.42,14.42,0,0,0,30.364,6.152Z" transform="translate(819.047 185.343)"/>
      <path id="パス_2477" data-name="パス 2477" d="M5.61-5.516A12.044,12.044,0,0,0,3.992-7.623a10.884,10.884,0,0,0,.862-3.459h.692v-.852H3.013l.607-.245a8.3,8.3,0,0,0-.639-1.362l-.766.33a5.686,5.686,0,0,1,.617,1.277H.533v.852H3.95a8.759,8.759,0,0,1-.628,2.757A20.561,20.561,0,0,0,1.438-10.04L.82-9.422A16.751,16.751,0,0,1,2.928-7.5,7.973,7.973,0,0,1,.416-4.654l.6.788A9.451,9.451,0,0,0,3.567-6.772,13.032,13.032,0,0,1,4.876-4.962Zm3.811-8.025h-.9V-11.5H5.759v.883H8.516V-4.8c0,.255-.085.245-.341.245L6.494-4.569l.224.915H8.335c.841,0,1.086-.341,1.086-.915v-6.046H10.4V-11.5H9.421ZM7.76-6.665A14.337,14.337,0,0,0,6.291-9.518l-.8.426A11.975,11.975,0,0,1,6.9-6.25Zm8.728-6.652a7.062,7.062,0,0,1,.49.852H13.1v4.279a11.363,11.363,0,0,1-.3,2.3,4.909,4.909,0,0,1-.7,1.511l.7.681A7.737,7.737,0,0,0,13.987-8.23v-3.4h8.025v-.841H17.9a8.257,8.257,0,0,0-.543-1.118ZM14.636-4.633a9.918,9.918,0,0,0,1.075-3.811l-.777-.138a9.357,9.357,0,0,1-1,3.523Zm1.852-4.524v4.524c0,.341.106.788.852.788h1.65A1,1,0,0,0,19.9-4.3a7.711,7.711,0,0,0,.351-2.044l-.894-.2A14.358,14.358,0,0,1,19.2-4.9c-.043.138-.1.234-.394.234H17.68c-.234,0-.341-.011-.341-.287v-4.2Zm2.789-.5A10.427,10.427,0,0,0,16.861-11.3l-.532.681a8.032,8.032,0,0,1,2.352,1.629ZM22.193-4.9a20.88,20.88,0,0,0-1.3-4.066l-.852.3A14.262,14.262,0,0,1,21.3-4.654Zm6.684-4.79a1.1,1.1,0,0,0-1.1,1.1,1.1,1.1,0,0,0,1.1,1.1,1.1,1.1,0,0,0,1.1-1.1A1.1,1.1,0,0,0,28.878-9.688ZM44.322-6.7c-.192-.511-.852-2.331-1.511-3.683.021-.149.021-.16.053-.426h1.49v5.9c0,.287-.053.351-.33.351L42.8-4.569l.224.894h1.4c.756,0,.756-.532.756-.745V-11.6H42.917v-1.905H42.1V-11.6H39.883v7.93h.841v-7.131h1.341a6.7,6.7,0,0,1-1.33,3.938l.543.766a8.975,8.975,0,0,0,1.341-3.012c.362,1.011.724,2.033.958,2.927ZM38.244-9.55a4.755,4.755,0,0,1,.436,1.011c-.458.1-.99.181-1.6.266a33.392,33.392,0,0,0,2.32-3.991l-.83-.309a16.69,16.69,0,0,1-.809,1.692c-.49.106-.713.149-1.171.213a16.83,16.83,0,0,0,1.267-2.64l-.841-.234a18.99,18.99,0,0,1-1.181,2.735c-.128.224-.181.245-.287.266l.16.777c.255-.043.394-.064,1.6-.287a17.034,17.034,0,0,1-1.022,1.607.867.867,0,0,1-.543.351l.2.777a29.136,29.136,0,0,0,2.991-.49c.075.266.106.362.138.49l.734-.319a14.017,14.017,0,0,0-.862-2.214ZM36.084-6.708a13.874,13.874,0,0,1-.607,2.714l.713.255a13.134,13.134,0,0,0,.639-2.842ZM39.83-4.59A17.579,17.579,0,0,0,39.17-7l-.713.234a13.959,13.959,0,0,1,.628,2.48Zm-1.522.447a16.276,16.276,0,0,0-.351-2.565l-.734.16a16.743,16.743,0,0,1,.319,2.586Zm17.754-.064v.543h.82V-8.5h-4.2v4.832h.82v-.543ZM53.5-4.994V-7.719h2.565v2.725Zm-2.576.788v.543h.82V-8.5H47.664v4.832h.82v-.543Zm-2.437-.788V-7.719h2.437v2.725Zm.224-8.2v3.736h7.163V-13.19Zm.852.777H55.03v2.161H49.559Z" transform="translate(801.223 282.874)"/>
    </g>
    <rect id="長方形_580" data-name="長方形 580" width="76" height="95" transform="translate(793 184.832)" fill="none"/>
  </g>
</svg>
