<svg xmlns="http://www.w3.org/2000/svg" width="76" height="95" viewBox="0 0 76 95">
  <g id="グループ_1400" data-name="グループ 1400" transform="translate(-655 -184.832)">
    <g id="グループ_1396" data-name="グループ 1396">
      <path id="Icon_simple-minutemailer" data-name="Icon simple-minutemailer" d="M8.974,24.421l-1.882.595L6.9,24.742l.778-.755-1.02.412a10.386,10.386,0,0,0-3.4,17.243A10.313,10.313,0,0,1,1.9,36.525a10.645,10.645,0,0,1,6.58-9.789l.48-1.168-1.144.5Z" transform="translate(669.174 198.522)"/>
      <path id="Icon_simple-minutemailer-2" data-name="Icon simple-minutemailer" d="M15.807,4.055l8.968,9.707L18.448,26.233,31.81,23.839l6.083,14.677L63.732,4.634Zm9.691,15.9,4.154-7.333L54.082,6.9,25.5,19.958Z" transform="translate(660.51 196.487)"/>
      <path id="パス_2478" data-name="パス 2478" d="M5.043-10.891H7.576v-.883H5.043v-1.352H4.106v1.352H1.541v.883H4.106v1.543C3.138-8.975,1.36-8.283,1.36-6.474A2.114,2.114,0,0,0,3.712-4.388c1.15,0,1.33-.564,1.33-1.064V-8.709A7.866,7.866,0,0,1,6.49-8.837c2.171,0,2.533,1.256,2.533,1.927,0,1.767-1.969,1.809-2.916,1.82l.16.883a6.487,6.487,0,0,0,1.895-.255,2.447,2.447,0,0,0,1.895-2.416A2.622,2.622,0,0,0,9.013-9.018a4.482,4.482,0,0,0-2.64-.66,7.426,7.426,0,0,0-1.33.128ZM4.117-5.612c0,.2-.075.309-.436.309A1.266,1.266,0,0,1,2.265-6.527c0-1.16,1.224-1.671,1.852-1.937Zm3.523-6.94a8.074,8.074,0,0,1,2.012,2.8l.873-.511a7.691,7.691,0,0,0-2.15-2.81Zm14.369-.564H18.018v3.832h3.14V-4.8c0,.17-.011.309-.309.309L19.487-4.5l.1.852h1.682c.628,0,.745-.319.745-.852Zm-.852,1.6h-2.3v-.894h2.3Zm0,1.543h-2.3v-.937h2.3Zm-8.2-3.14v9.462H13.8V-9.284h3.119v-3.832Zm3.119,1.6H13.813v-.894H16.08Zm0,1.543H13.813v-.937H16.08ZM19.8-8.358H15.144V-4.9H19.8ZM19-5.644H15.953v-1.99H19Zm15.274-4.7a17.119,17.119,0,0,1-4.588-2.608c.011-.011.2-.213.3-.319l-.809-.309a11.646,11.646,0,0,1-5.045,3.214l.532.841c.639-.3.937-.436,1.788-.894v.756h5.545v-.766a15.113,15.113,0,0,0,1.756.915Zm-7.738-.128a12.854,12.854,0,0,0,2.629-1.948,20.887,20.887,0,0,0,2.767,1.948ZM32.078-4.26v.543h.9v-4.7h-7.6v4.7h.894V-4.26Zm-5.8-.8V-7.623h5.8v2.565Zm12.634-5.79v-2.193h-.947v2.225l-1.682.032.011.9,1.671-.043v2.757c0,2.842,1.554,2.842,4.109,2.842.947,0,1.213-.011,2.555-.064l-.011-.926c-.553.043-1.277.1-3.012.1-1.905,0-2.714,0-2.7-1.809l.011-2.916,3.842-.1c0,1.448,0,1.607-.021,1.916-.043.575-.309.6-.7.6a5.368,5.368,0,0,1-1.245-.138l-.032.873a7.19,7.19,0,0,0,1.352.138c1.426,0,1.629-.639,1.629-2.193,0-.181-.011-1.022-.021-1.213l1.831-.053-.011-.894-1.831.053c0-.319-.011-1.863-.021-2.214l-.979.011c.021.788.032.862.043,2.225Z" transform="translate(669.146 282.874)"/>
    </g>
    <rect id="長方形_581" data-name="長方形 581" width="76" height="95" transform="translate(655 184.832)" fill="none"/>
  </g>
</svg>
