<svg xmlns="http://www.w3.org/2000/svg" width="76" height="95" viewBox="0 0 76 95">
  <g id="グループ_1398" data-name="グループ 1398" transform="translate(-395 -184.832)">
    <g id="グループ_1394" data-name="グループ 1394">
      <path id="Icon_ionic-ios-search" data-name="Icon ionic-ios-search" d="M41.266,39.011,30.919,28.568a14.745,14.745,0,1,0-2.238,2.267L38.96,41.211a1.592,1.592,0,0,0,2.248.058A1.6,1.6,0,0,0,41.266,39.011ZM19.332,30.961a11.643,11.643,0,1,1,8.235-3.41A11.571,11.571,0,0,1,19.332,30.961Z" transform="translate(403.958 195.133)" stroke="#000" stroke-width="1"/>
      <path id="パス_2480" data-name="パス 2480" d="M4.77-13.345c.181.255.277.383.383.564H.576v.766H2.928A7.485,7.485,0,0,1,3.3-10.662H1.119v6.993H2V-9.928H9v5.045c0,.224-.053.341-.266.341L7.495-4.553l.181.883H9.155a.671.671,0,0,0,.734-.777v-6.216H7.7a13.78,13.78,0,0,0,.436-1.352h2.32v-.766H6.111a8.14,8.14,0,0,0-.479-.852ZM7.2-12.014a7.523,7.523,0,0,1-.373,1.352H4.174A8.326,8.326,0,0,0,3.8-12.014Zm.5,4.236H3.333V-4.9H7.7Zm-.83.766V-5.66H4.152V-7.012ZM2.8-7.533A6.693,6.693,0,0,0,4.876-9.4l-.681-.415A3.815,3.815,0,0,1,2.226-8.257Zm5.875-.639a11.027,11.027,0,0,0-2.065-1.66l-.564.479a10.89,10.89,0,0,1,2,1.735ZM20.991-4.223v.543h.82V-8.512h-4.2V-3.68h.82v-.543ZM18.426-5.01V-7.735h2.565V-5.01Zm-2.576.788v.543h.82V-8.512H12.593V-3.68h.82v-.543ZM13.413-5.01V-7.735H15.85V-5.01Zm.224-8.2V-9.47H20.8v-3.736Zm.852.777h5.471v2.161H14.488ZM34.03-4.457a3.919,3.919,0,0,1-2.618-2.2H33.5V-9.609H31.1v-.979h1.49v-.373c.458.309.649.426.979.617l.5-.756a10.255,10.255,0,0,1-2.948-1.98c.021-.043.16-.213.192-.255l-.83-.287a7.545,7.545,0,0,1-3.151,2.5l.468.777a11.759,11.759,0,0,0,1.032-.607v.362h1.426v.979H27.867V-6.66h2.161A3.638,3.638,0,0,1,27.281-4.4l.436.777a4.44,4.44,0,0,0,3.044-2.65A4.763,4.763,0,0,0,33.6-3.659Zm-4.662-6.865a8.978,8.978,0,0,0,1.32-1.224A14.061,14.061,0,0,0,32.1-11.322Zm3.31,2.448v1.479H31.039A7.754,7.754,0,0,0,31.1-8.629v-.245Zm-3.97,1.479V-8.874h1.554v.266A8,8,0,0,1,30.2-7.395Zm-.969-.734c-.181-.33-.937-1.543-1.4-2.31v-.234h.926v-.809h-.926v-2.065h-.841v2.065H24v.809h1.426a8.618,8.618,0,0,1-1.607,3.619L24.195-6a8.643,8.643,0,0,0,1.3-2.778v5.109h.841V-9.215a16.842,16.842,0,0,1,.734,1.746Zm13.347,1.5c2.065-.117,2.288-.128,3.034-.192a7.39,7.39,0,0,1,.724.82l.607-.607a12.742,12.742,0,0,0-2.427-2.225l-.617.553a9.786,9.786,0,0,1,1.022.809c-2.576.149-2.863.17-4.886.234a17.578,17.578,0,0,0,4.321-2.246l-.724-.447a8.651,8.651,0,0,1-1.267.862c-.553.064-1.682.117-2.235.149a17.708,17.708,0,0,0,2.139-1.33H44.5v1.256h.883v-2.022H41.076v-.9h4.311v-.788H41.076v-.82H40.2v.82H35.935v.788H40.2v.9H35.892v2.022h.873v-1.256h2.757A5.493,5.493,0,0,1,37.127-8.97l.181.734a21.919,21.919,0,0,0,2.267-.138,8.877,8.877,0,0,1-3.151,1.107l.138.788c1.511-.032,1.724-.043,3.651-.117v1.863c0,.224-.149.224-.266.224l-1.139-.021.181.83h1.352a.748.748,0,0,0,.745-.788ZM36.222-3.8a8.438,8.438,0,0,0,2.757-2.044l-.692-.479A7.837,7.837,0,0,1,35.669-4.5Zm9.292-.681a23.785,23.785,0,0,0-2.735-1.863l-.617.479A24.948,24.948,0,0,1,44.94-3.818Z" transform="translate(408.632 282.89)"/>
    </g>
    <rect id="長方形_583" data-name="長方形 583" width="76" height="95" transform="translate(395 184.832)" fill="none"/>
  </g>
</svg>
