<svg xmlns="http://www.w3.org/2000/svg" width="469.117" height="86.22" viewBox="0 0 469.117 86.22">
  <path id="パス_2501" data-name="パス 2501" d="M32.653-41.123V-69.291H43.47c17.458,0,27.954-11.674,27.954-28.061,0-15.53-10.71-24.313-26.24-24.313H18.515v80.542Zm9.211-68.439c9.318,0,14.138,5.141,14.138,13.6,0,9.746-5.569,14.566-14.78,14.566H32.653v-28.168Zm67.261,68.439v-80.542H94.559v80.542ZM197.379-54.4a80.282,80.282,0,0,1-14.352,1.178c-18.1,0-32.024-6.748-32.024-28.383,0-19.814,13.281-28.168,29.561-28.168a72.662,72.662,0,0,1,16.173,1.928v-13.5a81.459,81.459,0,0,0-17.458-1.5c-23.134,0-43.806,13.281-43.806,42.735,0,28.49,19.279,40.164,44.448,40.164a126.739,126.739,0,0,0,17.458-1.392ZM288.2-41.123l-32.56-43.27,31.7-37.272H269.567l-31.06,38.236,31.06,42.306Zm-51.2,0v-80.542H222.548v80.542ZM389.095-74.539c0,15.209-6.212,22.278-17.993,22.278-13.816,0-19.064-8.568-19.064-22.278v-47.126H337.685v50.446c0,20.885,12.96,31.6,32.345,31.6,17.886,0,33.416-10.6,33.416-31.6v-50.446H389.095ZM445.86-41.123V-69.291h10.817c17.458,0,27.954-11.674,27.954-28.061,0-15.53-10.71-24.313-26.24-24.313H431.722v80.542Zm9.211-68.439c9.318,0,14.138,5.141,14.138,13.6,0,9.746-5.569,14.566-14.78,14.566H445.86v-28.168Z" transform="translate(-17.015 124.343)" fill="#01124d" stroke="#01124d" stroke-width="3"/>
</svg>
