<?xml version="1.0" encoding="UTF-8"?><svg id="_イヤー_2" xmlns="http://www.w3.org/2000/svg" xmlns:xlink="http://www.w3.org/1999/xlink" viewBox="0 0 101.93 101.93"><defs><style>.cls-1{fill:none;}.cls-2{clip-path:url(#clippath);}.cls-3{fill:#707070;}.cls-4{clip-path:url(#clippath-1);}.cls-5{isolation:isolate;}</style><clipPath id="clippath"><rect class="cls-1" x="25.43" y="73.57" width="50.16" height="13.8"/></clipPath><clipPath id="clippath-1"><rect class="cls-1" x="25.43" y="73.57" width="50.16" height="13.8"/></clipPath></defs><g id="_イヤー_1-2"><g><g class="cls-5"><g class="cls-2"><g class="cls-5"><g class="cls-4"><g><path class="cls-3" d="M26.33,84.13c.07-.46,.1-.8,.1-1.4v-6.46c0-.53-.02-.9-.1-1.42,.43,.02,.8,.04,1.37,.04h2.47c1.93,0,3,.97,3,2.7,0,1.82-1.12,2.87-3.06,2.87h-2.57v2.27c0,.6,.02,.98,.1,1.42h-1.31Zm3.78-4.67c1.21,0,1.9-.66,1.9-1.83s-.65-1.76-1.9-1.76h-2.57v3.6h2.57Z"/><path class="cls-3" d="M35.77,74.88c-.07,.43-.1,.84-.1,1.4v6.44c0,.58,.02,.98,.1,1.4h-1.33c.07-.46,.1-.77,.1-1.4v-6.44c0-.65-.02-.96-.1-1.4h1.33Z"/><path class="cls-3" d="M44.03,77.59c-.17-.52-.3-.76-.55-1.06-.46-.54-1.15-.83-1.98-.83-1.88,0-3.05,1.45-3.05,3.78s1.19,3.8,3.05,3.8c.92,0,1.69-.35,2.15-.97,.25-.35,.36-.64,.47-1.18l1.2,.25c-.22,.74-.38,1.13-.7,1.54-.67,.88-1.8,1.37-3.15,1.37-1.19,0-2.18-.37-2.88-1.09-.84-.85-1.31-2.17-1.31-3.68s.5-2.9,1.42-3.79c.71-.68,1.63-1.03,2.78-1.03s2.06,.32,2.75,.98c.46,.44,.68,.83,.97,1.6l-1.16,.31Z"/><path class="cls-3" d="M53.27,82.75c.68,.9,.8,1.04,1.14,1.38h-1.63c-.18-.34-.41-.7-.72-1.09l-2.71-3.57-1.37,1.36v1.91c0,.64,.02,.95,.11,1.4h-1.32c.07-.46,.1-.82,.1-1.4v-6.44c0-.59-.02-.94-.1-1.4h1.32c-.08,.38-.11,.79-.11,1.4v3.18l3.48-3.54c.46-.46,.66-.71,.85-1.04h1.67c-.43,.42-.6,.58-1.25,1.25l-2.59,2.59,3.13,4.03Z"/><path class="cls-3" d="M67.17,74.88c-.07,.42-.1,.79-.1,1.43v4.4c0,1.09-.32,1.98-.95,2.61s-1.62,.98-2.82,.98c-2.4,0-3.73-1.28-3.73-3.6v-4.38c0-.65-.02-1.04-.1-1.45h1.32c-.07,.38-.1,.78-.1,1.45v4.34c0,1.69,.94,2.64,2.63,2.64s2.61-.94,2.61-2.64v-4.34c0-.65-.02-1.03-.1-1.45h1.32Z"/><path class="cls-3" d="M68.96,84.13c.07-.46,.1-.8,.1-1.4v-6.46c0-.53-.02-.9-.1-1.42,.43,.02,.8,.04,1.37,.04h2.47c1.93,0,3,.97,3,2.7,0,1.82-1.12,2.87-3.06,2.87h-2.57v2.27c0,.6,.02,.98,.1,1.42h-1.31Zm3.78-4.67c1.21,0,1.9-.66,1.9-1.83s-.65-1.76-1.9-1.76h-2.57v3.6h2.57Z"/></g></g></g></g></g><rect class="cls-1" width="101.93" height="101.93"/><g><path d="M47.01,10.34h3.7c.2,.06,.39,.15,.59,.19,1,.16,2.01,.25,3,.47,10.27,2.26,18.12,11.25,18.88,21.61,.01,.2,.11,.4,.17,.6v3.48c-.06,.16-.15,.32-.18,.48-.16,.96-.33,1.92-.44,2.89-.08,.77-.47,1.32-1,1.85-5.18,5.15-10.36,10.31-15.49,15.52-.84,.86-1.76,1.33-2.9,1.47-.07,0-.14,0-.22,.02-.81,.14-1.61,.28-2.42,.42h-3.7c-.27-.07-.54-.15-.81-.2-.82-.13-1.65-.21-2.46-.38-5.27-1.13-9.69-3.75-13.25-7.77-3.03-3.41-4.93-7.38-5.7-11.88-.14-.81-.28-1.61-.42-2.42v-3.7c.14-.77,.28-1.54,.41-2.32,1.09-6.37,4.28-11.46,9.37-15.38,3.16-2.42,6.72-3.94,10.66-4.57,.74-.12,1.47-.26,2.21-.39m22.97,29.18c2.18-9.14-2.13-19.38-11.34-24.05-8.72-4.42-19.69-2.55-26.35,5.37-6.5,7.72-6.85,18.64-1.01,26.7,5.96,8.24,15.91,10.26,22.26,8.32,0-1.21,.02-2.44,0-3.67-.03-1.39,.11-2.75,.47-4.09,1.14-4.31,5.06-7.82,9.46-8.37,1.32-.17,2.67-.16,4.01-.21,.83-.03,1.65,0,2.52,0"/><path d="M32.24,39.25l.56,2.64-1.8,.38-1.68-7.86,2.15-.46c1.27-.27,2.24-.26,2.91,.02,.67,.28,1.09,.83,1.27,1.66,.39,1.84-.46,2.99-2.56,3.43l-.86,.18Zm-.29-1.34l.67-.14c.53-.11,.91-.31,1.14-.59,.23-.28,.3-.64,.21-1.07-.09-.4-.28-.67-.57-.8-.3-.14-.73-.14-1.31-.02l-.67,.14,.53,2.48Z"/><rect x="36.77" y="32.7" width="2.05" height="8.03" transform="translate(-6.83 8.7) rotate(-12.05)"/><path d="M41.77,35.87c.18,.82,.51,1.41,.99,1.78,.49,.37,1.05,.49,1.69,.35,.57-.12,1.17-.37,1.78-.74l.33,1.56c-.62,.3-1.29,.53-2.02,.68-1.18,.25-2.17,.1-3-.45-.82-.55-1.37-1.48-1.65-2.78-.27-1.27-.16-2.33,.34-3.18,.5-.85,1.34-1.4,2.51-1.64,.76-.16,1.46-.22,2.1-.18l.33,1.57c-.71-.08-1.35-.06-1.9,.05-.65,.14-1.11,.46-1.38,.97-.27,.51-.31,1.18-.14,2.02"/><polygon points="47.9 30.45 48.62 33.82 48.64 33.82 50.1 29.98 52.21 29.53 50.43 33.85 53.99 37.37 51.88 37.82 48.81 34.62 48.79 34.62 49.58 38.31 47.75 38.7 46.07 30.84 47.9 30.45"/><path d="M55.7,28.79l1.1,5.14c.1,.49,.27,.82,.5,.99,.23,.17,.55,.21,.97,.12,.42-.09,.7-.26,.84-.5,.14-.25,.16-.61,.06-1.11l-1.1-5.14,1.81-.39,1.07,5.01c.42,1.97-.37,3.17-2.38,3.59-2.01,.43-3.22-.34-3.64-2.31l-1.07-5.01,1.85-.4Z"/><path d="M63.88,32.5l.56,2.64-1.8,.38-1.68-7.86,2.15-.46c1.27-.27,2.24-.26,2.91,.02,.67,.28,1.1,.84,1.27,1.66,.39,1.84-.46,2.99-2.56,3.43l-.86,.18Zm-.29-1.34l.67-.14c.53-.11,.91-.31,1.14-.59,.23-.28,.3-.64,.21-1.07-.09-.4-.28-.67-.57-.8-.3-.14-.73-.14-1.31-.02l-.67,.14,.53,2.48Z"/></g></g></g></svg>