<?xml version="1.0" encoding="UTF-8"?><svg id="_イヤー_2" xmlns="http://www.w3.org/2000/svg" xmlns:xlink="http://www.w3.org/1999/xlink" viewBox="0 0 102.15 101.93"><defs><style>.cls-1{fill:none;}.cls-2{clip-path:url(#clippath);}.cls-3{fill:#fff;}.cls-4{fill:#707070;}.cls-5{clip-path:url(#clippath-1);}.cls-6{clip-path:url(#clippath-3);}.cls-7{clip-path:url(#clippath-2);}.cls-8{isolation:isolate;}</style><clipPath id="clippath"><rect class="cls-1" x=".15" y="72.63" width="102" height="13.8"/></clipPath><clipPath id="clippath-1"><rect class="cls-1" x=".15" y="72.63" width="102" height="13.8"/></clipPath><clipPath id="clippath-2"><rect class="cls-1" x="51.91" y="36.29" width="33.57" height="13.54"/></clipPath><clipPath id="clippath-3"><rect class="cls-1" x="51.91" y="36.29" width="33.57" height="13.54"/></clipPath></defs><g id="_イヤー_1-2"><g><g class="cls-8"><g class="cls-2"><g class="cls-8"><g class="cls-5"><g><path class="cls-4" d="M2.62,76.93c-.29,0-.5,.01-.77,.05v-.61c-.28,.26-.38,.35-.7,.6q-.22-.44-.5-.78c1.14-.8,1.81-1.61,2.31-2.76h.98c.49,.92,.92,1.4,1.83,2.07-.22,.25-.31,.4-.5,.77-.92-.82-1.25-1.2-1.79-2.11-.44,.85-.83,1.38-1.46,2.03,.26,.02,.37,.02,.6,.02h1.56c.35,0,.55-.01,.77-.05v.8c-.25-.02-.43-.04-.78-.04h-.36v1.21h.5c.47,0,.77-.01,1.06-.06v.89c-.29-.05-.58-.06-1.06-.06h-.5v3.24c.61-.19,.89-.29,1.64-.59l.02,.82c-.91,.37-2.19,.8-3.59,1.2-.28,.08-.41,.12-.59,.17-.2,.07-.22,.07-.3,.1l-.22-.98c.43-.01,.86-.11,2.19-.47v-3.48h-.92c-.5,0-.8,.01-1.13,.06v-.89c.3,.04,.65,.06,1.14,.06h.91v-1.21h-.37Zm-.86,5.28c-.13-.96-.26-1.52-.58-2.45l.71-.24c.26,.77,.41,1.33,.61,2.41l-.74,.28Zm2.44-.85c.29-.72,.41-1.22,.52-2l.7,.25c-.2,.94-.32,1.31-.59,1.99l-.62-.24Zm2.57-5.05c-.29,.79-.36,.98-.71,1.63-.26-.23-.46-.34-.77-.48,.55-.85,.91-1.77,1.1-2.81,.06-.31,.08-.53,.08-.78l.86,.18q-.06,.29-.14,.67c-.06,.29-.1,.48-.18,.78h1.09c.01-.3,.01-.42,.01-.72,0-.89-.01-1.19-.07-1.5h.97q-.06,.35-.07,2.22h1.08c.61,0,.92-.02,1.25-.07v.95c-.37-.05-.82-.07-1.22-.07h-1.12c-.02,.85-.06,1.56-.12,2.09h1.45c.54,0,.95-.02,1.26-.07v.95c-.37-.05-.79-.07-1.24-.07h-1.33c.22,.71,.49,1.33,.86,1.91,.52,.83,1.15,1.43,2.12,2.02-.28,.3-.37,.46-.59,.86-1.48-1.07-2.36-2.27-2.9-3.89-.31,.96-.65,1.61-1.2,2.28-.53,.65-1.02,1.07-1.92,1.62-.19-.38-.3-.54-.6-.83,1-.52,1.54-.94,2.07-1.66,.52-.68,.82-1.37,1.02-2.31h-.86c-.5,0-.9,.02-1.22,.07v-.95c.3,.05,.72,.07,1.19,.07h1.03c.06-.56,.11-1.21,.13-2.09h-1.33Z"/><path class="cls-4" d="M12.81,77.92c.28,.05,.46,.06,.92,.06h.7c.36,0,.62-.01,.9-.06-.04,.38-.05,.67-.05,1.27v2.36c.24,.48,.5,.74,1.02,.98,.59,.28,1.4,.37,3.23,.37,1.62,0,3.11-.08,4.23-.24-.18,.38-.25,.61-.32,1.02-1.32,.05-3.14,.08-4.07,.08-1.73,0-2.6-.11-3.26-.4-.54-.23-.83-.48-1.31-1.09-.43,.47-.72,.73-1.49,1.32-.13,.11-.17,.13-.3,.25l-.47-.95c.48-.19,1.12-.66,1.86-1.35v-2.76h-.74c-.4,0-.55,.01-.85,.06v-.94Zm.71-4.43c.84,.78,1.34,1.33,1.94,2.12l-.71,.64c-.66-.94-1.14-1.49-1.91-2.17l.67-.59Zm4.52,1.07c-.18-.32-.44-.68-.79-1.1l.79-.31c.36,.46,.53,.72,.94,1.42h1.22c.35-.44,.65-.92,.88-1.42l.88,.28c-.3,.49-.56,.88-.79,1.14h1.01c.56,0,.89-.02,1.19-.07v.9c-.4-.05-.74-.06-1.19-.06h-2.17c-.16,.37-.23,.54-.42,.89h1.88c.55,0,.91-.01,1.13-.05-.04,.35-.05,.73-.05,1.19v3.35c0,.49,.01,.88,.05,1.22-.26-.02-.55-.04-.89-.04h-3.93c-.4,0-.84,.01-1.15,.04,.02-.38,.04-.77,.04-1.15v-3.44c0-.41-.02-.89-.06-1.15,.29,.02,.67,.04,1.24,.04h.83c.19-.34,.31-.6,.42-.89h-1.96c-.58,0-.84,.01-1.2,.05v-.89c.26,.05,.62,.07,1.22,.07h.9Zm-.56,6.58h4.21v-.95h-4.21v.95Zm.01-3.31h4.21v-.88h-4.21v.88Zm0,1.63h4.21v-.9h-4.21v.9Z"/><path class="cls-4" d="M28.26,78.62c0,.61-.5,1.12-1.1,1.12s-1.12-.5-1.12-1.1,.5-1.12,1.12-1.12,1.1,.49,1.1,1.1Z"/><path class="cls-4" d="M30.81,77.92c.28,.05,.46,.06,.92,.06h.7c.36,0,.62-.01,.9-.06-.04,.38-.05,.67-.05,1.27v2.36c.24,.48,.5,.74,1.02,.98,.59,.28,1.4,.37,3.23,.37,1.62,0,3.11-.08,4.23-.24-.18,.38-.25,.61-.32,1.02-1.32,.05-3.14,.08-4.07,.08-1.73,0-2.6-.11-3.26-.4-.54-.23-.83-.48-1.31-1.09-.43,.47-.72,.73-1.49,1.32-.13,.11-.17,.13-.3,.25l-.47-.95c.48-.19,1.12-.66,1.86-1.35v-2.76h-.74c-.4,0-.55,.01-.85,.06v-.94Zm.71-4.43c.84,.78,1.34,1.33,1.94,2.12l-.71,.64c-.66-.94-1.14-1.49-1.91-2.17l.67-.59Zm4.52,1.07c-.18-.32-.44-.68-.79-1.1l.79-.31c.36,.46,.53,.72,.94,1.42h1.22c.35-.44,.65-.92,.88-1.42l.88,.28c-.3,.49-.56,.88-.79,1.14h1.01c.56,0,.89-.02,1.19-.07v.9c-.4-.05-.74-.06-1.19-.06h-2.17c-.16,.37-.23,.54-.42,.89h1.88c.55,0,.91-.01,1.13-.05-.04,.35-.05,.73-.05,1.19v3.35c0,.49,.01,.88,.05,1.22-.26-.02-.55-.04-.89-.04h-3.93c-.4,0-.84,.01-1.15,.04,.02-.38,.04-.77,.04-1.15v-3.44c0-.41-.02-.89-.06-1.15,.29,.02,.67,.04,1.24,.04h.83c.19-.34,.31-.6,.42-.89h-1.96c-.58,0-.84,.01-1.2,.05v-.89c.26,.05,.62,.07,1.22,.07h.9Zm-.56,6.58h4.21v-.95h-4.21v.95Zm.01-3.31h4.21v-.88h-4.21v.88Zm0,1.63h4.21v-.9h-4.21v.9Z"/><path class="cls-4" d="M45.01,77.32h-.6c-.49,0-.82,.01-1.1,.05,.04-.34,.05-.65,.05-1.13v-1.54c0-.5-.01-.84-.05-1.19,.34,.05,.7,.06,1.18,.06h1.55c.49,0,.83-.01,1.16-.06-.04,.36-.05,.62-.05,1.19v1.65c0,.52,.01,.77,.04,1-.23-.02-.52-.04-1.03-.04h-.31v1.68h.35c.46,0,.65-.01,.85-.06v.9c-.26-.04-.5-.05-.86-.05h-.34v2.31c.56-.14,.84-.24,1.57-.49v.83c-1.26,.42-2.17,.68-3.26,.96-.82,.19-.88,.22-1.27,.34l-.24-.96c.28-.02,.38-.04,.79-.11v-3c0-.6-.02-.9-.07-1.25h.94c-.05,.26-.06,.53-.06,1.22v2.85c.3-.06,.56-.12,.78-.18v-5Zm-.79-.77h2.09v-2.18h-2.09v2.18Zm7.35-2.34c.56,0,.85-.01,1.1-.06l.5,.56c-.13,.2-.17,.28-.31,.52-.64,1.08-1,1.57-1.68,2.3,.83,.64,1.55,1.03,2.79,1.52-.18,.25-.32,.54-.43,.9-1.43-.7-2.1-1.1-2.96-1.83-.66,.58-1.39,1.09-2.28,1.58,.19,.01,.41,.01,.79,.01h2.75c.49,0,.73-.01,.97-.04-.04,.26-.04,.41-.04,.98v2.27c0,.62,.01,.95,.06,1.26h-.95v-.61h-2.83v.61h-.94c.05-.29,.06-.61,.06-1.2v-2.31c0-.49,0-.65-.02-.9q-.29,.14-.54,.29c-.16-.37-.24-.52-.47-.78,1.21-.55,1.97-1.02,2.82-1.75-.48-.52-.83-.98-1.2-1.61-.28,.32-.52,.56-1.03,1.02-.18-.3-.32-.47-.58-.67,1.13-.89,1.99-2.07,2.31-3.23l.92,.23c-.04,.08-.16,.32-.35,.71-.05,.1-.07,.13-.12,.23h1.63Zm-2.51,8.58h2.83v-2.28h-2.83v2.28Zm.43-7.81c-.08,.11-.11,.16-.2,.29,.37,.7,.73,1.19,1.26,1.72,.62-.65,.97-1.13,1.45-2h-2.51Z"/><path class="cls-4" d="M59.63,79.12h-2.85c-.47,0-.78,.01-1.13,.05v-.84c.29,.05,.59,.06,1.15,.06h2.83v-.67h-2.55c-.4,0-.71,.01-.98,.05,.04-.28,.05-.49,.05-.82v-.6c0-.32-.01-.53-.05-.83,.29,.04,.58,.05,1,.05h2.54v-.68h-3.45c-.56,0-1,.02-1.37,.07v-.9c.32,.05,.7,.07,1.4,.07h3.42c0-.5-.01-.71-.07-1.02h1.01c-.07,.3-.08,.48-.08,1.02h3.59c.71,0,1.08-.02,1.4-.07v.9c-.4-.05-.79-.07-1.36-.07h-3.63v.68h2.76c.42,0,.7-.01,.98-.05-.04,.3-.05,.48-.05,.83v.6c0,.35,.01,.52,.05,.82-.28-.04-.58-.05-.96-.05h-2.78v.67h2.64c.7,0,1.01-.01,1.32-.05-.02,.26-.04,.47-.04,1.04v.47c.62,0,.96-.02,1.21-.07v.86c-.29-.05-.55-.06-1.21-.06v.78c0,.6,.01,.91,.07,1.22h-.94v-.48h-3.06v.9c0,.89-.26,1.08-1.51,1.08-.25,0-.61-.01-1.14-.05-.04-.35-.08-.52-.25-.88,.65,.08,1.06,.12,1.52,.12,.42,0,.53-.06,.53-.31v-.86h-2.9c-.54,0-.79,.01-1.18,.06v-.85c.35,.04,.55,.05,1.15,.05h2.93v-.78h-3.59c-.66,0-.98,.01-1.31,.06v-.86c.3,.06,.62,.07,1.29,.07h3.6v-.73Zm-2.61-2.85v.77h2.61v-.77h-2.61Zm3.47,.77h2.82v-.77h-2.82v.77Zm3.06,2.82v-.73h-3.06v.73h3.06Zm-3.06,1.51h3.06v-.78h-3.06v.78Z"/><path class="cls-4" d="M68.54,77.86c-.56,0-.91,.01-1.26,.06v-.86c.34,.05,.66,.06,1.26,.06h1.66c-.18-.49-.34-.83-.58-1.24h-1.45c-.58,0-1.01,.02-1.37,.06v-.89c.35,.05,.72,.07,1.34,.07h.7c-.22-.4-.49-.76-.94-1.22l.83-.36c.52,.64,.68,.91,1.03,1.58h.91v-.9c0-.4-.02-.72-.07-.98h.97c-.04,.23-.05,.5-.05,.96v.92h1.14v-.92c0-.42-.01-.73-.05-.96h.97c-.05,.24-.07,.59-.07,.98v.9h1.03c.48-.66,.72-1.08,.94-1.64l.88,.36c-.34,.55-.55,.89-.86,1.28h.62c.62,0,.98-.02,1.33-.07v.89c-.35-.04-.79-.06-1.37-.06h-1.36c-.2,.46-.37,.84-.6,1.24h1.62c.61,0,.92-.01,1.27-.06v.86c-.35-.05-.7-.06-1.27-.06h-3.24v.78h2.54c.58,0,.95-.01,1.27-.06v.84c-.34-.05-.7-.06-1.27-.06h-2.54v.83h3.57c.68,0,1.06-.02,1.38-.07v.9c-.43-.05-.83-.07-1.37-.07h-2.93c.95,.89,2.61,1.61,4.56,1.96-.25,.31-.36,.49-.53,.88-2.29-.65-3.42-1.26-4.73-2.53,.02,.48,.04,.72,.04,.97v.74c0,.52,.02,.89,.07,1.24h-.98c.05-.37,.07-.74,.07-1.25v-.73c0-.26,.01-.53,.04-.96-.7,.7-1.13,1.02-1.87,1.45-.74,.42-1.45,.72-2.55,1.07-.18-.37-.3-.54-.56-.84,1.88-.41,3.18-1.01,4.29-1.99h-2.73c-.54,0-.96,.02-1.38,.07v-.9c.35,.05,.72,.07,1.37,.07h3.39v-.83h-2.4c-.56,0-.94,.01-1.26,.06v-.84c.35,.05,.71,.06,1.26,.06h2.4v-.78h-3.12Zm4.67-.74c.24-.43,.38-.78,.55-1.24h-3.17c.24,.52,.34,.73,.5,1.24h2.11Z"/><path class="cls-4" d="M80.13,82.7c0,.67,.02,1.07,.07,1.37h-1.03c.05-.34,.07-.71,.07-1.38v-7.88c0-.6-.01-.94-.05-1.32,.34,.04,.65,.05,1.25,.05h1.9c.6,0,.89-.01,1.22-.05-.02,.31-.04,.66-.04,1.13v1.43c0,.52,.01,.82,.04,1.1-.32-.02-.7-.04-1.19-.04h-2.24v5.59Zm0-7.72h2.57v-.78h-2.57v.78Zm0,1.46h2.57v-.82h-2.57v.82Zm4.45,4.47c.6,.78,1.28,1.22,2.42,1.55-.2,.3-.29,.46-.42,.79-1.1-.41-1.88-1-2.52-1.88-.23,.53-.5,.91-.95,1.27-.49,.41-.98,.66-1.91,.98-.17-.31-.3-.52-.52-.74,.85-.24,1.28-.41,1.72-.71,.5-.34,.77-.68,1-1.26h-1.43c-.47,0-.76,.01-1.08,.06v-.82c.28,.05,.54,.06,1.04,.06h1.63c.04-.35,.05-.52,.06-.98h-1.49c-.44,0-.72,.01-.98,.05v-.79c.29,.05,.5,.06,.97,.06h.55c-.19-.32-.35-.55-.68-.95l.76-.26c.34,.47,.56,.8,.78,1.21h1.16c.3-.44,.43-.7,.67-1.22l.8,.22c-.22,.4-.37,.65-.62,1.01h.6c.46,0,.7-.01,.98-.06v.79c-.24-.04-.55-.05-.97-.05h-1.7c-.02,.47-.04,.65-.08,.98h1.96c.5,0,.74-.01,1.04-.06v.82c-.28-.05-.58-.06-1.04-.06h-1.75Zm4.5,1.97c0,.59-.1,.83-.42,.97-.18,.08-.47,.11-1.12,.11-.16,0-.38-.01-.66-.02-.04-.42-.07-.59-.2-.89,.54,.08,.71,.1,1.08,.1,.35,0,.43-.07,.43-.34v-5.7h-2.46c-.52,0-.85,.01-1.19,.04,.02-.34,.04-.64,.04-1.1v-1.43c0-.43-.01-.74-.04-1.13,.34,.04,.62,.05,1.22,.05h2.11c.61,0,.91-.01,1.26-.05-.05,.47-.06,.78-.06,1.32v8.07Zm-3.67-7.9h2.78v-.78h-2.78v.78Zm0,1.46h2.78v-.82h-2.78v.82Z"/><path class="cls-4" d="M90.76,77.89c.3,.05,.48,.06,.94,.06h.7c.36,0,.61-.01,.91-.06-.04,.38-.05,.67-.05,1.28v2.41c.18,.38,.32,.56,.58,.73,.67,.48,1.37,.62,3.02,.62,2.33,0,3.72-.07,4.92-.23-.22,.52-.22,.54-.31,1.03-1.09,.04-2.71,.07-4.21,.07-1.98,0-2.69-.11-3.44-.53-.41-.23-.68-.49-1.02-.96-.52,.52-.84,.8-1.36,1.19-.2,.16-.29,.23-.47,.38l-.46-.95c.49-.22,1.2-.74,1.86-1.37v-2.82h-.76c-.37,0-.55,.01-.85,.06v-.94Zm.79-4.51c.78,.72,1.18,1.14,1.97,2.13l-.72,.66c-.7-.98-1.07-1.42-1.92-2.19l.67-.6Zm3.32,1.62c-.55,0-.88,.01-1.09,.06v-.88c.3,.04,.68,.06,1.28,.06h2.01c-.01-.4-.04-.67-.08-1.03h.97c-.06,.34-.08,.62-.08,1.03h2.24c.56,0,.98-.02,1.28-.06v.88c-.29-.05-.62-.06-1.21-.06h-2.31v.82h1.97c.41,0,.62-.01,.96-.05-.04,.26-.05,.5-.05,.84v2.43c0,.32,.01,.55,.05,.8-.28-.04-.59-.05-.96-.05h-1.97v.89h2.36c.6,0,.95-.01,1.21-.06v.86c-.28-.05-.64-.06-1.21-.06h-2.36v.14c0,.37,.02,.74,.07,1.08h-.96c.06-.37,.08-.7,.08-1.07v-.16h-2.05c-.48,0-.94,.02-1.2,.05v-.85c.26,.05,.58,.06,1.2,.06h2.05v-.89h-1.77c-.35,0-.62,.01-.96,.05,.04-.3,.05-.48,.05-.8v-2.47c0-.32-.01-.49-.05-.8,.29,.04,.56,.05,.95,.05h1.79v-.82h-2.21Zm.35,1.52v.91h1.86v-.91h-1.86Zm0,1.6v.97h1.86v-.97h-1.86Zm2.66-.68h2.04v-.91h-2.04v.91Zm0,1.66h2.04v-.97h-2.04v.97Z"/></g></g></g></g></g><g class="cls-7"><g class="cls-6"><path d="M67.7,47.85c-.02,.7-.04,1.31-.06,1.94h-8.27c0-.16-.03-.31,0-.44,.7-2.61,1.41-5.22,2.12-7.82,.42-1.55,.85-3.09,1.27-4.64,.05-.19,.12-.37,.18-.56h5.03c.04,.21,.09,.42,.13,.65,.38,.2,.78,.13,1.21,.05,.04-.23,.08-.44,.12-.64,.51-.11,4.19-.13,5.01-.04,.28,.51,3.61,12.79,3.64,13.38-.46,.12-7.49,.15-8.28,.02-.02-.59-.03-1.2-.05-1.85-.69-.11-1.32-.05-2.05-.05m1.96-2.94c-.06-.85,.1-1.63-.19-2.37h-1.55c-.18,.79-.12,1.56-.11,2.37h1.85Zm-1.69-6.26c-.02,.61-.08,1.17,.03,1.74,.52,.02,1.01,.11,1.52-.07-.04-.59,.06-1.15-.08-1.71-.5-.07-.95-.1-1.47,.03"/><path d="M85.48,49.74c-.47,.11-3.28,.13-4.07,.02-1.61-4.42-3.23-8.88-4.87-13.36,.43-.17,.85-.07,1.25-.09,.39-.02,.79,0,1.15,0,.38,.49,6.36,12.81,6.54,13.44"/><path d="M58.42,36.33h2.38s.07,.05,.08,.07c0,.02,.01,.05,0,.06-1.6,4.42-3.21,8.84-4.83,13.32-1.36,.08-2.71,.02-4.13,.04,.08-.22,.12-.37,.18-.49,1.51-3.11,3.02-6.22,4.53-9.33,.51-1.05,1.01-2.1,1.52-3.15,.08-.16,.16-.31,.27-.52"/></g></g><path d="M32.43,40.48l.79,1.23h-8.45l.79-1.23h-4.26l-5.97,9.37h4.26l1.28-2.01h16.26l1.28,2.01h4.26l-5.97-9.37h-4.26Zm-9.82,4.61l.89-1.39h10.99l.89,1.39h-12.76Z"/><path d="M36.96,11.28h-15.94c-2.46,0-4.47,2.01-4.47,4.46v21.16h.03c.17,.97,1.02,1.72,2.03,1.72h20.75c1.02,0,1.87-.75,2.03-1.72h.03V15.74c0-2.46-2.01-4.46-4.47-4.46m-13.09,2.74c0-.3,.25-.55,.55-.55h9.14c.3,0,.55,.25,.55,.55v.96c0,.3-.25,.55-.55,.55h-9.14c-.3,0-.55-.25-.55-.55v-.96Zm-4.02,4.39c0-.38,.31-.69,.69-.69h16.9c.38,0,.69,.31,.69,.69v7.42c0,.38-.31,.69-.69,.69H20.54c-.38,0-.69-.31-.69-.69v-7.42Zm1.37,15.74c-1.06,0-1.92-.86-1.92-1.92s.86-1.92,1.92-1.92,1.92,.86,1.92,1.92-.86,1.92-1.92,1.92m15.53,0c-1.06,0-1.92-.86-1.92-1.92s.86-1.92,1.92-1.92,1.92,.86,1.92,1.92-.86,1.92-1.92,1.92"/><polygon points="21.36 25.01 21.36 19.24 27.29 19.24 25.14 25.01 21.36 25.01"/><polygon points="26.38 25.01 28.53 19.24 30.08 19.24 27.93 25.01 26.38 25.01"/><rect class="cls-3" x="51.66" y="31" width="36" height="11"/><path d="M55.79,36.14h26.05c.62,0,1.13-.51,1.13-1.13v-7c0-1.29-1.06-2.35-2.35-2.35h-.05s-.01-.06-.02-.09l-1.39-5.09c-.43-1.59-2.06-2.83-3.71-2.83h-13.17c-1.64,0-3.28,1.24-3.73,2.82l-1.45,5.1s-.01,.06-.02,.09h-.07c-1.29,0-2.35,1.06-2.35,2.35v7c0,.62,.51,1.13,1.13,1.13m17.16-3.3h-8.11c-.32,0-.58-.26-.58-.58s.26-.58,.58-.58h8.11c.32,0,.58,.26,.58,.58s-.26,.58-.58,.58m0-2.74h-8.11c-.32,0-.58-.26-.58-.58s.26-.58,.58-.58h8.11c.32,0,.58,.26,.58,.58s-.26,.58-.58,.58m7.42,.79c0,1.13-.91,2.04-2.04,2.04s-2.04-.91-2.04-2.04,.91-2.04,2.04-2.04,2.04,.91,2.04,2.04m-19.96-9.91c.21-.75,1.08-1.41,1.86-1.41h13.17c.78,0,1.64,.66,1.84,1.41l1.28,4.67h-19.48l1.32-4.67Zm-1.11,7.87c1.13,0,2.04,.91,2.04,2.04s-.91,2.04-2.04,2.04-2.04-.91-2.04-2.04,.91-2.04,2.04-2.04"/><path d="M76.02,38.97c0,.55,.45,1,1,1h2.62c.55,0,1-.45,1-1v-1.88h-4.62v1.88Z"/><path d="M56.99,38.97c0,.55,.45,1,1,1h2.62c.55,0,1-.45,1-1v-1.88h-4.62v1.88Z"/><rect class="cls-1" width="101.93" height="101.93"/></g></g></svg>