<?xml version="1.0" encoding="UTF-8"?><svg id="_イヤー_2" xmlns="http://www.w3.org/2000/svg" xmlns:xlink="http://www.w3.org/1999/xlink" viewBox="0 0 103.15 101.93"><defs><style>.cls-1{fill:none;}.cls-2{clip-path:url(#clippath);}.cls-3{fill:#fff;}.cls-4{fill:#707070;}.cls-5{clip-path:url(#clippath-1);}.cls-6{clip-path:url(#clippath-4);}.cls-7{clip-path:url(#clippath-3);}.cls-8{clip-path:url(#clippath-2);}.cls-9{clip-path:url(#clippath-5);}.cls-10{isolation:isolate;}</style><clipPath id="clippath"><rect class="cls-1" x="10.45" y="73.13" width="78" height="28.8"/></clipPath><clipPath id="clippath-1"><rect class="cls-1" x="10.45" y="73.13" width="78" height="13.8"/></clipPath><clipPath id="clippath-2"><rect class="cls-1" x="28.45" y="88.13" width="48" height="13.8"/></clipPath><clipPath id="clippath-3"><path class="cls-1" d="M28.96,27c0,14.91,12.09,27,27,27s27-12.09,27-27S70.87,0,55.96,0,28.96,12.09,28.96,27"/></clipPath><clipPath id="clippath-4"><rect class="cls-1" x="36.04" y="4.04" width="39.75" height="56.4"/></clipPath><clipPath id="clippath-5"><rect class="cls-1" x="36.04" y="4.04" width="39.75" height="56.4"/></clipPath></defs><g id="_イヤー_1-2"><g><g class="cls-10"><g class="cls-2"><g class="cls-10"><g class="cls-5"><g><path class="cls-4" d="M12.92,77.43c-.29,0-.5,.01-.77,.05v-.61c-.28,.26-.38,.35-.7,.6q-.22-.44-.5-.78c1.14-.8,1.81-1.61,2.31-2.76h.98c.49,.92,.92,1.4,1.83,2.07-.22,.25-.31,.4-.5,.77-.92-.82-1.25-1.2-1.79-2.11-.44,.85-.83,1.38-1.46,2.03,.26,.02,.37,.02,.6,.02h1.56c.35,0,.55-.01,.77-.05v.8c-.25-.02-.43-.04-.78-.04h-.36v1.21h.5c.47,0,.77-.01,1.06-.06v.89c-.29-.05-.58-.06-1.06-.06h-.5v3.24c.61-.19,.89-.29,1.64-.59l.02,.82c-.91,.37-2.19,.8-3.59,1.2-.28,.08-.41,.12-.59,.17-.2,.07-.22,.07-.3,.1l-.22-.98c.43-.01,.86-.11,2.19-.47v-3.48h-.92c-.5,0-.8,.01-1.13,.06v-.89c.3,.04,.65,.06,1.14,.06h.91v-1.21h-.37Zm-.86,5.28c-.13-.96-.26-1.52-.58-2.45l.71-.24c.26,.77,.41,1.33,.61,2.41l-.74,.28Zm2.44-.85c.29-.72,.41-1.22,.52-2l.7,.25c-.2,.94-.32,1.31-.59,1.99l-.62-.24Zm2.57-5.05c-.29,.79-.36,.98-.71,1.63-.26-.23-.46-.34-.77-.48,.55-.85,.91-1.77,1.1-2.81,.06-.31,.08-.53,.08-.78l.86,.18q-.06,.29-.14,.67c-.06,.29-.1,.48-.18,.78h1.09c.01-.3,.01-.42,.01-.72,0-.89-.01-1.19-.07-1.5h.97q-.06,.35-.07,2.22h1.08c.61,0,.92-.02,1.25-.07v.95c-.37-.05-.82-.07-1.22-.07h-1.12c-.02,.85-.06,1.56-.12,2.09h1.45c.54,0,.95-.02,1.26-.07v.95c-.37-.05-.79-.07-1.24-.07h-1.33c.22,.71,.49,1.33,.86,1.91,.52,.83,1.15,1.43,2.12,2.02-.28,.3-.37,.46-.59,.86-1.48-1.07-2.36-2.27-2.9-3.89-.31,.96-.65,1.61-1.2,2.28-.53,.65-1.02,1.07-1.92,1.62-.19-.38-.3-.54-.6-.83,1-.52,1.54-.94,2.07-1.66,.52-.68,.82-1.37,1.02-2.31h-.86c-.5,0-.9,.02-1.22,.07v-.95c.3,.05,.72,.07,1.19,.07h1.03c.06-.56,.11-1.21,.13-2.09h-1.33Z"/><path class="cls-4" d="M23.11,78.42c.28,.05,.46,.06,.92,.06h.7c.36,0,.62-.01,.9-.06-.04,.38-.05,.67-.05,1.27v2.36c.24,.48,.5,.74,1.02,.98,.59,.28,1.4,.37,3.23,.37,1.62,0,3.11-.08,4.23-.24-.18,.38-.25,.61-.32,1.02-1.32,.05-3.14,.08-4.07,.08-1.73,0-2.6-.11-3.26-.4-.54-.23-.83-.48-1.31-1.09-.43,.47-.72,.73-1.49,1.32-.13,.11-.17,.13-.3,.25l-.47-.95c.48-.19,1.12-.66,1.86-1.35v-2.76h-.74c-.4,0-.55,.01-.85,.06v-.94Zm.71-4.43c.84,.78,1.34,1.33,1.94,2.12l-.71,.64c-.66-.94-1.14-1.49-1.91-2.17l.67-.59Zm4.52,1.07c-.18-.32-.44-.68-.79-1.1l.79-.31c.36,.46,.53,.72,.94,1.42h1.22c.35-.44,.65-.92,.88-1.42l.88,.28c-.3,.49-.56,.88-.79,1.14h1.01c.56,0,.89-.02,1.19-.07v.9c-.4-.05-.74-.06-1.19-.06h-2.17c-.16,.37-.23,.54-.42,.89h1.88c.55,0,.91-.01,1.13-.05-.04,.35-.05,.73-.05,1.19v3.35c0,.49,.01,.88,.05,1.22-.26-.02-.55-.04-.89-.04h-3.93c-.4,0-.84,.01-1.15,.04,.02-.38,.04-.77,.04-1.15v-3.44c0-.41-.02-.89-.06-1.15,.29,.02,.67,.04,1.24,.04h.83c.19-.34,.31-.6,.42-.89h-1.96c-.58,0-.84,.01-1.2,.05v-.89c.26,.05,.62,.07,1.22,.07h.9Zm-.56,6.58h4.21v-.95h-4.21v.95Zm.01-3.31h4.21v-.88h-4.21v.88Zm0,1.63h4.21v-.9h-4.21v.9Z"/><path class="cls-4" d="M38.56,79.12c0,.61-.5,1.12-1.1,1.12s-1.12-.5-1.12-1.1,.5-1.12,1.12-1.12,1.1,.49,1.1,1.1Z"/><path class="cls-4" d="M41.11,78.42c.28,.05,.46,.06,.92,.06h.7c.36,0,.62-.01,.9-.06-.04,.38-.05,.67-.05,1.27v2.36c.24,.48,.5,.74,1.02,.98,.59,.28,1.4,.37,3.23,.37,1.62,0,3.11-.08,4.23-.24-.18,.38-.25,.61-.32,1.02-1.32,.05-3.14,.08-4.07,.08-1.73,0-2.6-.11-3.26-.4-.54-.23-.83-.48-1.31-1.09-.43,.47-.72,.73-1.49,1.32-.13,.11-.17,.13-.3,.25l-.47-.95c.48-.19,1.12-.66,1.86-1.35v-2.76h-.74c-.4,0-.55,.01-.85,.06v-.94Zm.71-4.43c.84,.78,1.34,1.33,1.94,2.12l-.71,.64c-.66-.94-1.14-1.49-1.91-2.17l.67-.59Zm4.52,1.07c-.18-.32-.44-.68-.79-1.1l.79-.31c.36,.46,.53,.72,.94,1.42h1.22c.35-.44,.65-.92,.88-1.42l.88,.28c-.3,.49-.56,.88-.79,1.14h1.01c.56,0,.89-.02,1.19-.07v.9c-.4-.05-.74-.06-1.19-.06h-2.17c-.16,.37-.23,.54-.42,.89h1.88c.55,0,.91-.01,1.13-.05-.04,.35-.05,.73-.05,1.19v3.35c0,.49,.01,.88,.05,1.22-.26-.02-.55-.04-.89-.04h-3.93c-.4,0-.84,.01-1.15,.04,.02-.38,.04-.77,.04-1.15v-3.44c0-.41-.02-.89-.06-1.15,.29,.02,.67,.04,1.24,.04h.83c.19-.34,.31-.6,.42-.89h-1.96c-.58,0-.84,.01-1.2,.05v-.89c.26,.05,.62,.07,1.22,.07h.9Zm-.56,6.58h4.21v-.95h-4.21v.95Zm.01-3.31h4.21v-.88h-4.21v.88Zm0,1.63h4.21v-.9h-4.21v.9Z"/><path class="cls-4" d="M55.31,77.82h-.6c-.49,0-.82,.01-1.1,.05,.04-.34,.05-.65,.05-1.13v-1.54c0-.5-.01-.84-.05-1.19,.34,.05,.7,.06,1.18,.06h1.55c.49,0,.83-.01,1.16-.06-.04,.36-.05,.62-.05,1.19v1.65c0,.52,.01,.77,.04,1-.23-.02-.52-.04-1.03-.04h-.31v1.68h.35c.46,0,.65-.01,.85-.06v.9c-.26-.04-.5-.05-.86-.05h-.34v2.31c.56-.14,.84-.24,1.57-.49v.83c-1.26,.42-2.17,.68-3.26,.96-.82,.19-.88,.22-1.27,.34l-.24-.96c.28-.02,.38-.04,.79-.11v-3c0-.6-.02-.9-.07-1.25h.94c-.05,.26-.06,.53-.06,1.22v2.85c.3-.06,.56-.12,.78-.18v-5Zm-.79-.77h2.09v-2.18h-2.09v2.18Zm7.35-2.34c.56,0,.85-.01,1.1-.06l.5,.56c-.13,.2-.17,.28-.31,.52-.64,1.08-1,1.57-1.68,2.3,.83,.64,1.55,1.03,2.79,1.52-.18,.25-.32,.54-.43,.9-1.43-.7-2.1-1.1-2.96-1.83-.66,.58-1.39,1.09-2.28,1.58,.19,.01,.41,.01,.79,.01h2.75c.49,0,.73-.01,.97-.04-.04,.26-.04,.41-.04,.98v2.27c0,.62,.01,.95,.06,1.26h-.95v-.61h-2.83v.61h-.94c.05-.29,.06-.61,.06-1.2v-2.31c0-.49,0-.65-.02-.9q-.29,.14-.54,.29c-.16-.37-.24-.52-.47-.78,1.21-.55,1.97-1.02,2.82-1.75-.48-.52-.83-.98-1.2-1.61-.28,.32-.52,.56-1.03,1.02-.18-.3-.32-.47-.58-.67,1.13-.89,1.99-2.07,2.31-3.23l.92,.23c-.04,.08-.16,.32-.35,.71-.05,.1-.07,.13-.12,.23h1.63Zm-2.51,8.58h2.83v-2.28h-2.83v2.28Zm.43-7.81c-.08,.11-.11,.16-.2,.29,.37,.7,.73,1.19,1.26,1.72,.62-.65,.97-1.13,1.45-2h-2.51Z"/><path class="cls-4" d="M69.93,79.62h-2.85c-.47,0-.78,.01-1.13,.05v-.84c.29,.05,.59,.06,1.15,.06h2.83v-.67h-2.55c-.4,0-.71,.01-.98,.05,.04-.28,.05-.49,.05-.82v-.6c0-.32-.01-.53-.05-.83,.29,.04,.58,.05,1,.05h2.54v-.68h-3.45c-.56,0-1,.02-1.37,.07v-.9c.32,.05,.7,.07,1.4,.07h3.42c0-.5-.01-.71-.07-1.02h1.01c-.07,.3-.08,.48-.08,1.02h3.59c.71,0,1.08-.02,1.4-.07v.9c-.4-.05-.79-.07-1.36-.07h-3.63v.68h2.76c.42,0,.7-.01,.98-.05-.04,.3-.05,.48-.05,.83v.6c0,.35,.01,.52,.05,.82-.28-.04-.58-.05-.96-.05h-2.78v.67h2.64c.7,0,1.01-.01,1.32-.05-.02,.26-.04,.47-.04,1.04v.47c.62,0,.96-.02,1.21-.07v.86c-.29-.05-.55-.06-1.21-.06v.78c0,.6,.01,.91,.07,1.22h-.94v-.48h-3.06v.9c0,.89-.26,1.08-1.51,1.08-.25,0-.61-.01-1.14-.05-.04-.35-.08-.52-.25-.88,.65,.08,1.06,.12,1.52,.12,.42,0,.53-.06,.53-.31v-.86h-2.9c-.54,0-.79,.01-1.18,.06v-.85c.35,.04,.55,.05,1.15,.05h2.93v-.78h-3.59c-.66,0-.98,.01-1.31,.06v-.86c.3,.06,.62,.07,1.29,.07h3.6v-.73Zm-2.61-2.85v.77h2.61v-.77h-2.61Zm3.47,.77h2.82v-.77h-2.82v.77Zm3.06,2.82v-.73h-3.06v.73h3.06Zm-3.06,1.51h3.06v-.78h-3.06v.78Z"/><path class="cls-4" d="M78.83,78.36c-.56,0-.91,.01-1.26,.06v-.86c.34,.05,.66,.06,1.26,.06h1.66c-.18-.49-.34-.83-.58-1.24h-1.45c-.58,0-1.01,.02-1.37,.06v-.89c.35,.05,.72,.07,1.34,.07h.7c-.22-.4-.49-.76-.94-1.22l.83-.36c.52,.64,.68,.91,1.03,1.58h.91v-.9c0-.4-.02-.72-.07-.98h.97c-.04,.23-.05,.5-.05,.96v.92h1.14v-.92c0-.42-.01-.73-.05-.96h.97c-.05,.24-.07,.59-.07,.98v.9h1.03c.48-.66,.72-1.08,.94-1.64l.88,.36c-.34,.55-.55,.89-.86,1.28h.62c.62,0,.98-.02,1.33-.07v.89c-.35-.04-.79-.06-1.37-.06h-1.36c-.2,.46-.37,.84-.6,1.24h1.62c.61,0,.92-.01,1.27-.06v.86c-.35-.05-.7-.06-1.27-.06h-3.24v.78h2.54c.58,0,.95-.01,1.27-.06v.84c-.34-.05-.7-.06-1.27-.06h-2.54v.83h3.57c.68,0,1.06-.02,1.38-.07v.9c-.43-.05-.83-.07-1.37-.07h-2.93c.95,.89,2.61,1.61,4.56,1.96-.25,.31-.36,.49-.53,.88-2.29-.65-3.42-1.26-4.73-2.53,.02,.48,.04,.72,.04,.97v.74c0,.52,.02,.89,.07,1.24h-.98c.05-.37,.07-.74,.07-1.25v-.73c0-.26,.01-.53,.04-.96-.7,.7-1.13,1.02-1.87,1.45-.74,.42-1.45,.72-2.55,1.07-.18-.37-.3-.54-.56-.84,1.88-.41,3.18-1.01,4.29-1.99h-2.73c-.54,0-.96,.02-1.38,.07v-.9c.35,.05,.72,.07,1.37,.07h3.39v-.83h-2.4c-.56,0-.94,.01-1.26,.06v-.84c.35,.05,.71,.06,1.26,.06h2.4v-.78h-3.12Zm4.67-.74c.24-.43,.38-.78,.55-1.24h-3.17c.24,.52,.34,.73,.5,1.24h2.11Z"/></g></g></g><g class="cls-10"><g class="cls-8"><g><path class="cls-4" d="M29.14,90.71c.28,.05,.5,.06,.96,.06h2.35c.5,0,.7-.01,.96-.05v.91c-.25-.04-.43-.05-.89-.05h-2.42c-.41,0-.65,.01-.96,.05v-.92Zm.38,8.91c.05-.35,.07-.7,.07-1.16v-1.67c0-.4-.01-.68-.06-1,.32,.04,.59,.05,.96,.05h1.7c.52,0,.65,0,.86-.04-.02,.29-.04,.48-.04,.92v1.76c0,.38,.01,.67,.05,.97h-.86v-.47h-1.79v.62h-.9Zm.02-10.58c.3,.05,.5,.06,.94,.06h1.64c.42,0,.64-.01,.94-.06v.88c-.29-.04-.54-.05-.94-.05h-1.64c-.38,0-.66,.01-.94,.05v-.88Zm.01,3.41c.24,.04,.42,.05,.84,.05h1.81c.42,0,.59-.01,.83-.05v.85c-.28-.04-.46-.05-.83-.05h-1.81c-.4,0-.58,.01-.84,.05v-.85Zm0,1.67c.26,.04,.43,.05,.84,.05h1.81c.41,0,.6-.01,.83-.05v.84c-.38-.04-.41-.04-.84-.04h-1.8c-.4,0-.58,.01-.84,.04v-.84Zm.86,4.14h1.79v-1.67h-1.79v1.67Zm8.79-3.99q-.06,.12-.23,.46c-.43,.92-1.03,1.8-1.73,2.54,.8,.6,1.61,.98,2.91,1.38-.2,.31-.32,.54-.47,.9-1.42-.53-2.23-.97-3.09-1.67-.83,.7-1.7,1.19-2.99,1.69-.16-.34-.29-.54-.55-.8,1.21-.4,2.07-.84,2.9-1.48-.8-.83-1.16-1.4-1.7-2.67-.29,.01-.43,.02-.67,.06v-.91c.25,.05,.49,.06,.83,.06h3.41c.48,0,.7-.01,.88-.05l.5,.49Zm-3.73-4.33c-.04,1.22-.17,1.85-.55,2.54-.25,.47-.49,.74-.96,1.13-.24-.26-.48-.46-.73-.6,1.03-.7,1.39-1.54,1.39-3.2,0-.29-.01-.4-.05-.72,.31,.04,.6,.05,.94,.05h1.57c.43,0,.74-.01,1.02-.05-.04,.32-.05,.64-.05,1.1v1.83c0,.19,.1,.24,.5,.24s.53-.04,.59-.17c.08-.2,.14-.61,.17-1.32,.31,.19,.47,.26,.78,.36-.14,1.75-.28,1.91-1.63,1.91-1.04,0-1.27-.12-1.27-.7v-2.41h-1.72Zm-.35,4.68c.38,.89,.74,1.4,1.48,2.1,.65-.65,1.02-1.16,1.46-2.1h-2.94Z"/><path class="cls-4" d="M42.13,94.56c0-.56,.01-1.13,.04-1.74-.26,.61-.55,1.07-.98,1.63-.05-.08-.07-.14-.1-.18q-.12-.29-.23-.46s-.04-.06-.12-.17c-.02-.04-.04-.06-.06-.1,.73-.83,1.31-1.79,1.8-2.95,.31-.77,.52-1.43,.61-1.98l.94,.24c-.07,.17-.08,.2-.2,.59-.28,.86-.43,1.24-.82,2v6.69c0,.68,.01,1.08,.05,1.48h-1c.05-.44,.07-.8,.07-1.46v-3.6Zm9.71-1.99c-.34-.02-.74-.05-1.2-.05h-5.71c-.01,1.8-.06,2.83-.18,3.79-.18,1.44-.41,2.18-.96,3.13-.2-.24-.44-.46-.71-.66,.4-.65,.56-1.06,.72-1.82,.18-.88,.29-2.23,.29-3.89,0-.58-.02-1-.06-1.38,.3,.05,.67,.06,1.21,.06h5.31c.6,0,.95-.01,1.28-.06v.88Zm-6.66-1.99c-.56,0-.84,.01-1.14,.06v-.89c.34,.04,.71,.06,1.14,.06h.74v-.36c0-.38-.02-.6-.06-.79h.98c-.04,.2-.05,.43-.05,.79v.36h1.92v-.36c0-.38-.01-.59-.06-.79h.98c-.04,.22-.05,.42-.05,.79v.36h1.03c.48,0,.91-.02,1.18-.07v.9c-.34-.05-.68-.06-1.18-.06h-1.03v.18c0,.34,.01,.49,.04,.68h-.96c.04-.22,.05-.4,.05-.68v-.18h-1.92v.18c0,.32,.01,.5,.04,.68h-.96c.04-.19,.05-.41,.05-.68v-.18h-.74Zm1.09,6.82v.89c0,.71,.01,.97,.06,1.26h-.94c.05-.31,.07-.64,.07-1.26v-3.79c0-.67-.01-.9-.05-1.26,.36,.02,.59,.04,1.22,.04h3.56c.61,0,.89-.01,1.2-.06-.04,.3-.05,.65-.05,1.33v4.1c0,.67-.24,.85-1.15,.85-.13,0-.2,0-.71-.02-.04-.35-.08-.54-.19-.79,.38,.06,.65,.08,.94,.08,.25,0,.31-.05,.31-.3v-1.07h-1.8v.7c0,.67,.01,1,.06,1.31h-.91c.05-.36,.07-.67,.07-1.31v-.7h-1.7Zm1.7-3.39h-1.7v.97h1.7v-.97Zm0,1.69h-1.7v.96h1.7v-.96Zm2.58-.72v-.97h-1.8v.97h1.8Zm0,1.68v-.96h-1.8v.96h1.8Z"/><path class="cls-4" d="M56.09,93.32c-.12,.23-.16,.29-.35,.76-.31-.46-.48-.78-.67-1.31,.02,.58,.05,1.26,.05,1.68v3.8c0,.68,.02,1.09,.06,1.42h-.97c.05-.34,.07-.79,.07-1.42v-2.95c0-.5,.04-1.26,.11-2.16-.32,1.48-.7,2.48-1.27,3.39-.11-.34-.28-.65-.47-.88,.67-.97,1.13-2.11,1.51-3.84h-.38c-.32,0-.6,.01-.83,.05v-.9c.22,.04,.42,.05,.83,.05h.49v-1.13c0-.64-.01-.96-.06-1.25h.97c-.05,.3-.06,.64-.06,1.24v1.14h.3c.35,0,.56-.01,.76-.05v.9c-.26-.04-.46-.05-.74-.05h-.24c.22,.52,.38,.78,.9,1.43,.07,.01,.12,.01,.16,.01,.05,0,.08,0,.16-.01,.42-.5,.6-.74,.91-1.16-.41-.55-.8-.97-1.4-1.49l.5-.58q.2,.19,.31,.3c.42-.58,.67-1.06,.88-1.64l.73,.36c-.37,.74-.62,1.15-1.1,1.81,.22,.23,.32,.37,.5,.6,.3-.48,.42-.71,.68-1.26l.67,.47c-.83,1.3-1.18,1.79-1.81,2.53,.46-.05,.9-.11,1.31-.18-.1-.25-.16-.36-.32-.68l.56-.2c.34,.62,.52,1.04,.71,1.73l-.61,.24q-.06-.24-.13-.49c-.44,.1-1.63,.3-2.25,.38-.14,.02-.18,.02-.31,.06l-.13-.72Zm6.49,1.36c.73,0,.92-.01,1.27-.07v.9c-.38-.05-.72-.07-1.27-.07h-1.92c.14,.62,.28,.98,.54,1.48,.55-.5,.86-.86,1.07-1.28l.7,.47c-.47,.58-.92,1.06-1.37,1.46,.47,.66,.9,1.04,1.19,1.04,.13,0,.2-.08,.3-.37,.06-.18,.1-.36,.12-.58,0-.04,.02-.14,.05-.35,0-.06,.01-.18,.04-.29,.26,.25,.44,.37,.71,.5-.26,1.54-.53,1.99-1.14,1.99s-1.2-.47-1.9-1.44c-.89,.66-1.7,1.08-2.88,1.46-.17-.34-.25-.46-.54-.74,1.21-.3,2.07-.7,3.01-1.37-.31-.6-.53-1.2-.71-1.99h-1.9q-.02,.32-.06,.54c.37,.46,.82,.82,1.5,1.2q-.16,.19-.44,.7c-.53-.34-.88-.64-1.22-1.06-.31,1.15-.76,1.87-1.59,2.64-.25-.29-.36-.4-.68-.61,1.06-.76,1.56-1.76,1.69-3.41h-.08c-.42,0-.76,.01-1.06,.05v-.86c.34,.05,.55,.06,1.06,.06h2.66c-.22-1.55-.3-2.66-.36-5.19,0-.36-.01-.5-.06-.77h.97c-.06,.29-.07,.49-.07,1.21,0,1.8,.12,3.53,.31,4.75h1.68c-.26-.3-.52-.52-.9-.76l.47-.37c-.68,.08-1.06,.13-1.1,.14l-.14-.78c.1,.01,.11,.01,.25,.01,.41-.46,.46-.52,.84-1.01-.46-.59-.76-.91-1.35-1.42l.46-.59c.16,.14,.22,.19,.35,.31,.35-.48,.61-.95,.84-1.5l.72,.4c-.41,.68-.61,1.01-1.08,1.61,.2,.22,.28,.3,.52,.59,.44-.64,.56-.82,.86-1.36l.65,.49c-1.19,1.58-1.33,1.76-1.94,2.43,.7-.05,.83-.06,1.27-.13-.11-.24-.16-.34-.32-.61l.59-.22c.32,.55,.54,1.02,.84,1.85l-.66,.24c-.11-.35-.13-.44-.22-.66-.19,.02-.64,.1-1.34,.18,.32,.17,.61,.38,.94,.71l-.46,.43h.34Z"/><path class="cls-4" d="M69.1,93.21c.31-.38,.49-.65,.62-.92-.23-.02-.43-.02-.91-.02h-1.91c-.4,0-.71,.01-1.04,.04,.02-.3,.05-.59,.05-.95v-1.33c0-.4-.02-.68-.05-1,.32,.04,.6,.05,1.07,.05h1.9c.47,0,.77-.01,1.04-.05-.02,.29-.02,.54-.02,.96v1.94l.96,.22c-.28,.47-.38,.61-.71,1.07h4.45c.5,0,.89-.02,1.22-.07v.94c-.4-.05-.73-.07-1.22-.07h-2.21c.98,.94,2.16,1.55,3.79,1.97-.25,.35-.31,.44-.47,.83-.48-.18-.62-.25-1-.42v2.15c0,.38,.02,.8,.06,1.08h-.92v-.56h-2.17v.56h-.91c.04-.28,.06-.56,.06-.9v-2.28c0-.41-.01-.68-.05-.97,.29,.04,.56,.05,.98,.05h1.31c-.71-.46-1.25-.91-1.79-1.5h-1.76c-.5,.56-1.06,1.03-1.74,1.5h1.24c.4,0,.67-.01,.96-.05-.02,.28-.04,.54-.04,.97v2.17c0,.37,.01,.64,.05,.91h-.89v-.47h-1.98v.58h-.95c.05-.32,.07-.7,.07-1.08v-2.13c-.26,.13-.42,.2-.89,.42-.08-.29-.2-.5-.46-.8,1.51-.49,2.47-1.04,3.51-2.02h-2.03c-.52,0-.89,.02-1.22,.07v-.94c.34,.05,.68,.07,1.22,.07h2.76Zm-2.34-1.67h2.23v-1.74h-2.23v1.74Zm.31,6.73h1.98v-2.04h-1.98v2.04Zm7.87-6.92c0,.38,.01,.66,.05,.95-.35-.02-.66-.04-1.06-.04h-2.04c-.46,0-.77,.01-1.07,.05,.04-.3,.05-.5,.05-.86v-1.46c0-.38-.01-.65-.05-.96,.29,.04,.58,.05,1.06,.05h2.03c.47,0,.74-.01,1.08-.05-.04,.3-.05,.59-.05,1.01v1.32Zm-3.31,6.92h2.17v-2.04h-2.17v2.04Zm.11-6.73h2.34v-1.73h-2.34v1.73Z"/></g></g></g></g></g><g class="cls-7"><g class="cls-6"><g class="cls-9"><path d="M47.92,60.44c0-.07,0-.15,0-.22v-18.34c.2-.16,.88-.54,1.62-.88,.94-.43,1.92-.77,2.94-1.02,.18,.28,.33,.56,.49,.84,.17,.29,.33,.58,.5,.86,.16,.28,.32,.56,.49,.85,.17,.29,.33,.57,.5,.86,.16,.28,.33,.56,.49,.84,.17,.29,.33,.57,.5,.86,.16,.28,.32,.56,.5,.85,.16-.26,.3-.51,.44-.75,.15-.25,.29-.51,.44-.76,.14-.25,.28-.49,.43-.74,.14-.25,.28-.49,.43-.74,.14-.25,.29-.49,.43-.74,.15-.25,.29-.5,.44-.76,.14-.25,.28-.49,.43-.74,.14-.25,.28-.49,.43-.74,.07,.01,.13,.02,.18,.03,.93,.24,1.84,.56,2.71,.96,.51,.23,1,.49,1.48,.76,.06,.04,.12,.08,.19,.12,0,.07,0,.13,0,.19,0,6.12,0,12.23,0,18.35,0,.01,0,.03,0,.04h-16.03Z"/><path d="M59.72,4.04s.06,.03,.09,.04c.63,.1,1.16,.39,1.6,.86,.37,.41,.6,.88,.68,1.42,.03,.16,.03,.32,.03,.49v1.22c0,.07,0,.14,0,.21,.28,.14,.56,.26,.83,.4,.27,.14,.54,.28,.81,.43,.26,.15,.53,.31,.78,.48,.26,.17,.51,.34,.75,.52,.24,.18,.48,.37,.72,.57,.23,.2,.46,.4,.68,.61,.22,.21,.44,.42,.65,.65,.21,.22,.41,.45,.61,.68,.2,.23,.39,.47,.57,.72,.18,.24,.36,.49,.53,.75,.17,.25,.33,.51,.48,.78,.15,.26,.3,.53,.43,.8,.14,.27,.27,.55,.39,.83,.12,.28,.24,.56,.34,.85,.11,.29,.2,.58,.29,.87,.09,.29,.17,.58,.24,.88,.07,.3,.12,.6,.18,.89,.05,.3,.1,.6,.15,.91,.05,0,.1,.01,.16,.01,.42,0,.84,0,1.26,0,.26,0,.49,.08,.69,.26,.21,.19,.32,.43,.33,.72,.01,.3,.02,.6,0,.89-.03,.65-.55,.98-1,.98H38.99c-.12,0-.24,0-.36-.03-.39-.11-.63-.35-.74-.74-.02-.06-.02-.13-.02-.2,0-.3,0-.61,0-.92,0-.43,.34-.84,.77-.93,.09-.02,.19-.03,.28-.03,.41,0,.81,0,1.22,0,.05,0,.11,0,.17,0,.09-.61,.18-1.21,.33-1.8,.14-.59,.32-1.18,.52-1.75,.21-.57,.45-1.13,.73-1.68,.28-.54,.58-1.07,.92-1.58,.34-.51,.7-1,1.1-1.47,.39-.47,.81-.91,1.25-1.33,.45-.42,.91-.81,1.4-1.17s1-.7,1.53-1c.53-.3,1.07-.57,1.63-.82,0-.08,0-.15,0-.21,0-.3,0-.6,0-.9,0-.24,.01-.49,.03-.73,.02-.25,.09-.49,.19-.72,.4-.89,1.07-1.43,2.02-1.64,.06-.01,.14,0,.19-.05h7.57Zm2.41,7.49c0,.23,0,.43,0,.63v5.47c0,.2,0,.41,0,.61,0,.2,.01,.4-.01,.6-.18,.03-1.75,.04-2.77,.02-.03,0-.07,0-.11-.04-.01-.06,0-.14,0-.22V7.23c0-.06,0-.12,0-.18,0-.03,0-.07-.02-.09-.19-.02-4.2-.03-6.4-.02-.05,0-.1-.01-.15,.03-.02,.07,0,.15,0,.23,0,3.79,0,7.58,0,11.37,0,.07,0,.14,0,.2,0,.03,0,.05-.01,.09-.06,0-.11,.01-.16,.01-.26,0-.53,0-.79,0-.59,0-1.18,0-1.77,0-.05,0-.11,.02-.16-.03-.02-.06,0-.14,0-.21,0-2.27,0-4.54,0-6.82,0-.06,0-.12,0-.18,0-.03-.01-.05-.02-.09-.06,.03-.12,.06-.17,.09-.19,.11-.37,.22-.55,.34-.82,.53-1.56,1.15-2.24,1.85-.63,.65-1.18,1.36-1.66,2.12-.52,.83-.94,1.71-1.27,2.63-.25,.72-.43,1.47-.56,2.22,0,.03-.01,.07,.04,.1h25.07c.05,0,.11,0,.16,0,.03,0,.06,0,.09-.01-.62-4.21-3.3-7.62-6.48-9.35"/><path d="M68.18,60.44c0-.08,0-.16,0-.24v-14.65c0-.08-.01-.16,.01-.24,.05,0,.06,.03,.09,.05,.55,.57,1.06,1.18,1.55,1.8,.51,.65,.98,1.32,1.42,2.01,.43,.67,.84,1.36,1.22,2.07,.32,.6,.62,1.2,.9,1.82,.33,.72,.63,1.45,.91,2.19,.23,.6,.44,1.21,.63,1.82,.29,.92,.55,1.84,.76,2.78,.03,.15,.07,.29,.09,.44,0,0,.02,.02,.03,.03v.12h-7.61Z"/><path d="M36.04,60.44c.19-.89,.42-1.78,.68-2.65,.34-1.17,.74-2.32,1.2-3.45,.2-.49,.42-.97,.63-1.45,.25-.56,.53-1.11,.83-1.65,.57-1.06,1.19-2.08,1.89-3.06,.43-.61,.88-1.2,1.37-1.77,.29-.33,.58-.66,.88-.99,.04-.04,.08-.07,.13-.12,0,.04,.02,.07,.02,.09,0,.06,0,.12,0,.18,0,4.87,0,9.74,0,14.61,0,.09,0,.17-.01,.26h-7.61Z"/><path d="M40.77,25.74s.08-.01,.11-.01c.87-.02,2.64,0,2.84,.02,.02,.05,.04,.11,.06,.16,.24,.72,.53,1.42,.89,2.09,.36,.67,.78,1.3,1.25,1.9,.36,.46,.76,.89,1.18,1.29,.69,.65,1.43,1.22,2.24,1.71,.9,.54,1.86,.97,2.87,1.27,.51,.15,1.02,.28,1.54,.36,.31,.05,.63,.09,.94,.13,.22,.02,.43,.02,.65,.04,.23,.02,.46,.03,.69,.02,.36-.01,.72-.02,1.07-.06,.18-.02,.35-.03,.53-.05,.26-.04,.52-.08,.78-.13,.6-.12,1.19-.28,1.76-.48,.89-.31,1.74-.72,2.54-1.22,.83-.52,1.58-1.12,2.27-1.81,.81-.81,1.5-1.71,2.06-2.71,.41-.72,.74-1.48,1.01-2.26,.03-.08,.05-.17,.08-.24l.03-.02s.01,0,.02,0c.94,0,1.87,0,2.81,0,.02,0,.04,0,.05,0,.05,.04,.03,.08,.02,.11-.11,.37-.21,.74-.33,1.11-.28,.82-.62,1.62-1.04,2.38-.42,.78-.91,1.52-1.46,2.22-.44,.56-.92,1.09-1.43,1.59-.79,.76-1.64,1.44-2.57,2.02-.71,.45-1.46,.84-2.23,1.16-.88,.37-1.78,.65-2.7,.86-.34,.08-.68,.14-1.02,.18-.35,.05-.71,.09-1.07,.12-.25,.02-.5,.03-.75,.04-.19,0-.38,.02-.57,.02-.36,0-.72-.01-1.08-.04-.51-.04-1.01-.1-1.51-.18-1.09-.18-2.15-.48-3.18-.89-1.11-.44-2.15-1-3.12-1.68-.46-.32-.91-.66-1.33-1.04-.29-.26-.59-.52-.86-.8-.91-.92-1.7-1.93-2.36-3.05-.62-1.05-1.11-2.15-1.47-3.32-.06-.21-.12-.42-.18-.62-.02-.06-.03-.12-.04-.2"/></g></g></g><rect class="cls-3" x="37.96" y="43" width="8" height="11"/><path d="M22.23,40.19l3.4,3.4c.23,.23,.66,.33,.96,.24l2.82-.86,10.6,10.61c.52,.52,1.38,.52,1.9,0l1.64-1.64c.52-.52,.52-1.38,0-1.9l-10.61-10.61,.86-2.82c.09-.31-.01-.74-.24-.97l-3.41-3.4c-.23-.22-.66-.33-.96-.24l-2.81,.86,2.98,2.97-.91,2.65-2.65,.91-2.97-2.97-.86,2.81c-.09,.3,.01,.74,.24,.96m18.3,11.38c-.28-.28-.28-.74,0-1.03s.74-.28,1.03,0,.28,.74,0,1.03-.74,.28-1.03,0"/><rect class="cls-1" x="1.21" width="101.93" height="101.93"/><rect class="cls-1" width="101.93" height="101.93"/></g></g></svg>