<?xml version="1.0" encoding="UTF-8"?><svg id="_イヤー_2" xmlns="http://www.w3.org/2000/svg" xmlns:xlink="http://www.w3.org/1999/xlink" viewBox="0 0 101.93 101.93"><defs><style>.cls-1{fill:none;}.cls-2{clip-path:url(#clippath);}.cls-3{fill:#707070;}.cls-4{clip-path:url(#clippath-1);}.cls-5{isolation:isolate;}</style><clipPath id="clippath"><rect class="cls-1" x="13.81" y="72.94" width="75.6" height="13.8"/></clipPath><clipPath id="clippath-1"><rect class="cls-1" x="13.81" y="72.94" width="75.6" height="13.8"/></clipPath></defs><g id="_イヤー_1-2"><g><g class="cls-5"><g class="cls-2"><g class="cls-5"><g class="cls-4"><g><path class="cls-3" d="M14.19,78.95c.34-1.09,.43-1.69,.48-3.18l.74,.19c-.06,1.4-.18,2.19-.48,3.31l-.74-.32Zm1.55,5.47c.06-.38,.08-.9,.08-1.43v-8.3c0-.48-.02-.83-.08-1.24h1.06c-.06,.4-.08,.74-.08,1.24v8.32c0,.54,.02,1,.08,1.4h-1.06Zm1.61-7.16c-.14-.65-.3-1.09-.55-1.63l.62-.26c.25,.53,.38,.85,.61,1.58l-.68,.31Zm1.7-2.16c-.55,0-.84,.01-1.14,.06v-.86c.34,.06,.58,.07,1.18,.07h1.7c0-.41-.01-.59-.07-.9h.98c-.06,.3-.07,.49-.07,.9h2.12c.61,0,.88-.01,1.2-.07v.86c-.31-.05-.65-.06-1.19-.06h-2.13v.71h1.82c.52,0,.78-.01,1.08-.05v.79c-.34-.04-.6-.05-1.08-.05h-1.82v.77h2.34c.56,0,.89-.02,1.2-.07v.89c-.38-.05-.74-.07-1.2-.07h-5.1c-.56,0-.9,.02-1.22,.07v-.89c.29,.06,.6,.07,1.22,.07h1.92v-.77h-1.42c-.49,0-.72,.01-1.08,.06v-.8c.31,.04,.59,.05,1.08,.05h1.42v-.71h-1.74Zm.16,7.99c0,.6,.02,1,.07,1.31h-1c.05-.32,.06-.66,.06-1.31v-3.39c0-.52-.01-.72-.04-1.04,.32,.04,.62,.05,1.07,.05h3.84c.56,0,.84-.01,1.1-.06-.04,.3-.05,.65-.05,1.28v3.38c0,.78-.26,.98-1.25,.98-.3,0-.67-.01-1.18-.05-.06-.37-.11-.56-.23-.86,.55,.08,.97,.12,1.3,.12,.41,0,.48-.05,.48-.3v-.77h-4.19v.66Zm4.19-2.87v-.8h-4.19v.8h4.19Zm0,1.49v-.78h-4.19v.78h4.19Z"/><path class="cls-3" d="M31.37,76.82c.48,0,.66-.01,.97-.06v.91c-.25-.04-.43-.05-.72-.05-.26,.9-.38,1.24-.56,1.64h.29c.52,0,.71-.01,.97-.06v.91c-.26-.04-.53-.05-.97-.05h-1.13v1.25h1.02c.42,0,.64-.01,.91-.05v.9c-.3-.04-.5-.05-.91-.05h-1.02v1.13c0,.42,.02,.77,.07,1.16h-1c.05-.42,.07-.73,.07-1.16v-1.13h-1.13c-.42,0-.62,.01-.92,.05v-.9c.28,.04,.49,.05,.92,.05h1.13v-1.25h-1.34c-.43,0-.7,.01-.98,.05v-.91c.29,.05,.49,.06,.98,.06h.4c-.12-.56-.17-.74-.46-1.64-.43,0-.61,.01-.91,.05v-.91c.3,.05,.53,.06,.98,.06h1.33v-1.22h-1.03c-.41,0-.64,.01-.94,.05v-.9c.25,.04,.48,.05,.94,.05h1.03v-.32c0-.37-.02-.74-.07-1h1c-.06,.36-.08,.6-.08,1v.32h.9c.44,0,.66-.01,.91-.05v.9c-.28-.04-.5-.05-.91-.05h-.9v1.22h1.16Zm-1.12,2.45c.25-.56,.32-.79,.54-1.64h-2.03q.3,.96,.44,1.64h1.04Zm3.25-.72v4.61c0,.49,.02,.82,.08,1.26h-1.02c.06-.46,.08-.74,.08-1.27v-8.05c0-.41-.02-.83-.06-1.15,.34,.05,.67,.06,1.14,.06h2.82c.5,0,.83-.01,1.03-.05q-.04,.25-.07,.77c-.17,1.99-.34,2.23-1.5,2.23-.29,0-.62-.02-1.13-.07-.04-.35-.07-.52-.18-.84,.52,.1,1.03,.16,1.33,.16,.46,0,.5-.12,.59-1.39h-3.12v2.95h2.48c.52,0,.8-.01,1.01-.05l.49,.5c-.06,.16-.08,.23-.14,.5-.26,1.14-.67,2.23-1.16,3.12,.61,.72,1.03,1.07,1.91,1.64-.25,.3-.38,.52-.54,.84-.77-.58-1.22-.98-1.83-1.71-.47,.66-.89,1.13-1.55,1.7-.19-.3-.34-.48-.6-.76,.7-.55,1.16-1.03,1.6-1.67-.61-.91-.96-1.8-1.33-3.33h-.32Zm1.1,0c.3,1.19,.55,1.82,1.02,2.55,.4-.76,.64-1.44,.88-2.55h-1.9Z"/><path class="cls-3" d="M39.52,78.19c.28,.05,.48,.06,.86,.06h.62c.36,0,.62-.01,.9-.06-.04,.38-.05,.67-.05,1.28v2.4c.24,.49,.48,.73,.98,1.01,.48,.26,1.3,.37,2.73,.37,1.92,0,3.47-.08,4.98-.26-.14,.35-.24,.67-.3,1.04-1.27,.05-2.83,.08-3.97,.08-2.33,0-3.13-.11-3.87-.52-.4-.22-.64-.44-1.03-.96-.4,.44-.47,.5-.82,.84-.23,.2-.25,.23-.43,.38-.13,.11-.17,.14-.32,.29l-.48-.95c.43-.2,1.07-.71,1.67-1.33v-2.78h-.7c-.32,0-.53,.01-.78,.06v-.96Zm.72-4.5c.83,.76,1.36,1.32,1.97,2.13l-.72,.67c-.61-.89-1.1-1.45-1.92-2.21l.67-.6Zm5.54,2.42c-.43-.32-1-.66-1.46-.91l.66-.44c.58,.35,.88,.55,1.57,1.06,.71-.41,1.07-.66,1.68-1.16h-4.25c-.56,0-.86,.01-1.21,.06v-.89c.34,.06,.66,.07,1.31,.07h4.1c.72,0,1.03-.01,1.25-.06l.4,.52c-.11,.08-.17,.12-.3,.23-.85,.7-1.43,1.09-2.23,1.54h1.39c.65,0,1.01-.01,1.28-.06-.04,.32-.05,.76-.05,1.45v3.89c0,.89-.19,1.04-1.25,1.04q-.16,0-.66-.01c-.05-.36-.08-.55-.2-.83,.41,.06,.62,.08,1,.08,.23,0,.28-.06,.28-.34v-.95h-2.33v.66c0,.64,.01,.97,.06,1.31h-.95c.05-.3,.07-.71,.07-1.31v-.66h-2.09v.82c0,.65,.01,.98,.07,1.27h-.98c.05-.32,.07-.67,.07-1.27v-3.79c0-.72-.01-1.03-.05-1.37,.35,.05,.73,.06,1.31,.06h1.51Zm-1.93,.72v1.06h2.09v-1.06h-2.09Zm0,2.84h2.09v-1.07h-2.09v1.07Zm2.9-1.79h2.33v-1.06h-2.33v1.06Zm2.33,.72h-2.33v1.07h2.33v-1.07Z"/><path class="cls-3" d="M54.31,83c0,.55,.01,1.01,.06,1.4h-1.01c.05-.46,.07-.82,.07-1.43v-3.89c0-.53,0-.76,.04-1.42-.31,.64-.5,.92-1.06,1.64-.14-.36-.24-.52-.5-.88,.86-.98,1.46-2,1.96-3.35,.28-.73,.38-1.13,.46-1.68l.96,.31c-.08,.22-.12,.34-.23,.68-.2,.64-.42,1.18-.74,1.88v6.7Zm.8-7.36c.31,.04,.59,.06,1.01,.06h5.76c.49,0,.83-.02,1.15-.07v.95c-.34-.04-.71-.06-1.15-.06h-5.76c-.38,0-.71,.02-1.01,.06v-.94Zm1.63,8.78h-.94c.04-.31,.06-.66,.06-1.12v-1.5c0-.41-.02-.8-.05-1.12,.26,.04,.58,.05,1,.05h4.14c.53,0,.85-.01,1.09-.05-.04,.32-.05,.65-.05,1.1v1.5c0,.46,.01,.73,.06,1.13h-.95v-.62h-4.37v.62Zm5.28-6.16c-.28-.05-.59-.06-1.01-.06h-4.15c-.42,0-.66,.01-.94,.05v-.88c.29,.04,.48,.05,.94,.05h4.14c.44,0,.78-.02,1.02-.06v.9Zm0,1.67c-.29-.05-.56-.06-1-.06h-4.16c-.43,0-.66,.01-.94,.05v-.88c.25,.04,.49,.05,.94,.05h4.16c.43,0,.72-.01,1-.06v.9Zm0-5.01c-.3-.05-.67-.06-1.19-.06h-3.81c-.46,0-.74,.01-1.04,.06v-.94c.34,.05,.65,.07,1.1,.07h3.71c.58,0,.95-.02,1.24-.07v.94Zm-.91,8.08v-1.45h-4.37v1.45h4.37Z"/><path class="cls-3" d="M69.69,79.42h-2.85c-.47,0-.78,.01-1.13,.05v-.84c.29,.05,.59,.06,1.15,.06h2.83v-.67h-2.55c-.4,0-.71,.01-.98,.05,.04-.28,.05-.49,.05-.82v-.6c0-.32-.01-.53-.05-.83,.29,.04,.58,.05,1,.05h2.54v-.68h-3.45c-.56,0-1,.02-1.37,.07v-.9c.32,.05,.7,.07,1.4,.07h3.42c0-.5-.01-.71-.07-1.02h1.01c-.07,.3-.08,.48-.08,1.02h3.59c.71,0,1.08-.02,1.4-.07v.9c-.4-.05-.79-.07-1.36-.07h-3.63v.68h2.76c.42,0,.7-.01,.98-.05-.04,.3-.05,.48-.05,.83v.6c0,.35,.01,.52,.05,.82-.28-.04-.58-.05-.96-.05h-2.78v.67h2.64c.7,0,1.01-.01,1.32-.05-.02,.26-.04,.47-.04,1.04v.47c.62,0,.96-.02,1.21-.07v.86c-.29-.05-.55-.06-1.21-.06v.78c0,.6,.01,.91,.07,1.22h-.94v-.48h-3.06v.9c0,.89-.26,1.08-1.51,1.08-.25,0-.61-.01-1.14-.05-.04-.35-.08-.52-.25-.88,.65,.08,1.06,.12,1.52,.12,.42,0,.53-.06,.53-.31v-.86h-2.9c-.54,0-.79,.01-1.18,.06v-.85c.35,.04,.55,.05,1.15,.05h2.93v-.78h-3.59c-.66,0-.98,.01-1.31,.06v-.86c.3,.06,.62,.07,1.29,.07h3.6v-.73Zm-2.61-2.85v.77h2.61v-.77h-2.61Zm3.47,.77h2.82v-.77h-2.82v.77Zm3.06,2.82v-.73h-3.06v.73h3.06Zm-3.06,1.51h3.06v-.78h-3.06v.78Z"/><path class="cls-3" d="M79.2,78.16c-.56,0-.91,.01-1.26,.06v-.86c.34,.05,.66,.06,1.26,.06h1.66c-.18-.49-.34-.83-.58-1.24h-1.45c-.58,0-1.01,.02-1.37,.06v-.89c.35,.05,.72,.07,1.34,.07h.7c-.22-.4-.49-.76-.94-1.22l.83-.36c.52,.64,.68,.91,1.03,1.58h.91v-.9c0-.4-.02-.72-.07-.98h.97c-.04,.23-.05,.5-.05,.96v.92h1.14v-.92c0-.42-.01-.73-.05-.96h.97c-.05,.24-.07,.59-.07,.98v.9h1.03c.48-.66,.72-1.08,.94-1.64l.88,.36c-.34,.55-.55,.89-.86,1.28h.62c.62,0,.98-.02,1.33-.07v.89c-.35-.04-.79-.06-1.37-.06h-1.36c-.2,.46-.37,.84-.6,1.24h1.62c.61,0,.92-.01,1.27-.06v.86c-.35-.05-.7-.06-1.27-.06h-3.24v.78h2.54c.58,0,.95-.01,1.27-.06v.84c-.34-.05-.7-.06-1.27-.06h-2.54v.83h3.57c.68,0,1.06-.02,1.38-.07v.9c-.43-.05-.83-.07-1.37-.07h-2.93c.95,.89,2.61,1.61,4.56,1.96-.25,.31-.36,.49-.53,.88-2.29-.65-3.42-1.26-4.73-2.53,.02,.48,.04,.72,.04,.97v.74c0,.52,.02,.89,.07,1.24h-.98c.05-.37,.07-.74,.07-1.25v-.73c0-.26,.01-.53,.04-.96-.7,.7-1.13,1.02-1.87,1.45-.74,.42-1.45,.72-2.55,1.07-.18-.37-.3-.54-.56-.84,1.88-.41,3.18-1.01,4.29-1.99h-2.73c-.54,0-.96,.02-1.38,.07v-.9c.35,.05,.72,.07,1.37,.07h3.39v-.83h-2.4c-.56,0-.94,.01-1.26,.06v-.84c.35,.05,.71,.06,1.26,.06h2.4v-.78h-3.12Zm4.67-.74c.24-.43,.38-.78,.55-1.24h-3.17c.24,.52,.34,.73,.5,1.24h2.11Z"/></g></g></g></g></g><path d="M43.1,19.84c-.51,.42-1,.86-1.47,1.33-.87,.87-1.64,1.8-2.32,2.79,.24,.37,.51,.77,.81,1.19,.21,.29,.42,.58,.65,.87,.19-.31,.38-.61,.59-.9h4.23c-.12,.27-.24,.53-.35,.79-.52,1.24-.93,2.51-1.23,3.81,.63,.65,1.3,1.3,2,1.95,.36-2.29,1.1-4.48,2.2-6.55h6.05v8.66h-5.85c.94,.79,1.92,1.57,2.94,2.33h2.91v2.08c.78,.53,1.56,1.04,2.33,1.53v-3.62h8.47c-.14,2.55-.74,5.01-1.77,7.32,.82,.39,1.62,.74,2.41,1.06,2.01,.82,3.94,1.42,5.61,1.76,1.01-1.41,1.82-2.94,2.41-4.55,.27-.73,.49-1.48,.67-2.24,.35-1.46,.53-2.98,.53-4.52,0-.09,0-.18,0-.27-.01-1.01-.1-2.02-.27-3-.67-3.97-2.54-7.62-5.44-10.52-3.2-3.2-7.26-5.14-11.74-5.6-.68-.07-1.37-.11-2.05-.11s-1.37,.04-2.05,.11c-.39,.04-.77,.09-1.15,.15-1,.16-1.98,.4-2.93,.71-1.52,.5-2.97,1.19-4.32,2.05-.65,.41-1.27,.87-1.87,1.36m13.48,13.95v-8.66h6.05c.73,1.36,1.3,2.78,1.7,4.24,.26,.92,.45,1.87,.57,2.82,.07,.53,.12,1.06,.15,1.6h-8.47Zm0-15.65c1.77,1.3,3.31,2.87,4.59,4.65h-4.59v-4.65Zm15.42,21.21c-.46,1.71-1.18,3.36-2.14,4.86h-4.36c.03-.07,.06-.14,.09-.21,1.06-2.5,1.66-5.15,1.8-7.88h5.14c-.02,.3-.05,.61-.09,.91-.1,.78-.24,1.56-.45,2.32m-2.53-14.23c.73,1.04,1.33,2.14,1.81,3.3,.46,1.12,.8,2.29,1.02,3.48,.11,.62,.19,1.25,.23,1.89h-5.14c-.03-.68-.1-1.35-.19-2.02-.27-1.95-.78-3.84-1.53-5.66-.03-.07-.05-.13-.08-.2-.11-.26-.23-.52-.35-.79h4.23Zm-8.75-6.49c2.55,.83,4.87,2.25,6.79,4.16h-3.52c-.07-.12-.15-.24-.23-.36-.87-1.36-1.89-2.64-3.04-3.8m-6.47-.49v4.65h-4.59c.09-.13,.18-.25,.28-.38,.38-.5,.78-.98,1.19-1.45,.81-.9,1.69-1.72,2.65-2.47,.15-.12,.31-.24,.47-.36m-4.14,.49c-.42,.42-.82,.86-1.2,1.32-.41,.48-.8,.98-1.16,1.49-.32,.44-.62,.89-.9,1.35h-3.52c.78-.78,1.64-1.47,2.54-2.08,.65-.44,1.33-.83,2.03-1.17,.71-.35,1.45-.65,2.21-.9"/><path d="M60.72,51.28c.29-.29,.56-.58,.83-.89-.73-.33-1.48-.67-2.22-1.04-.84,.88-1.76,1.69-2.75,2.42v-3.86c-.78-.43-1.55-.88-2.33-1.34v5.2c-1.96-1.45-3.64-3.2-4.99-5.23h4.95c-1.22-.73-2.44-1.51-3.65-2.33h-2.65c-.44-.88-.8-1.78-1.11-2.7-1.04-.79-2.05-1.6-3.02-2.42,.3,1.68,.79,3.32,1.46,4.91,.03,.07,.06,.14,.09,.21h-4.36c-1.56-2.42-2.48-5.21-2.67-8.08h2.17c-1.57-1.51-3.01-3.03-4.26-4.53-.19,1.1-.29,2.23-.29,3.36,0,5.21,2.03,10.1,5.71,13.79,3.2,3.2,7.26,5.14,11.74,5.6,.68,.07,1.37,.11,2.05,.11s1.37-.04,2.05-.11c2.77-.29,5.38-1.14,7.72-2.5-.96-.34-1.93-.72-2.93-1.15-.5,.22-1.01,.41-1.54,.58m-17.95-4.74h3.73c.99,1.72,2.2,3.31,3.61,4.74-2.81-.91-5.33-2.54-7.34-4.74"/><path d="M80.46,43.79c-.53-1.87-1.63-3.96-3.27-6.24-.04-.06-.08-.12-.13-.17-.17,1.6-.52,3.16-1.04,4.65,1.35,2.44,1.77,4.4,1.08,5.38-.46,.66-1.53,1-3.08,1h0c-.44,0-.91-.03-1.41-.09-.79-.09-1.65-.25-2.57-.47-.81-.2-1.65-.44-2.53-.73-.53-.18-1.07-.37-1.62-.58-.29-.11-.58-.23-.88-.35-1.39-.57-2.83-1.23-4.29-1.99-1.36-.7-2.74-1.48-4.13-2.32-.78-.47-1.56-.97-2.33-1.48-.67-.45-1.35-.9-2.02-1.38-.09-.06-.17-.12-.26-.18-.21-.15-.41-.29-.61-.44-1.03-.75-2.02-1.51-2.98-2.28-1.72-1.38-3.32-2.8-4.77-4.21-.69-.68-1.35-1.35-1.97-2.03-.05-.06-.1-.11-.15-.17-.59-.65-1.14-1.29-1.66-1.93-.42-.52-.82-1.05-1.19-1.56-.13-.18-.26-.36-.38-.54-.53-.77-.98-1.51-1.35-2.21-1.22-2.29-1.57-4.13-.91-5.07,.46-.66,1.53-1,3.08-1,.14,0,.28,0,.43,0,.74,.03,1.6,.14,2.57,.33,1.25-.97,2.59-1.8,4-2.47-.27-.09-.54-.17-.81-.25-2.32-.68-4.39-1.02-6.15-1.02-.28,0-.56,0-.83,.03-2.33,.15-4.04,.97-5.06,2.42-1.03,1.45-1.22,3.33-.59,5.58,.43,1.54,1.26,3.24,2.46,5.06,.26,.39,.53,.78,.82,1.18,.26,.36,.53,.72,.82,1.08,.57,.73,1.19,1.48,1.86,2.22,.66,.74,1.36,1.48,2.09,2.22,.78,.78,1.6,1.56,2.46,2.33,.1,.09,.21,.19,.31,.28,.84,.75,1.71,1.48,2.61,2.21,.94,.76,1.92,1.52,2.92,2.25,.42,.31,.85,.62,1.29,.93,.06,.04,.12,.09,.18,.13,1.14,.8,2.28,1.56,3.43,2.28,1.33,.84,2.67,1.62,3.99,2.33,.9,.49,1.8,.95,2.69,1.38,.74,.36,1.47,.69,2.19,1,.54,.24,1.08,.46,1.61,.67,.93,.37,1.85,.69,2.74,.97,.25,.08,.49,.15,.73,.22,.68,.2,1.33,.37,1.97,.51,1.31,.29,2.52,.46,3.62,.5,.19,0,.37,.01,.55,.01,.28,0,.56,0,.83-.03,2.33-.15,4.04-.97,5.06-2.42,1.03-1.45,1.22-3.33,.59-5.58"/><rect class="cls-1" width="101.93" height="101.93"/></g></g></svg>