<?xml version="1.0" encoding="UTF-8"?><svg id="_イヤー_2" xmlns="http://www.w3.org/2000/svg" xmlns:xlink="http://www.w3.org/1999/xlink" viewBox="0 0 101.93 101.93"><defs><style>.cls-1{fill:none;}.cls-2{clip-path:url(#clippath);}.cls-3{fill:#fff;}.cls-4{fill:#707070;}.cls-5{clip-path:url(#clippath-1);}.cls-6{clip-path:url(#clippath-3);}.cls-7{clip-path:url(#clippath-2);}.cls-8{isolation:isolate;}</style><clipPath id="clippath"><rect class="cls-1" x="11.86" y="72.94" width="75.6" height="13.8"/></clipPath><clipPath id="clippath-1"><rect class="cls-1" x="11.86" y="72.94" width="75.6" height="13.8"/></clipPath><clipPath id="clippath-2"><rect class="cls-1" x="22.36" y="7" width="52" height="52"/></clipPath><clipPath id="clippath-3"><rect class="cls-1" x="22.36" y="7" width="52" height="52"/></clipPath></defs><g id="_イヤー_1-2"><g><g class="cls-8"><g class="cls-2"><g class="cls-8"><g class="cls-5"><g><path class="cls-4" d="M23.17,79.37c-.47-.06-.91-.08-1.64-.08h-7.32c-.67,0-1.24,.02-1.67,.08v-1.19c.43,.06,.94,.08,1.67,.08h7.32c.73,0,1.25-.02,1.64-.08v1.19Z"/><path class="cls-4" d="M27.47,79.37c-.47,.07-.49,.07-.74,.11-.12,2.28-.42,3.59-1.1,4.85-.26-.31-.41-.43-.75-.68,.65-.96,.92-2.08,1.04-4.05-.67,.08-.74,.1-.9,.14l-.14-.94h.25c.18,0,.48-.01,.83-.05,.04-.77,.05-1.39,.05-2.21,0-1.19-.01-1.56-.08-1.94,.31,.05,.6,.06,.98,.06h.28c.25-.48,.47-1.01,.54-1.38l.92,.19c-.19,.43-.41,.88-.58,1.19h.8c.43,0,.76-.02,.98-.06-.04,.28-.05,.48-.05,.83v2.75l.47-.1v.77c-.23,.06-.29,.07-.47,.11v4.31c0,.71-.28,.95-1.06,.95q-.38,0-1.16-.07c-.02-.37-.05-.47-.18-.9,.56,.1,.98,.14,1.34,.14,.22,0,.25-.04,.25-.29v-3.98q-.34,.07-.79,.14v1.93c0,.55,.01,.85,.05,1.14h-.84c.05-.36,.06-.58,.06-1.14v-1.81Zm1.52-3.97h-2.19v.8c0,.55-.01,1.37-.04,2.46,.74-.1,1.22-.17,2.23-.34v-2.93Zm-1.2,.48c.35,.62,.48,.95,.76,1.73l-.7,.35c-.22-.77-.4-1.22-.71-1.77l.65-.3Zm7.54,3.17c-.07,.11-.12,.22-.19,.38-.42,.98-.94,1.79-1.66,2.6,.7,.6,1.5,1.06,2.52,1.43-.19,.22-.37,.53-.53,.89-.97-.43-1.75-.94-2.59-1.69-.73,.67-1.33,1.08-2.38,1.63-.17-.32-.23-.4-.6-.79,1.1-.48,1.68-.83,2.38-1.45-.62-.73-.98-1.39-1.45-2.69q-.13,0-.4,.04v-.86c.18,.04,.46,.05,.94,.05h2.63c.4,0,.72-.02,.88-.06l.46,.53Zm-3.36-4.38c-.04,1.03-.12,1.55-.34,2.11-.19,.5-.44,.89-.86,1.26-.19-.29-.36-.46-.66-.66,.36-.29,.53-.49,.7-.83,.22-.43,.35-1.14,.35-1.79,0-.52-.01-.68-.06-.91,.36,.04,.67,.05,1,.05h1.21c.43,0,.75-.01,1.04-.05-.04,.3-.05,.61-.05,1.1v1.82c0,.2,.02,.22,.41,.22,.34,0,.42-.04,.48-.2,.06-.14,.11-.54,.14-1.22,.3,.2,.43,.26,.74,.36-.18,1.68-.3,1.82-1.45,1.82-.98,0-1.15-.11-1.15-.7v-2.39h-1.5Zm-.29,4.68c.35,.98,.62,1.46,1.21,2.11,.6-.66,1-1.28,1.34-2.11h-2.55Z"/><path class="cls-4" d="M37.45,78.95c.34-1.09,.43-1.69,.48-3.18l.74,.19c-.06,1.4-.18,2.19-.48,3.31l-.74-.32Zm1.55,5.47c.06-.38,.08-.9,.08-1.43v-8.3c0-.48-.02-.83-.08-1.24h1.06c-.06,.4-.08,.74-.08,1.24v8.32c0,.54,.02,1,.08,1.4h-1.06Zm1.61-7.16c-.14-.65-.3-1.09-.55-1.63l.62-.26c.25,.53,.38,.85,.61,1.58l-.68,.31Zm1.7-2.16c-.55,0-.84,.01-1.14,.06v-.86c.34,.06,.58,.07,1.18,.07h1.7c0-.41-.01-.59-.07-.9h.98c-.06,.3-.07,.49-.07,.9h2.12c.61,0,.88-.01,1.2-.07v.86c-.31-.05-.65-.06-1.19-.06h-2.13v.71h1.82c.52,0,.78-.01,1.08-.05v.79c-.33-.04-.6-.05-1.08-.05h-1.82v.77h2.34c.56,0,.89-.02,1.2-.07v.89c-.38-.05-.74-.07-1.2-.07h-5.1c-.56,0-.9,.02-1.22,.07v-.89c.29,.06,.6,.07,1.22,.07h1.92v-.77h-1.42c-.49,0-.72,.01-1.08,.06v-.8c.31,.04,.59,.05,1.08,.05h1.42v-.71h-1.74Zm.16,7.99c0,.6,.02,1,.07,1.31h-1c.05-.32,.06-.66,.06-1.31v-3.39c0-.52-.01-.72-.04-1.04,.32,.04,.62,.05,1.07,.05h3.84c.56,0,.84-.01,1.1-.06-.04,.3-.05,.65-.05,1.28v3.38c0,.78-.26,.98-1.25,.98-.3,0-.67-.01-1.18-.05-.06-.37-.11-.56-.23-.86,.55,.08,.97,.12,1.29,.12,.41,0,.48-.05,.48-.3v-.77h-4.19v.66Zm4.19-2.87v-.8h-4.19v.8h4.19Zm0,1.49v-.78h-4.19v.78h4.19Z"/><path class="cls-4" d="M54.63,76.82c.48,0,.66-.01,.97-.06v.91c-.25-.04-.43-.05-.72-.05-.26,.9-.38,1.24-.56,1.64h.29c.52,0,.71-.01,.97-.06v.91c-.26-.04-.53-.05-.97-.05h-1.13v1.25h1.02c.42,0,.64-.01,.91-.05v.9c-.3-.04-.5-.05-.91-.05h-1.02v1.13c0,.42,.02,.77,.07,1.16h-1c.05-.42,.07-.73,.07-1.16v-1.13h-1.13c-.42,0-.62,.01-.92,.05v-.9c.28,.04,.49,.05,.92,.05h1.13v-1.25h-1.34c-.43,0-.7,.01-.98,.05v-.91c.29,.05,.49,.06,.98,.06h.4c-.12-.56-.17-.74-.46-1.64-.43,0-.61,.01-.91,.05v-.91c.3,.05,.53,.06,.98,.06h1.33v-1.22h-1.03c-.41,0-.64,.01-.94,.05v-.9c.25,.04,.48,.05,.94,.05h1.03v-.32c0-.37-.02-.74-.07-1h1c-.06,.36-.08,.6-.08,1v.32h.9c.44,0,.66-.01,.91-.05v.9c-.28-.04-.5-.05-.91-.05h-.9v1.22h1.16Zm-1.12,2.45c.25-.56,.32-.79,.54-1.64h-2.03q.3,.96,.44,1.64h1.04Zm3.25-.72v4.61c0,.49,.02,.82,.08,1.26h-1.02c.06-.46,.08-.74,.08-1.27v-8.05c0-.41-.02-.83-.06-1.15,.34,.05,.67,.06,1.14,.06h2.82c.5,0,.83-.01,1.03-.05q-.04,.25-.07,.77c-.17,1.99-.33,2.23-1.5,2.23-.29,0-.62-.02-1.13-.07-.04-.35-.07-.52-.18-.84,.52,.1,1.03,.16,1.33,.16,.46,0,.5-.12,.59-1.39h-3.12v2.95h2.48c.52,0,.8-.01,1.01-.05l.49,.5c-.06,.16-.08,.23-.14,.5-.26,1.14-.67,2.23-1.16,3.12,.61,.72,1.03,1.07,1.91,1.64-.25,.3-.38,.52-.54,.84-.77-.58-1.22-.98-1.83-1.71-.47,.66-.89,1.13-1.55,1.7-.19-.3-.34-.48-.6-.76,.7-.55,1.16-1.03,1.59-1.67-.61-.91-.96-1.8-1.33-3.33h-.32Zm1.1,0c.3,1.19,.55,1.82,1.02,2.55,.4-.76,.64-1.44,.88-2.55h-1.9Z"/><path class="cls-4" d="M65.91,78.13c-.12,.23-.16,.29-.35,.76-.31-.46-.48-.78-.67-1.31,.02,.58,.05,1.26,.05,1.68v3.8c0,.68,.02,1.09,.06,1.42h-.97c.05-.34,.07-.79,.07-1.42v-2.95c0-.5,.04-1.26,.11-2.16-.32,1.48-.7,2.48-1.27,3.39-.11-.34-.28-.65-.47-.88,.67-.97,1.13-2.11,1.51-3.84h-.38c-.32,0-.6,.01-.83,.05v-.9c.22,.04,.42,.05,.83,.05h.49v-1.13c0-.64-.01-.96-.06-1.25h.97c-.05,.3-.06,.64-.06,1.24v1.14h.3c.35,0,.56-.01,.75-.05v.9c-.26-.04-.46-.05-.74-.05h-.24c.22,.52,.38,.78,.9,1.43,.07,.01,.12,.01,.16,.01,.05,0,.08,0,.16-.01,.42-.5,.6-.74,.91-1.16-.41-.55-.8-.97-1.4-1.49l.5-.58q.2,.19,.31,.3c.42-.58,.67-1.06,.88-1.64l.73,.36c-.37,.74-.62,1.15-1.1,1.81,.22,.23,.32,.37,.5,.6,.3-.48,.42-.71,.68-1.26l.67,.47c-.83,1.3-1.18,1.79-1.81,2.53,.46-.05,.9-.11,1.31-.18-.1-.25-.16-.36-.32-.68l.56-.2c.34,.62,.52,1.04,.71,1.73l-.61,.24q-.06-.24-.13-.49c-.44,.1-1.63,.3-2.25,.38-.14,.02-.18,.02-.31,.06l-.13-.72Zm6.49,1.36c.73,0,.92-.01,1.27-.07v.9c-.38-.05-.72-.07-1.27-.07h-1.92c.14,.62,.28,.98,.54,1.48,.55-.5,.86-.86,1.07-1.28l.7,.47c-.47,.58-.92,1.06-1.37,1.46,.47,.66,.9,1.04,1.19,1.04,.13,0,.2-.08,.3-.37,.06-.18,.1-.36,.12-.58,0-.04,.02-.14,.05-.35,0-.06,.01-.18,.04-.29,.26,.25,.44,.37,.71,.5-.26,1.54-.53,1.99-1.14,1.99s-1.2-.47-1.89-1.44c-.89,.66-1.7,1.08-2.88,1.46-.17-.34-.25-.46-.54-.74,1.21-.3,2.07-.7,3.01-1.37-.31-.6-.53-1.2-.71-1.99h-1.9q-.02,.32-.06,.54c.37,.46,.82,.82,1.5,1.2q-.16,.19-.44,.7c-.53-.34-.88-.64-1.22-1.06-.31,1.15-.76,1.87-1.6,2.64-.25-.29-.36-.4-.68-.61,1.06-.76,1.56-1.76,1.69-3.41h-.08c-.42,0-.76,.01-1.06,.05v-.86c.34,.05,.55,.06,1.06,.06h2.66c-.22-1.55-.3-2.66-.36-5.19,0-.36-.01-.5-.06-.77h.97c-.06,.29-.07,.49-.07,1.21,0,1.8,.12,3.53,.31,4.75h1.68c-.26-.3-.52-.52-.9-.76l.47-.37c-.68,.08-1.05,.13-1.1,.14l-.14-.78c.1,.01,.11,.01,.25,.01,.41-.46,.46-.52,.84-1.01-.46-.59-.76-.91-1.36-1.42l.46-.59c.16,.14,.22,.19,.35,.31,.35-.48,.61-.95,.84-1.5l.72,.4c-.41,.68-.61,1.01-1.08,1.61,.2,.22,.28,.3,.52,.59,.44-.64,.56-.82,.86-1.36l.65,.49c-1.19,1.58-1.33,1.76-1.94,2.43,.7-.05,.83-.06,1.27-.13-.11-.24-.16-.34-.32-.61l.59-.22c.32,.55,.54,1.02,.84,1.85l-.66,.24c-.11-.35-.13-.44-.22-.66-.19,.02-.64,.1-1.34,.18,.32,.17,.61,.38,.93,.71l-.46,.43h.34Z"/><path class="cls-4" d="M79.52,78.02c.31-.38,.49-.65,.62-.92-.23-.02-.43-.02-.91-.02h-1.91c-.4,0-.71,.01-1.04,.04,.02-.3,.05-.59,.05-.95v-1.33c0-.4-.02-.68-.05-1,.32,.04,.6,.05,1.07,.05h1.9c.47,0,.77-.01,1.04-.05-.02,.29-.02,.54-.02,.96v1.94l.96,.22c-.28,.47-.38,.61-.71,1.07h4.45c.5,0,.89-.02,1.22-.07v.94c-.4-.05-.73-.07-1.22-.07h-2.21c.98,.94,2.16,1.55,3.79,1.97-.25,.35-.31,.44-.47,.83-.48-.18-.62-.25-1-.42v2.15c0,.38,.02,.8,.06,1.08h-.92v-.56h-2.17v.56h-.91c.04-.28,.06-.56,.06-.9v-2.28c0-.41-.01-.68-.05-.97,.29,.04,.56,.05,.98,.05h1.31c-.71-.46-1.25-.91-1.79-1.5h-1.76c-.5,.56-1.06,1.03-1.74,1.5h1.24c.4,0,.67-.01,.96-.05-.02,.28-.04,.54-.04,.97v2.17c0,.37,.01,.64,.05,.91h-.89v-.47h-1.98v.58h-.95c.05-.32,.07-.7,.07-1.08v-2.13c-.26,.13-.42,.2-.89,.42-.08-.29-.2-.5-.46-.8,1.51-.49,2.47-1.04,3.51-2.02h-2.03c-.52,0-.89,.02-1.22,.07v-.94c.34,.05,.68,.07,1.22,.07h2.76Zm-2.34-1.67h2.23v-1.74h-2.23v1.74Zm.31,6.73h1.98v-2.04h-1.98v2.04Zm7.87-6.92c0,.38,.01,.66,.05,.95-.35-.02-.66-.04-1.06-.04h-2.04c-.46,0-.77,.01-1.07,.05,.04-.3,.05-.5,.05-.86v-1.46c0-.38-.01-.65-.05-.96,.29,.04,.58,.05,1.05,.05h2.03c.47,0,.74-.01,1.08-.05-.04,.3-.05,.59-.05,1.01v1.32Zm-3.31,6.92h2.17v-2.04h-2.17v2.04Zm.11-6.73h2.34v-1.73h-2.34v1.73Z"/></g></g></g></g></g><g class="cls-7"><g class="cls-6"><path class="cls-3" d="M22.36,19.34V7h52V59H22.36V22.78c.08,.29,.17,.57,.24,.87,.32,1.45,.54,2.92,.99,4.33,.46,1.42,1.14,2.77,1.72,4.13,1.78-.62,1.76-.64,1.09-2.07-2.81-6.01-2.81-12.04,.03-18.04,.63-1.32,.54-1.54-1.07-1.88-1.26,2.16-2.1,4.48-2.55,6.96-.14,.76-.31,1.51-.46,2.26M61.41,55.87l.23-.17c-4.41-11.34-8.83-22.68-13.24-34.02h-.28c-4.42,11.35-8.83,22.7-13.25,34.05,.08,.05,.16,.09,.24,.14,.31-.19,.63-.37,.93-.57,3.79-2.46,7.58-4.91,11.35-7.41,.63-.42,1.09-.41,1.72,0,3.74,2.47,7.51,4.9,11.27,7.35,.33,.22,.68,.42,1.02,.62m9.67-23.8c.14-.18,.26-.3,.33-.45,3.51-6.97,3.53-13.96,.1-20.97-.25-.52-.52-.65-1.1-.38-.85,.4-.79,.82-.42,1.56,2.95,6.04,2.97,12.12,.13,18.2-.66,1.42-.7,1.42,.97,2.03M32.28,13.01c-3.17,4.98-2.71,12.21,.06,16.02,1.5-.52,1.49-.55,.89-1.94-1.75-4.04-1.81-8.09,0-12.13,.6-1.34,.59-1.39-.96-1.96m31.91,.02c-1.51,.52-1.53,.59-.94,1.92,1.82,4.07,1.83,8.15,0,12.21-.58,1.28-.47,1.5,1,1.83,2.91-4.03,2.88-12.3-.05-15.97m-6.76,2.94c-1.52,.6-1.52,.6-1.01,1.97,.78,2.08,.79,4.15,0,6.22-.52,1.37-.51,1.37,.98,1.91,1.84-2.32,1.87-7.43,.02-10.1m-18.32,10.1c1.48-.55,1.49-.55,.97-1.91-.8-2.11-.76-4.22,.04-6.32,.49-1.28,.37-1.47-1.09-1.81-1.8,2.64-1.76,7.77,.08,10.04"/><path d="M22.36,19.34c.15-.76,.32-1.51,.46-2.26,.45-2.47,1.29-4.8,2.55-6.96,1.61,.34,1.69,.56,1.07,1.88-2.84,6-2.84,12.03-.03,18.04,.67,1.42,.69,1.44-1.1,2.07-.58-1.36-1.27-2.71-1.72-4.13-.45-1.4-.66-2.88-.99-4.33-.07-.29-.16-.58-.24-.87v-3.44Z"/><path d="M61.41,55.87c-.34-.21-.68-.41-1.02-.62-3.76-2.44-7.53-4.88-11.27-7.35-.63-.42-1.09-.42-1.72,0-3.77,2.49-7.56,4.94-11.35,7.4-.31,.2-.62,.38-.93,.57-.08-.04-.16-.09-.24-.14,4.41-11.35,8.83-22.7,13.25-34.05h.28c4.41,11.34,8.83,22.68,13.24,34.02l-.23,.17Z"/><path d="M71.08,32.07c-1.66-.61-1.63-.61-.97-2.03,2.84-6.08,2.82-12.16-.13-18.2-.36-.74-.43-1.17,.42-1.56,.58-.27,.85-.14,1.1,.38,3.43,7.01,3.41,14-.1,20.97-.07,.15-.19,.27-.33,.45"/><path d="M32.28,13.01c1.55,.57,1.56,.62,.96,1.96-1.82,4.04-1.75,8.09,0,12.13,.6,1.39,.61,1.42-.89,1.94-2.78-3.82-3.23-11.04-.06-16.02"/><path d="M64.2,13.03c2.93,3.68,2.96,11.94,.05,15.97-1.47-.34-1.58-.55-1-1.83,1.83-4.07,1.83-8.14,0-12.21-.6-1.33-.57-1.4,.94-1.92"/><path d="M57.44,15.98c1.85,2.67,1.81,7.78-.03,10.1-1.49-.53-1.5-.54-.98-1.91,.78-2.08,.77-4.15,0-6.22-.51-1.37-.51-1.37,1.01-1.97"/><path d="M39.12,26.08c-1.84-2.27-1.88-7.4-.08-10.04,1.46,.33,1.58,.53,1.09,1.81-.8,2.1-.84,4.21-.04,6.32,.51,1.36,.51,1.36-.97,1.91"/></g></g><rect class="cls-1" width="101.93" height="101.93"/></g></g></svg>