<?xml version="1.0" encoding="UTF-8"?><svg id="_イヤー_2" xmlns="http://www.w3.org/2000/svg" xmlns:xlink="http://www.w3.org/1999/xlink" viewBox="0 0 101.93 101.93"><defs><style>.cls-1{fill:none;}.cls-2{clip-path:url(#clippath);}.cls-3{fill:#fff;}.cls-4{fill:#707070;}.cls-5{clip-path:url(#clippath-1);}.cls-6{clip-path:url(#clippath-3);}.cls-7{clip-path:url(#clippath-2);}.cls-8{isolation:isolate;}</style><clipPath id="clippath"><rect class="cls-1" x="13.39" y="72.94" width="75.6" height="13.8"/></clipPath><clipPath id="clippath-1"><rect class="cls-1" x="13.39" y="72.94" width="75.6" height="13.8"/></clipPath><clipPath id="clippath-2"><rect class="cls-1" x="30.89" y="13" width="42" height="42"/></clipPath><clipPath id="clippath-3"><rect class="cls-1" x="30.89" y="13" width="42" height="42"/></clipPath></defs><g id="_イヤー_1-2"><g><g class="cls-8"><g class="cls-2"><g class="cls-8"><g class="cls-5"><g><path class="cls-4" d="M15.39,75.97c-.22,.49-.29,.64-.56,1.09-.29-.18-.49-.29-.8-.42,.53-.76,.83-1.42,1.06-2.28,.06-.28,.11-.5,.11-.66l.9,.2c-.05,.14-.11,.34-.19,.64-.07,.25-.11,.4-.18,.62h1.15v-.43c0-.6-.01-.86-.07-1.2h1.01c-.06,.31-.07,.56-.07,1.19v.44h1.19c.6,0,.88-.01,1.17-.06v.92c-.31-.05-.61-.06-1.17-.06h-1.19v1.32h1.63c.47,0,.77-.01,1.1-.06v.94c-.29-.05-.56-.06-1.13-.06h-1.61v1.19h1.26c.46,0,.76-.01,1.12-.06-.02,.34-.04,.61-.04,1.09v2.39c0,.62-.28,.79-1.25,.79-.11,0-.16,0-.62-.02-.01-.34-.06-.56-.14-.84,.2,.02,.48,.05,.68,.05,.42,0,.49-.02,.49-.19v-2.4h-1.5v3c0,.68,.01,.98,.06,1.33h-1c.05-.41,.07-.74,.07-1.33v-3h-1.48v2.23c0,.56,.01,.9,.05,1.24h-.98c.05-.31,.06-.54,.06-1.22v-1.99c0-.46-.01-.78-.05-1.12,.36,.05,.7,.06,1.15,.06h1.25v-1.19h-1.63c-.53,0-.84,.01-1.16,.06v-.95c.31,.06,.6,.07,1.09,.07h1.7v-1.32h-1.48Zm6.6-1.69c-.05,.31-.06,.64-.06,1.28v4.74c0,.77,.01,1.02,.06,1.32h-1.01c.05-.32,.06-.55,.06-1.33v-4.71c0-.64-.02-.96-.07-1.3h1.02Zm2.46-.71c-.06,.35-.08,.74-.08,1.45v8.08c0,.94-.29,1.16-1.47,1.16-.31,0-.67-.01-1.25-.05-.05-.38-.11-.6-.26-.91,.59,.08,1.12,.12,1.52,.12,.47,0,.56-.06,.56-.36v-8.02c0-.71-.02-1.12-.08-1.48h1.07Z"/><path class="cls-4" d="M27.57,80.55c0-.48,0-.83,.04-1.43-.4,.49-.5,.61-.91,.98-.12-.32-.25-.56-.44-.83,.61-.48,1.15-1.08,1.64-1.81,.36-.53,.4-.6,.59-1.1l.82,.48s-.02,.04-.08,.12c0,.01-.02,.05-.05,.08-.34,.6-.47,.8-.72,1.14v4.97c0,.62,.01,.97,.06,1.32h-1.01c.05-.38,.07-.77,.07-1.42v-2.51Zm1.76-6.52c-.1,.11-.11,.13-.23,.3-.7,.96-1.32,1.62-2.19,2.29-.13-.3-.26-.49-.52-.78,.96-.67,1.8-1.6,2.13-2.34l.8,.53Zm2.05,3.85h-.96c-.47,0-.78,.01-1.08,.06v-.9c.26,.04,.58,.05,1.08,.05h.96v-1.51h-.85c-.22,.43-.31,.6-.65,1.09-.18-.17-.4-.31-.72-.48,.72-.94,1.01-1.56,1.27-2.71l.85,.24c-.19,.55-.25,.71-.4,1.07h1.76c.5,0,.77-.01,1.03-.06v.91c-.28-.05-.54-.06-.98-.06h-.48v1.51h.67c.49,0,.72-.01,.96-.06v.91c-.23-.05-.49-.06-.96-.06h-.67v1.52h.64c.38,0,.64-.01,.88-.06v.88c-.25-.04-.48-.05-.86-.05h-.65v1.97c.6-.13,.86-.19,1.61-.4v.83c-1.67,.43-2.06,.53-3.92,.89-.38,.07-.58,.12-.82,.19l-.23-.95c.33-.01,.48-.04,.78-.08v-2.79c0-.37-.02-.65-.06-.97h.95c-.05,.28-.06,.55-.06,.97v2.66c.42-.07,.55-.1,.91-.17v-4.44Zm2.82-2.54c0-.6-.01-.88-.04-1.1,.2,.04,.49,.05,.9,.05h1.27c.46,0,.72-.01,.94-.05-.04,.28-.04,.46-.04,1.14v6.28c0,.55-.1,.8-.35,.95-.22,.13-.47,.18-.86,.18-.2,0-.43-.01-.66-.02,0-.36-.04-.56-.13-.88,.25,.04,.52,.06,.66,.06,.4,0,.47-.05,.47-.36v-6.49h-1.28v8.06c0,.55,.02,.98,.06,1.31h-1.01c.05-.4,.07-.79,.07-1.33v-7.8Z"/><path class="cls-4" d="M38.98,78.95c.34-1.09,.43-1.69,.48-3.18l.74,.19c-.06,1.4-.18,2.19-.48,3.31l-.74-.32Zm1.55,5.47c.06-.38,.08-.9,.08-1.43v-8.3c0-.48-.02-.83-.08-1.24h1.06c-.06,.4-.08,.74-.08,1.24v8.32c0,.54,.02,1,.08,1.4h-1.06Zm1.61-7.16c-.14-.65-.3-1.09-.55-1.63l.62-.26c.25,.53,.38,.85,.61,1.58l-.68,.31Zm1.7-2.16c-.55,0-.84,.01-1.14,.06v-.86c.34,.06,.58,.07,1.18,.07h1.7c0-.41-.01-.59-.07-.9h.98c-.06,.3-.07,.49-.07,.9h2.12c.61,0,.88-.01,1.2-.07v.86c-.31-.05-.65-.06-1.19-.06h-2.13v.71h1.82c.52,0,.78-.01,1.08-.05v.79c-.33-.04-.6-.05-1.08-.05h-1.82v.77h2.34c.56,0,.89-.02,1.2-.07v.89c-.38-.05-.74-.07-1.2-.07h-5.1c-.56,0-.9,.02-1.22,.07v-.89c.29,.06,.6,.07,1.22,.07h1.92v-.77h-1.42c-.49,0-.72,.01-1.08,.06v-.8c.31,.04,.59,.05,1.08,.05h1.42v-.71h-1.74Zm.16,7.99c0,.6,.02,1,.07,1.31h-1c.05-.32,.06-.66,.06-1.31v-3.39c0-.52-.01-.72-.04-1.04,.32,.04,.62,.05,1.07,.05h3.84c.56,0,.84-.01,1.1-.06-.04,.3-.05,.65-.05,1.28v3.38c0,.78-.26,.98-1.25,.98-.3,0-.67-.01-1.18-.05-.06-.37-.11-.56-.23-.86,.55,.08,.97,.12,1.29,.12,.41,0,.48-.05,.48-.3v-.77h-4.19v.66Zm4.19-2.87v-.8h-4.19v.8h4.19Zm0,1.49v-.78h-4.19v.78h4.19Z"/><path class="cls-4" d="M56.16,76.82c.48,0,.66-.01,.97-.06v.91c-.25-.04-.43-.05-.72-.05-.26,.9-.38,1.24-.56,1.64h.29c.52,0,.71-.01,.97-.06v.91c-.26-.04-.53-.05-.97-.05h-1.13v1.25h1.02c.42,0,.64-.01,.91-.05v.9c-.3-.04-.5-.05-.91-.05h-1.02v1.13c0,.42,.02,.77,.07,1.16h-1c.05-.42,.07-.73,.07-1.16v-1.13h-1.13c-.42,0-.62,.01-.92,.05v-.9c.28,.04,.49,.05,.92,.05h1.13v-1.25h-1.34c-.43,0-.7,.01-.98,.05v-.91c.29,.05,.49,.06,.98,.06h.4c-.12-.56-.17-.74-.46-1.64-.43,0-.61,.01-.91,.05v-.91c.3,.05,.53,.06,.98,.06h1.33v-1.22h-1.03c-.41,0-.64,.01-.94,.05v-.9c.25,.04,.48,.05,.94,.05h1.03v-.32c0-.37-.02-.74-.07-1h1c-.06,.36-.08,.6-.08,1v.32h.9c.44,0,.66-.01,.91-.05v.9c-.28-.04-.5-.05-.91-.05h-.9v1.22h1.16Zm-1.12,2.45c.25-.56,.32-.79,.54-1.64h-2.03q.3,.96,.44,1.64h1.04Zm3.25-.72v4.61c0,.49,.02,.82,.08,1.26h-1.02c.06-.46,.08-.74,.08-1.27v-8.05c0-.41-.02-.83-.06-1.15,.34,.05,.67,.06,1.14,.06h2.82c.5,0,.83-.01,1.03-.05q-.04,.25-.07,.77c-.17,1.99-.33,2.23-1.5,2.23-.29,0-.62-.02-1.13-.07-.04-.35-.07-.52-.18-.84,.52,.1,1.03,.16,1.33,.16,.46,0,.5-.12,.59-1.39h-3.12v2.95h2.48c.52,0,.8-.01,1.01-.05l.49,.5c-.06,.16-.08,.23-.14,.5-.26,1.14-.67,2.23-1.16,3.12,.61,.72,1.03,1.07,1.91,1.64-.25,.3-.38,.52-.54,.84-.77-.58-1.22-.98-1.83-1.71-.47,.66-.89,1.13-1.55,1.7-.19-.3-.34-.48-.6-.76,.7-.55,1.16-1.03,1.59-1.67-.61-.91-.96-1.8-1.33-3.33h-.32Zm1.1,0c.3,1.19,.55,1.82,1.02,2.55,.4-.76,.64-1.44,.88-2.55h-1.9Z"/><path class="cls-4" d="M67.44,78.13c-.12,.23-.16,.29-.35,.76-.31-.46-.48-.78-.67-1.31,.02,.58,.05,1.26,.05,1.68v3.8c0,.68,.02,1.09,.06,1.42h-.97c.05-.34,.07-.79,.07-1.42v-2.95c0-.5,.04-1.26,.11-2.16-.32,1.48-.7,2.48-1.27,3.39-.11-.34-.28-.65-.47-.88,.67-.97,1.13-2.11,1.51-3.84h-.38c-.32,0-.6,.01-.83,.05v-.9c.22,.04,.42,.05,.83,.05h.49v-1.13c0-.64-.01-.96-.06-1.25h.97c-.05,.3-.06,.64-.06,1.24v1.14h.3c.35,0,.56-.01,.75-.05v.9c-.26-.04-.46-.05-.74-.05h-.24c.22,.52,.38,.78,.9,1.43,.07,.01,.12,.01,.16,.01,.05,0,.08,0,.16-.01,.42-.5,.6-.74,.91-1.16-.41-.55-.8-.97-1.4-1.49l.5-.58q.2,.19,.31,.3c.42-.58,.67-1.06,.88-1.64l.73,.36c-.37,.74-.62,1.15-1.1,1.81,.22,.23,.32,.37,.5,.6,.3-.48,.42-.71,.68-1.26l.67,.47c-.83,1.3-1.18,1.79-1.81,2.53,.46-.05,.9-.11,1.31-.18-.1-.25-.16-.36-.32-.68l.56-.2c.34,.62,.52,1.04,.71,1.73l-.61,.24q-.06-.24-.13-.49c-.44,.1-1.63,.3-2.25,.38-.14,.02-.18,.02-.31,.06l-.13-.72Zm6.49,1.36c.73,0,.92-.01,1.27-.07v.9c-.38-.05-.72-.07-1.27-.07h-1.92c.14,.62,.28,.98,.54,1.48,.55-.5,.86-.86,1.07-1.28l.7,.47c-.47,.58-.92,1.06-1.37,1.46,.47,.66,.9,1.04,1.19,1.04,.13,0,.2-.08,.3-.37,.06-.18,.1-.36,.12-.58,0-.04,.02-.14,.05-.35,0-.06,.01-.18,.04-.29,.26,.25,.44,.37,.71,.5-.26,1.54-.53,1.99-1.14,1.99s-1.2-.47-1.89-1.44c-.89,.66-1.7,1.08-2.88,1.46-.17-.34-.25-.46-.54-.74,1.21-.3,2.07-.7,3.01-1.37-.31-.6-.53-1.2-.71-1.99h-1.9q-.02,.32-.06,.54c.37,.46,.82,.82,1.5,1.2q-.16,.19-.44,.7c-.53-.34-.88-.64-1.22-1.06-.31,1.15-.76,1.87-1.6,2.64-.25-.29-.36-.4-.68-.61,1.06-.76,1.56-1.76,1.69-3.41h-.08c-.42,0-.76,.01-1.06,.05v-.86c.34,.05,.55,.06,1.06,.06h2.66c-.22-1.55-.3-2.66-.36-5.19,0-.36-.01-.5-.06-.77h.97c-.06,.29-.07,.49-.07,1.21,0,1.8,.12,3.53,.31,4.75h1.68c-.26-.3-.52-.52-.9-.76l.47-.37c-.68,.08-1.05,.13-1.1,.14l-.14-.78c.1,.01,.11,.01,.25,.01,.41-.46,.46-.52,.84-1.01-.46-.59-.76-.91-1.36-1.42l.46-.59c.16,.14,.22,.19,.35,.31,.35-.48,.61-.95,.84-1.5l.72,.4c-.41,.68-.61,1.01-1.08,1.61,.2,.22,.28,.3,.52,.59,.44-.64,.56-.82,.86-1.36l.65,.49c-1.19,1.58-1.33,1.76-1.94,2.43,.7-.05,.83-.06,1.27-.13-.11-.24-.16-.34-.32-.61l.59-.22c.32,.55,.54,1.02,.84,1.85l-.66,.24c-.11-.35-.13-.44-.22-.66-.19,.02-.64,.1-1.34,.18,.32,.17,.61,.38,.93,.71l-.46,.43h.34Z"/><path class="cls-4" d="M81.04,78.02c.31-.38,.49-.65,.62-.92-.23-.02-.43-.02-.91-.02h-1.91c-.4,0-.71,.01-1.04,.04,.02-.3,.05-.59,.05-.95v-1.33c0-.4-.02-.68-.05-1,.32,.04,.6,.05,1.07,.05h1.9c.47,0,.77-.01,1.04-.05-.02,.29-.02,.54-.02,.96v1.94l.96,.22c-.28,.47-.38,.61-.71,1.07h4.45c.5,0,.89-.02,1.22-.07v.94c-.4-.05-.73-.07-1.22-.07h-2.21c.98,.94,2.16,1.55,3.79,1.97-.25,.35-.31,.44-.47,.83-.48-.18-.62-.25-1-.42v2.15c0,.38,.02,.8,.06,1.08h-.92v-.56h-2.17v.56h-.91c.04-.28,.06-.56,.06-.9v-2.28c0-.41-.01-.68-.05-.97,.29,.04,.56,.05,.98,.05h1.31c-.71-.46-1.25-.91-1.79-1.5h-1.76c-.5,.56-1.06,1.03-1.74,1.5h1.24c.4,0,.67-.01,.96-.05-.02,.28-.04,.54-.04,.97v2.17c0,.37,.01,.64,.05,.91h-.89v-.47h-1.98v.58h-.95c.05-.32,.07-.7,.07-1.08v-2.13c-.26,.13-.42,.2-.89,.42-.08-.29-.2-.5-.46-.8,1.51-.49,2.47-1.04,3.51-2.02h-2.03c-.52,0-.89,.02-1.22,.07v-.94c.34,.05,.68,.07,1.22,.07h2.76Zm-2.34-1.67h2.23v-1.74h-2.23v1.74Zm.31,6.73h1.98v-2.04h-1.98v2.04Zm7.87-6.92c0,.38,.01,.66,.05,.95-.35-.02-.66-.04-1.06-.04h-2.04c-.46,0-.77,.01-1.07,.05,.04-.3,.05-.5,.05-.86v-1.46c0-.38-.01-.65-.05-.96,.29,.04,.58,.05,1.05,.05h2.03c.47,0,.74-.01,1.08-.05-.04,.3-.05,.59-.05,1.01v1.32Zm-3.31,6.92h2.17v-2.04h-2.17v2.04Zm.11-6.73h2.34v-1.73h-2.34v1.73Z"/></g></g></g></g></g><g class="cls-7"><g class="cls-6"><path class="cls-3" d="M72.89,55H30.89V13h42V55Zm-41.76-13.21c.33,.02,.59,.04,.86,.04,13.29,0,26.57,0,39.86,.02,.79,0,.95-.27,.95-.99-.03-3.14-.01-6.29-.01-9.43q0-1.25-1.24-1.25c-5.55,0-11.11,0-16.66,0-.6,0-1.08-.02-1.03-.85,.01-.2-.32-.59-.51-.6-.92-.06-1.85-.05-2.77,0-.17,0-.48,.33-.46,.48,.1,.95-.46,.97-1.16,.97-5.58-.01-11.16,0-16.74,0-.34,0-.69,.04-1.07,.06v11.55Zm0-14.45c.3,.02,.57,.05,.83,.05,13.31,0,26.62,0,39.93,.02,.74,0,.92-.25,.91-.94-.03-3.22-.04-6.45,0-9.67,.01-.82-.21-1.07-1.05-1.07-13.23,.02-26.46,.02-39.68,.02-.31,0-.62,.05-.94,.07v11.52Zm27.65,23.67c1.28,0,2.56-.01,3.84,0,.49,0,.69-.17,.68-.67-.02-.65,0-1.31,0-1.97,0-1.14,0-1.14-1.1-1.14-2.34,0-4.68,0-7.03,0-.95,0-1.27-.34-1.28-1.29,0-.74,.03-1.48-.02-2.21-.01-.2-.25-.55-.39-.56-1.08-.02-2.17,.03-3.25,.06-.05,.84-.11,1.67-.13,2.51-.03,1.22-.27,1.48-1.5,1.49-2.37,0-4.74,.02-7.11,0-.58,0-.85,.17-.82,.79,.04,.74,.04,1.48,0,2.21-.03,.63,.22,.79,.81,.79,2.37-.02,4.74-.04,7.11,.01,.47,0,1,.21,1.38,.48,1.14,.82,2.55,1.08,3.57,.25,.91-.74,1.85-.78,2.88-.76,.79,.02,1.58,0,2.37,0"/><path d="M31.13,41.79v-11.55c.38-.02,.73-.06,1.07-.06,5.58,0,11.16,0,16.74,0,.7,0,1.26-.02,1.16-.97-.02-.15,.29-.47,.46-.48,.92-.05,1.85-.06,2.77,0,.19,.01,.52,.4,.51,.6-.05,.83,.43,.85,1.03,.85,5.55,0,11.11,0,16.66,0q1.24,0,1.24,1.25c0,3.14-.02,6.29,.01,9.43,0,.72-.16,.99-.95,.99-13.29-.02-26.57-.02-39.86-.02-.27,0-.53-.02-.86-.04m9.11-8.36c-2.35-.43-2.6-.32-3.54,1.56-.29,.59-.59,1.17-.88,1.76-.29,.58-.57,1.15-.86,1.74,1.8,.62,2.63,.31,3.38-1.18,.24-.49,.49-.98,.73-1.47,.38-.77,.76-1.55,1.17-2.41m-.14,5.2c.77,.03,1.35,.04,1.93,.09,.59,.05,.95-.17,1.2-.73,.52-1.14,1.11-2.25,1.67-3.38,.19-.38,.34-.77,.57-1.3-.89,0-1.62-.02-2.35,.01-.16,0-.39,.13-.47,.26-.84,1.61-1.65,3.24-2.57,5.04m5.2,.06c.99,0,1.74,.02,2.49-.02,.17,0,.4-.2,.49-.36,.78-1.53,1.53-3.08,2.29-4.62,.04-.08,0-.2-.01-.38-.74,0-1.44-.03-2.14,.02-.2,.01-.48,.18-.57,.36-.82,1.57-1.6,3.15-2.54,5m21.43-2.71c0-1.13-.9-2.03-2.01-2.02-1.12,0-2.01,.9-2.01,2.03,0,1.12,.9,2.03,2.02,2.03,1.11,0,2.01-.91,2.01-2.04"/><path d="M31.13,27.35V15.82c.31-.02,.63-.07,.94-.07,13.23,0,26.46,0,39.68-.02,.84,0,1.06,.25,1.05,1.07-.04,3.22-.04,6.45,0,9.67,0,.7-.17,.94-.91,.94-13.31-.02-26.62-.01-39.93-.02-.27,0-.53-.03-.83-.05m9.17-8.48c-.81,0-1.38,.04-1.94-.01-.61-.05-.95,.19-1.2,.74-.36,.82-.8,1.61-1.2,2.42-.33,.67-.66,1.35-1,2.03,1.82,.62,2.63,.31,3.38-1.19,.27-.54,.54-1.07,.8-1.61,.36-.72,.71-1.45,1.16-2.38m-.2,5.33c.74,.03,1.29,.04,1.85,.09,.65,.06,1.05-.17,1.33-.8,.56-1.24,1.21-2.45,1.81-3.67,.13-.26,.22-.53,.38-.93-.88,0-1.6-.02-2.33,.01-.16,0-.4,.12-.47,.26-.84,1.61-1.66,3.24-2.57,5.04m5.23,0c.74,.04,1.29,.04,1.85,.09,.65,.06,1.05-.17,1.33-.8,.56-1.24,1.21-2.45,1.81-3.67,.13-.26,.22-.53,.38-.93-.88,0-1.6-.02-2.33,.01-.16,0-.4,.12-.47,.26-.84,1.62-1.66,3.24-2.57,5.04m21.4-2.65c0-1.13-.9-2.02-2.02-2.02-1.12,0-2,.9-2,2.03,0,1.12,.9,2.03,2.02,2.03,1.11,0,2.01-.92,2-2.04"/><path d="M58.77,51.02c-.79,0-1.58,.01-2.37,0-1.03-.02-1.97,.02-2.88,.76-1.02,.83-2.43,.57-3.57-.25-.39-.27-.91-.47-1.38-.48-2.37-.05-4.74-.04-7.11-.01-.59,0-.85-.16-.81-.79,.04-.74,.04-1.48,0-2.21-.03-.62,.23-.8,.82-.79,2.37,.02,4.74,.01,7.11,0,1.23,0,1.47-.26,1.5-1.49,.02-.84,.09-1.67,.13-2.51,1.08-.03,2.17-.08,3.25-.06,.14,0,.38,.35,.39,.56,.05,.73,.01,1.48,.02,2.21,.01,.95,.33,1.28,1.28,1.29,2.34,0,4.68,0,7.03,0,1.1,0,1.1,0,1.1,1.14,0,.66-.02,1.31,0,1.97,.02,.49-.19,.68-.68,.67-1.28-.02-2.56,0-3.84,0"/><path class="cls-3" d="M40.24,33.43c-.42,.86-.79,1.63-1.17,2.41-.24,.49-.49,.98-.73,1.46-.74,1.49-1.57,1.81-3.38,1.18,.29-.59,.57-1.16,.86-1.74,.29-.59,.59-1.17,.88-1.76,.94-1.87,1.19-1.99,3.54-1.56"/><path class="cls-3" d="M40.1,38.63c.91-1.8,1.72-3.42,2.57-5.04,.07-.14,.3-.26,.47-.26,.73-.03,1.45-.01,2.35-.01-.23,.53-.39,.92-.57,1.3-.55,1.13-1.15,2.24-1.67,3.38-.26,.56-.61,.78-1.2,.73-.58-.05-1.17-.06-1.93-.09"/><path class="cls-3" d="M45.3,38.69c.93-1.85,1.72-3.43,2.54-5,.09-.18,.37-.35,.57-.36,.7-.04,1.4-.02,2.14-.02,0,.18,.05,.3,.01,.38-.75,1.55-1.51,3.09-2.29,4.62-.09,.17-.32,.36-.49,.36-.75,.04-1.5,.02-2.49,.02"/><path class="cls-3" d="M66.73,35.99c0,1.13-.89,2.04-2.01,2.04-1.11,0-2.02-.91-2.02-2.03,0-1.13,.88-2.03,2.01-2.03,1.12,0,2.01,.89,2.01,2.02"/><path class="cls-3" d="M40.3,18.87c-.45,.93-.8,1.66-1.16,2.38-.26,.54-.53,1.08-.8,1.61-.75,1.5-1.55,1.81-3.38,1.19,.34-.69,.67-1.36,1-2.03,.4-.81,.84-1.6,1.2-2.42,.24-.55,.59-.79,1.2-.74,.56,.05,1.13,.01,1.94,.01"/><path class="cls-3" d="M40.1,24.19c.91-1.8,1.73-3.43,2.57-5.04,.07-.14,.3-.25,.47-.26,.73-.03,1.45-.01,2.33-.01-.16,.41-.25,.68-.38,.94-.6,1.22-1.25,2.43-1.81,3.67-.28,.63-.68,.86-1.33,.8-.55-.05-1.11-.06-1.85-.09"/><path class="cls-3" d="M45.33,24.19c.91-1.8,1.73-3.43,2.57-5.04,.07-.14,.3-.25,.47-.26,.73-.03,1.45-.01,2.33-.01-.16,.41-.25,.68-.38,.94-.6,1.22-1.25,2.43-1.81,3.67-.28,.63-.68,.86-1.33,.8-.55-.05-1.11-.06-1.85-.09"/><path class="cls-3" d="M66.73,21.55c0,1.12-.89,2.04-2,2.04-1.11,0-2.02-.9-2.02-2.03,0-1.13,.88-2.03,2-2.03,1.12,0,2.01,.89,2.02,2.02"/></g></g><rect class="cls-1" width="101.93" height="101.93"/></g></g></svg>