<?xml version="1.0" encoding="UTF-8"?><svg id="_イヤー_2" xmlns="http://www.w3.org/2000/svg" xmlns:xlink="http://www.w3.org/1999/xlink" viewBox="0 0 101.93 101.93"><defs><style>.cls-1{fill:none;}.cls-2{clip-path:url(#clippath);}.cls-3{fill:#fff;}.cls-4{fill:#707070;}.cls-5{clip-path:url(#clippath-1);}.cls-6{clip-path:url(#clippath-3);}.cls-7{clip-path:url(#clippath-2);}.cls-8{isolation:isolate;}</style><clipPath id="clippath"><rect class="cls-1" x="24.93" y="72.94" width="48" height="13.8"/></clipPath><clipPath id="clippath-1"><rect class="cls-1" x="24.93" y="72.94" width="48" height="13.8"/></clipPath><clipPath id="clippath-2"><rect class="cls-1" x="21.93" y="4" width="56" height="56"/></clipPath><clipPath id="clippath-3"><rect class="cls-1" x="21.93" y="4" width="56" height="56"/></clipPath></defs><g id="_イヤー_1-2"><g><g class="cls-8"><g class="cls-2"><g class="cls-8"><g class="cls-5"><g><path class="cls-4" d="M25.44,78.19c.28,.05,.48,.06,.86,.06h.62c.36,0,.62-.01,.9-.06-.04,.38-.05,.67-.05,1.28v2.4c.24,.49,.48,.73,.98,1.01,.48,.26,1.29,.37,2.73,.37,1.92,0,3.47-.08,4.98-.26-.14,.35-.24,.67-.3,1.04-1.27,.05-2.83,.08-3.97,.08-2.33,0-3.13-.11-3.87-.52-.4-.22-.64-.44-1.03-.96-.4,.44-.47,.5-.82,.84-.23,.2-.25,.23-.43,.38-.13,.11-.17,.14-.32,.29l-.48-.95c.43-.2,1.07-.71,1.67-1.33v-2.78h-.7c-.32,0-.53,.01-.78,.06v-.96Zm.72-4.5c.83,.76,1.36,1.32,1.97,2.13l-.72,.67c-.61-.89-1.1-1.45-1.92-2.21l.67-.6Zm5.54,2.42c-.43-.32-1-.66-1.46-.91l.66-.44c.58,.35,.88,.55,1.57,1.06,.71-.41,1.07-.66,1.68-1.16h-4.25c-.56,0-.86,.01-1.21,.06v-.89c.34,.06,.66,.07,1.31,.07h4.1c.72,0,1.03-.01,1.25-.06l.4,.52c-.11,.08-.17,.12-.3,.23-.85,.7-1.43,1.09-2.23,1.54h1.39c.65,0,1.01-.01,1.28-.06-.04,.32-.05,.76-.05,1.45v3.89c0,.89-.19,1.04-1.25,1.04q-.16,0-.66-.01c-.05-.36-.08-.55-.2-.83,.41,.06,.62,.08,1,.08,.23,0,.28-.06,.28-.34v-.95h-2.33v.66c0,.64,.01,.97,.06,1.31h-.95c.05-.3,.07-.71,.07-1.31v-.66h-2.09v.82c0,.65,.01,.98,.07,1.27h-.98c.05-.32,.07-.67,.07-1.27v-3.79c0-.72-.01-1.03-.05-1.37,.35,.05,.73,.06,1.31,.06h1.51Zm-1.93,.72v1.06h2.09v-1.06h-2.09Zm0,2.84h2.09v-1.07h-2.09v1.07Zm2.9-1.79h2.33v-1.06h-2.33v1.06Zm2.33,.72h-2.33v1.07h2.33v-1.07Z"/><path class="cls-4" d="M39.62,83c0,.55,.01,1.01,.06,1.4h-1.01c.05-.46,.07-.82,.07-1.43v-3.89c0-.53,0-.76,.04-1.42-.31,.64-.5,.92-1.06,1.64-.14-.36-.24-.52-.5-.88,.86-.98,1.46-2,1.96-3.35,.28-.73,.38-1.13,.46-1.68l.96,.31c-.08,.22-.12,.34-.23,.68-.2,.64-.42,1.18-.74,1.88v6.7Zm.8-7.36c.31,.04,.59,.06,1.01,.06h5.76c.49,0,.83-.02,1.15-.07v.95c-.34-.04-.71-.06-1.15-.06h-5.76c-.38,0-.71,.02-1.01,.06v-.94Zm1.63,8.78h-.94c.04-.31,.06-.66,.06-1.12v-1.5c0-.41-.02-.8-.05-1.12,.26,.04,.58,.05,1,.05h4.14c.53,0,.85-.01,1.09-.05-.04,.32-.05,.65-.05,1.1v1.5c0,.46,.01,.73,.06,1.13h-.95v-.62h-4.37v.62Zm5.28-6.16c-.28-.05-.59-.06-1.01-.06h-4.15c-.42,0-.66,.01-.94,.05v-.88c.29,.04,.48,.05,.94,.05h4.14c.44,0,.78-.02,1.02-.06v.9Zm0,1.67c-.29-.05-.56-.06-1-.06h-4.16c-.43,0-.66,.01-.94,.05v-.88c.25,.04,.49,.05,.94,.05h4.16c.43,0,.72-.01,1-.06v.9Zm0-5.01c-.3-.05-.67-.06-1.19-.06h-3.81c-.46,0-.74,.01-1.04,.06v-.94c.34,.05,.65,.07,1.1,.07h3.71c.58,0,.95-.02,1.24-.07v.94Zm-.91,8.08v-1.45h-4.37v1.45h4.37Z"/><path class="cls-4" d="M52.57,78.13c-.12,.23-.16,.29-.35,.76-.31-.46-.48-.78-.67-1.31,.02,.58,.05,1.26,.05,1.68v3.8c0,.68,.02,1.09,.06,1.42h-.97c.05-.34,.07-.79,.07-1.42v-2.95c0-.5,.04-1.26,.11-2.16-.32,1.48-.7,2.48-1.27,3.39-.11-.34-.28-.65-.47-.88,.67-.97,1.13-2.11,1.51-3.84h-.38c-.32,0-.6,.01-.83,.05v-.9c.22,.04,.42,.05,.83,.05h.49v-1.13c0-.64-.01-.96-.06-1.25h.97c-.05,.3-.06,.64-.06,1.24v1.14h.3c.35,0,.56-.01,.75-.05v.9c-.26-.04-.46-.05-.74-.05h-.24c.22,.52,.38,.78,.9,1.43,.07,.01,.12,.01,.16,.01,.05,0,.08,0,.16-.01,.42-.5,.6-.74,.91-1.16-.41-.55-.8-.97-1.4-1.49l.5-.58q.2,.19,.31,.3c.42-.58,.67-1.06,.88-1.64l.73,.36c-.37,.74-.62,1.15-1.1,1.81,.22,.23,.32,.37,.5,.6,.3-.48,.42-.71,.68-1.26l.67,.47c-.83,1.3-1.18,1.79-1.81,2.53,.46-.05,.9-.11,1.31-.18-.1-.25-.16-.36-.32-.68l.56-.2c.34,.62,.52,1.04,.71,1.73l-.61,.24q-.06-.24-.13-.49c-.44,.1-1.63,.3-2.25,.38-.14,.02-.18,.02-.31,.06l-.13-.72Zm6.49,1.36c.73,0,.92-.01,1.27-.07v.9c-.38-.05-.72-.07-1.27-.07h-1.92c.14,.62,.28,.98,.54,1.48,.55-.5,.86-.86,1.07-1.28l.7,.47c-.47,.58-.92,1.06-1.37,1.46,.47,.66,.9,1.04,1.19,1.04,.13,0,.2-.08,.3-.37,.06-.18,.1-.36,.12-.58,0-.04,.02-.14,.05-.35,0-.06,.01-.18,.04-.29,.26,.25,.44,.37,.71,.5-.26,1.54-.53,1.99-1.14,1.99s-1.2-.47-1.89-1.44c-.89,.66-1.7,1.08-2.88,1.46-.17-.34-.25-.46-.54-.74,1.21-.3,2.07-.7,3.01-1.37-.31-.6-.53-1.2-.71-1.99h-1.9q-.02,.32-.06,.54c.37,.46,.82,.82,1.5,1.2q-.16,.19-.44,.7c-.53-.34-.88-.64-1.22-1.06-.31,1.15-.76,1.87-1.6,2.64-.25-.29-.36-.4-.68-.61,1.06-.76,1.56-1.76,1.69-3.41h-.08c-.42,0-.76,.01-1.06,.05v-.86c.34,.05,.55,.06,1.06,.06h2.66c-.22-1.55-.3-2.66-.36-5.19,0-.36-.01-.5-.06-.77h.97c-.06,.29-.07,.49-.07,1.21,0,1.8,.12,3.53,.31,4.75h1.68c-.26-.3-.52-.52-.9-.76l.47-.37c-.68,.08-1.05,.13-1.1,.14l-.14-.78c.1,.01,.11,.01,.25,.01,.41-.46,.46-.52,.84-1.01-.46-.59-.76-.91-1.36-1.42l.46-.59c.16,.14,.22,.19,.35,.31,.35-.48,.61-.95,.84-1.5l.72,.4c-.41,.68-.61,1.01-1.08,1.61,.2,.22,.28,.3,.52,.59,.44-.64,.56-.82,.86-1.36l.65,.49c-1.19,1.58-1.33,1.76-1.94,2.43,.7-.05,.83-.06,1.27-.13-.11-.24-.16-.34-.32-.61l.59-.22c.32,.55,.54,1.02,.84,1.85l-.66,.24c-.11-.35-.13-.44-.22-.66-.19,.02-.64,.1-1.34,.18,.32,.17,.61,.38,.93,.71l-.46,.43h.34Z"/><path class="cls-4" d="M65.58,78.02c.31-.38,.49-.65,.62-.92-.23-.02-.43-.02-.91-.02h-1.91c-.4,0-.71,.01-1.04,.04,.02-.3,.05-.59,.05-.95v-1.33c0-.4-.02-.68-.05-1,.32,.04,.6,.05,1.07,.05h1.9c.47,0,.77-.01,1.04-.05-.02,.29-.02,.54-.02,.96v1.94l.96,.22c-.28,.47-.38,.61-.71,1.07h4.45c.5,0,.89-.02,1.22-.07v.94c-.4-.05-.73-.07-1.22-.07h-2.21c.98,.94,2.16,1.55,3.79,1.97-.25,.35-.31,.44-.47,.83-.48-.18-.62-.25-1-.42v2.15c0,.38,.02,.8,.06,1.08h-.92v-.56h-2.17v.56h-.91c.04-.28,.06-.56,.06-.9v-2.28c0-.41-.01-.68-.05-.97,.29,.04,.56,.05,.98,.05h1.31c-.71-.46-1.25-.91-1.79-1.5h-1.76c-.5,.56-1.06,1.03-1.74,1.5h1.24c.4,0,.67-.01,.96-.05-.02,.28-.04,.54-.04,.97v2.17c0,.37,.01,.64,.05,.91h-.89v-.47h-1.98v.58h-.95c.05-.32,.07-.7,.07-1.08v-2.13c-.26,.13-.42,.2-.89,.42-.08-.29-.2-.5-.46-.8,1.51-.49,2.47-1.04,3.51-2.02h-2.03c-.52,0-.89,.02-1.22,.07v-.94c.34,.05,.68,.07,1.22,.07h2.76Zm-2.34-1.67h2.23v-1.74h-2.23v1.74Zm.31,6.73h1.98v-2.04h-1.98v2.04Zm7.87-6.92c0,.38,.01,.66,.05,.95-.35-.02-.66-.04-1.06-.04h-2.04c-.46,0-.77,.01-1.07,.05,.04-.3,.05-.5,.05-.86v-1.46c0-.38-.01-.65-.05-.96,.29,.04,.58,.05,1.05,.05h2.03c.47,0,.74-.01,1.08-.05-.04,.3-.05,.59-.05,1.01v1.32Zm-3.31,6.92h2.17v-2.04h-2.17v2.04Zm.11-6.73h2.34v-1.73h-2.34v1.73Z"/></g></g></g></g></g><g class="cls-7"><g class="cls-6"><path class="cls-3" d="M21.93,14.68V4h56V60H21.93v-16.56c.69,1.3,1.82,1.59,3.2,1.54,2.07-.07,4.14-.02,6.21-.02q2.66,0,2.66,2.62c0,1.78,.16,1.77-1.69,1.74-.59-.01-1.06,.02-1.07,.83-.01,.81,.37,.98,1.06,.97,1.6-.03,3.2,0,4.79,0,4.21,0,8.42,0,12.63,0,.54,0,1.11,.09,1.12-.77,.01-.73-.2-1.05-.98-1.03-1.89,.05-1.79,.21-1.79-1.84,0-.47,.04-.95,0-1.41-.09-.88,.31-1.12,1.14-1.11,2.61,.04,5.23,.02,7.84,.01,2.4,0,2.96-.56,2.96-2.94,0-8.6,0-17.21,0-25.81,0-2.61-.5-3.11-3.13-3.11-10.56,0-21.13,.01-31.69-.02-1.4,0-2.6,.19-3.26,1.59m55.64,17.42c0-5.37,0-10.74,0-16.11,0-2.3-.6-2.88-2.92-2.89-3.12,0-6.24-.01-9.36,0-2.07,0-2.77,.7-2.77,2.74,0,10.85,0,21.7,0,32.55,0,1.99,.7,2.71,2.68,2.72,3.16,.02,6.31,.01,9.47,0,2.3,0,2.9-.6,2.9-2.9,0-5.37,0-10.74,0-16.11"/><path d="M21.93,14.68c.66-1.4,1.86-1.6,3.26-1.59,10.56,.03,21.13,.01,31.69,.02,2.63,0,3.13,.5,3.13,3.11,0,8.6,0,17.21,0,25.81,0,2.38-.57,2.93-2.97,2.94-2.61,0-5.23,.03-7.84-.01-.83-.01-1.23,.23-1.14,1.11,.05,.47,0,.94,0,1.42,0,2.05-.1,1.89,1.79,1.84,.79-.02,.99,.29,.98,1.03-.01,.86-.58,.77-1.12,.77-4.21,0-8.42,0-12.63,0-1.6,0-3.2-.02-4.79,0-.7,.01-1.08-.16-1.06-.97,.01-.81,.48-.84,1.07-.83,1.85,.03,1.68,.04,1.69-1.74q0-2.62-2.66-2.62c-2.07,0-4.14-.05-6.21,.02-1.38,.05-2.51-.24-3.2-1.54V14.68Zm19.17,1.01c-5.01,0-10.02,0-15.03,0-1.47,0-1.47,0-1.47,1.41,0,7.7,.01,15.4-.02,23.1,0,1.01,.24,1.39,1.33,1.38,10.1-.04,20.19-.04,30.29,0,1.09,0,1.33-.38,1.32-1.39-.04-7.7-.02-15.4-.02-23.1,0-1.41,0-1.41-1.47-1.41-4.97,0-9.95,0-14.92,0"/><path d="M77.56,32.1c0,5.37,0,10.74,0,16.11,0,2.3-.6,2.9-2.91,2.9-3.16,0-6.31,.01-9.47,0-1.97,0-2.67-.73-2.68-2.72,0-10.85,0-21.7,0-32.55,0-2.04,.7-2.73,2.77-2.74,3.12-.01,6.24,0,9.36,0,2.32,0,2.92,.59,2.92,2.89,0,5.37,0,10.74,0,16.11m-4.98,7.13c.02-1.41-1.12-2.59-2.51-2.6-1.36,0-2.57,1.21-2.56,2.57,0,1.34,1.14,2.5,2.49,2.54,1.39,.04,2.57-1.11,2.58-2.52m-2.5-17.53c1.05,0,2.1-.01,3.15,0,.59,.01,.85-.22,.85-.83,0-.56-.15-.9-.78-.9-2.1,0-4.2,0-6.3,0-.63,0-.8,.32-.8,.89,0,.58,.23,.87,.84,.85,1.01-.02,2.03,0,3.04,0m.07,4.58c.98,0,1.96-.02,2.93,0,.65,.02,1.01-.15,1-.91-.01-.71-.38-.84-.97-.84-1.99,0-3.98,.01-5.97,0-.6,0-.96,.16-.95,.85,0,.65,.26,.91,.91,.89,1.01-.03,2.03,0,3.04,0"/><path class="cls-3" d="M41.1,15.69c4.97,0,9.95,0,14.92,0,1.46,0,1.47,0,1.47,1.41,0,7.7-.02,15.4,.02,23.1,0,1.01-.23,1.39-1.32,1.39-10.09-.04-20.19-.04-30.29,0-1.09,0-1.33-.38-1.33-1.38,.03-7.7,.02-15.4,.02-23.1,0-1.41,0-1.41,1.47-1.41,5.01,0,10.02,0,15.03,0"/><path class="cls-3" d="M72.58,39.23c-.02,1.41-1.19,2.56-2.59,2.52-1.34-.04-2.48-1.2-2.49-2.54,0-1.36,1.2-2.58,2.56-2.57,1.39,0,2.53,1.18,2.51,2.6"/><path class="cls-3" d="M70.09,21.7c-1.01,0-2.03-.02-3.04,0-.61,.01-.83-.27-.84-.85,0-.57,.17-.89,.8-.89,2.1,.01,4.2,.01,6.3,0,.64,0,.78,.34,.78,.9,0,.61-.26,.84-.85,.83-1.05-.02-2.1,0-3.15,0"/><path class="cls-3" d="M70.16,26.27c-1.01,0-2.03-.02-3.04,0-.65,.02-.9-.24-.91-.89,0-.7,.34-.86,.95-.85,1.99,.01,3.98,.01,5.97,0,.58,0,.96,.12,.97,.84,.01,.75-.35,.92-1,.91-.98-.03-1.95,0-2.93,0"/></g></g><rect class="cls-1" width="101.93" height="101.93"/></g></g></svg>