<?xml version="1.0" encoding="UTF-8"?><svg id="_イヤー_2" xmlns="http://www.w3.org/2000/svg" xmlns:xlink="http://www.w3.org/1999/xlink" viewBox="0 0 101.93 101.93"><defs><style>.cls-1{fill:none;}.cls-2{clip-path:url(#clippath);}.cls-3{fill:#707070;}.cls-4{clip-path:url(#clippath-1);}.cls-5{isolation:isolate;}</style><clipPath id="clippath"><rect class="cls-1" x="35.42" y="72.94" width="36.67" height="13.8"/></clipPath><clipPath id="clippath-1"><rect class="cls-1" x="35.42" y="72.94" width="36.67" height="13.8"/></clipPath></defs><g id="_イヤー_1-2"><g><g class="cls-5"><g class="cls-2"><g class="cls-5"><g class="cls-4"><g><path class="cls-3" d="M37.91,74.46c.37,.05,.59,.06,1.09,.06,1.14,0,2.83-.07,3.72-.17,.3-.02,.55-.08,.72-.16l.59,.74c-.19,.13-.3,.22-.62,.53-1.07,1.02-2.51,2.16-3.73,2.93,.55-.1,1.2-.17,2.88-.3,.54-.05,1.21-.11,1.97-.18,.49-.04,.83-.07,1.03-.08,.16-.02,.2-.02,.36-.06l.08,1.01c-.12-.01-.22-.01-.28-.01-1.25,0-2.43,.23-3.32,.65-.59,.26-1.13,.67-1.45,1.09-.26,.34-.37,.61-.37,.95,0,.41,.2,.76,.55,1,.46,.29,1.26,.46,2.18,.46,.37,0,.62-.02,.91-.08l.05,1.09q-.23-.01-.89-.01c-1.32-.01-2.43-.28-3.02-.74-.52-.4-.78-.92-.78-1.54,0-1.13,.82-2.08,2.38-2.73-.79,.13-1.14,.18-2.51,.35-1.89,.23-2.94,.38-3.38,.5l-.11-1.06h.13c.4,0,1.31-.1,2.1-.24,1.12-.66,2.42-1.68,3.73-2.89,.25-.23,.29-.26,.44-.41-.73,.13-1.68,.2-3.63,.29-.43,.01-.5,.02-.74,.05l-.07-1.02Z"/><path class="cls-3" d="M54.97,82.06c1.2-.64,1.89-1.81,1.89-3.2,0-1.31-.64-2.36-1.77-2.91-.42-.2-.76-.29-1.34-.32-.2,1.76-.64,3.53-1.2,4.8-.68,1.57-1.4,2.29-2.3,2.29-1.21,0-2.1-1.28-2.1-3.03,0-1.25,.46-2.45,1.28-3.36,.97-1.07,2.31-1.62,3.95-1.62,2.72,0,4.53,1.68,4.53,4.21,0,1.86-.95,3.35-2.63,4.15-.58,.28-1.08,.43-2,.62-.16-.48-.24-.64-.52-.97,1.04-.17,1.62-.34,2.21-.65Zm-3.97-5.85c-1.16,.73-1.87,2.05-1.87,3.48,0,1.09,.48,1.96,1.1,1.96,.47,0,.92-.55,1.42-1.68,.48-1.12,.91-2.83,1.07-4.32-.7,.06-1.19,.22-1.71,.56Z"/><path class="cls-3" d="M61.41,79.18c0-.41,0-.64,.04-1.42-.41,.71-.66,1.06-1.19,1.68-.17-.34-.29-.53-.54-.86,1.01-1.04,1.73-2.16,2.27-3.5,.25-.6,.43-1.26,.49-1.68l.98,.31c-.07,.19-.11,.3-.24,.68-.28,.8-.5,1.31-.9,2.09v6.52c0,.55,.01,1.02,.06,1.43h-1.04c.05-.43,.07-.82,.07-1.45v-3.8Zm3.61-.97v4.38c0,.29,.07,.38,.41,.44,.31,.07,.77,.1,1.68,.1,1.47,0,2.06-.06,2.33-.22,.28-.16,.4-.6,.48-1.65,.38,.19,.52,.24,.92,.32-.18,1.27-.36,1.79-.7,2.01-.41,.29-1.2,.38-3.26,.38-.92,0-1.61-.05-1.99-.14-.59-.16-.77-.4-.77-.97v-4.34l-.11,.04c-.68,.23-.82,.28-1.03,.38l-.14-.97c.31-.05,.72-.14,1.07-.26l.22-.07v-1.6c0-.52-.02-.9-.07-1.24h1.03c-.05,.32-.06,.68-.06,1.2v1.33l1.61-.54v-2.11c0-.43-.02-.77-.07-1.13h1.01c-.06,.36-.07,.66-.07,1.12v1.82l1.86-.62c.48-.17,.71-.25,.95-.38q-.01,.31-.02,.56c-.01,1.15-.12,2.9-.2,3.65-.12,1.07-.32,1.28-1.19,1.28-.3,0-.44-.01-.79-.05-.04-.34-.1-.55-.23-.89,.36,.07,.68,.12,.94,.12,.35,0,.4-.1,.49-1.09,.05-.58,.1-1.46,.11-2.39l-1.91,.66v3.32c0,.47,.01,.83,.06,1.16h-1c.05-.32,.07-.68,.07-1.19v-3l-1.61,.56Z"/></g></g></g></g></g><rect class="cls-1" width="101.93" height="101.93"/><g><path d="M41.98,37.3c.19,.57,.48,.94,.87,1.12,.39,.18,.93,.2,1.63,.05,.54-.12,1.26-.41,2.13-.89l.36,1.7c-.85,.42-1.68,.72-2.49,.89-1.34,.29-2.44,.17-3.3-.35-.86-.52-1.43-1.43-1.7-2.71-.27-1.28-.16-2.33,.33-3.15,.49-.82,1.35-1.36,2.56-1.62,2.37-.51,3.83,.55,4.39,3.18,.04,.2,.08,.44,.1,.73l-4.89,1.04Zm-.3-1.4l2.72-.58c-.24-1.1-.79-1.55-1.64-1.37-.46,.1-.77,.3-.95,.59-.17,.3-.22,.75-.14,1.36"/><path d="M50.78,31.02l2.39-.51,.35,1.66-2.39,.51,.56,2.64c.13,.62,.27,1,.42,1.14,.15,.14,.42,.17,.81,.08,.46-.1,.88-.26,1.26-.48l.38,1.78c-.54,.24-1.15,.44-1.85,.59-1,.21-1.75,.15-2.24-.19-.49-.34-.86-1.06-1.09-2.17l-.61-2.88-1.55,.33-.35-1.66,1.55-.33-.6-2.79,2.36-.5,.6,2.79Z"/><path d="M55.06,33.79c-.27-1.28-.16-2.33,.35-3.15,.5-.82,1.36-1.36,2.58-1.62,.83-.18,1.66-.26,2.48-.24l.39,1.82c-.76-.06-1.47-.02-2.12,.12-.56,.12-.94,.38-1.13,.79-.19,.41-.21,.99-.05,1.75,.17,.78,.43,1.31,.79,1.58,.36,.27,.85,.34,1.47,.21,.65-.14,1.3-.39,1.95-.75l.39,1.8c-.76,.36-1.54,.63-2.33,.8-1.26,.27-2.3,.14-3.11-.38-.82-.52-1.36-1.43-1.64-2.74"/><rect x="63.87" y="34.19" width="1.52" height="1.52" transform="translate(-5.86 14.22) rotate(-12.01)"/><rect x="66.23" y="33.69" width="1.52" height="1.52" transform="translate(-5.7 14.7) rotate(-12.01)"/><rect x="68.6" y="33.18" width="1.52" height="1.52" transform="translate(-5.55 15.18) rotate(-12.01)"/><path d="M52.1,9.5h3.7c.2,.06,.39,.15,.6,.19,1,.16,2.01,.25,2.99,.47,10.27,2.26,18.11,11.25,18.88,21.61,.02,.2,.12,.4,.18,.6v3.48c-.06,.16-.15,.32-.18,.48-.16,.96-.33,1.92-.43,2.89-.09,.77-.47,1.32-1,1.85-5.18,5.15-10.36,10.31-15.49,15.52-.84,.85-1.76,1.33-2.9,1.47-.07,0-.14,0-.22,.02-.81,.14-1.61,.28-2.42,.42h-3.7c-.27-.07-.54-.15-.81-.2-.82-.13-1.65-.21-2.46-.38-5.27-1.13-9.69-3.75-13.26-7.77-3.03-3.41-4.93-7.38-5.7-11.88-.14-.81-.28-1.62-.42-2.42v-3.7c.14-.77,.28-1.54,.41-2.32,1.09-6.36,4.28-11.46,9.37-15.38,3.15-2.42,6.72-3.94,10.66-4.57,.74-.12,1.47-.26,2.21-.39m22.97,29.18c2.18-9.14-2.13-19.38-11.34-24.05-8.72-4.42-19.69-2.55-26.35,5.37-6.5,7.72-6.85,18.64-1.01,26.7,5.96,8.24,15.91,10.26,22.26,8.32,0-1.21,.02-2.44,0-3.67-.02-1.39,.11-2.75,.47-4.09,1.14-4.31,5.06-7.82,9.46-8.37,1.32-.17,2.67-.16,4.01-.2,.83-.03,1.65,0,2.52,0"/></g></g></g></svg>