<?xml version="1.0" encoding="UTF-8"?><svg id="_イヤー_2" xmlns="http://www.w3.org/2000/svg" xmlns:xlink="http://www.w3.org/1999/xlink" viewBox="0 0 101.93 101.93"><defs><style>.cls-1{fill:none;}.cls-2{clip-path:url(#clippath);}.cls-3{fill:#707070;}.cls-4{clip-path:url(#clippath-1);}.cls-5{isolation:isolate;}</style><clipPath id="clippath"><rect class="cls-1" x="2.66" y="72.6" width="96" height="13.8"/></clipPath><clipPath id="clippath-1"><rect class="cls-1" x="2.66" y="72.6" width="96" height="13.8"/></clipPath></defs><g id="_イヤー_1-2"><g><g class="cls-5"><g class="cls-2"><g class="cls-5"><g class="cls-4"><g><path class="cls-3" d="M5.47,74.22c-.49,0-.83,.01-1.21,.05v-.86c.4,.05,.78,.07,1.27,.07h6.26c.5,0,.86-.02,1.22-.07v.86c-.37-.04-.65-.05-1.18-.05h-2.9v.65h3.48c.71,0,1.04-.01,1.37-.05-.04,.28-.05,.52-.05,.92v.72c0,.4,.01,.6,.07,.92h-.91v-1.83h-3.96v1.38c0,.6,.01,.84,.06,1.16h-.98c.05-.31,.07-.64,.07-1.16v-1.38h-3.72v1.83h-.91c.05-.31,.07-.55,.07-.92v-.72c0-.38-.01-.64-.05-.92,.32,.04,.66,.05,1.36,.05h3.25v-.65h-2.61Zm-.07,7.92v.65h-.95c.05-.31,.07-.67,.07-1.05v-2.22c0-.44-.01-.77-.05-1.09,.31,.04,.59,.05,1.07,.05h6.12c.52,0,.82-.01,1.13-.05-.04,.31-.05,.6-.05,1.09v1.8c0,.38,.01,.65,.04,.88-.37-.04-.65-.05-1.12-.05h-2.73v.67c0,.11,.02,.17,.1,.2,.18,.1,.65,.13,1.81,.13,1.32,0,1.94-.06,2.13-.23,.16-.12,.2-.48,.22-1.39,.32,.17,.4,.2,.88,.35-.07,1.93-.23,2.03-3.42,2.03-2.24,0-2.57-.11-2.57-.84v-.92h-2.67Zm-.42-6.08c.2,.02,.37,.04,.7,.04h1.1c.29,0,.49-.01,.67-.04v.65c-.19-.02-.38-.04-.67-.04h-1.1c-.3,0-.49,.01-.7,.04v-.65Zm0,1.16c.19,.02,.36,.04,.7,.04h1.1c.29,0,.49-.01,.67-.04v.65c-.23-.02-.38-.04-.67-.04h-1.1c-.31,0-.44,.01-.7,.04v-.65Zm.41,1.93v.76h2.69v-.76h-2.69Zm0,1.43v.85h2.69v-.85h-2.69Zm6.49-.67v-.76h-2.95v.76h2.95Zm0,1.52v-.85h-2.95v.85h2.95Zm-2.24-5.37c.2,.02,.37,.04,.7,.04h1.3c.3,0,.49-.01,.67-.04v.65c-.19-.02-.37-.04-.67-.04h-1.3c-.31,0-.5,.01-.7,.04v-.65Zm0,1.16c.18,.02,.36,.04,.7,.04h1.3c.29,0,.49-.01,.67-.04v.65c-.19-.02-.37-.04-.67-.04h-1.3c-.31,0-.49,.01-.7,.04v-.65Z"/><path class="cls-3" d="M20.3,77.26c0-.32-.01-.59-.04-.83h.58c1.01-.56,1.58-.98,2.52-1.85h-5.5c-.53,0-.94,.02-1.28,.07v-1.02c.38,.05,.76,.07,1.28,.07h5.62c.52,0,.74-.01,.96-.05l.58,.64q-.36,.32-1.03,.94c-.7,.64-1.5,1.21-2.71,1.91v.84h3.24c.73,0,1.09-.01,1.51-.07v1.04c-.46-.06-.83-.07-1.5-.07h-3.25v3.86c0,.88-.32,1.1-1.56,1.1-.35,0-.65-.01-1.48-.07-.06-.48-.1-.64-.24-1.02,.72,.11,1.22,.16,1.73,.16,.47,0,.58-.06,.58-.34v-3.69h-3.49c-.62,0-1.04,.02-1.51,.07v-1.04c.43,.05,.85,.07,1.55,.07h3.45v-.72Z"/><path class="cls-3" d="M30.31,77.79c-.12,.23-.16,.29-.35,.76-.31-.46-.48-.78-.67-1.31,.02,.58,.05,1.26,.05,1.68v3.8c0,.68,.02,1.09,.06,1.42h-.97c.05-.34,.07-.79,.07-1.42v-2.95c0-.5,.04-1.26,.11-2.16-.32,1.47-.7,2.48-1.27,3.39-.11-.33-.28-.65-.47-.88,.67-.97,1.13-2.11,1.51-3.84h-.38c-.32,0-.6,.01-.83,.05v-.9c.22,.04,.42,.05,.83,.05h.49v-1.13c0-.64-.01-.96-.06-1.25h.97c-.05,.3-.06,.64-.06,1.24v1.14h.3c.35,0,.56-.01,.76-.05v.9c-.26-.04-.46-.05-.74-.05h-.24c.22,.52,.38,.78,.9,1.43,.07,.01,.12,.01,.16,.01,.05,0,.08,0,.16-.01,.42-.5,.6-.74,.91-1.16-.41-.55-.8-.97-1.4-1.49l.5-.58q.2,.19,.31,.3c.42-.58,.67-1.06,.88-1.64l.73,.36c-.37,.74-.62,1.15-1.1,1.81,.22,.23,.32,.37,.5,.6,.3-.48,.42-.71,.68-1.26l.67,.47c-.83,1.29-1.18,1.79-1.81,2.53,.46-.05,.9-.11,1.31-.18-.1-.25-.16-.36-.32-.68l.56-.2c.34,.62,.52,1.04,.71,1.73l-.61,.24q-.06-.24-.13-.49c-.44,.1-1.63,.3-2.25,.38-.14,.02-.18,.02-.31,.06l-.13-.72Zm6.49,1.36c.73,0,.92-.01,1.27-.07v.9c-.38-.05-.72-.07-1.27-.07h-1.92c.14,.62,.28,.98,.54,1.47,.55-.5,.86-.86,1.07-1.28l.7,.47c-.47,.58-.92,1.06-1.37,1.46,.47,.66,.9,1.04,1.19,1.04,.13,0,.2-.08,.3-.37,.06-.18,.1-.36,.12-.58,0-.04,.02-.14,.05-.35,0-.06,.01-.18,.04-.29,.26,.25,.44,.37,.71,.5-.26,1.54-.53,1.99-1.14,1.99s-1.2-.47-1.9-1.44c-.89,.66-1.7,1.08-2.88,1.46-.17-.34-.25-.46-.54-.74,1.21-.3,2.07-.7,3.01-1.37-.31-.6-.53-1.2-.71-1.99h-1.9q-.02,.32-.06,.54c.37,.46,.82,.82,1.5,1.2q-.16,.19-.44,.7c-.53-.34-.88-.64-1.22-1.06-.31,1.15-.76,1.87-1.6,2.64-.25-.29-.36-.4-.68-.61,1.06-.75,1.56-1.76,1.69-3.41h-.08c-.42,0-.76,.01-1.06,.05v-.86c.34,.05,.55,.06,1.06,.06h2.66c-.22-1.55-.3-2.66-.36-5.19,0-.36-.01-.5-.06-.77h.97c-.06,.29-.07,.49-.07,1.21,0,1.8,.12,3.53,.31,4.75h1.68c-.26-.3-.52-.52-.9-.76l.47-.37c-.68,.08-1.06,.13-1.1,.14l-.14-.78c.1,.01,.11,.01,.25,.01,.41-.46,.46-.52,.84-1.01-.46-.59-.76-.91-1.35-1.42l.46-.59c.16,.14,.22,.19,.35,.31,.35-.48,.61-.95,.84-1.5l.72,.4c-.41,.68-.61,1.01-1.08,1.61,.2,.22,.28,.3,.52,.59,.44-.64,.56-.82,.86-1.36l.65,.49c-1.19,1.58-1.33,1.76-1.94,2.43,.7-.05,.83-.06,1.27-.13-.11-.24-.16-.34-.32-.61l.59-.22c.32,.55,.54,1.02,.84,1.85l-.66,.24c-.11-.35-.13-.44-.22-.66-.19,.02-.64,.1-1.34,.18,.32,.17,.61,.38,.94,.71l-.46,.43h.34Z"/><path class="cls-3" d="M43.31,77.68c.31-.38,.49-.65,.62-.92-.23-.02-.43-.02-.91-.02h-1.91c-.4,0-.71,.01-1.04,.04,.02-.3,.05-.59,.05-.95v-1.33c0-.4-.02-.68-.05-1,.32,.04,.6,.05,1.07,.05h1.9c.47,0,.77-.01,1.04-.05-.02,.29-.02,.54-.02,.96v1.94l.96,.22c-.28,.47-.38,.61-.71,1.07h4.45c.5,0,.89-.02,1.22-.07v.94c-.4-.05-.73-.07-1.22-.07h-2.21c.98,.94,2.16,1.55,3.79,1.97-.25,.35-.31,.44-.47,.83-.48-.18-.62-.25-1-.42v2.15c0,.38,.02,.8,.06,1.08h-.92v-.56h-2.17v.56h-.91c.04-.28,.06-.56,.06-.9v-2.28c0-.41-.01-.68-.05-.97,.29,.04,.56,.05,.98,.05h1.31c-.71-.46-1.25-.91-1.79-1.5h-1.76c-.5,.56-1.06,1.03-1.74,1.5h1.24c.4,0,.67-.01,.96-.05-.02,.28-.04,.54-.04,.97v2.17c0,.37,.01,.64,.05,.91h-.89v-.47h-1.98v.58h-.95c.05-.32,.07-.7,.07-1.08v-2.13c-.26,.13-.42,.2-.89,.42-.08-.29-.2-.5-.46-.8,1.51-.49,2.47-1.04,3.51-2.01h-2.03c-.52,0-.89,.02-1.22,.07v-.94c.34,.05,.68,.07,1.22,.07h2.76Zm-2.34-1.67h2.23v-1.74h-2.23v1.74Zm.31,6.73h1.98v-2.04h-1.98v2.04Zm7.87-6.92c0,.38,.01,.66,.05,.95-.35-.02-.66-.04-1.06-.04h-2.04c-.46,0-.77,.01-1.07,.05,.04-.3,.05-.5,.05-.86v-1.46c0-.38-.01-.65-.05-.96,.29,.04,.58,.05,1.06,.05h2.03c.47,0,.74-.01,1.08-.05-.04,.3-.05,.59-.05,1.01v1.32Zm-3.31,6.92h2.17v-2.04h-2.17v2.04Zm.11-6.73h2.34v-1.73h-2.34v1.73Z"/><path class="cls-3" d="M52.64,82.67c0,.67,.02,1.07,.07,1.37h-1.03c.05-.34,.07-.71,.07-1.38v-7.88c0-.6-.01-.94-.05-1.32,.34,.04,.65,.05,1.25,.05h1.9c.6,0,.89-.01,1.22-.05-.02,.31-.04,.66-.04,1.13v1.43c0,.52,.01,.82,.04,1.1-.32-.02-.7-.04-1.19-.04h-2.24v5.59Zm0-7.72h2.57v-.78h-2.57v.78Zm0,1.46h2.57v-.82h-2.57v.82Zm4.45,4.47c.6,.78,1.28,1.22,2.42,1.55-.2,.3-.29,.46-.42,.79-1.1-.41-1.88-1-2.52-1.88-.23,.53-.5,.91-.95,1.27-.49,.41-.98,.66-1.91,.98-.17-.31-.3-.52-.52-.74,.85-.24,1.28-.41,1.72-.71,.5-.34,.77-.68,1-1.26h-1.43c-.47,0-.76,.01-1.08,.06v-.82c.28,.05,.54,.06,1.04,.06h1.63c.04-.35,.05-.52,.06-.98h-1.49c-.44,0-.72,.01-.98,.05v-.79c.29,.05,.5,.06,.97,.06h.55c-.19-.32-.35-.55-.68-.95l.76-.26c.34,.47,.56,.8,.78,1.21h1.16c.3-.44,.43-.7,.67-1.22l.8,.22c-.22,.4-.37,.65-.62,1.01h.6c.46,0,.7-.01,.98-.06v.79c-.24-.04-.55-.05-.97-.05h-1.7c-.02,.47-.04,.65-.08,.98h1.96c.5,0,.74-.01,1.04-.06v.82c-.28-.05-.58-.06-1.04-.06h-1.75Zm4.5,1.97c0,.59-.1,.83-.42,.97-.18,.08-.47,.11-1.12,.11-.16,0-.38-.01-.66-.02-.04-.42-.07-.59-.2-.89,.54,.08,.71,.1,1.08,.1,.35,0,.43-.07,.43-.34v-5.7h-2.46c-.52,0-.85,.01-1.19,.04,.02-.34,.04-.64,.04-1.1v-1.43c0-.43-.01-.74-.04-1.13,.34,.04,.62,.05,1.22,.05h2.11c.61,0,.91-.01,1.26-.05-.05,.47-.06,.78-.06,1.32v8.07Zm-3.67-7.9h2.78v-.78h-2.78v.78Zm0,1.46h2.78v-.82h-2.78v.82Z"/><path class="cls-3" d="M63.27,77.86c.3,.05,.48,.06,.94,.06h.7c.36,0,.61-.01,.91-.06-.04,.38-.05,.67-.05,1.28v2.41c.18,.38,.32,.56,.58,.73,.67,.48,1.37,.62,3.02,.62,2.33,0,3.72-.07,4.92-.23-.22,.52-.22,.54-.31,1.03-1.09,.04-2.71,.07-4.21,.07-1.98,0-2.69-.11-3.44-.53-.41-.23-.68-.49-1.02-.96-.52,.52-.84,.8-1.36,1.19-.2,.16-.29,.23-.47,.38l-.46-.95c.49-.22,1.2-.74,1.86-1.37v-2.82h-.76c-.37,0-.55,.01-.85,.06v-.94Zm.79-4.51c.78,.72,1.18,1.14,1.97,2.13l-.72,.66c-.7-.98-1.07-1.42-1.92-2.19l.67-.6Zm3.32,1.62c-.55,0-.88,.01-1.09,.06v-.88c.3,.04,.68,.06,1.28,.06h2.01c-.01-.4-.04-.67-.08-1.03h.97c-.06,.34-.08,.62-.08,1.03h2.24c.56,0,.98-.02,1.28-.06v.88c-.29-.05-.62-.06-1.21-.06h-2.31v.82h1.97c.41,0,.62-.01,.96-.05-.04,.26-.05,.5-.05,.84v2.43c0,.32,.01,.55,.05,.8-.28-.04-.59-.05-.96-.05h-1.97v.89h2.36c.6,0,.95-.01,1.21-.06v.86c-.28-.05-.64-.06-1.21-.06h-2.36v.14c0,.37,.02,.74,.07,1.08h-.96c.06-.37,.08-.7,.08-1.07v-.16h-2.05c-.48,0-.94,.02-1.2,.05v-.85c.26,.05,.58,.06,1.2,.06h2.05v-.89h-1.77c-.35,0-.62,.01-.96,.05,.04-.3,.05-.48,.05-.8v-2.47c0-.32-.01-.49-.05-.8,.29,.04,.56,.05,.95,.05h1.79v-.82h-2.21Zm.35,1.52v.91h1.86v-.91h-1.86Zm0,1.59v.97h1.86v-.97h-1.86Zm2.66-.68h2.04v-.91h-2.04v.91Zm0,1.66h2.04v-.97h-2.04v.97Z"/><path class="cls-3" d="M80.14,79.08h-2.85c-.47,0-.78,.01-1.13,.05v-.84c.29,.05,.59,.06,1.15,.06h2.83v-.67h-2.55c-.4,0-.71,.01-.98,.05,.04-.28,.05-.49,.05-.82v-.6c0-.32-.01-.53-.05-.83,.29,.04,.58,.05,1,.05h2.54v-.68h-3.45c-.56,0-1,.02-1.37,.07v-.9c.32,.05,.7,.07,1.4,.07h3.42c0-.5-.01-.71-.07-1.02h1.01c-.07,.3-.08,.48-.08,1.02h3.59c.71,0,1.08-.02,1.4-.07v.9c-.4-.05-.79-.07-1.36-.07h-3.63v.68h2.76c.42,0,.7-.01,.98-.05-.04,.3-.05,.48-.05,.83v.6c0,.35,.01,.52,.05,.82-.28-.04-.58-.05-.96-.05h-2.78v.67h2.64c.7,0,1.01-.01,1.32-.05-.02,.26-.04,.47-.04,1.04v.47c.62,0,.96-.02,1.21-.07v.86c-.29-.05-.55-.06-1.21-.06v.78c0,.6,.01,.91,.07,1.22h-.94v-.48h-3.06v.9c0,.89-.26,1.08-1.51,1.08-.25,0-.61-.01-1.14-.05-.04-.35-.08-.52-.25-.88,.65,.08,1.06,.12,1.52,.12,.42,0,.53-.06,.53-.31v-.86h-2.9c-.54,0-.79,.01-1.18,.06v-.85c.35,.04,.55,.05,1.15,.05h2.93v-.78h-3.59c-.66,0-.98,.01-1.31,.06v-.86c.3,.06,.62,.07,1.29,.07h3.6v-.73Zm-2.61-2.85v.77h2.61v-.77h-2.61Zm3.47,.77h2.82v-.77h-2.82v.77Zm3.06,2.82v-.73h-3.06v.73h3.06Zm-3.06,1.51h3.06v-.78h-3.06v.78Z"/><path class="cls-3" d="M89.05,77.82c-.56,0-.91,.01-1.26,.06v-.86c.34,.05,.66,.06,1.26,.06h1.66c-.18-.49-.34-.83-.58-1.24h-1.45c-.58,0-1.01,.02-1.37,.06v-.89c.35,.05,.72,.07,1.34,.07h.7c-.22-.4-.49-.76-.94-1.22l.83-.36c.52,.63,.68,.91,1.03,1.58h.91v-.9c0-.4-.02-.72-.07-.98h.97c-.04,.23-.05,.5-.05,.96v.92h1.14v-.92c0-.42-.01-.73-.05-.96h.97c-.05,.24-.07,.59-.07,.98v.9h1.03c.48-.66,.72-1.08,.94-1.64l.88,.36c-.34,.55-.55,.89-.86,1.28h.62c.62,0,.98-.02,1.33-.07v.89c-.35-.04-.79-.06-1.37-.06h-1.36c-.2,.46-.37,.84-.6,1.24h1.62c.61,0,.92-.01,1.27-.06v.86c-.35-.05-.7-.06-1.27-.06h-3.24v.78h2.54c.58,0,.95-.01,1.27-.06v.84c-.34-.05-.7-.06-1.27-.06h-2.54v.83h3.57c.68,0,1.06-.02,1.38-.07v.9c-.43-.05-.83-.07-1.37-.07h-2.93c.95,.89,2.61,1.61,4.56,1.96-.25,.31-.36,.49-.53,.88-2.29-.65-3.42-1.26-4.73-2.53,.02,.48,.04,.72,.04,.97v.74c0,.52,.02,.89,.07,1.24h-.98c.05-.37,.07-.74,.07-1.25v-.73c0-.26,.01-.53,.04-.96-.7,.7-1.13,1.02-1.87,1.45-.74,.42-1.45,.72-2.55,1.07-.18-.37-.3-.54-.56-.84,1.88-.41,3.18-1.01,4.29-1.99h-2.73c-.54,0-.96,.02-1.38,.07v-.9c.35,.05,.72,.07,1.37,.07h3.39v-.83h-2.4c-.56,0-.94,.01-1.26,.06v-.84c.35,.05,.71,.06,1.26,.06h2.4v-.78h-3.12Zm4.67-.74c.24-.43,.38-.78,.55-1.24h-3.17c.24,.52,.34,.73,.5,1.24h2.11Z"/></g></g></g></g></g><path d="M49.97,46.03c-1.35,.2-2.75,.31-4.17,.31-4.11,0-8.1-.89-10.94-2.45-2.38-1.3-3.75-2.94-3.75-4.49v-4.94c3,2.73,8.46,4.55,14.69,4.55,1.44,0,2.83-.1,4.17-.28v-2.48c-1.35,.2-2.75,.31-4.17,.31-4.11,0-8.1-.89-10.94-2.45-2.38-1.3-3.75-2.94-3.75-4.49v-4.96c3,2.73,8.46,4.55,14.69,4.55,1.44,0,2.83-.1,4.17-.28v-2.48c-1.35,.2-2.75,.31-4.17,.31-4.11,0-8.1-.89-10.94-2.45-2.38-1.3-3.75-2.94-3.75-4.49v-4.89c3,2.73,8.46,4.55,14.69,4.55s11.69-1.82,14.69-4.55v3.97h2.45V10.06c-.04-5.17-7.7-9.35-17.14-9.35S28.7,4.9,28.66,10.06v29.37h0c.02,5.17,7.69,9.36,17.14,9.36,1.44,0,2.83-.1,4.17-.28v-2.48ZM34.86,5.61c2.84-1.56,6.83-2.45,10.94-2.45s8.1,.89,10.94,2.45c2.38,1.3,3.75,2.94,3.75,4.49s-1.37,3.18-3.75,4.49c-2.84,1.56-6.83,2.45-10.94,2.45s-8.1-.89-10.94-2.45c-2.38-1.3-3.75-2.94-3.75-4.49s1.37-3.19,3.75-4.49"/><path d="M72.48,21.96h-18.54c-.51,0-.92,.42-.92,.92V58.64c0,.51,.42,.92,.92,.92h18.54c.51,0,.92-.42,.92-.92V22.88c0-.51-.42-.92-.92-.92m-.66,35.3c0,.22-.18,.4-.4,.4h-16.1c-.22,0-.4-.18-.4-.4v-2.57c0-.22,.18-.4,.4-.4h16.1c.22,0,.4,.18,.4,.4v2.57Zm-8.44-7.22c-1.31,0-2.37-1.06-2.37-2.37s1.06-2.37,2.37-2.37,2.37,1.06,2.37,2.37-1.06,2.37-2.37,2.37m.97,1.92c0,.53-.43,.97-.97,.97s-.97-.43-.97-.97,.43-.97,.97-.97,.97,.43,.97,.97m-5.92-11.92c0,.55-.44,.99-.99,.99s-.99-.44-.99-.99,.44-.99,.99-.99,.99,.44,.99,.99m-.5-2.7c0-.55,.44-.99,.99-.99s.99,.44,.99,.99-.44,.99-.99,.99-.99-.44-.99-.99m.99,4.42c.55,0,.99,.44,.99,.99s-.44,.99-.99,.99-.99-.44-.99-.99,.44-.99,.99-.99m.5-1.71c0-.55,.44-.99,.99-.99s.99,.44,.99,.99-.44,.99-.99,.99-.99-.44-.99-.99m4.95,0c0,.55-.44,.99-.99,.99s-.99-.44-.99-.99,.44-.99,.99-.99,.99,.44,.99,.99m-.49-2.7c0-.55,.44-.99,.99-.99s.99,.44,.99,.99-.44,.99-.99,.99-.99-.44-.99-.99m-1.98,.99c-.55,0-.99-.44-.99-.99s.44-.99,.99-.99,.99,.44,.99,.99-.44,.99-.99,.99m0,3.43c.55,0,.99,.44,.99,.99s-.44,.99-.99,.99-.99-.44-.99-.99,.44-.99,.99-.99m2.97,1.98c-.55,0-.99-.44-.99-.99s.44-.99,.99-.99,.99,.44,.99,.99-.44,.99-.99,.99m.49-3.69c0-.55,.44-.99,.99-.99s.99,.44,.99,.99-.44,.99-.99,.99-.99-.44-.99-.99m1.48-2.7c0-.55,.44-.99,.99-.99s.99,.44,.99,.99-.44,.99-.99,.99-.99-.44-.99-.99m.99,4.42c.55,0,.99,.44,.99,.99s-.44,.99-.99,.99-.99-.44-.99-.99,.44-.99,.99-.99m.49-1.71c0-.55,.44-.99,.99-.99s.99,.44,.99,.99-.44,.99-.99,.99-.99-.44-.99-.99m2.47,1.71c.55,0,.99,.44,.99,.99s-.44,.99-.99,.99-.99-.44-.99-.99,.44-.99,.99-.99m0-3.43c-.55,0-.99-.44-.99-.99s.44-.99,.99-.99,.99,.44,.99,.99-.44,.99-.99,.99m0-5.41c-.55,0-.99-.44-.99-.99s.44-.99,.99-.99,.99,.44,.99,.99-.44,.99-.99,.99m-.49,1.71c0,.55-.44,.99-.99,.99s-.99-.44-.99-.99,.44-.99,.99-.99,.99,.44,.99,.99m-2.47-1.71c-.55,0-.99-.44-.99-.99s.44-.99,.99-.99,.99,.44,.99,.99-.44,.99-.99,.99m-.5,1.71c0,.55-.44,.99-.99,.99s-.99-.44-.99-.99,.44-.99,.99-.99,.99,.44,.99,.99m-2.47-1.71c-.55,0-.99-.44-.99-.99s.44-.99,.99-.99,.99,.44,.99,.99-.44,.99-.99,.99m-.5,1.71c0,.55-.44,.99-.99,.99s-.99-.44-.99-.99,.44-.99,.99-.99,.99,.44,.99,.99m-2.47-1.71c-.55,0-.99-.44-.99-.99s.44-.99,.99-.99,.99,.44,.99,.99-.44,.99-.99,.99m-.5,1.71c0,.55-.44,.99-.99,.99s-.99-.44-.99-.99,.44-.99,.99-.99,.99,.44,.99,.99m-2.47-1.71c-.55,0-.99-.44-.99-.99s.44-.99,.99-.99,.99,.44,.99,.99-.44,.99-.99,.99m-.49,1.71c0,.55-.44,.99-.99,.99s-.99-.44-.99-.99,.44-.99,.99-.99,.99,.44,.99,.99m-2.47-1.71c-.55,0-.99-.44-.99-.99s.44-.99,.99-.99,.99,.44,.99,.99-.44,.99-.99,.99m0,3.43c.55,0,.99,.44,.99,.99s-.44,.99-.99,.99-.99-.44-.99-.99,.44-.99,.99-.99m0,5.41c.55,0,.99,.44,.99,.99s-.44,.99-.99,.99-.99-.44-.99-.99,.44-.99,.99-.99m15.87-12.88c0,.22-.18,.4-.4,.4h-16.1c-.22,0-.4-.18-.4-.4v-1.06c0-.22,.18-.4,.4-.4h16.1c.22,0,.4,.18,.4,.4v1.06Zm0-3.29c0,.22-.18,.4-.4,.4h-16.1c-.22,0-.4-.18-.4-.4v-1.06c0-.22,.18-.4,.4-.4h16.1c.22,0,.4,.18,.4,.4v1.06Z"/><rect class="cls-1" width="101.93" height="101.93"/></g></g></svg>