<?xml version="1.0" encoding="UTF-8"?><svg id="_イヤー_2" xmlns="http://www.w3.org/2000/svg" xmlns:xlink="http://www.w3.org/1999/xlink" viewBox="0 0 101.93 101.93"><defs><style>.cls-1{fill:none;}.cls-2{clip-path:url(#clippath);}.cls-3{fill:#fff;}.cls-4{fill:#707070;}.cls-5{clip-path:url(#clippath-1);}.cls-6{isolation:isolate;}</style><clipPath id="clippath"><rect class="cls-1" x="25.96" y="72.6" width="50.4" height="13.8"/></clipPath><clipPath id="clippath-1"><rect class="cls-1" x="25.96" y="72.6" width="50.4" height="13.8"/></clipPath></defs><g id="_イヤー_1-2"><g><g class="cls-6"><g class="cls-2"><g class="cls-6"><g class="cls-5"><g><path class="cls-4" d="M28.77,74.22c-.49,0-.83,.01-1.21,.05v-.86c.4,.05,.78,.07,1.27,.07h6.26c.5,0,.86-.02,1.22-.07v.86c-.37-.04-.65-.05-1.18-.05h-2.9v.65h3.48c.71,0,1.04-.01,1.37-.05-.04,.28-.05,.52-.05,.92v.72c0,.4,.01,.6,.07,.92h-.91v-1.83h-3.96v1.38c0,.6,.01,.84,.06,1.16h-.98c.05-.31,.07-.64,.07-1.16v-1.38h-3.72v1.83h-.91c.05-.31,.07-.55,.07-.92v-.72c0-.38-.01-.64-.05-.92,.32,.04,.66,.05,1.36,.05h3.25v-.65h-2.61Zm-.07,7.92v.65h-.95c.05-.31,.07-.67,.07-1.05v-2.22c0-.44-.01-.77-.05-1.09,.31,.04,.59,.05,1.07,.05h6.12c.52,0,.82-.01,1.13-.05-.04,.31-.05,.6-.05,1.09v1.8c0,.38,.01,.65,.04,.88-.37-.04-.65-.05-1.12-.05h-2.73v.67c0,.11,.02,.17,.1,.2,.18,.1,.65,.13,1.81,.13,1.32,0,1.94-.06,2.13-.23,.16-.12,.2-.48,.22-1.39,.32,.17,.4,.2,.88,.35-.07,1.93-.23,2.03-3.42,2.03-2.24,0-2.57-.11-2.57-.84v-.92h-2.67Zm-.42-6.08c.2,.02,.37,.04,.7,.04h1.1c.29,0,.49-.01,.67-.04v.65c-.19-.02-.38-.04-.67-.04h-1.1c-.3,0-.49,.01-.7,.04v-.65Zm0,1.16c.19,.02,.36,.04,.7,.04h1.1c.29,0,.49-.01,.67-.04v.65c-.23-.02-.38-.04-.67-.04h-1.1c-.31,0-.44,.01-.7,.04v-.65Zm.41,1.93v.76h2.69v-.76h-2.69Zm0,1.43v.85h2.69v-.85h-2.69Zm6.49-.67v-.76h-2.95v.76h2.95Zm0,1.52v-.85h-2.95v.85h2.95Zm-2.24-5.37c.2,.02,.37,.04,.7,.04h1.3c.3,0,.49-.01,.67-.04v.65c-.19-.02-.37-.04-.67-.04h-1.3c-.31,0-.5,.01-.7,.04v-.65Zm0,1.16c.18,.02,.36,.04,.7,.04h1.3c.29,0,.49-.01,.67-.04v.65c-.19-.02-.37-.04-.67-.04h-1.3c-.31,0-.49,.01-.7,.04v-.65Z"/><path class="cls-4" d="M44.2,77.26c0-.32-.01-.59-.04-.83h.58c1.01-.56,1.58-.98,2.52-1.85h-5.5c-.53,0-.94,.02-1.28,.07v-1.02c.38,.05,.76,.07,1.28,.07h5.62c.52,0,.74-.01,.96-.05l.58,.64q-.36,.32-1.03,.94c-.7,.64-1.5,1.21-2.71,1.91v.84h3.24c.73,0,1.09-.01,1.51-.07v1.04c-.46-.06-.83-.07-1.5-.07h-3.25v3.86c0,.88-.32,1.1-1.56,1.1-.35,0-.65-.01-1.48-.07-.06-.48-.1-.64-.24-1.02,.72,.11,1.22,.16,1.73,.16,.47,0,.58-.06,.58-.34v-3.69h-3.49c-.62,0-1.04,.02-1.51,.07v-1.04c.43,.05,.85,.07,1.55,.07h3.45v-.72Z"/><path class="cls-4" d="M56.88,77.7c.54,0,.85-.01,1.09-.06v.95c-.25-.05-.58-.06-1.06-.06h-4.02c-.56,0-.86,.01-1.16,.06v-.95c.3,.05,.59,.06,1.16,.06h2.53c.41-.86,.59-1.38,.79-2.27l.88,.26c-.25,.82-.42,1.24-.82,2h.6Zm-.17-3.25c.54,0,.83-.01,1.1-.06v.94c-.25-.05-.55-.06-1.07-.06h-3.66c-.49,0-.77,.01-1.06,.06v-.94c.28,.05,.56,.06,1.13,.06h1.39v-.41c0-.37-.02-.68-.07-.9h1.06c-.05,.26-.07,.52-.07,.9v.41h1.25Zm-3.3,9.57h-.94c.04-.3,.05-.56,.05-1.1v-2.47c0-.54-.01-.75-.04-1.01,.28,.02,.52,.04,.96,.04h2.9c.46,0,.68-.01,.88-.04-.04,.26-.04,.38-.04,.97v2.67c0,.42,.01,.65,.05,.92h-.94v-.72h-2.89v.73Zm.2-8.6c.35,.66,.5,1.08,.74,1.91l-.83,.28c-.18-.76-.36-1.2-.71-1.9l.79-.29Zm-.2,7.05h2.9v-2.18h-2.9v2.18Zm9.23-8.42q-.08,.16-.47,1.07c-.32,.73-.74,1.58-1.2,2.37,.73,.78,1.02,1.19,1.29,1.83,.23,.54,.35,1.12,.35,1.67,0,.66-.22,1.14-.62,1.37-.23,.13-.61,.2-1.15,.2-.3,0-.58-.01-.91-.05-.01-.41-.06-.65-.19-.94,.44,.07,.74,.1,1.1,.1,.65,0,.86-.19,.86-.74s-.13-1.08-.38-1.62c-.3-.61-.6-.98-1.38-1.69,.72-1.21,1.12-2.09,1.54-3.29h-2.18v8.43c0,.64,.02,1,.08,1.36h-1.06c.05-.36,.07-.78,.07-1.34v-8.24c0-.36-.01-.68-.05-1.07,.3,.02,.54,.04,.97,.04h1.97c.47,0,.71-.01,.94-.05l.42,.59Z"/><path class="cls-4" d="M64.72,79.87c0-.47-.01-.78-.05-1.15,.36,.04,.66,.05,1.13,.05h2.36c.37,0,.65-.01,.95-.04-.04,.26-.04,.44-.04,1.1v2.89c0,.55,.01,.88,.05,1.15h-.92v-.5h-2.58v.72h-.96c.05-.31,.06-.65,.06-1.26v-2.96Zm.89,2.7h2.59v-3h-2.59v3Zm.8-8.04c0-.41-.01-.71-.05-1.02,.38,.05,.71,.06,1.36,.06h4.09c.7,0,1.02-.01,1.36-.06-.04,.31-.05,.56-.05,1.02v2.07c0,.47,.01,.77,.05,1.07-.36-.04-.65-.05-1.26-.05h-4.28c-.59,0-.91,.01-1.26,.05,.04-.31,.05-.63,.05-1.05v-2.09Zm.91,2.28h4.87v-2.41h-4.87v2.41Zm2.87,2.93c0-.55,0-.73-.04-1.01,.29,.02,.55,.04,.95,.04h2.71c.48,0,.77-.01,1.04-.05-.04,.32-.05,.68-.05,1.16v2.95c0,.65,.01,.97,.06,1.26h-.96v-.72h-2.84v.72h-.92c.04-.3,.05-.6,.05-1.14v-3.21Zm.88,2.83h2.85v-3h-2.85v3Z"/></g></g></g></g></g><path d="M24.36,27.03c.02-.38,.04-.63,.04-.89,0-4.89-.01-9.78,.02-14.67,0-.77-.23-1.04-1-.98-.74,.06-1.48,.01-2.45,.01,1.81-3.26,3.54-6.37,5.39-9.68,1.82,3.29,3.53,6.4,5.35,9.69-1.03,0-1.86,.01-2.7,0-.44,0-.7,.11-.7,.62,.01,3.77,0,7.55,.01,11.32,0,.1,.05,.2,.1,.39,.24-.1,.46-.16,.66-.27,1.87-1.07,3.72-2.16,5.6-3.23,.41-.23,.63-.51,.6-1.01-.03-.72-.03-1.44,0-2.15,.02-.5-.16-.77-.69-.71-.6,.07-.7-.26-.7-.77,.02-1.81,.03-3.62,0-5.42-.01-.65,.25-.81,.85-.8,1.81,.03,3.62,.04,5.42,0,.65-.01,.81,.23,.8,.84-.03,1.78-.03,3.56,0,5.34,.01,.61-.16,.91-.81,.81-.79-.12-1,.25-.97,1,.05,1.3-.02,2.61,.03,3.91,.02,.61-.18,.96-.72,1.26-3.16,1.8-6.3,3.65-9.47,5.45-.54,.31-.74,.65-.72,1.26,.04,1.25,.03,2.5,0,3.75-.01,.56,.15,.92,.63,1.25,1.55,1.08,2.23,3.02,1.73,4.78-.51,1.79-2.17,3.18-3.98,3.33-1.87,.15-3.82-1.11-4.49-2.92-.71-1.89-.08-4.01,1.54-5.2,1.01-.74,.97-1.46-.12-2.1-3.08-1.79-6.15-3.59-9.26-5.34-.65-.37-.87-.79-.85-1.51,.05-1.73,.05-3.46,0-5.18-.01-.39-.22-.88-.51-1.14-1.68-1.52-1.84-3.94-.32-5.54,1.52-1.59,4.02-1.6,5.55-.01,1.51,1.57,1.36,4.05-.31,5.54-.26,.23-.48,.65-.5,.99-.06,1.17-.05,2.34,0,3.51,.01,.29,.2,.69,.44,.83,1.99,1.19,4,2.33,6.01,3.47,.11,.06,.24,.08,.51,.17"/><rect class="cls-3" x="28.86" y="30.66" width="38" height="15"/><path d="M34.82,47.51v1.15c0,.43,.35,.79,.79,.79h5.65c.43,0,.79-.35,.79-.79v-1.15h-7.23Z"/><path d="M67.66,47.51v1.15c0,.43,.35,.79,.79,.79h5.65c.43,0,.79-.35,.79-.79v-1.15h-7.23Z"/><path d="M31.85,32.28v11.77l2.27,2.27h41.47l2.27-2.27v-11.77H31.85Zm36.44,2.24h1.58v1.58h-1.58v-1.58Zm-6.3,0h1.58v1.58h-1.58v-1.58Zm-6.3,0h1.58v1.58h-1.58v-1.58Zm-6.3,0h1.58v1.58h-1.58v-1.58Zm-9.18,5.85h-2.65v-2.65h2.65v2.65Zm33.28,3.24h-27.71v-5.89h27.71v5.89Z"/><polygon points="51.08 39.61 51.08 38.87 49.19 38.87 49.19 39.61 48.15 39.61 48.15 42.63 52.19 42.63 52.19 39.61 51.08 39.61"/><polygon points="57.38 39.61 57.38 38.87 55.49 38.87 55.49 39.61 54.45 39.61 54.45 42.63 58.49 42.63 58.49 39.61 57.38 39.61"/><polygon points="63.68 39.61 63.68 38.87 61.79 38.87 61.79 39.61 60.76 39.61 60.76 42.63 64.8 42.63 64.8 39.61 63.68 39.61"/><polygon points="69.99 39.61 69.99 38.87 68.1 38.87 68.1 39.61 67.06 39.61 67.06 42.63 71.1 42.63 71.1 39.61 69.99 39.61"/><rect class="cls-1" width="101.93" height="101.93"/></g></g></svg>