<?xml version="1.0" encoding="UTF-8"?><svg id="_イヤー_2" xmlns="http://www.w3.org/2000/svg" xmlns:xlink="http://www.w3.org/1999/xlink" viewBox="0 0 101.93 101.93"><defs><style>.cls-1{fill:none;}.cls-2{clip-path:url(#clippath);}.cls-3{fill:#fff;}.cls-4{fill:#707070;}.cls-5{clip-path:url(#clippath-1);}.cls-6{clip-path:url(#clippath-3);}.cls-7{clip-path:url(#clippath-2);}.cls-8{isolation:isolate;}</style><clipPath id="clippath"><rect class="cls-1" x="26.71" y="72.6" width="50.4" height="13.8"/></clipPath><clipPath id="clippath-1"><rect class="cls-1" x="26.71" y="72.6" width="50.4" height="13.8"/></clipPath><clipPath id="clippath-2"><rect class="cls-1" x="26.8" y="19.99" width="48.46" height="34.23"/></clipPath><clipPath id="clippath-3"><rect class="cls-1" x="26.8" y="19.99" width="48.46" height="34.23"/></clipPath></defs><g id="_イヤー_1-2"><g><g class="cls-8"><g class="cls-2"><g class="cls-8"><g class="cls-5"><g><path class="cls-4" d="M29.51,74.22c-.49,0-.83,.01-1.21,.05v-.86c.4,.05,.78,.07,1.27,.07h6.26c.5,0,.86-.02,1.22-.07v.86c-.37-.04-.65-.05-1.18-.05h-2.9v.65h3.48c.71,0,1.04-.01,1.37-.05-.04,.28-.05,.52-.05,.92v.72c0,.4,.01,.6,.07,.92h-.91v-1.83h-3.96v1.38c0,.6,.01,.84,.06,1.16h-.98c.05-.31,.07-.64,.07-1.16v-1.38h-3.72v1.83h-.91c.05-.31,.07-.55,.07-.92v-.72c0-.38-.01-.64-.05-.92,.32,.04,.66,.05,1.36,.05h3.25v-.65h-2.61Zm-.07,7.92v.65h-.95c.05-.31,.07-.67,.07-1.05v-2.22c0-.44-.01-.77-.05-1.09,.31,.04,.59,.05,1.07,.05h6.12c.52,0,.82-.01,1.13-.05-.04,.31-.05,.6-.05,1.09v1.8c0,.38,.01,.65,.04,.88-.37-.04-.65-.05-1.12-.05h-2.73v.67c0,.11,.02,.17,.1,.2,.18,.1,.65,.13,1.81,.13,1.32,0,1.94-.06,2.13-.23,.16-.12,.2-.48,.22-1.39,.32,.17,.4,.2,.88,.35-.07,1.93-.23,2.03-3.42,2.03-2.24,0-2.57-.11-2.57-.84v-.92h-2.67Zm-.42-6.08c.2,.02,.37,.04,.7,.04h1.1c.29,0,.49-.01,.67-.04v.65c-.19-.02-.38-.04-.67-.04h-1.1c-.3,0-.49,.01-.7,.04v-.65Zm0,1.16c.19,.02,.36,.04,.7,.04h1.1c.29,0,.49-.01,.67-.04v.65c-.23-.02-.38-.04-.67-.04h-1.1c-.31,0-.44,.01-.7,.04v-.65Zm.41,1.93v.76h2.69v-.76h-2.69Zm0,1.43v.85h2.69v-.85h-2.69Zm6.49-.67v-.76h-2.95v.76h2.95Zm0,1.52v-.85h-2.95v.85h2.95Zm-2.24-5.37c.2,.02,.37,.04,.7,.04h1.3c.3,0,.49-.01,.67-.04v.65c-.19-.02-.37-.04-.67-.04h-1.3c-.31,0-.5,.01-.7,.04v-.65Zm0,1.16c.18,.02,.36,.04,.7,.04h1.3c.29,0,.49-.01,.67-.04v.65c-.19-.02-.37-.04-.67-.04h-1.3c-.31,0-.49,.01-.7,.04v-.65Z"/><path class="cls-4" d="M44.94,77.26c0-.32-.01-.59-.04-.83h.58c1.01-.56,1.58-.98,2.52-1.85h-5.5c-.53,0-.94,.02-1.28,.07v-1.02c.38,.05,.76,.07,1.28,.07h5.62c.52,0,.74-.01,.96-.05l.58,.64q-.36,.32-1.03,.94c-.7,.64-1.5,1.21-2.71,1.91v.84h3.24c.73,0,1.09-.01,1.51-.07v1.04c-.46-.06-.83-.07-1.5-.07h-3.25v3.86c0,.88-.32,1.1-1.56,1.1-.35,0-.65-.01-1.48-.07-.06-.48-.1-.64-.24-1.02,.72,.11,1.22,.16,1.73,.16,.47,0,.58-.06,.58-.34v-3.69h-3.49c-.62,0-1.04,.02-1.51,.07v-1.04c.43,.05,.85,.07,1.55,.07h3.45v-.72Z"/><path class="cls-4" d="M55.55,77.79c-.12,.23-.16,.29-.35,.76-.31-.46-.48-.78-.67-1.31,.02,.58,.05,1.26,.05,1.68v3.8c0,.68,.02,1.09,.06,1.42h-.97c.05-.34,.07-.79,.07-1.42v-2.95c0-.5,.04-1.26,.11-2.16-.32,1.47-.7,2.48-1.27,3.39-.11-.33-.28-.65-.47-.88,.67-.97,1.13-2.11,1.51-3.84h-.38c-.32,0-.6,.01-.83,.05v-.9c.22,.04,.42,.05,.83,.05h.49v-1.13c0-.64-.01-.96-.06-1.25h.97c-.05,.3-.06,.64-.06,1.24v1.14h.3c.35,0,.56-.01,.76-.05v.9c-.26-.04-.46-.05-.74-.05h-.24c.22,.52,.38,.78,.9,1.43,.07,.01,.12,.01,.16,.01,.05,0,.08,0,.16-.01,.42-.5,.6-.74,.91-1.16-.41-.55-.8-.97-1.4-1.49l.5-.58q.2,.19,.31,.3c.42-.58,.67-1.06,.88-1.64l.73,.36c-.37,.74-.62,1.15-1.1,1.81,.22,.23,.32,.37,.5,.6,.3-.48,.42-.71,.68-1.26l.67,.47c-.83,1.29-1.18,1.79-1.81,2.53,.46-.05,.9-.11,1.31-.18-.1-.25-.16-.36-.32-.68l.56-.2c.34,.62,.52,1.04,.71,1.73l-.61,.24q-.06-.24-.13-.49c-.44,.1-1.63,.3-2.25,.38-.14,.02-.18,.02-.31,.06l-.13-.72Zm6.49,1.36c.73,0,.92-.01,1.27-.07v.9c-.38-.05-.72-.07-1.27-.07h-1.92c.14,.62,.28,.98,.54,1.47,.55-.5,.86-.86,1.07-1.28l.7,.47c-.47,.58-.92,1.06-1.37,1.46,.47,.66,.9,1.04,1.19,1.04,.13,0,.2-.08,.3-.37,.06-.18,.1-.36,.12-.58,0-.04,.02-.14,.05-.35,0-.06,.01-.18,.04-.29,.26,.25,.44,.37,.71,.5-.26,1.54-.53,1.99-1.14,1.99s-1.2-.47-1.9-1.44c-.89,.66-1.7,1.08-2.88,1.46-.17-.34-.25-.46-.54-.74,1.21-.3,2.07-.7,3.01-1.37-.31-.6-.53-1.2-.71-1.99h-1.9q-.02,.32-.06,.54c.37,.46,.82,.82,1.5,1.2q-.16,.19-.44,.7c-.53-.34-.88-.64-1.22-1.06-.31,1.15-.76,1.87-1.59,2.64-.25-.29-.36-.4-.68-.61,1.06-.75,1.56-1.76,1.69-3.41h-.08c-.42,0-.76,.01-1.06,.05v-.86c.34,.05,.55,.06,1.06,.06h2.66c-.22-1.55-.3-2.66-.36-5.19,0-.36-.01-.5-.06-.77h.97c-.06,.29-.07,.49-.07,1.21,0,1.8,.12,3.53,.31,4.75h1.68c-.26-.3-.52-.52-.9-.76l.47-.37c-.68,.08-1.06,.13-1.1,.14l-.14-.78c.1,.01,.11,.01,.25,.01,.41-.46,.46-.52,.84-1.01-.46-.59-.76-.91-1.35-1.42l.46-.59c.16,.14,.22,.19,.35,.31,.35-.48,.61-.95,.84-1.5l.72,.4c-.41,.68-.61,1.01-1.08,1.61,.2,.22,.28,.3,.52,.59,.44-.64,.56-.82,.86-1.36l.65,.49c-1.19,1.58-1.33,1.76-1.94,2.43,.7-.05,.83-.06,1.27-.13-.11-.24-.16-.34-.32-.61l.59-.22c.32,.55,.54,1.02,.84,1.85l-.66,.24c-.11-.35-.13-.44-.22-.66-.19,.02-.64,.1-1.34,.18,.32,.17,.61,.38,.94,.71l-.46,.43h.34Z"/><path class="cls-4" d="M69.16,77.68c.31-.38,.49-.65,.62-.92-.23-.02-.43-.02-.91-.02h-1.91c-.4,0-.71,.01-1.04,.04,.02-.3,.05-.59,.05-.95v-1.33c0-.4-.02-.68-.05-1,.32,.04,.6,.05,1.07,.05h1.9c.47,0,.77-.01,1.04-.05-.02,.29-.02,.54-.02,.96v1.94l.96,.22c-.28,.47-.38,.61-.71,1.07h4.45c.5,0,.89-.02,1.22-.07v.94c-.4-.05-.73-.07-1.22-.07h-2.21c.98,.94,2.16,1.55,3.79,1.97-.25,.35-.31,.44-.47,.83-.48-.18-.62-.25-1-.42v2.15c0,.38,.02,.8,.06,1.08h-.92v-.56h-2.17v.56h-.91c.04-.28,.06-.56,.06-.9v-2.28c0-.41-.01-.68-.05-.97,.29,.04,.56,.05,.98,.05h1.31c-.71-.46-1.25-.91-1.79-1.5h-1.76c-.5,.56-1.06,1.03-1.74,1.5h1.24c.4,0,.67-.01,.96-.05-.02,.28-.04,.54-.04,.97v2.17c0,.37,.01,.64,.05,.91h-.89v-.47h-1.98v.58h-.95c.05-.32,.07-.7,.07-1.08v-2.13c-.26,.13-.42,.2-.89,.42-.08-.29-.2-.5-.46-.8,1.51-.49,2.47-1.04,3.51-2.01h-2.03c-.52,0-.89,.02-1.22,.07v-.94c.34,.05,.68,.07,1.22,.07h2.76Zm-2.34-1.67h2.23v-1.74h-2.23v1.74Zm.31,6.73h1.98v-2.04h-1.98v2.04Zm7.87-6.92c0,.38,.01,.66,.05,.95-.35-.02-.66-.04-1.06-.04h-2.04c-.46,0-.77,.01-1.07,.05,.04-.3,.05-.5,.05-.86v-1.46c0-.38-.01-.65-.05-.96,.29,.04,.58,.05,1.06,.05h2.03c.47,0,.74-.01,1.08-.05-.04,.3-.05,.59-.05,1.01v1.32Zm-3.31,6.92h2.17v-2.04h-2.17v2.04Zm.11-6.73h2.34v-1.73h-2.34v1.73Z"/></g></g></g></g></g><rect x="36.28" y="15.42" width="9.33" height="5.27"/><polygon points="36.28 28.46 36.28 35.23 42.85 35.23 45.61 32.46 45.61 28.46 36.28 28.46"/><rect x="36.28" y="21.95" width="9.33" height="5.25"/><polygon points="27.05 14.19 27.05 7.66 20.52 7.66 17.76 10.42 17.76 14.19 27.05 14.19"/><rect x="17.76" y="21.95" width="9.29" height="5.25"/><polygon points="42.85 7.66 28.31 7.66 28.31 35.22 35.03 35.22 35.03 14.17 45.61 14.17 45.61 10.42 42.85 7.66"/><rect x="17.76" y="15.44" width="9.29" height="5.25"/><polygon points="27.05 28.46 17.76 28.46 17.76 32.46 20.52 35.23 27.05 35.23 27.05 28.46"/><path class="cls-3" d="M28.61,48.66s-3-8,1-14,10.88-11.74,16.44-12.87c5.56-1.13,15.54,1.15,21.05,6.51,5.51,5.36,6.51,13.36,6.51,16.36s-1,7-1,7l-6,1H31.18l-2.57-4Z"/><path class="cls-3" d="M24.61,44.16c0-14.64,11.86-26.5,26.5-26.5s26.5,11.86,26.5,26.5-11.86,26.5-26.5,26.5-26.5-11.86-26.5-26.5"/><g class="cls-7"><g class="cls-6"><path d="M26.8,42.43c.35-.59,.25-1.28,.34-1.91,.24-1.67,.69-3.27,1.26-4.83,.92-2.51,2.32-4.76,3.96-6.86,1.17-1.49,2.6-2.74,4.1-3.91,2.86-2.24,6.11-3.65,9.63-4.43,2.38-.53,4.83-.62,7.25-.39,3.79,.35,7.32,1.53,10.56,3.56,1.56,.98,3.01,2.1,4.28,3.4,3,3.08,5.16,6.65,6.28,10.84,.43,1.63,.61,3.26,.75,4.93,.11,1.33,.03,2.65-.08,3.96-.14,1.59-.28,3.22-1.15,4.63-1.05,1.7-2.54,2.71-4.57,2.76-2.08,.05-4.17,.02-6.26,.02-9.86,0-19.71,0-29.57,0-.6,0-1.22,.06-1.79-.07-1.55-.35-2.73-1.25-3.57-2.6-.61-.99-.86-2.09-1.02-3.22-.09-.59-.15-1.19-.24-1.78-.02-.11-.1-.21-.16-.32v-3.79Zm24.37,8.95c5.72,0,11.44,0,17.16,0,.35,0,.7,.03,1.04-.02,.37-.06,.74-.15,1.07-.31,.86-.41,1.3-1.17,1.5-2.07,.36-1.63,.53-3.29,.55-4.97,0-.5-.08-1-.15-1.5-.13-.97-.2-1.95-.41-2.89-1.02-4.42-3.12-8.21-6.53-11.26-2-1.8-4.27-3.11-6.75-4.12-1.8-.74-3.68-1.14-5.59-1.29-1.63-.14-3.27-.09-4.91,.11-2.8,.35-5.37,1.32-7.81,2.7-2.02,1.14-3.83,2.55-5.31,4.35-.62,.76-1.27,1.49-1.79,2.31-1.69,2.66-2.84,5.53-3.29,8.68-.28,1.98-.34,3.95-.1,5.92,.1,.84,.31,1.67,.54,2.49,.24,.89,.9,1.45,1.74,1.73,.43,.15,.93,.13,1.4,.13,5.88,0,11.75,0,17.63,0"/><path d="M64.26,31.04c.25,.27,.46,.49,.71,.77-.19,.33-.31,.66-.52,.92-1.24,1.47-2.51,2.91-3.75,4.37-1.55,1.82-3.08,3.66-4.62,5.49-.18,.21-.38,.41-.6,.64-.44-.73-.76-1.51-1.31-2.06-.56-.56-1.35-.89-2.08-1.35,.09-.1,.2-.26,.34-.36,3.67-2.71,7.34-5.42,11.02-8.11,.19-.14,.47-.18,.8-.3"/><path d="M51.03,47.55c-1.4,.16-3.3-1.24-3.3-3.3,0-2.07,1.73-3.4,3.35-3.35,1.66,.05,3.41,1.19,3.34,3.55-.05,1.77-1.63,3.23-3.38,3.1"/><path d="M32.88,44.45c.36-.93,.65-1.16,1.33-1.07,.49,.07,.91,.53,.92,1.03,0,.5-.39,.98-.88,1.07-.67,.12-.97-.09-1.37-1.03"/><path d="M36.16,34.73c.78-.56,1.17-.61,1.63-.2,.42,.37,.48,.77,.2,1.27-.24,.41-.81,.64-1.21,.49-.52-.2-.71-.66-.61-1.56"/><path d="M64.59,35.22c.13-.54,.39-.93,1.01-.96,.65-.03,.98,.32,1.16,.95-.14,.55-.4,1.07-1.07,1.1-.71,.04-.94-.51-1.09-1.1"/><path d="M44.23,29.25c-.34,.81-.78,1.14-1.29,1.02-.61-.15-.85-.72-.68-1.6,1.01-.76,1.49-.63,1.97,.58"/><path d="M60.68,29.23c-.51,1.21-.97,1.35-1.93,.6-.19-.96-.05-1.42,.51-1.59,.62-.18,1.15,.18,1.42,.99"/><path d="M51.37,25.95c.9,.37,1.14,.67,1.02,1.27-.1,.49-.49,.81-1.01,.81-.45,0-.93-.36-1.03-.8-.12-.52,.22-.95,1.02-1.28"/><path d="M67.85,42.44c.9,.36,1.14,.66,1.03,1.26-.09,.49-.48,.82-.99,.83-.45,.01-.94-.35-1.04-.79-.12-.51,.21-.96,1-1.3"/></g></g><rect class="cls-1" width="101.93" height="101.93"/></g></g></svg>