<?xml version="1.0" encoding="UTF-8"?><svg id="_イヤー_2" xmlns="http://www.w3.org/2000/svg" xmlns:xlink="http://www.w3.org/1999/xlink" viewBox="0 0 101.93 101.93"><defs><style>.cls-1{fill:none;}.cls-2{clip-path:url(#clippath);}.cls-3{fill:#fff;}.cls-4{fill:#707070;}.cls-5{clip-path:url(#clippath-1);}.cls-6{isolation:isolate;}</style><clipPath id="clippath"><rect class="cls-1" x="16.02" y="73.1" width="72.16" height="13.8"/></clipPath><clipPath id="clippath-1"><rect class="cls-1" x="16.02" y="73.1" width="72.16" height="13.8"/></clipPath></defs><g id="_イヤー_1-2"><g><g class="cls-6"><g class="cls-2"><g class="cls-6"><g class="cls-5"><g><path class="cls-4" d="M18.83,74.72c-.49,0-.83,.01-1.21,.05v-.86c.4,.05,.78,.07,1.27,.07h6.26c.5,0,.86-.02,1.22-.07v.86c-.37-.04-.65-.05-1.18-.05h-2.9v.65h3.48c.71,0,1.04-.01,1.37-.05-.04,.28-.05,.52-.05,.92v.72c0,.4,.01,.6,.07,.92h-.91v-1.83h-3.96v1.38c0,.6,.01,.84,.06,1.16h-.98c.05-.31,.07-.64,.07-1.16v-1.38h-3.72v1.83h-.91c.05-.31,.07-.55,.07-.92v-.72c0-.38-.01-.64-.05-.92,.32,.04,.66,.05,1.36,.05h3.25v-.65h-2.61Zm-.07,7.92v.65h-.95c.05-.31,.07-.67,.07-1.05v-2.22c0-.44-.01-.77-.05-1.09,.31,.04,.59,.05,1.07,.05h6.12c.52,0,.82-.01,1.13-.05-.04,.31-.05,.6-.05,1.09v1.8c0,.38,.01,.65,.04,.88-.37-.04-.65-.05-1.12-.05h-2.73v.67c0,.11,.02,.17,.1,.2,.18,.1,.65,.13,1.81,.13,1.32,0,1.94-.06,2.13-.23,.16-.12,.2-.48,.22-1.39,.32,.17,.4,.2,.88,.35-.07,1.93-.23,2.03-3.42,2.03-2.24,0-2.57-.11-2.57-.84v-.92h-2.67Zm-.42-6.08c.2,.02,.37,.04,.7,.04h1.1c.29,0,.49-.01,.67-.04v.65c-.19-.02-.38-.04-.67-.04h-1.1c-.3,0-.49,.01-.7,.04v-.65Zm0,1.16c.19,.02,.36,.04,.7,.04h1.1c.29,0,.49-.01,.67-.04v.65c-.23-.02-.38-.04-.67-.04h-1.1c-.31,0-.44,.01-.7,.04v-.65Zm.41,1.93v.76h2.69v-.76h-2.69Zm0,1.43v.85h2.69v-.85h-2.69Zm6.49-.67v-.76h-2.95v.76h2.95Zm0,1.52v-.85h-2.95v.85h2.95Zm-2.24-5.37c.2,.02,.37,.04,.7,.04h1.3c.3,0,.49-.01,.67-.04v.65c-.19-.02-.37-.04-.67-.04h-1.3c-.31,0-.5,.01-.7,.04v-.65Zm0,1.16c.18,.02,.36,.04,.7,.04h1.3c.29,0,.49-.01,.67-.04v.65c-.19-.02-.37-.04-.67-.04h-1.3c-.31,0-.49,.01-.7,.04v-.65Z"/><path class="cls-4" d="M34.26,77.76c0-.32-.01-.59-.04-.83h.58c1.01-.56,1.58-.98,2.52-1.85h-5.5c-.53,0-.94,.02-1.28,.07v-1.02c.38,.05,.76,.07,1.28,.07h5.62c.52,0,.74-.01,.96-.05l.58,.64q-.36,.32-1.03,.94c-.7,.64-1.5,1.21-2.71,1.91v.84h3.24c.73,0,1.09-.01,1.51-.07v1.04c-.46-.06-.83-.07-1.5-.07h-3.25v3.86c0,.88-.32,1.1-1.56,1.1-.35,0-.65-.01-1.48-.07-.06-.48-.1-.64-.24-1.02,.72,.11,1.22,.16,1.73,.16,.47,0,.58-.06,.58-.34v-3.69h-3.49c-.62,0-1.04,.02-1.51,.07v-1.04c.43,.05,.85,.07,1.55,.07h3.45v-.72Z"/><path class="cls-4" d="M47.64,78.57c-.01,.38-.07,.86-.17,1.38-.23,1.33-.74,2.3-1.62,3.05-.54,.44-1.13,.78-2.11,1.17-.2-.43-.32-.59-.68-.94,1.54-.49,2.48-1.21,2.99-2.25,.28-.59,.46-1.46,.49-2.41h-3.11c-.73,0-1.04,.01-1.48,.06v-1.07c.46,.06,.79,.08,1.49,.08h6.91c.71,0,1.08-.02,1.49-.08v1.07c-.37-.04-.84-.06-1.48-.06h-2.72Zm-4.47-3.98c.41,.07,.7,.08,1.48,.08h3.39c.79,0,1.08-.01,1.49-.08v1.08c-.34-.05-.85-.06-1.48-.06h-3.42c-.72,0-1.1,.01-1.46,.06v-1.08Zm6.99-1c.56,.67,.84,1.08,1.26,1.86l-.71,.4c-.37-.74-.76-1.34-1.25-1.9l.7-.36Zm1.49-.47c.56,.66,.83,1.03,1.26,1.82l-.7,.4c-.35-.7-.71-1.24-1.24-1.86l.67-.36Z"/><path class="cls-4" d="M57.27,75.07c-.05,.16-.07,.25-.16,.85-.52,3.49-1.43,5.7-3.14,7.58-.4-.41-.52-.5-.94-.74,.97-.95,1.57-1.91,2.15-3.42,.53-1.38,.89-3.14,.9-4.49l1.19,.22Zm3.44-.18c.04,.64,.25,1.8,.54,2.85,.6,2.16,1.45,3.75,2.71,5.01-.42,.28-.55,.4-.9,.79-.82-.91-1.43-1.89-2.01-3.23-.56-1.3-1-2.85-1.22-4.4-.07-.44-.11-.62-.16-.82l1.04-.22Zm1.18-.9c.56,.67,.84,1.08,1.26,1.86l-.71,.4c-.37-.74-.76-1.34-1.25-1.89l.7-.36Zm1.37-.65c.56,.66,.83,1.03,1.26,1.82l-.7,.4c-.35-.7-.71-1.24-1.24-1.86l.67-.36Z"/><path class="cls-4" d="M74.9,74.77c-.18,.16-.24,.2-.43,.41-.86,.91-1.81,1.74-2.88,2.51v4.98c0,.73,.01,1.08,.06,1.42h-1.22c.06-.37,.07-.65,.07-1.4v-4.32c-1.54,.94-2.3,1.28-4.53,2.05-.18-.44-.26-.59-.56-.96,2.28-.6,4.33-1.62,6.25-3.11,1.09-.85,1.93-1.69,2.27-2.27l.98,.7Z"/><path class="cls-4" d="M86.05,83.89c-.92-1.16-2.37-2.57-3.78-3.66-.79,.9-1.42,1.47-2.28,2.11-.83,.6-1.45,.98-2.34,1.43-.23-.43-.34-.59-.7-.95,1.55-.65,2.76-1.46,3.97-2.69,1.13-1.13,2.1-2.55,2.66-3.93,.04-.08,.04-.1,.07-.16,.01-.04,.02-.05,.04-.1q-.14,.01-4.08,.07c-.65,.01-.95,.04-1.38,.1l-.04-1.14c.37,.06,.61,.07,1.14,.07h.26l4.15-.05c.49-.01,.62-.02,.85-.11l.59,.6c-.13,.16-.23,.31-.35,.6-.61,1.38-1.15,2.3-1.93,3.33,1.51,1.13,2.6,2.1,3.98,3.53l-.85,.94Z"/></g></g></g></g></g><path class="cls-3" d="M71.16,45.66H29.16V3.66h42V45.66ZM50.31,10.17c-4.49,0-8.99,.02-13.48-.02-.8,0-1.01,.25-1,1.02,.02,8.93,.02,17.87,0,26.8,0,.77,.2,1.03,1,1.03,8.93-.03,17.87-.03,26.8,0,.84,0,1.05-.26,1.05-1.07-.03-8.91-.03-17.81,0-26.72,0-.81-.2-1.08-1.05-1.07-4.44,.04-8.88,.02-13.32,.02m-18.36,7.08q1.95,.01,1.92-1.92c0-.08,.03-.19,0-.24-.18-.2-.37-.54-.57-.56-.86-.06-1.74-.05-2.6-.01-.85,.04-1.31,.53-1.32,1.34,0,.81,.44,1.31,1.28,1.38,.43,.04,.87,0,1.3,0m.11,5.8c2.16-.07,1.77,.49,1.81-2.07,0-.03,.01-.07,0-.08-.19-.2-.37-.54-.58-.56-.87-.06-1.74-.05-2.61-.01-.85,.03-1.31,.54-1.31,1.36,0,.79,.49,1.31,1.32,1.36,.41,.03,.82,0,1.37,0m-.13,5.78h0c.46,0,.93,.07,1.38-.02,.22-.04,.56-.4,.53-.56-.12-.71,.46-1.55-.36-2.13-.04-.03-.11-.01-.16-.01-.89,0-1.79-.03-2.68,.01-.81,.04-1.28,.61-1.26,1.4,.02,.76,.47,1.25,1.26,1.31,.43,.03,.87,0,1.3,0m0,5.82h0c.46,0,.92-.01,1.38,0,.51,.02,.65-.31,.54-.68-.2-.68,.55-1.58-.46-2.07-.05-.02-.11,0-.16,0-.84,0-1.68-.03-2.52,.01-.89,.04-1.36,.56-1.34,1.41,.02,.8,.48,1.27,1.34,1.32,.4,.03,.81,0,1.22,0m8.25,8.15c0,.33,0,.65,0,.98,.01,1.18,.44,1.7,1.39,1.69,.94,0,1.35-.53,1.36-1.72,0-.62-.04-1.25,.01-1.87,.06-.72-.2-.94-.92-.92-1.85,.03-1.85,0-1.85,1.85m8.55,.09q0-1.98-1.99-1.92c-.05,0-.13-.02-.16,0-.2,.18-.55,.36-.56,.57-.06,.86-.05,1.73-.02,2.6,.03,.85,.53,1.32,1.32,1.33,.83,.01,1.34-.48,1.39-1.36,.02-.4,0-.81,0-1.22m5.77,.02h0c0-.46,.03-.92,0-1.38-.08-.99-.87-.54-1.31-.52-.47,.02-1.31-.49-1.4,.52-.07,.89-.05,1.79,0,2.68,.04,.81,.6,1.28,1.39,1.27,.77-.02,1.25-.47,1.31-1.26,.03-.43,0-.86,0-1.3m5.82-.07h0c0-.43-.02-.87,0-1.3,.03-.65-.44-.67-.82-.56-.64,.19-1.65-.63-1.89,.52-.18,.86-.06,1.78-.02,2.67,.03,.8,.52,1.26,1.29,1.29,.79,.03,1.35-.44,1.42-1.24,.04-.46,0-.92,0-1.38m8.24-22.5q-1.99,0-1.93,2c0,.05-.02,.13,0,.16,.18,.2,.37,.54,.57,.55,.81,.06,1.63,.04,2.44,.02,.99-.02,1.41-.46,1.4-1.4,0-.96-.38-1.31-1.43-1.33-.35,0-.71,0-1.06,0m0,8.49c.38,0,.76,.01,1.14,0,.98-.03,1.34-.4,1.35-1.33,0-.91-.4-1.36-1.33-1.39-.79-.03-1.58,.02-2.36-.02-.58-.03-.74,.19-.75,.75-.02,1.99-.04,1.99,1.95,1.99M48.72,6.51c0-.66,.03-1.09,0-1.53-.06-.85-.53-1.23-1.41-1.21-.85,.02-1.26,.39-1.3,1.23-.04,.84,.01,1.68-.02,2.52-.02,.55,.23,.69,.74,.68,2.45-.06,1.95,.34,2-1.69m5.78-.19c0-.43,.02-.87,0-1.3-.05-.88-.47-1.26-1.36-1.25-.87,0-1.32,.4-1.36,1.27-.03,.76,.03,1.52-.02,2.28-.04,.66,.17,.9,.86,.89,1.89-.02,1.89,.01,1.88-1.89m5.82,.02c0-.43,.02-.87,0-1.3-.05-.87-.49-1.27-1.36-1.27-.89,0-1.32,.37-1.36,1.25-.04,.78,.02,1.57-.02,2.36-.04,.65,.21,.83,.84,.83,1.91,0,1.91,.02,1.9-1.86m-20.15-.08q0,1.99,2,1.93s.05,0,.08,0c.49,.05,.69-.17,.67-.66-.02-.79,.01-1.58-.01-2.36-.03-1.01-.44-1.41-1.39-1.4-.94,0-1.32,.41-1.36,1.44,0,.35,0,.71,0,1.06m28.31,10.99c.38,0,.76,.01,1.14,0,1.03-.04,1.42-.42,1.43-1.37,0-.96-.39-1.35-1.41-1.38-.73-.02-1.47,.03-2.2-.02-.67-.05-.83,.23-.83,.85,0,1.92-.02,1.92,1.87,1.92m-.05,17.38c.46,0,.93,.03,1.39,0,.85-.06,1.21-.46,1.23-1.31,.02-.91-.33-1.36-1.2-1.41-.79-.05-1.58,.02-2.36-.03-.69-.05-.88,.23-.87,.89,.02,1.88,0,1.88,1.82,1.87"/><path d="M50.31,10.17c4.44,0,8.88,.02,13.32-.02,.84,0,1.05,.26,1.04,1.07-.03,8.91-.03,17.81,0,26.72,0,.81-.21,1.07-1.05,1.07-8.93-.03-17.87-.03-26.8,0-.8,0-1.01-.25-1-1.02,.02-8.93,.02-17.87,0-26.8,0-.77,.2-1.03,1.01-1.03,4.49,.04,8.99,.02,13.48,.02"/><path d="M31.94,17.25c-.43,0-.87,.03-1.3,0-.84-.07-1.29-.57-1.28-1.38,0-.81,.47-1.3,1.32-1.34,.87-.04,1.74-.05,2.6,.02,.2,.01,.39,.35,.57,.55,.04,.05,0,.16,0,.24q.03,1.93-1.92,1.92"/><path d="M32.06,23.05c-.55,0-.96,.02-1.37,0-.83-.05-1.32-.57-1.32-1.36,0-.81,.46-1.32,1.31-1.36,.87-.03,1.74-.05,2.61,.01,.2,.02,.39,.36,.57,.56,.01,.01,0,.05,0,.08-.04,2.56,.35,2-1.81,2.07"/><path d="M31.93,28.83c-.43,0-.87,.03-1.3,0-.79-.06-1.24-.55-1.26-1.31-.02-.79,.46-1.36,1.27-1.4,.89-.04,1.79-.01,2.68-.01,.05,0,.12-.01,.16,.01,.83,.58,.24,1.42,.36,2.13,.03,.16-.31,.52-.53,.56-.44,.09-.92,.03-1.38,.03h0Z"/><path d="M31.92,34.64c-.41,0-.82,.02-1.22,0-.86-.05-1.32-.52-1.34-1.32-.02-.85,.44-1.36,1.34-1.41,.84-.04,1.68-.01,2.52-.01,.05,0,.12-.01,.16,0,1.01,.49,.27,1.39,.46,2.07,.11,.37-.03,.7-.54,.68-.46-.02-.92,0-1.38,0h0Z"/><path d="M40.17,42.79c0-1.86,0-1.82,1.84-1.85,.72-.01,.98,.21,.92,.92-.05,.62,0,1.25-.01,1.87-.01,1.2-.43,1.71-1.36,1.72-.95,0-1.38-.5-1.39-1.69,0-.32,0-.65,0-.98"/><path d="M48.72,42.88c0,.41,.02,.81,0,1.22-.05,.88-.57,1.37-1.39,1.36-.8-.01-1.29-.48-1.32-1.33-.03-.86-.05-1.74,.02-2.6,.01-.2,.36-.38,.56-.57,.03-.03,.11,0,.16,0q1.99-.06,1.99,1.92"/><path d="M54.49,42.9c0,.43,.03,.87,0,1.3-.06,.79-.55,1.24-1.31,1.26-.79,.02-1.35-.46-1.39-1.27-.04-.89-.07-1.79,0-2.68,.08-1.01,.92-.5,1.39-.52,.44-.02,1.24-.46,1.32,.52,.04,.46,0,.92,0,1.38h0Z"/><path d="M60.31,42.84c0,.46,.03,.92,0,1.38-.07,.81-.63,1.27-1.42,1.24-.76-.03-1.25-.48-1.29-1.28-.04-.89-.15-1.82,.02-2.67,.23-1.15,1.25-.33,1.89-.52,.37-.11,.85-.09,.82,.56-.02,.43,0,.87,0,1.3h0Z"/><path d="M68.56,20.33c.35,0,.71,0,1.06,0,1.05,.02,1.43,.38,1.43,1.33,0,.94-.42,1.37-1.4,1.4-.82,.02-1.63,.04-2.44-.02-.21-.02-.39-.35-.57-.55-.03-.03,0-.11,0-.16q-.06-2,1.93-2"/><path d="M68.56,28.82c-1.99,0-1.97,0-1.95-1.99,0-.56,.17-.78,.75-.75,.79,.04,1.58,0,2.36,.02,.92,.03,1.33,.48,1.32,1.39,0,.94-.37,1.3-1.35,1.33-.38,.01-.76,0-1.14,0"/><path d="M48.72,6.51c-.05,2.03,.45,1.64-2.01,1.69-.5,.01-.76-.13-.73-.68,.03-.84-.01-1.68,.02-2.52,.04-.84,.45-1.21,1.3-1.23,.88-.02,1.35,.37,1.41,1.21,.03,.43,0,.87,0,1.53"/><path d="M54.5,6.32c0,1.9,0,1.87-1.88,1.89-.69,0-.9-.23-.86-.89,.05-.76-.01-1.52,.02-2.28,.04-.87,.49-1.27,1.35-1.27,.89,0,1.31,.37,1.36,1.25,.02,.43,0,.87,0,1.3"/><path d="M60.32,6.35c0,1.88,0,1.86-1.91,1.86-.63,0-.88-.18-.84-.83,.04-.78-.01-1.57,.02-2.36,.04-.88,.48-1.26,1.36-1.25,.87,0,1.31,.41,1.36,1.27,.02,.43,0,.87,0,1.3"/><path d="M40.17,6.27c0-.35,0-.71,0-1.06,.03-1.03,.41-1.43,1.35-1.44,.95,0,1.36,.39,1.39,1.4,.02,.79,0,1.58,.01,2.37,.01,.49-.19,.71-.67,.66-.03,0-.05,0-.08,0q-2,.06-2-1.93"/><path d="M68.48,17.26c-1.88,0-1.86,0-1.87-1.92,0-.62,.15-.9,.82-.85,.73,.05,1.47,0,2.2,.02,1.02,.03,1.41,.42,1.41,1.38,0,.95-.39,1.33-1.43,1.37-.38,.02-.76,0-1.14,0"/><path d="M68.43,34.64c-1.83,0-1.8,0-1.82-1.87,0-.66,.18-.94,.87-.89,.79,.05,1.58-.02,2.36,.03,.87,.05,1.22,.51,1.2,1.41-.02,.85-.38,1.25-1.23,1.31-.46,.03-.92,0-1.39,0"/><rect class="cls-1" width="101.93" height="101.93"/></g></g></svg>