<?xml version="1.0" encoding="UTF-8"?><svg id="_イヤー_2" xmlns="http://www.w3.org/2000/svg" xmlns:xlink="http://www.w3.org/1999/xlink" viewBox="0 0 101.93 101.93"><defs><style>.cls-1{fill:none;}.cls-2{clip-path:url(#clippath);}.cls-3{fill:#707070;}.cls-4{clip-path:url(#clippath-1);}.cls-5{isolation:isolate;}</style><clipPath id="clippath"><rect class="cls-1" x="25.73" y="73.1" width="50.4" height="13.8"/></clipPath><clipPath id="clippath-1"><rect class="cls-1" x="25.73" y="73.1" width="50.4" height="13.8"/></clipPath></defs><g id="_イヤー_1-2"><g><g class="cls-5"><g class="cls-2"><g class="cls-5"><g class="cls-4"><g><path class="cls-3" d="M28.53,74.72c-.49,0-.83,.01-1.21,.05v-.86c.4,.05,.78,.07,1.27,.07h6.26c.5,0,.86-.02,1.22-.07v.86c-.37-.04-.65-.05-1.18-.05h-2.9v.65h3.48c.71,0,1.04-.01,1.37-.05-.04,.28-.05,.52-.05,.92v.72c0,.4,.01,.6,.07,.92h-.91v-1.83h-3.96v1.38c0,.6,.01,.84,.06,1.16h-.98c.05-.31,.07-.64,.07-1.16v-1.38h-3.72v1.83h-.91c.05-.31,.07-.55,.07-.92v-.72c0-.38-.01-.64-.05-.92,.32,.04,.66,.05,1.36,.05h3.25v-.65h-2.61Zm-.07,7.92v.65h-.95c.05-.31,.07-.67,.07-1.05v-2.22c0-.44-.01-.77-.05-1.09,.31,.04,.59,.05,1.07,.05h6.12c.52,0,.82-.01,1.13-.05-.04,.31-.05,.6-.05,1.09v1.8c0,.38,.01,.65,.04,.88-.37-.04-.65-.05-1.12-.05h-2.73v.67c0,.11,.02,.17,.1,.2,.18,.1,.65,.13,1.81,.13,1.32,0,1.94-.06,2.13-.23,.16-.12,.2-.48,.22-1.39,.32,.17,.4,.2,.88,.35-.07,1.93-.23,2.03-3.42,2.03-2.24,0-2.57-.11-2.57-.84v-.92h-2.67Zm-.42-6.08c.2,.02,.37,.04,.7,.04h1.1c.29,0,.49-.01,.67-.04v.65c-.19-.02-.38-.04-.67-.04h-1.1c-.3,0-.49,.01-.7,.04v-.65Zm0,1.16c.19,.02,.36,.04,.7,.04h1.1c.29,0,.49-.01,.67-.04v.65c-.23-.02-.38-.04-.67-.04h-1.1c-.31,0-.44,.01-.7,.04v-.65Zm.41,1.93v.76h2.69v-.76h-2.69Zm0,1.43v.85h2.69v-.85h-2.69Zm6.49-.67v-.76h-2.95v.76h2.95Zm0,1.52v-.85h-2.95v.85h2.95Zm-2.24-5.37c.2,.02,.37,.04,.7,.04h1.29c.3,0,.49-.01,.67-.04v.65c-.19-.02-.37-.04-.67-.04h-1.29c-.31,0-.5,.01-.7,.04v-.65Zm0,1.16c.18,.02,.36,.04,.7,.04h1.29c.29,0,.49-.01,.67-.04v.65c-.19-.02-.37-.04-.67-.04h-1.29c-.31,0-.49,.01-.7,.04v-.65Z"/><path class="cls-3" d="M39.32,76.7c.79,.48,1.27,.84,1.93,1.46l-.58,.74c-.76-.74-1.09-1.02-1.93-1.54l.58-.67Zm1.74,3.77c-.43,1.62-.7,2.3-1.45,3.84l-.79-.71c.49-.54,1.09-1.97,1.52-3.61l.72,.48Zm-1.17-6.68c.75,.53,1.19,.9,1.76,1.51l-.64,.68c-.65-.76-1.01-1.08-1.78-1.59l.65-.6Zm8.06,2.28c.48,0,.73-.01,1.1-.05-.04,.24-.05,.48-.05,.91v2.4c0,.47,.01,.71,.05,.95-.32-.04-.59-.05-.96-.05h-1.25v3.27c0,.41-.13,.66-.42,.77-.17,.07-.43,.1-.89,.1q-.14,0-.82-.04c-.04-.35-.07-.54-.2-.9,.46,.07,.83,.11,1.13,.11,.28,0,.33-.06,.33-.3v-3.01h-1.17c-.37,0-.65,.01-1.01,.05,.04-.24,.05-.49,.05-.88v-2.42c0-.36-.01-.7-.04-.96,.32,.04,.67,.05,1.13,.05h.64c.19-.41,.29-.71,.37-1.13h-2.88v1.35c0,3.91-.42,6.18-1.46,7.99-.29-.37-.38-.46-.76-.72,.41-.64,.64-1.18,.85-1.98,.29-1.09,.47-2.72,.48-4.45v-1.56c.01-.47-.01-1.03-.06-1.52,.34,.05,.64,.06,1.17,.06h5c.59,0,.95-.01,1.31-.06v.95c-.34-.04-.82-.06-1.29-.06h-1.45q-.02,.06-.06,.18c-.1,.34-.18,.56-.35,.95h1.5Zm-3,4.87c-.35,1.33-.71,2.08-1.47,3.03-.23-.28-.37-.4-.68-.59,.75-.86,1.08-1.51,1.35-2.71l.8,.26Zm-.28-3.2h3.49v-.92h-3.49v.92Zm0,1.74h3.49v-1h-3.49v1Zm3.74,1.2c.44,1.22,.79,1.82,1.49,2.59-.29,.2-.41,.32-.7,.68-.71-.94-1.08-1.67-1.55-2.97l.76-.3Z"/><path class="cls-3" d="M56.68,80.48c-.42,.37-.72,.6-1.2,.92v1.92c1.03-.2,1.83-.4,2.61-.64v.83c-1.45,.41-2.4,.61-4.92,1.04l-.2-.94h.14c.36,0,.74-.04,1.49-.16v-1.54c-.85,.47-1.64,.8-2.67,1.14-.13-.31-.24-.47-.49-.79,1.69-.43,3.11-1.06,4.11-1.8h-2.66c-.55,0-.91,.02-1.29,.06v-.92c.36,.04,.74,.06,1.32,.06h3.49v-.24c0-.29-.01-.47-.06-.72h1.02c-.04,.23-.06,.42-.06,.73v.23h3.66c.55,0,1-.02,1.28-.06v.92c-.38-.04-.74-.06-1.29-.06h-3.19c.3,.56,.58,.9,1.16,1.4,.7-.44,1.14-.79,1.54-1.24l.77,.48c-.83,.67-1,.8-1.68,1.24,.85,.58,1.86,1,3.06,1.28-.23,.25-.35,.46-.54,.9-1.69-.58-2.83-1.2-3.79-2.09-.66-.61-1.03-1.14-1.39-1.98h-.2Zm-2.47-3.05c-.58,.29-.95,.44-1.8,.77-.3,.11-.37,.14-.6,.24l-.35-.9c.77-.12,1.67-.42,2.75-.92v-1.94c0-.43-.02-.72-.07-.98h1.01c-.05,.28-.06,.48-.06,1v3.27c0,.6,.01,.76,.06,1.04h-1.01c.05-.28,.07-.56,.07-1.04v-.53Zm-1.82-3.29c.64,.61,.91,.91,1.4,1.62l-.66,.55c-.44-.71-.72-1.03-1.4-1.67l.66-.5Zm4.39,1.78c-.53,0-.9,.02-1.19,.06v-.91c.32,.05,.64,.06,1.19,.06h1.42v-.47c0-.47-.01-.68-.07-.96h1.02c-.06,.29-.07,.47-.07,.95v.48h1.94c.55,0,.86-.01,1.19-.06v.91c-.32-.05-.64-.06-1.19-.06h-1.94v1.63h1.51c.58,0,.85-.01,1.16-.06v.9c-.29-.05-.59-.06-1.14-.06h-3.61c-.49,0-.88,.02-1.16,.06v-.89c.29,.04,.59,.05,1.13,.05h1.24v-1.63h-1.42Z"/><path class="cls-3" d="M66.04,76.32c-.62,0-1.01,.01-1.28,.04,.04-.29,.05-.5,.05-.86v-.59c0-.37-.01-.62-.05-.9,.37,.04,.77,.05,1.34,.05h6.9c.58,0,1.08-.02,1.34-.05-.04,.28-.05,.5-.05,.9v.59c0,.4,.01,.6,.05,.86-.29-.02-.62-.04-1.28-.04h-2.81c-.06,.26-.07,.32-.16,.65h3.36c.58,0,.9-.01,1.27-.07v.86c-.38-.05-.72-.07-1.27-.07h-3.56q-.08,.26-.22,.61h2.76c.53,0,.92-.01,1.19-.04-.02,.31-.04,.71-.04,1.27v2.05c0,.64,.01,.91,.05,1.14-.38-.02-.74-.04-1.26-.04h-4.22c-.52,0-.88,.01-1.25,.04,.02-.3,.04-.62,.04-1.14v-2.05c0-.55-.01-.97-.04-1.26,.34,.01,.64,.02,1.18,.02h.72c.11-.28,.14-.38,.22-.61h-3.55c-.55,0-.88,.01-1.27,.07v-.86c.37,.06,.7,.07,1.27,.07h3.77q.07-.3,.14-.65h-3.33Zm7.56,7c.59,0,.9-.01,1.27-.07v.89c-.36-.05-.71-.07-1.27-.07h-7.83v.52h-.96c.05-.34,.07-.61,.07-1.1v-4.04c0-.42-.02-.71-.07-1.03h1.02c-.05,.32-.06,.59-.06,1.03v3.89h7.83Zm-5.91-8.56h-2.02v.88h2.02v-.88Zm.1,4.79h4.95v-.61h-4.95v.61Zm0,1.22h4.95v-.61h-4.95v.61Zm0,1.27h4.95v-.66h-4.95v.66Zm2.77-7.28h-2.08v.88h2.08v-.88Zm2.88,.88v-.88h-2.09v.88h2.09Z"/></g></g></g></g></g><path d="M81.09,27.17v11.05c0,2.15-1.75,3.9-3.9,3.9s-3.9-1.75-3.9-3.9v-11.67c0-3.54-2.64-6.48-6.05-6.95v3.17c1.68,.43,2.93,1.96,2.93,3.78v11.67c0,3.87,3.15,7.02,7.02,7.02s7.02-3.15,7.02-7.02v-11.05h-3.12Z"/><path d="M20.5,4.92V49.85h7.73v-3.29h29.07v3.29h7.73V4.92H20.5Zm12.51,5.11h19.53v12.07h-19.53V10.03Zm16.18,18.39c0,1.12-.91,2.03-2.03,2.03s-2.03-.91-2.03-2.03,.91-2.03,2.03-2.03,2.03,.91,2.03,2.03m-8.78,0c0,1.12-.91,2.03-2.03,2.03s-2.03-.91-2.03-2.03,.91-2.03,2.03-2.03,2.03,.91,2.03,2.03m14.1,11.59H31.03v-5.27h23.48v5.27Z"/><path d="M80.54,25.27h4.27c2.1,0,3.82-1.72,3.82-3.82v-6.11h-11.9v6.11c0,2.1,1.72,3.82,3.82,3.82"/><rect x="78.8" y="9.38" width="2.48" height="4.49"/><rect x="84.07" y="9.38" width="2.48" height="4.49"/><rect class="cls-1" width="101.93" height="101.93"/></g></g></svg>