<?xml version="1.0" encoding="UTF-8"?><svg id="_イヤー_2" xmlns="http://www.w3.org/2000/svg" xmlns:xlink="http://www.w3.org/1999/xlink" viewBox="0 0 101.93 101.93"><defs><style>.cls-1,.cls-2{fill:none;}.cls-3{clip-path:url(#clippath);}.cls-4{fill:#fff;}.cls-5{fill:#707070;}.cls-6{clip-path:url(#clippath-1);}.cls-2{stroke:#fff;stroke-linecap:round;stroke-linejoin:round;stroke-width:4px;}.cls-7{isolation:isolate;}</style><clipPath id="clippath"><rect class="cls-1" x="7.74" y="73.1" width="87.07" height="13.8"/></clipPath><clipPath id="clippath-1"><rect class="cls-1" x="7.74" y="73.1" width="87.07" height="13.8"/></clipPath></defs><g id="_イヤー_1-2"><g><g class="cls-7"><g class="cls-3"><g class="cls-7"><g class="cls-6"><g><path class="cls-5" d="M10.24,74.62c.37,.05,.59,.06,1.09,.06,1.14,0,2.83-.07,3.72-.17,.3-.02,.55-.08,.72-.16l.59,.74c-.19,.13-.3,.22-.62,.53-1.07,1.02-2.51,2.16-3.73,2.93,.55-.1,1.2-.17,2.88-.3,.54-.05,1.21-.11,1.97-.18,.49-.04,.83-.07,1.03-.08,.16-.02,.2-.02,.36-.06l.08,1.01c-.12-.01-.22-.01-.28-.01-1.25,0-2.43,.23-3.32,.65-.59,.26-1.13,.67-1.45,1.09-.26,.34-.37,.61-.37,.95,0,.41,.2,.76,.55,1,.46,.29,1.26,.46,2.18,.46,.37,0,.62-.02,.91-.08l.05,1.09q-.23-.01-.89-.01c-1.32-.01-2.43-.28-3.02-.74-.52-.4-.78-.92-.78-1.54,0-1.13,.82-2.08,2.38-2.73-.79,.13-1.14,.18-2.51,.35-1.9,.23-2.94,.38-3.38,.5l-.11-1.06h.13c.4,0,1.31-.1,2.1-.24,1.12-.66,2.42-1.68,3.73-2.89,.25-.23,.29-.26,.44-.41-.73,.13-1.68,.2-3.63,.29-.43,.01-.5,.02-.74,.05l-.07-1.02Z"/><path class="cls-5" d="M27.3,82.22c1.2-.64,1.89-1.81,1.89-3.2,0-1.31-.64-2.36-1.77-2.91-.42-.2-.76-.29-1.34-.32-.2,1.76-.64,3.53-1.2,4.8-.68,1.57-1.4,2.29-2.3,2.29-1.21,0-2.1-1.28-2.1-3.03,0-1.25,.46-2.45,1.28-3.36,.97-1.07,2.31-1.62,3.95-1.62,2.72,0,4.53,1.68,4.53,4.21,0,1.86-.95,3.35-2.63,4.15-.58,.28-1.08,.43-2,.62-.16-.48-.24-.64-.52-.97,1.04-.17,1.62-.33,2.21-.65Zm-3.97-5.85c-1.16,.73-1.87,2.05-1.87,3.48,0,1.09,.48,1.95,1.1,1.95,.47,0,.92-.55,1.42-1.68,.48-1.12,.91-2.83,1.07-4.32-.7,.06-1.19,.22-1.71,.56Z"/><path class="cls-5" d="M33.73,79.34c0-.41,0-.64,.04-1.42-.41,.71-.66,1.05-1.19,1.68-.17-.34-.29-.53-.54-.86,1.01-1.04,1.73-2.16,2.27-3.5,.25-.6,.43-1.26,.49-1.68l.98,.31c-.07,.19-.11,.3-.24,.68-.28,.8-.5,1.31-.9,2.09v6.52c0,.55,.01,1.02,.06,1.43h-1.04c.05-.43,.07-.82,.07-1.45v-3.8Zm3.61-.97v4.38c0,.29,.07,.38,.41,.44,.31,.07,.77,.1,1.68,.1,1.47,0,2.06-.06,2.33-.22,.28-.16,.4-.6,.48-1.66,.38,.19,.52,.24,.92,.32-.18,1.27-.36,1.79-.7,2.01-.41,.29-1.2,.38-3.26,.38-.92,0-1.61-.05-1.99-.14-.59-.16-.77-.4-.77-.97v-4.34l-.11,.04c-.68,.23-.82,.28-1.03,.38l-.14-.97c.31-.05,.72-.14,1.07-.26l.22-.07v-1.59c0-.52-.02-.9-.07-1.24h1.03c-.05,.32-.06,.68-.06,1.2v1.33l1.61-.54v-2.11c0-.43-.02-.77-.07-1.13h1.01c-.06,.36-.07,.66-.07,1.12v1.82l1.86-.62c.48-.17,.71-.25,.95-.38q-.01,.31-.02,.56c-.01,1.15-.12,2.9-.2,3.65-.12,1.07-.32,1.28-1.19,1.28-.3,0-.44-.01-.79-.05-.04-.34-.1-.55-.23-.89,.36,.07,.68,.12,.94,.12,.35,0,.4-.1,.49-1.09,.05-.58,.1-1.46,.11-2.39l-1.91,.66v3.32c0,.47,.01,.83,.06,1.16h-1c.05-.32,.07-.68,.07-1.19v-3l-1.61,.56Z"/><path class="cls-5" d="M47.22,74.72c-.49,0-.83,.01-1.21,.05v-.86c.4,.05,.78,.07,1.27,.07h6.26c.5,0,.86-.02,1.22-.07v.86c-.37-.04-.65-.05-1.18-.05h-2.9v.65h3.48c.71,0,1.04-.01,1.37-.05-.04,.28-.05,.52-.05,.92v.72c0,.4,.01,.6,.07,.92h-.91v-1.83h-3.96v1.38c0,.6,.01,.84,.06,1.16h-.98c.05-.31,.07-.64,.07-1.16v-1.38h-3.72v1.83h-.91c.05-.31,.07-.55,.07-.92v-.72c0-.38-.01-.64-.05-.92,.32,.04,.66,.05,1.36,.05h3.25v-.65h-2.61Zm-.07,7.92v.65h-.95c.05-.31,.07-.67,.07-1.05v-2.22c0-.44-.01-.77-.05-1.09,.31,.04,.59,.05,1.07,.05h6.12c.52,0,.82-.01,1.13-.05-.04,.31-.05,.6-.05,1.09v1.8c0,.38,.01,.65,.04,.88-.37-.04-.65-.05-1.12-.05h-2.73v.67c0,.11,.02,.17,.1,.2,.18,.1,.65,.13,1.81,.13,1.32,0,1.94-.06,2.13-.23,.16-.12,.2-.48,.22-1.39,.32,.17,.4,.2,.88,.35-.07,1.93-.23,2.03-3.42,2.03-2.24,0-2.57-.11-2.57-.84v-.92h-2.67Zm-.42-6.08c.2,.02,.37,.04,.7,.04h1.1c.29,0,.49-.01,.67-.04v.65c-.19-.02-.38-.04-.67-.04h-1.1c-.3,0-.49,.01-.7,.04v-.65Zm0,1.16c.19,.02,.36,.04,.7,.04h1.1c.29,0,.49-.01,.67-.04v.65c-.23-.02-.38-.04-.67-.04h-1.1c-.31,0-.44,.01-.7,.04v-.65Zm.41,1.93v.76h2.69v-.76h-2.69Zm0,1.43v.85h2.69v-.85h-2.69Zm6.49-.67v-.76h-2.95v.76h2.95Zm0,1.52v-.85h-2.95v.85h2.95Zm-2.24-5.37c.2,.02,.37,.04,.7,.04h1.29c.3,0,.49-.01,.67-.04v.65c-.19-.02-.37-.04-.67-.04h-1.29c-.31,0-.5,.01-.7,.04v-.65Zm0,1.16c.18,.02,.36,.04,.7,.04h1.29c.29,0,.49-.01,.67-.04v.65c-.19-.02-.37-.04-.67-.04h-1.29c-.31,0-.49,.01-.7,.04v-.65Z"/><path class="cls-5" d="M62.65,77.76c0-.32-.01-.59-.04-.83h.58c1.01-.56,1.58-.98,2.52-1.85h-5.5c-.53,0-.94,.02-1.28,.07v-1.02c.38,.05,.75,.07,1.28,.07h5.62c.52,0,.74-.01,.96-.05l.58,.64q-.36,.32-1.03,.94c-.7,.64-1.5,1.21-2.71,1.91v.84h3.24c.73,0,1.09-.01,1.51-.07v1.04c-.46-.06-.83-.07-1.5-.07h-3.25v3.86c0,.88-.32,1.1-1.56,1.1-.35,0-.65-.01-1.47-.07-.06-.48-.1-.64-.24-1.02,.72,.11,1.22,.16,1.73,.16,.47,0,.58-.06,.58-.34v-3.69h-3.49c-.62,0-1.04,.02-1.51,.07v-1.04c.43,.05,.85,.07,1.55,.07h3.45v-.72Z"/><path class="cls-5" d="M75.34,78.2c.54,0,.85-.01,1.09-.06v.95c-.25-.05-.58-.06-1.06-.06h-4.02c-.56,0-.86,.01-1.16,.06v-.95c.3,.05,.59,.06,1.16,.06h2.53c.41-.86,.59-1.38,.79-2.27l.88,.26c-.25,.82-.42,1.24-.82,2h.6Zm-.17-3.25c.54,0,.83-.01,1.1-.06v.94c-.25-.05-.55-.06-1.07-.06h-3.66c-.49,0-.77,.01-1.05,.06v-.94c.28,.05,.56,.06,1.13,.06h1.39v-.41c0-.37-.02-.68-.07-.9h1.06c-.05,.26-.07,.52-.07,.9v.41h1.25Zm-3.3,9.57h-.94c.04-.3,.05-.56,.05-1.1v-2.47c0-.54-.01-.75-.04-1.01,.28,.02,.52,.04,.96,.04h2.9c.46,0,.68-.01,.88-.04-.04,.26-.04,.38-.04,.97v2.67c0,.42,.01,.65,.05,.92h-.94v-.72h-2.89v.73Zm.2-8.6c.35,.66,.5,1.08,.74,1.91l-.83,.28c-.18-.76-.36-1.2-.71-1.9l.79-.29Zm-.2,7.05h2.9v-2.18h-2.9v2.18Zm9.23-8.42q-.08,.16-.47,1.07c-.32,.73-.74,1.58-1.2,2.37,.73,.78,1.02,1.19,1.3,1.83,.23,.54,.35,1.12,.35,1.67,0,.66-.22,1.14-.62,1.37-.23,.13-.61,.2-1.15,.2-.3,0-.58-.01-.91-.05-.01-.41-.06-.65-.19-.94,.44,.07,.74,.1,1.1,.1,.65,0,.86-.19,.86-.74s-.13-1.08-.38-1.62c-.3-.61-.6-.98-1.38-1.69,.72-1.21,1.12-2.09,1.54-3.29h-2.18v8.43c0,.64,.02,1,.08,1.36h-1.06c.05-.36,.07-.78,.07-1.34v-8.24c0-.36-.01-.68-.05-1.07,.3,.02,.54,.04,.97,.04h1.97c.47,0,.71-.01,.94-.05l.42,.59Z"/><path class="cls-5" d="M83.17,80.37c0-.47-.01-.78-.05-1.15,.36,.04,.66,.05,1.13,.05h2.36c.37,0,.65-.01,.95-.04-.04,.26-.04,.44-.04,1.1v2.89c0,.55,.01,.88,.05,1.15h-.92v-.5h-2.58v.72h-.96c.05-.31,.06-.65,.06-1.26v-2.96Zm.89,2.7h2.59v-3h-2.59v3Zm.8-8.04c0-.41-.01-.71-.05-1.02,.38,.05,.71,.06,1.36,.06h4.09c.7,0,1.02-.01,1.35-.06-.04,.31-.05,.56-.05,1.02v2.07c0,.47,.01,.77,.05,1.07-.36-.04-.65-.05-1.26-.05h-4.28c-.59,0-.91,.01-1.26,.05,.04-.31,.05-.63,.05-1.05v-2.09Zm.91,2.28h4.87v-2.41h-4.87v2.41Zm2.87,2.93c0-.55,0-.73-.04-1.01,.29,.02,.55,.04,.95,.04h2.71c.48,0,.77-.01,1.04-.05-.04,.32-.05,.68-.05,1.16v2.95c0,.65,.01,.97,.06,1.26h-.96v-.72h-2.84v.72h-.92c.04-.3,.05-.6,.05-1.14v-3.21Zm.88,2.83h2.85v-3h-2.85v3Z"/></g></g></g></g></g><path d="M61.86,4.64h-24.99c-1.1,0-1.99,.9-1.99,1.99V48.37c0,1.1,.9,1.99,1.99,1.99h19.64l-3.37-12.64v-.04c-.46-1.91,.56-3.8,2.41-4.51l7.22-2.64c.38-.14,.74-.23,1.08-.27V6.63c0-1.1-.9-1.99-1.99-1.99m-12.49,28.46c-1.64,0-2.97-1.33-2.97-2.97s1.33-2.97,2.97-2.97,2.97,1.33,2.97,2.97-1.33,2.97-2.97,2.97m10.1-10.63h-20.2v-3.81h20.2v3.81Zm0-7.53h-20.2v-3.81h20.2v3.81Z"/><path d="M61.77,50.66h-24.78c-1.17,0-2.11-.94-2.11-2.11V29.77c0-1.17,.94-2.11,2.11-2.11l15.89,9,1.27-9h7.62c1.16,0,2.11,.94,2.11,2.11v18.78c0,1.17-.94,2.11-2.11,2.11"/><path class="cls-4" d="M59.88,45.66c0-2.76,2.24-5,5-5s5,2.24,5,5-2.24,5-5,5-5-2.24-5-5"/><path class="cls-2" d="M74.64,43.82l-1.42-.11c-.37-.03-.68-.27-.8-.62-.12-.35-.26-.7-.43-1.03-.16-.33-.12-.73,.12-1l.93-1.08c.3-.36,.28-.89-.06-1.23l-1.17-1.17c-.17-.17-.4-.27-.65-.27-.21,0-.42,.07-.59,.21l-1.08,.93c-.17,.15-.38,.22-.59,.22-.14,0-.28-.03-.41-.1-.33-.17-.68-.31-1.03-.43-.35-.12-.6-.43-.62-.8l-.11-1.42c-.04-.47-.43-.83-.91-.83h-1.65c-.48,0-.87,.36-.91,.83l-.11,1.42c-.03,.37-.27,.68-.62,.8-.35,.12-.7,.26-1.03,.43-.13,.07-.27,.1-.41,.1-.21,0-.42-.07-.59-.22l-1.08-.93c-.16-.14-.37-.21-.59-.21-.24,0-.47,.1-.65,.27l-1.17,1.17c-.34,.34-.36,.86-.06,1.23l.93,1.08c.24,.28,.29,.68,.12,1-.17,.33-.31,.68-.43,1.03-.12,.35-.43,.6-.8,.62l-1.42,.11c-.47,.04-.83,.43-.83,.91v1.65c0,.48,.36,.87,.83,.91l1.42,.11c.37,.03,.68,.27,.8,.62,.12,.35,.26,.7,.43,1.03,.16,.33,.12,.73-.12,1l-.93,1.08c-.3,.36-.28,.89,.06,1.23l1.17,1.17c.17,.17,.4,.27,.65,.27,.21,0,.42-.07,.59-.21l1.08-.93c.17-.15,.38-.22,.59-.22,.14,0,.28,.03,.41,.1,.33,.17,.68,.31,1.03,.43,.35,.12,.59,.43,.62,.8l.11,1.42c.04,.47,.43,.83,.91,.83h1.65c.48,0,.87-.36,.91-.83l.11-1.42c.03-.37,.27-.68,.62-.8,.35-.12,.7-.26,1.03-.43,.13-.07,.27-.1,.41-.1,.21,0,.43,.07,.59,.22l1.08,.93c.16,.14,.37,.21,.59,.21,.24,0,.47-.1,.65-.27l1.17-1.17c.34-.34,.36-.86,.06-1.23l-.93-1.08c-.24-.28-.29-.68-.12-1,.17-.33,.31-.68,.43-1.03,.12-.35,.43-.6,.8-.62l1.42-.11c.47-.04,.83-.43,.83-.91v-1.65c0-.48-.36-.87-.83-.91Zm-9.63,6.39c-2.57,0-4.66-2.09-4.66-4.66s2.09-4.66,4.66-4.66,4.66,2.09,4.66,4.66-2.09,4.66-4.66,4.66Z"/><path d="M74.64,43.82l-1.42-.11c-.37-.03-.68-.27-.8-.62-.12-.35-.26-.7-.43-1.03-.16-.33-.12-.73,.12-1l.93-1.08c.3-.36,.28-.89-.06-1.23l-1.17-1.17c-.17-.17-.4-.27-.65-.27-.21,0-.42,.07-.59,.21l-1.08,.93c-.17,.15-.38,.22-.59,.22-.14,0-.28-.03-.41-.1-.33-.17-.68-.31-1.03-.43-.35-.12-.6-.43-.62-.8l-.11-1.42c-.04-.47-.43-.83-.91-.83h-1.65c-.48,0-.87,.36-.91,.83l-.11,1.42c-.03,.37-.27,.68-.62,.8-.35,.12-.7,.26-1.03,.43-.13,.07-.27,.1-.41,.1-.21,0-.42-.07-.59-.22l-1.08-.93c-.16-.14-.37-.21-.59-.21-.24,0-.47,.1-.65,.27l-1.17,1.17c-.34,.34-.36,.86-.06,1.23l.93,1.08c.24,.28,.29,.68,.12,1-.17,.33-.31,.68-.43,1.03-.12,.35-.43,.6-.8,.62l-1.42,.11c-.47,.04-.83,.43-.83,.91v1.65c0,.48,.36,.87,.83,.91l1.42,.11c.37,.03,.68,.27,.8,.62,.12,.35,.26,.7,.43,1.03,.16,.33,.12,.73-.12,1l-.93,1.08c-.3,.36-.28,.89,.06,1.23l1.17,1.17c.17,.17,.4,.27,.65,.27,.21,0,.42-.07,.59-.21l1.08-.93c.17-.15,.38-.22,.59-.22,.14,0,.28,.03,.41,.1,.33,.17,.68,.31,1.03,.43,.35,.12,.59,.43,.62,.8l.11,1.42c.04,.47,.43,.83,.91,.83h1.65c.48,0,.87-.36,.91-.83l.11-1.42c.03-.37,.27-.68,.62-.8,.35-.12,.7-.26,1.03-.43,.13-.07,.27-.1,.41-.1,.21,0,.43,.07,.59,.22l1.08,.93c.16,.14,.37,.21,.59,.21,.24,0,.47-.1,.65-.27l1.17-1.17c.34-.34,.36-.86,.06-1.23l-.93-1.08c-.24-.28-.29-.68-.12-1,.17-.33,.31-.68,.43-1.03,.12-.35,.43-.6,.8-.62l1.42-.11c.47-.04,.83-.43,.83-.91v-1.65c0-.48-.36-.87-.83-.91m-9.63,6.39c-2.57,0-4.66-2.09-4.66-4.66s2.09-4.66,4.66-4.66,4.66,2.09,4.66,4.66-2.09,4.66-4.66,4.66"/><rect class="cls-1" width="101.93" height="101.93"/></g></g></svg>