<?xml version="1.0" encoding="UTF-8"?><svg id="_イヤー_2" xmlns="http://www.w3.org/2000/svg" xmlns:xlink="http://www.w3.org/1999/xlink" viewBox="0 0 101.93 101.93"><defs><style>.cls-1{fill:none;}.cls-2{clip-path:url(#clippath);}.cls-3{fill:#707070;}.cls-4{clip-path:url(#clippath-1);}.cls-5{clip-path:url(#clippath-3);}.cls-6{clip-path:url(#clippath-2);}.cls-7{isolation:isolate;}</style><clipPath id="clippath"><rect class="cls-1" x="2.66" y="72.94" width="96" height="13.8"/></clipPath><clipPath id="clippath-1"><rect class="cls-1" x="2.66" y="72.94" width="96" height="13.8"/></clipPath><clipPath id="clippath-2"><rect class="cls-1" x="28.07" y="5.46" width="50.79" height="42.36"/></clipPath><clipPath id="clippath-3"><rect class="cls-1" x="28.07" y="5.46" width="50.79" height="42.36"/></clipPath></defs><g id="_イヤー_1-2"><g><g class="cls-7"><g class="cls-2"><g class="cls-7"><g class="cls-4"><g><path class="cls-3" d="M13.97,79.38c-.47-.06-.91-.08-1.64-.08H5.01c-.67,0-1.24,.02-1.67,.08v-1.19c.43,.06,.94,.08,1.67,.08h7.32c.73,0,1.25-.02,1.64-.08v1.19Z"/><path class="cls-3" d="M17.67,79.38c-.47,.07-.49,.07-.74,.11-.12,2.28-.42,3.59-1.1,4.84-.26-.31-.41-.43-.76-.68,.65-.96,.92-2.07,1.04-4.05-.67,.08-.74,.1-.9,.14l-.14-.94h.25c.18,0,.48-.01,.83-.05,.04-.77,.05-1.39,.05-2.21,0-1.19-.01-1.56-.08-1.94,.31,.05,.6,.06,.98,.06h.28c.25-.48,.47-1.01,.54-1.38l.92,.19c-.19,.43-.41,.88-.58,1.19h.8c.43,0,.76-.02,.98-.06-.04,.28-.05,.48-.05,.83v2.75l.47-.1v.77c-.23,.06-.29,.07-.47,.11v4.31c0,.71-.28,.95-1.06,.95q-.38,0-1.16-.07c-.02-.37-.05-.47-.18-.9,.56,.1,.98,.14,1.34,.14,.22,0,.25-.04,.25-.29v-3.98q-.34,.07-.79,.14v1.93c0,.55,.01,.85,.05,1.14h-.84c.05-.36,.06-.58,.06-1.14v-1.81Zm1.52-3.97h-2.19v.8c0,.55-.01,1.37-.04,2.46,.74-.1,1.22-.17,2.23-.34v-2.93Zm-1.2,.48c.35,.62,.48,.95,.76,1.73l-.7,.35c-.22-.77-.4-1.22-.71-1.78l.65-.3Zm7.54,3.17c-.07,.11-.12,.22-.19,.38-.42,.98-.94,1.79-1.65,2.6,.7,.6,1.5,1.05,2.52,1.43-.19,.22-.37,.53-.53,.89-.97-.43-1.75-.94-2.59-1.69-.73,.67-1.33,1.08-2.37,1.63-.17-.32-.23-.4-.6-.79,1.1-.48,1.68-.83,2.37-1.45-.62-.73-.98-1.39-1.45-2.69q-.13,0-.4,.04v-.86c.18,.04,.46,.05,.94,.05h2.63c.4,0,.72-.02,.88-.06l.46,.53Zm-3.36-4.38c-.04,1.03-.12,1.55-.34,2.11-.19,.5-.44,.89-.86,1.26-.19-.29-.36-.46-.66-.66,.36-.29,.53-.49,.7-.83,.22-.43,.35-1.14,.35-1.79,0-.52-.01-.68-.06-.91,.36,.04,.67,.05,1,.05h1.21c.43,0,.76-.01,1.04-.05-.04,.3-.05,.61-.05,1.1v1.82c0,.2,.02,.22,.41,.22,.34,0,.42-.04,.48-.2,.06-.14,.11-.54,.14-1.22,.3,.2,.43,.26,.74,.36-.18,1.68-.3,1.82-1.45,1.82-.98,0-1.15-.11-1.15-.7v-2.39h-1.5Zm-.29,4.68c.35,.98,.62,1.46,1.21,2.11,.6-.66,1-1.28,1.34-2.11h-2.55Z"/><path class="cls-3" d="M32.35,74.25c0-.26-.01-.52-.06-.79h1.08c-.05,.28-.07,.5-.07,.79v.23h3.12c.64,0,.97-.02,1.3-.07v.92c-.38-.04-.68-.05-1.25-.05h-1.02c-.29,.65-.42,.91-.66,1.32h1.73c.67,0,1.06-.01,1.38-.06v.91c-.38-.05-.71-.06-1.38-.06h-7.46c0,2.23-.1,3.42-.37,4.62-.2,.96-.48,1.61-.97,2.34-.24-.4-.36-.52-.7-.78,.42-.65,.62-1.09,.79-1.77,.22-.88,.35-2.24,.35-3.6,0-.67-.01-1.31-.05-1.65,.44,.05,.8,.06,1.38,.06h1.33c-.16-.49-.32-.91-.54-1.32h-1.07c-.55,0-.83,.01-1.19,.05v-.92c.3,.05,.64,.07,1.24,.07h3.09v-.23Zm-1.45,5.28c-.4,.77-.7,1.2-1.25,1.82-.24-.3-.38-.43-.67-.64,.65-.61,.98-1.08,1.32-1.82,.2-.43,.34-.83,.43-1.25l.9,.2q-.2,.48-.37,.89h1.72v-.16c0-.43-.01-.65-.06-.9h1.01c-.05,.28-.06,.49-.06,.9v.16h2.33c.59,0,.9-.01,1.18-.06v.9c-.31-.04-.66-.05-1.19-.05h-2.31v1.32h1.93c.55,0,.82-.01,1.09-.06v.89c-.34-.04-.6-.05-1.09-.05h-1.93v1.57h2.99c.5,0,.84-.01,1.12-.06v.95c-.35-.05-.68-.07-1.14-.07h-6.78c-.42,0-.77,.02-1.13,.06v-.94c.29,.05,.62,.06,1.1,.06h2.95v-1.57h-1.44c-.46,0-.76,.01-1.12,.05v-.88c.29,.04,.55,.05,1.1,.05h1.45v-1.32h-2.07Zm2.95-2.93c.3-.55,.43-.82,.61-1.32h-3.24c.25,.52,.34,.72,.54,1.32h2.09Z"/><path class="cls-3" d="M41.05,78.17c-.56,0-.91,.01-1.26,.06v-.86c.34,.05,.66,.06,1.26,.06h1.66c-.18-.49-.34-.83-.58-1.24h-1.45c-.58,0-1.01,.02-1.37,.06v-.89c.35,.05,.72,.07,1.34,.07h.7c-.22-.4-.49-.76-.94-1.22l.83-.36c.52,.63,.68,.91,1.03,1.58h.91v-.9c0-.4-.02-.72-.07-.98h.97c-.04,.23-.05,.5-.05,.96v.92h1.14v-.92c0-.42-.01-.73-.05-.96h.97c-.05,.24-.07,.59-.07,.98v.9h1.03c.48-.66,.72-1.08,.94-1.64l.88,.36c-.34,.55-.55,.89-.86,1.28h.62c.62,0,.98-.02,1.33-.07v.89c-.35-.04-.79-.06-1.37-.06h-1.36c-.2,.46-.37,.84-.6,1.24h1.62c.61,0,.92-.01,1.27-.06v.86c-.35-.05-.7-.06-1.27-.06h-3.24v.78h2.54c.58,0,.95-.01,1.27-.06v.84c-.34-.05-.7-.06-1.27-.06h-2.54v.83h3.57c.68,0,1.06-.02,1.38-.07v.9c-.43-.05-.83-.07-1.37-.07h-2.93c.95,.89,2.61,1.61,4.56,1.96-.25,.31-.36,.49-.53,.88-2.29-.65-3.42-1.26-4.73-2.53,.02,.48,.04,.72,.04,.97v.74c0,.52,.02,.89,.07,1.24h-.98c.05-.37,.07-.74,.07-1.25v-.73c0-.26,.01-.53,.04-.96-.7,.7-1.13,1.02-1.87,1.45-.74,.42-1.45,.72-2.55,1.07-.18-.37-.3-.54-.56-.84,1.88-.41,3.18-1.01,4.29-1.99h-2.73c-.54,0-.96,.02-1.38,.07v-.9c.35,.05,.72,.07,1.37,.07h3.39v-.83h-2.4c-.56,0-.94,.01-1.26,.06v-.84c.35,.05,.71,.06,1.26,.06h2.4v-.78h-3.12Zm4.67-.74c.24-.43,.38-.78,.55-1.24h-3.17c.24,.52,.34,.73,.5,1.24h2.11Z"/><path class="cls-3" d="M52.64,83.01c0,.67,.02,1.07,.07,1.37h-1.03c.05-.34,.07-.71,.07-1.38v-7.88c0-.6-.01-.94-.05-1.32,.34,.04,.65,.05,1.25,.05h1.9c.6,0,.89-.01,1.22-.05-.02,.31-.04,.66-.04,1.13v1.43c0,.52,.01,.82,.04,1.1-.32-.02-.7-.04-1.19-.04h-2.24v5.59Zm0-7.72h2.57v-.78h-2.57v.78Zm0,1.46h2.57v-.82h-2.57v.82Zm4.45,4.47c.6,.78,1.28,1.22,2.42,1.55-.2,.3-.29,.46-.42,.79-1.1-.41-1.88-1-2.52-1.88-.23,.53-.5,.91-.95,1.27-.49,.41-.98,.66-1.91,.98-.17-.31-.3-.52-.52-.74,.85-.24,1.28-.41,1.72-.71,.5-.34,.77-.68,1-1.26h-1.43c-.47,0-.76,.01-1.08,.06v-.82c.28,.05,.54,.06,1.04,.06h1.63c.04-.35,.05-.52,.06-.98h-1.49c-.44,0-.72,.01-.98,.05v-.79c.29,.05,.5,.06,.97,.06h.55c-.19-.32-.35-.55-.68-.95l.76-.26c.34,.47,.56,.8,.78,1.21h1.16c.3-.44,.43-.7,.67-1.22l.8,.22c-.22,.4-.37,.65-.62,1.01h.6c.46,0,.7-.01,.98-.06v.79c-.24-.04-.55-.05-.97-.05h-1.7c-.02,.47-.04,.65-.08,.98h1.96c.5,0,.74-.01,1.04-.06v.82c-.28-.05-.58-.06-1.04-.06h-1.75Zm4.5,1.97c0,.59-.1,.83-.42,.97-.18,.08-.47,.11-1.12,.11-.16,0-.38-.01-.66-.02-.04-.42-.07-.59-.2-.89,.54,.08,.71,.1,1.08,.1,.35,0,.43-.07,.43-.34v-5.7h-2.46c-.52,0-.85,.01-1.19,.04,.02-.34,.04-.64,.04-1.1v-1.43c0-.43-.01-.74-.04-1.13,.34,.04,.62,.05,1.22,.05h2.11c.61,0,.91-.01,1.26-.05-.05,.47-.06,.78-.06,1.32v8.07Zm-3.67-7.9h2.78v-.78h-2.78v.78Zm0,1.46h2.78v-.82h-2.78v.82Z"/><path class="cls-3" d="M63.27,78.2c.3,.05,.48,.06,.94,.06h.7c.36,0,.61-.01,.91-.06-.04,.38-.05,.67-.05,1.28v2.41c.18,.38,.32,.56,.58,.73,.67,.48,1.37,.62,3.02,.62,2.33,0,3.72-.07,4.92-.23-.22,.52-.22,.54-.31,1.03-1.09,.04-2.71,.07-4.21,.07-1.98,0-2.69-.11-3.44-.53-.41-.23-.68-.49-1.02-.96-.52,.52-.84,.8-1.36,1.19-.2,.16-.29,.23-.47,.38l-.46-.95c.49-.22,1.2-.74,1.86-1.37v-2.82h-.76c-.37,0-.55,.01-.85,.06v-.94Zm.79-4.51c.78,.72,1.18,1.14,1.97,2.13l-.72,.66c-.7-.98-1.07-1.42-1.92-2.19l.67-.6Zm3.32,1.62c-.55,0-.88,.01-1.09,.06v-.88c.3,.04,.68,.06,1.28,.06h2.01c-.01-.4-.04-.67-.08-1.03h.97c-.06,.34-.08,.62-.08,1.03h2.24c.56,0,.98-.02,1.28-.06v.88c-.29-.05-.62-.06-1.21-.06h-2.31v.82h1.97c.41,0,.62-.01,.96-.05-.04,.26-.05,.5-.05,.84v2.43c0,.32,.01,.55,.05,.8-.28-.04-.59-.05-.96-.05h-1.97v.89h2.36c.6,0,.95-.01,1.21-.06v.86c-.28-.05-.64-.06-1.21-.06h-2.36v.14c0,.37,.02,.74,.07,1.08h-.96c.06-.37,.08-.7,.08-1.07v-.16h-2.05c-.48,0-.94,.02-1.2,.05v-.85c.26,.05,.58,.06,1.2,.06h2.05v-.89h-1.77c-.35,0-.62,.01-.96,.05,.04-.3,.05-.48,.05-.8v-2.47c0-.32-.01-.49-.05-.8,.29,.04,.56,.05,.95,.05h1.79v-.82h-2.21Zm.35,1.52v.91h1.86v-.91h-1.86Zm0,1.59v.97h1.86v-.97h-1.86Zm2.66-.68h2.04v-.91h-2.04v.91Zm0,1.66h2.04v-.97h-2.04v.97Z"/><path class="cls-3" d="M80.14,79.43h-2.85c-.47,0-.78,.01-1.13,.05v-.84c.29,.05,.59,.06,1.15,.06h2.83v-.67h-2.55c-.4,0-.71,.01-.98,.05,.04-.28,.05-.49,.05-.82v-.6c0-.32-.01-.53-.05-.83,.29,.04,.58,.05,1,.05h2.54v-.68h-3.45c-.56,0-1,.02-1.37,.07v-.9c.32,.05,.7,.07,1.4,.07h3.42c0-.5-.01-.71-.07-1.02h1.01c-.07,.3-.08,.48-.08,1.02h3.59c.71,0,1.08-.02,1.4-.07v.9c-.4-.05-.79-.07-1.36-.07h-3.63v.68h2.76c.42,0,.7-.01,.98-.05-.04,.3-.05,.48-.05,.83v.6c0,.35,.01,.52,.05,.82-.28-.04-.58-.05-.96-.05h-2.78v.67h2.64c.7,0,1.01-.01,1.32-.05-.02,.26-.04,.47-.04,1.04v.47c.62,0,.96-.02,1.21-.07v.86c-.29-.05-.55-.06-1.21-.06v.78c0,.6,.01,.91,.07,1.22h-.94v-.48h-3.06v.9c0,.89-.26,1.08-1.51,1.08-.25,0-.61-.01-1.14-.05-.04-.35-.08-.52-.25-.88,.65,.08,1.06,.12,1.52,.12,.42,0,.53-.06,.53-.31v-.86h-2.9c-.54,0-.79,.01-1.18,.06v-.85c.35,.04,.55,.05,1.15,.05h2.93v-.78h-3.59c-.66,0-.98,.01-1.31,.06v-.86c.3,.06,.62,.07,1.29,.07h3.6v-.73Zm-2.61-2.85v.77h2.61v-.77h-2.61Zm3.47,.77h2.82v-.77h-2.82v.77Zm3.06,2.82v-.73h-3.06v.73h3.06Zm-3.06,1.51h3.06v-.78h-3.06v.78Z"/><path class="cls-3" d="M89.05,78.17c-.56,0-.91,.01-1.26,.06v-.86c.34,.05,.66,.06,1.26,.06h1.66c-.18-.49-.34-.83-.58-1.24h-1.45c-.58,0-1.01,.02-1.37,.06v-.89c.35,.05,.72,.07,1.34,.07h.7c-.22-.4-.49-.76-.94-1.22l.83-.36c.52,.63,.68,.91,1.03,1.58h.91v-.9c0-.4-.02-.72-.07-.98h.97c-.04,.23-.05,.5-.05,.96v.92h1.14v-.92c0-.42-.01-.73-.05-.96h.97c-.05,.24-.07,.59-.07,.98v.9h1.03c.48-.66,.72-1.08,.94-1.64l.88,.36c-.34,.55-.55,.89-.86,1.28h.62c.62,0,.98-.02,1.33-.07v.89c-.35-.04-.79-.06-1.37-.06h-1.36c-.2,.46-.37,.84-.6,1.24h1.62c.61,0,.92-.01,1.27-.06v.86c-.35-.05-.7-.06-1.27-.06h-3.24v.78h2.54c.58,0,.95-.01,1.27-.06v.84c-.34-.05-.7-.06-1.27-.06h-2.54v.83h3.57c.68,0,1.06-.02,1.38-.07v.9c-.43-.05-.83-.07-1.37-.07h-2.93c.95,.89,2.61,1.61,4.56,1.96-.25,.31-.36,.49-.53,.88-2.29-.65-3.42-1.26-4.73-2.53,.02,.48,.04,.72,.04,.97v.74c0,.52,.02,.89,.07,1.24h-.98c.05-.37,.07-.74,.07-1.25v-.73c0-.26,.01-.53,.04-.96-.7,.7-1.13,1.02-1.87,1.45-.74,.42-1.45,.72-2.55,1.07-.18-.37-.3-.54-.56-.84,1.88-.41,3.18-1.01,4.29-1.99h-2.73c-.54,0-.96,.02-1.38,.07v-.9c.35,.05,.72,.07,1.37,.07h3.39v-.83h-2.4c-.56,0-.94,.01-1.26,.06v-.84c.35,.05,.71,.06,1.26,.06h2.4v-.78h-3.12Zm4.67-.74c.24-.43,.38-.78,.55-1.24h-3.17c.24,.52,.34,.73,.5,1.24h2.11Z"/></g></g></g></g></g><g class="cls-6"><g class="cls-5"><path d="M78.86,16.09v31.55c-.35,.06-.7,.17-1.06,.17-1.52,.02-3.04,0-4.56,0-14.65,0-29.3,0-43.95,0-.38,0-.77-.02-1.21-.03,0-13.76,0-27.42,0-41.07,0-.33,.02-.66,.04-.99,0-.03,.02-.06,.05-.08,.02-.02,.06-.02,.18-.06,.83,.48,1.71,.99,2.59,1.5,.89,.51,1.77,1.03,2.66,1.54,.89,.51,1.77,1.03,2.66,1.55,.88,.52,1.77,1.04,2.65,1.56,.88,.52,1.75,1.07,2.66,1.55,.88,.47,1.68,1.11,2.78,1.48,.02-.48,.05-.83,.05-1.18,0-2.38,0-4.76,0-7.14,0-.27,.05-.55,.09-.95,5.43,3.1,10.64,6.26,16.09,9.36,.14-.91,.07-1.66,.08-2.41,.01-.76,0-1.52,0-2.28s0-1.52,0-2.28c0-.75,.02-1.49,.03-2.42,.55,.3,.95,.51,1.34,.74,3.94,2.3,7.88,4.59,11.82,6.9,1.68,.99,3.35,1.99,5.02,2.99m-37.03,10.55c-.2,1.17-.16,5.97,.04,6.66,1.07,.19,5.86,.15,6.64-.08,0-2.16,.06-4.35-.04-6.58h-6.64Zm23.28,6.71c.21-1.4,.15-6.02-.09-6.74-2.16,0-4.35-.08-6.52,.04-.2,1.43-.13,6.01,.08,6.71h6.53Z"/></g></g><rect class="cls-1" width="101.93" height="101.93"/></g></g></svg>