<?xml version="1.0" encoding="UTF-8"?><svg id="_イヤー_2" xmlns="http://www.w3.org/2000/svg" xmlns:xlink="http://www.w3.org/1999/xlink" viewBox="0 0 101.93 101.93"><defs><style>.cls-1{fill:none;}.cls-2{clip-path:url(#clippath);}.cls-3{fill:#707070;}.cls-4{clip-path:url(#clippath-1);}.cls-5{clip-path:url(#clippath-3);}.cls-6{clip-path:url(#clippath-2);}.cls-7{isolation:isolate;}</style><clipPath id="clippath"><rect class="cls-1" x="24.36" y="72.94" width="50.4" height="13.8"/></clipPath><clipPath id="clippath-1"><rect class="cls-1" x="24.36" y="72.94" width="50.4" height="13.8"/></clipPath><clipPath id="clippath-2"><rect class="cls-1" x="28.76" y="4.19" width="45.56" height="48"/></clipPath><clipPath id="clippath-3"><rect class="cls-1" x="28.76" y="4.19" width="45.56" height="48"/></clipPath></defs><g id="_イヤー_1-2"><g><g class="cls-7"><g class="cls-2"><g class="cls-7"><g class="cls-4"><g><path class="cls-3" d="M30.05,74.25c0-.26-.01-.52-.06-.79h1.08c-.05,.28-.07,.5-.07,.79v.23h3.12c.64,0,.97-.02,1.3-.07v.92c-.38-.04-.68-.05-1.25-.05h-1.02c-.29,.65-.42,.91-.66,1.32h1.73c.67,0,1.06-.01,1.38-.06v.91c-.38-.05-.71-.06-1.38-.06h-7.46c0,2.23-.1,3.42-.37,4.62-.2,.96-.48,1.61-.97,2.34-.24-.4-.36-.52-.7-.78,.42-.65,.62-1.09,.79-1.77,.22-.88,.35-2.24,.35-3.6,0-.67-.01-1.31-.05-1.65,.44,.05,.8,.06,1.38,.06h1.33c-.16-.49-.32-.91-.54-1.32h-1.07c-.55,0-.83,.01-1.19,.05v-.92c.3,.05,.64,.07,1.23,.07h3.09v-.23Zm-1.45,5.28c-.4,.77-.7,1.2-1.25,1.82-.24-.3-.38-.43-.67-.64,.65-.61,.98-1.08,1.32-1.82,.2-.43,.34-.83,.43-1.25l.9,.2q-.2,.48-.37,.89h1.72v-.16c0-.43-.01-.65-.06-.9h1.01c-.05,.28-.06,.49-.06,.9v.16h2.33c.59,0,.9-.01,1.18-.06v.9c-.31-.04-.66-.05-1.19-.05h-2.31v1.32h1.93c.55,0,.82-.01,1.09-.06v.89c-.34-.04-.6-.05-1.09-.05h-1.93v1.57h2.99c.5,0,.84-.01,1.12-.06v.95c-.35-.05-.68-.07-1.14-.07h-6.78c-.42,0-.77,.02-1.13,.06v-.94c.29,.05,.62,.06,1.1,.06h2.95v-1.57h-1.44c-.46,0-.76,.01-1.12,.05v-.88c.29,.04,.55,.05,1.1,.05h1.45v-1.32h-2.07Zm2.95-2.93c.3-.55,.43-.82,.61-1.32h-3.24c.25,.52,.34,.72,.54,1.32h2.09Z"/><path class="cls-3" d="M39.35,78.17c-.56,0-.91,.01-1.26,.06v-.86c.34,.05,.66,.06,1.26,.06h1.66c-.18-.49-.34-.83-.58-1.24h-1.45c-.58,0-1.01,.02-1.37,.06v-.89c.35,.05,.72,.07,1.34,.07h.7c-.22-.4-.49-.76-.94-1.22l.83-.36c.52,.63,.68,.91,1.03,1.58h.91v-.9c0-.4-.02-.72-.07-.98h.97c-.04,.23-.05,.5-.05,.96v.92h1.14v-.92c0-.42-.01-.73-.05-.96h.97c-.05,.24-.07,.59-.07,.98v.9h1.03c.48-.66,.72-1.08,.94-1.64l.88,.36c-.34,.55-.55,.89-.86,1.28h.62c.62,0,.98-.02,1.33-.07v.89c-.35-.04-.79-.06-1.37-.06h-1.36c-.2,.46-.37,.84-.6,1.24h1.62c.61,0,.92-.01,1.27-.06v.86c-.35-.05-.7-.06-1.27-.06h-3.24v.78h2.54c.58,0,.95-.01,1.27-.06v.84c-.34-.05-.7-.06-1.27-.06h-2.54v.83h3.57c.68,0,1.06-.02,1.38-.07v.9c-.43-.05-.83-.07-1.37-.07h-2.93c.95,.89,2.61,1.61,4.56,1.96-.25,.31-.36,.49-.53,.88-2.29-.65-3.42-1.26-4.73-2.53,.02,.48,.04,.72,.04,.97v.74c0,.52,.02,.89,.07,1.24h-.98c.05-.37,.07-.74,.07-1.25v-.73c0-.26,.01-.53,.04-.96-.7,.7-1.13,1.02-1.87,1.45-.74,.42-1.45,.72-2.55,1.07-.18-.37-.3-.54-.56-.84,1.88-.41,3.18-1.01,4.29-1.99h-2.73c-.54,0-.96,.02-1.38,.07v-.9c.35,.05,.72,.07,1.37,.07h3.39v-.83h-2.4c-.56,0-.94,.01-1.26,.06v-.84c.35,.05,.71,.06,1.26,.06h2.4v-.78h-3.12Zm4.67-.74c.24-.43,.38-.78,.55-1.24h-3.17c.24,.52,.34,.73,.5,1.24h2.11Z"/><path class="cls-3" d="M53.21,78.13c-.12,.23-.16,.29-.35,.76-.31-.46-.48-.78-.67-1.31,.02,.58,.05,1.26,.05,1.68v3.8c0,.68,.02,1.09,.06,1.42h-.97c.05-.34,.07-.79,.07-1.42v-2.95c0-.5,.04-1.26,.11-2.16-.32,1.47-.7,2.48-1.27,3.39-.11-.33-.28-.65-.47-.88,.67-.97,1.13-2.11,1.51-3.84h-.38c-.32,0-.6,.01-.83,.05v-.9c.22,.04,.42,.05,.83,.05h.49v-1.13c0-.64-.01-.96-.06-1.25h.97c-.05,.3-.06,.64-.06,1.24v1.14h.3c.35,0,.56-.01,.76-.05v.9c-.26-.04-.46-.05-.74-.05h-.24c.22,.52,.38,.78,.9,1.43,.07,.01,.12,.01,.16,.01,.05,0,.08,0,.16-.01,.42-.5,.6-.74,.91-1.16-.41-.55-.8-.97-1.4-1.49l.5-.58q.2,.19,.31,.3c.42-.58,.67-1.06,.88-1.64l.73,.36c-.37,.74-.62,1.15-1.1,1.81,.22,.23,.32,.37,.5,.6,.3-.48,.42-.71,.68-1.26l.67,.47c-.83,1.29-1.18,1.79-1.81,2.53,.46-.05,.9-.11,1.31-.18-.1-.25-.16-.36-.32-.68l.56-.2c.34,.62,.52,1.04,.71,1.73l-.61,.24q-.06-.24-.13-.49c-.44,.1-1.63,.3-2.25,.38-.14,.02-.18,.02-.31,.06l-.13-.72Zm6.49,1.36c.73,0,.92-.01,1.27-.07v.9c-.38-.05-.72-.07-1.27-.07h-1.92c.14,.62,.28,.98,.54,1.47,.55-.5,.86-.86,1.07-1.28l.7,.47c-.47,.58-.92,1.06-1.37,1.46,.47,.66,.9,1.04,1.19,1.04,.13,0,.2-.08,.3-.37,.06-.18,.1-.36,.12-.58,0-.04,.02-.14,.05-.35,0-.06,.01-.18,.04-.29,.26,.25,.44,.37,.71,.5-.26,1.54-.53,1.99-1.14,1.99s-1.2-.47-1.9-1.44c-.89,.66-1.7,1.08-2.88,1.46-.17-.34-.25-.46-.54-.74,1.21-.3,2.07-.7,3.01-1.37-.31-.6-.53-1.2-.71-1.99h-1.9q-.02,.32-.06,.54c.37,.46,.82,.82,1.5,1.2q-.16,.19-.44,.7c-.53-.34-.88-.64-1.22-1.06-.31,1.15-.76,1.87-1.59,2.64-.25-.29-.36-.4-.68-.61,1.06-.75,1.56-1.76,1.69-3.41h-.08c-.42,0-.76,.01-1.06,.05v-.86c.34,.05,.55,.06,1.06,.06h2.66c-.22-1.55-.3-2.66-.36-5.19,0-.36-.01-.5-.06-.77h.97c-.06,.29-.07,.49-.07,1.21,0,1.8,.12,3.53,.31,4.75h1.68c-.26-.3-.52-.52-.9-.76l.47-.37c-.68,.08-1.06,.13-1.1,.14l-.14-.78c.1,.01,.11,.01,.25,.01,.41-.46,.46-.52,.84-1.01-.46-.59-.76-.91-1.35-1.42l.46-.59c.16,.14,.22,.19,.35,.31,.35-.48,.61-.95,.84-1.5l.72,.4c-.41,.68-.61,1.01-1.08,1.61,.2,.22,.28,.3,.52,.59,.44-.64,.56-.82,.86-1.36l.65,.49c-1.19,1.58-1.33,1.76-1.94,2.43,.7-.05,.83-.06,1.27-.13-.11-.24-.16-.34-.32-.61l.59-.22c.32,.55,.54,1.02,.84,1.85l-.66,.24c-.11-.35-.13-.44-.22-.66-.19,.02-.64,.1-1.34,.18,.32,.17,.61,.38,.94,.71l-.46,.43h.34Z"/><path class="cls-3" d="M66.81,78.02c.31-.38,.49-.65,.62-.92-.23-.02-.43-.02-.91-.02h-1.91c-.4,0-.71,.01-1.04,.04,.02-.3,.05-.59,.05-.95v-1.33c0-.4-.02-.68-.05-1,.32,.04,.6,.05,1.07,.05h1.9c.47,0,.77-.01,1.04-.05-.02,.29-.02,.54-.02,.96v1.94l.96,.22c-.28,.47-.38,.61-.71,1.07h4.45c.5,0,.89-.02,1.22-.07v.94c-.4-.05-.73-.07-1.22-.07h-2.21c.98,.94,2.16,1.55,3.79,1.97-.25,.35-.31,.44-.47,.83-.48-.18-.62-.25-1-.42v2.15c0,.38,.02,.8,.06,1.08h-.92v-.56h-2.17v.56h-.91c.04-.28,.06-.56,.06-.9v-2.28c0-.41-.01-.68-.05-.97,.29,.04,.56,.05,.98,.05h1.31c-.71-.46-1.25-.91-1.79-1.5h-1.76c-.5,.56-1.06,1.03-1.74,1.5h1.24c.4,0,.67-.01,.96-.05-.02,.28-.04,.54-.04,.97v2.17c0,.37,.01,.64,.05,.91h-.89v-.47h-1.98v.58h-.95c.05-.32,.07-.7,.07-1.08v-2.13c-.26,.13-.42,.2-.89,.42-.08-.29-.2-.5-.46-.8,1.51-.49,2.47-1.04,3.51-2.01h-2.03c-.52,0-.89,.02-1.22,.07v-.94c.34,.05,.68,.07,1.22,.07h2.76Zm-2.34-1.67h2.23v-1.74h-2.23v1.74Zm.31,6.73h1.98v-2.04h-1.98v2.04Zm7.87-6.92c0,.38,.01,.66,.05,.95-.35-.02-.66-.04-1.06-.04h-2.04c-.46,0-.77,.01-1.07,.05,.04-.3,.05-.5,.05-.86v-1.46c0-.38-.01-.65-.05-.96,.29,.04,.58,.05,1.06,.05h2.03c.47,0,.74-.01,1.08-.05-.04,.3-.05,.59-.05,1.01v1.32Zm-3.31,6.92h2.17v-2.04h-2.17v2.04Zm.11-6.73h2.34v-1.73h-2.34v1.73Z"/></g></g></g></g></g><g class="cls-6"><g class="cls-5"><path d="M54.72,4.19c.32,.08,.65,.12,.96,.24,1.14,.45,2.19,1.01,2.97,2.01,1.04,1.32,2.14,2.59,3.21,3.89,1.43,1.72,2.86,3.45,4.29,5.18,1.35,1.63,2.71,3.25,4.06,4.88,.36,.43,.71,.86,1.16,1.41-1.84-.43-3.48-.19-4.92,.8-1.45,1-2.24,2.46-2.48,4.33-.28-.24-.5-.4-.69-.59-2.18-2.1-4.34-4.21-6.52-6.3-2.12-2.02-4.24-4.04-6.38-6.04-.92-.86-1.53-1.9-1.74-3.13-.36-2.17,.33-4,2.04-5.4,.73-.6,1.55-1.03,2.51-1.14,.08,0,.14-.1,.22-.15h1.31Zm-.55,3.54c-1.23,0-2.15,.83-2.18,2.16-.03,1.19,1.03,2.16,2.23,2.17,1.06,0,2.06-1.01,2.09-2.11,.03-1.21-.95-2.22-2.14-2.21"/><path d="M28.76,52.19c0-2,0-3.99,.01-5.99,0-1.56,.85-2.42,2.42-2.42,5.41,0,10.81,0,16.22,0,.28,0,.56,.02,.83,.08,1.12,.28,1.64,.91,1.64,2.06,0,2.09,0,4.18-.01,6.27H28.76Z"/><path d="M47.39,10.07c.1,.33,.17,.47,.18,.62,.09,1.51,.72,2.76,1.79,3.8,1.43,1.39,2.87,2.77,4.31,4.14,.22,.21,.5,.37,.76,.55-.31,.56-.52,.93-.72,1.32-1.17,2.27-2.34,4.55-3.51,6.82-1.63,3.16-3.23,6.33-4.92,9.46-1.45,2.7-3.82,3.81-6.64,3.56-1.31-.12-2.48-.77-3.49-1.65-2.51-2.19-2.76-5.9-1.04-8.5,1.77-2.67,3.54-5.35,5.3-8.03,2.48-3.77,4.95-7.55,7.43-11.32,.13-.2,.29-.4,.55-.75m-5.35,23.73c.12-1.52-1.35-2.65-2.58-2.6-1.83,.07-2.56,1.33-2.64,2.69-.08,1.24,1.18,2.6,2.63,2.59,1.36,0,2.72-1.19,2.59-2.68"/><path d="M74.25,33.97h-9.16c-.03-.17-.08-.32-.08-.46,0-2.03-.04-4.06,0-6.09,.05-1.88,.83-3.41,2.55-4.26,2.47-1.22,5.54-.16,6.42,2.65,.16,.5,.29,1.03,.3,1.55,.03,2.06,.02,4.12,.01,6.18,0,.12-.03,.24-.06,.44m-4.63-8.61c-1.05,.01-1.8,.78-1.81,1.85,0,.99,.84,1.77,1.9,1.75,1-.02,1.85-.81,1.79-1.76-.09-1.34-.87-1.87-1.88-1.85"/><path d="M46.44,36.91c.11,.28,.2,.41,.21,.55,.14,1.75,.58,3.48,.6,5.35H31.22c.28-2.32,.55-4.5,.95-6.71,1.29,3.1,3.43,5.03,6.83,5.25,3.4,.22,5.76-1.44,7.44-4.45"/><path d="M68.02,35.16h3.47v3.33c-.5,.57-1.07,1.21-1.72,1.95-.62-.71-1.19-1.36-1.75-1.99v-3.28Z"/></g></g><rect class="cls-1" width="101.93" height="101.93"/></g></g></svg>