<?xml version="1.0" encoding="UTF-8"?><svg id="_イヤー_2" xmlns="http://www.w3.org/2000/svg" xmlns:xlink="http://www.w3.org/1999/xlink" viewBox="0 0 101.93 101.93"><defs><style>.cls-1{fill:none;}.cls-2{clip-path:url(#clippath);}.cls-3{fill:#707070;}.cls-4{clip-path:url(#clippath-1);}.cls-5{isolation:isolate;}</style><clipPath id="clippath"><rect class="cls-1" x="25.02" y="73.44" width="50.4" height="13.8"/></clipPath><clipPath id="clippath-1"><rect class="cls-1" x="25.02" y="73.44" width="50.4" height="13.8"/></clipPath></defs><g id="_イヤー_1-2"><g><g class="cls-5"><g class="cls-2"><g class="cls-5"><g class="cls-4"><g><path class="cls-3" d="M25.72,76.02c.28,.05,.5,.06,.96,.06h2.35c.5,0,.7-.01,.96-.05v.91c-.25-.04-.43-.05-.89-.05h-2.42c-.41,0-.65,.01-.96,.05v-.92Zm.38,8.91c.05-.35,.07-.7,.07-1.16v-1.67c0-.4-.01-.68-.06-1,.32,.04,.59,.05,.96,.05h1.7c.52,0,.65,0,.86-.04-.02,.29-.04,.48-.04,.92v1.76c0,.38,.01,.67,.05,.97h-.86v-.47h-1.79v.62h-.9Zm.02-10.58c.3,.05,.5,.06,.94,.06h1.64c.42,0,.64-.01,.94-.06v.88c-.29-.04-.54-.05-.94-.05h-1.64c-.38,0-.66,.01-.94,.05v-.88Zm.01,3.41c.24,.04,.42,.05,.84,.05h1.81c.42,0,.59-.01,.83-.05v.85c-.28-.04-.46-.05-.83-.05h-1.81c-.4,0-.58,.01-.84,.05v-.85Zm0,1.67c.26,.04,.43,.05,.84,.05h1.81c.41,0,.6-.01,.83-.05v.84c-.38-.04-.41-.04-.84-.04h-1.8c-.4,0-.58,.01-.84,.04v-.84Zm.86,4.14h1.79v-1.67h-1.79v1.67Zm8.79-3.99l-.23,.46c-.43,.92-1.03,1.8-1.73,2.54,.8,.6,1.61,.98,2.91,1.38-.2,.31-.32,.54-.47,.9-1.42-.53-2.23-.97-3.09-1.67-.83,.7-1.7,1.19-2.99,1.69-.16-.34-.29-.54-.55-.8,1.21-.4,2.07-.84,2.9-1.47-.8-.83-1.16-1.4-1.7-2.67-.29,.01-.43,.02-.67,.06v-.91c.25,.05,.49,.06,.83,.06h3.41c.48,0,.7-.01,.88-.05l.5,.49Zm-3.73-4.33c-.04,1.22-.17,1.85-.55,2.54-.25,.47-.49,.74-.96,1.13-.24-.26-.48-.46-.73-.6,1.03-.7,1.39-1.54,1.39-3.2,0-.29-.01-.4-.05-.72,.31,.04,.6,.05,.94,.05h1.57c.43,0,.74-.01,1.02-.05-.04,.32-.05,.64-.05,1.1v1.83c0,.19,.1,.24,.5,.24s.53-.04,.59-.17c.08-.2,.14-.61,.17-1.32,.31,.19,.47,.26,.78,.36-.14,1.75-.28,1.91-1.63,1.91-1.04,0-1.27-.12-1.27-.7v-2.41h-1.72Zm-.35,4.68c.38,.89,.74,1.4,1.48,2.1,.65-.65,1.02-1.16,1.46-2.1h-2.94Z"/><path class="cls-3" d="M39.3,79.87c0-.56,.01-1.13,.04-1.74-.26,.61-.55,1.07-.98,1.63-.05-.08-.07-.14-.1-.18q-.12-.29-.23-.46s-.04-.06-.12-.17c-.02-.04-.04-.06-.06-.1,.73-.83,1.31-1.79,1.8-2.95,.31-.77,.52-1.43,.61-1.98l.94,.24c-.07,.17-.08,.2-.2,.59-.28,.86-.43,1.24-.82,2v6.69c0,.68,.01,1.08,.05,1.48h-1c.05-.44,.07-.8,.07-1.46v-3.6Zm9.71-1.99c-.34-.02-.74-.05-1.2-.05h-5.71c-.01,1.8-.06,2.83-.18,3.79-.18,1.44-.41,2.18-.96,3.13-.2-.24-.44-.46-.71-.66,.4-.65,.56-1.06,.72-1.82,.18-.88,.29-2.23,.29-3.89,0-.58-.02-1-.06-1.38,.3,.05,.67,.06,1.21,.06h5.31c.6,0,.95-.01,1.28-.06v.88Zm-6.66-1.99c-.56,0-.84,.01-1.14,.06v-.89c.34,.04,.71,.06,1.14,.06h.74v-.36c0-.38-.02-.6-.06-.79h.98c-.04,.2-.05,.43-.05,.79v.36h1.92v-.36c0-.38-.01-.59-.06-.79h.98c-.04,.22-.05,.42-.05,.79v.36h1.03c.48,0,.91-.02,1.18-.07v.9c-.34-.05-.68-.06-1.18-.06h-1.03v.18c0,.34,.01,.49,.04,.68h-.96c.04-.22,.05-.4,.05-.68v-.18h-1.92v.18c0,.32,.01,.5,.04,.68h-.96c.04-.19,.05-.41,.05-.68v-.18h-.74Zm1.09,6.82v.89c0,.71,.01,.97,.06,1.26h-.94c.05-.31,.07-.64,.07-1.26v-3.79c0-.67-.01-.9-.05-1.26,.36,.02,.59,.04,1.22,.04h3.56c.61,0,.89-.01,1.2-.06-.04,.3-.05,.65-.05,1.33v4.1c0,.67-.24,.85-1.15,.85-.13,0-.2,0-.71-.02-.04-.35-.08-.54-.19-.79,.38,.06,.65,.08,.94,.08,.25,0,.31-.05,.31-.3v-1.07h-1.8v.7c0,.67,.01,1,.06,1.31h-.91c.05-.36,.07-.67,.07-1.31v-.7h-1.7Zm1.7-3.39h-1.7v.97h1.7v-.97Zm0,1.69h-1.7v.96h1.7v-.96Zm2.58-.72v-.97h-1.8v.97h1.8Zm0,1.68v-.96h-1.8v.96h1.8Z"/><path class="cls-3" d="M52.11,75.68c0-.54-.02-.86-.1-1.31h1.13c-.05,.35-.07,.67-.07,1.15v.17l.06,5.98c1.2-.5,2.61-1.21,3.31-1.69l.19,.89c-1.46,.89-2.65,1.47-4.7,2.29-.37,.14-.48,.19-.74,.32l-.3-1.04c.54-.13,.73-.19,1.28-.4l-.06-6.37Zm8.46-1.32c-.04,.22-.04,.23-.11,1.32-.06,1.01-.34,2.53-.6,3.38-.2,.66-.46,1.21-.85,1.9,.66,1.22,1.58,2.16,2.85,2.91-.28,.3-.44,.55-.64,.94-1.2-.86-2.06-1.8-2.77-3.01-1.04,1.36-2.36,2.32-4.28,3.11-.17-.36-.35-.61-.6-.85,1.04-.4,1.69-.72,2.4-1.2,2.4-1.62,3.53-4.13,3.53-7.86,0-.32,0-.41-.04-.66l1.1,.02Zm-5.25,.79c1.04,1.07,1.38,1.49,2.34,2.89l-.86,.6c-.78-1.32-1.18-1.83-2.27-2.96l.79-.53Z"/><path class="cls-3" d="M66.06,78.3c.68,.53,1.04,.85,1.54,1.39,.44-1.02,.64-1.71,.92-3.18h-2.11c-.55,1.38-1.31,2.58-2.34,3.71-.19-.37-.28-.48-.6-.78,1.04-1.04,1.82-2.36,2.39-3.97,.17-.48,.31-1.09,.37-1.51l1.01,.19c-.11,.25-.14,.36-.24,.68-.1,.3-.14,.47-.28,.86h1.82c.44,0,.71-.01,.96-.04-.05,.23-.05,.28-.08,.46,.37,.9,.8,1.63,1.39,2.34v-3.12c0-.53-.02-.85-.08-1.28h1.08c-.06,.43-.08,.75-.08,1.28v4.04c.91,.76,1.86,1.33,2.91,1.78-.2,.24-.38,.54-.56,.91-.92-.49-1.58-.92-2.35-1.56v2.89c0,.67,.02,1.04,.08,1.5h-1.08c.06-.48,.08-.85,.08-1.5v-3.74c-.66-.68-1.15-1.39-1.6-2.27-.6,3.23-2.05,5.52-4.74,7.47-.19-.32-.4-.55-.7-.78,1.54-1,2.61-2.13,3.39-3.55-.53-.63-.95-1.02-1.65-1.54l.54-.7Z"/></g></g></g></g></g><rect class="cls-1" width="101.93" height="101.93"/><g><path d="M35.71,31.71c.48-.76,1.27-1.26,2.37-1.5,1.1-.23,2.03-.1,2.77,.4,.75,.5,1.24,1.32,1.48,2.46,.24,1.14,.12,2.08-.35,2.84-.48,.76-1.27,1.26-2.37,1.49-1.1,.24-2.02,.1-2.77-.39-.75-.5-1.24-1.32-1.48-2.45-.24-1.14-.13-2.09,.34-2.85m2.5,3.92c.29,.28,.65,.38,1.09,.28,.44-.09,.74-.33,.88-.7,.14-.38,.14-.93-.02-1.67-.16-.74-.38-1.25-.67-1.53-.29-.28-.65-.38-1.09-.28-.44,.09-.74,.33-.88,.71-.15,.38-.14,.93,.02,1.67,.16,.74,.38,1.25,.67,1.53"/><path d="M45.64,29.02l2.17-.46,.32,1.51-2.17,.46,.51,2.39c.12,.56,.25,.91,.38,1.03,.14,.12,.38,.15,.74,.07,.42-.09,.8-.23,1.15-.43l.34,1.61c-.49,.22-1.05,.4-1.68,.54-.91,.19-1.59,.14-2.04-.17-.45-.31-.78-.97-.99-1.97l-.56-2.61-1.4,.3-.32-1.51,1.41-.3-.54-2.54,2.15-.46,.54,2.54Z"/><path d="M50.56,24.49l.81,3.8h.03c.51-.72,1.11-1.16,1.82-1.31,.82-.17,1.45-.07,1.91,.33,.46,.39,.81,1.19,1.07,2.39l.82,3.86-2.1,.45-.77-3.59c-.15-.71-.32-1.17-.51-1.37-.19-.21-.47-.27-.85-.18-.3,.07-.56,.26-.76,.58-.2,.32-.27,.63-.21,.92l.88,4.12-2.16,.46-2.13-9.99,2.16-.46Z"/><path d="M59.51,30.06c.17,.52,.44,.86,.79,1.02s.85,.18,1.48,.05c.49-.11,1.14-.37,1.94-.81l.33,1.55c-.77,.38-1.53,.65-2.26,.81-1.21,.26-2.21,.15-2.99-.32-.78-.47-1.3-1.29-1.55-2.47-.25-1.16-.15-2.12,.3-2.86,.45-.74,1.22-1.23,2.33-1.47,2.15-.46,3.48,.5,3.99,2.89,.04,.18,.07,.4,.09,.66l-4.44,.95Zm-.27-1.28l2.47-.53c-.22-1-.72-1.41-1.49-1.25-.42,.09-.7,.27-.86,.54-.16,.27-.2,.68-.12,1.24"/><path d="M63.96,24.84l2.14-.46,.28,1.33h.03c.21-.49,.54-.9,.99-1.24,.44-.34,.96-.57,1.54-.69l.26-.06,.34,1.61-.26,.06c-.87,.18-1.5,.54-1.89,1.08-.39,.53-.51,1.16-.36,1.89l.62,2.93-2.21,.47-1.48-6.92Z"/><path d="M50.3,7.24h3.7c.2,.06,.39,.15,.6,.19,1,.16,2.01,.25,2.99,.47,10.27,2.26,18.11,11.25,18.88,21.61,.01,.2,.11,.4,.17,.6v3.49c-.06,.16-.15,.32-.18,.48-.16,.96-.33,1.92-.43,2.89-.08,.77-.47,1.32-1,1.85-5.18,5.15-10.36,10.31-15.49,15.52-.84,.85-1.76,1.33-2.9,1.47-.07,0-.14,0-.22,.02-.81,.14-1.61,.28-2.42,.42h-3.7c-.27-.07-.54-.15-.81-.2-.82-.13-1.65-.21-2.46-.38-5.27-1.13-9.69-3.75-13.26-7.77-3.02-3.41-4.93-7.38-5.7-11.88-.14-.81-.28-1.61-.42-2.42v-3.7c.14-.77,.28-1.54,.41-2.32,1.09-6.37,4.28-11.46,9.37-15.38,3.15-2.42,6.72-3.94,10.66-4.57,.74-.12,1.47-.26,2.21-.39m22.97,29.18c2.18-9.14-2.13-19.38-11.34-24.05-8.72-4.42-19.69-2.55-26.35,5.37-6.5,7.72-6.85,18.64-1.02,26.7,5.96,8.24,15.91,10.26,22.26,8.32,0-1.21,.02-2.44,0-3.67-.03-1.39,.11-2.75,.47-4.09,1.14-4.31,5.06-7.82,9.46-8.37,1.32-.17,2.67-.16,4.01-.21,.83-.03,1.65,0,2.52,0"/></g></g></g></svg>