<?xml version="1.0" encoding="UTF-8"?><svg id="_イヤー_2" xmlns="http://www.w3.org/2000/svg" xmlns:xlink="http://www.w3.org/1999/xlink" viewBox="0 0 101.93 101.93"><defs><style>.cls-1{fill:none;}.cls-2{clip-path:url(#clippath);}.cls-3{fill:#707070;}.cls-4{clip-path:url(#clippath-1);}.cls-5{isolation:isolate;}</style><clipPath id="clippath"><rect class="cls-1" x="20.62" y="73.44" width="62.29" height="13.8"/></clipPath><clipPath id="clippath-1"><rect class="cls-1" x="20.62" y="73.44" width="62.29" height="13.8"/></clipPath></defs><g id="_イヤー_1-2"><g><path d="M37.31,14.73c-1.54,0-2.84,1.05-3.22,2.48h1.23c.33-.77,1.1-1.31,1.99-1.31s1.66,.54,1.99,1.31h1.23c-.38-1.43-1.68-2.48-3.22-2.48"/><path d="M28.12,15.02l-4.17-.28c-.63-.04-1.17,.46-1.17,1.1v1.24c0,.47,.29,.88,.73,1.04l2.8,.99,1.81-4.09Z"/><g><g class="cls-5"><g class="cls-2"><g class="cls-5"><g class="cls-4"><g><path class="cls-3" d="M25.01,75.52c.3-.58,.47-1.03,.62-1.66l1.04,.16c-.26,.66-.43,1.06-.66,1.5h2.85c.67,0,1.03-.01,1.45-.06-.05,.4-.06,.74-.06,1.49v6.48c0,.71,.01,1.03,.07,1.38h-.98v-.67h-6.21v.67h-.98c.05-.35,.07-.73,.07-1.39v-6.46c0-.72-.01-1.07-.06-1.49,.41,.05,.77,.06,1.43,.06h1.42Zm-1.87,2.53h6.21v-1.68h-6.21v1.68Zm0,2.57h6.21v-1.73h-6.21v1.73Zm0,2.66h6.21v-1.82h-6.21v1.82Z"/><path class="cls-3" d="M35.81,75.37c-.76,.08-1.31,.14-2.17,.19-.07-.25-.13-.37-.34-.72,2.04-.04,4.23-.37,5.07-.78l.56,.72c-.12,.01-.18,.02-.43,.1-.65,.16-1.22,.26-1.88,.37v.88h1.4c.54,0,.83-.01,1.07-.06v.83c-.2-.04-.37-.05-.92-.05h-1.55v.67h1.25c.49,0,.76-.01,1.03-.04-.02,.23-.02,.43-.02,1.06v1.46c0,.59,.01,.97,.02,1.12-.32-.01-.55-.02-1.09-.02h-1.19v.72h1.19c.61,0,.83-.01,1.09-.05v.83c-.23-.04-.41-.05-.94-.05h-1.34v.78c.64-.07,1.06-.13,2.22-.31v.73c.6-.77,1.04-1.71,1.32-2.82,.23-.94,.35-1.97,.41-3.43h-.23c-.48,0-.74,.01-1.08,.06v-.95c.29,.04,.54,.05,1,.05h.34c.01-.4,.02-.62,.02-1.03,0-.96-.01-1.14-.08-1.49h1.02c-.06,.23-.07,.48-.07,.93q-.01,.22-.02,1.58h1.15c.48,0,.74-.01,1.09-.05-.04,.28-.05,.54-.07,1.26-.06,2.83-.12,3.86-.29,5.1-.19,1.42-.47,1.73-1.54,1.73-.28,0-.72-.02-1.16-.07-.01-.34-.06-.61-.18-.95,.62,.12,.91,.16,1.21,.16,.46,0,.58-.07,.68-.44,.24-.79,.38-2.87,.41-5.89h-1.33c-.08,1.72-.22,2.89-.48,3.87-.36,1.39-.85,2.33-1.81,3.51-.12-.17-.48-.42-.82-.59,.24-.24,.31-.32,.49-.53-1.92,.31-2.49,.38-4.94,.62-.31,.02-.41,.04-.65,.08l-.17-.96c.2,.02,.36,.02,.52,.02,.43,0,1.15-.05,2.23-.13v-.86h-1.31c-.37,0-.79,.02-1.09,.06v-.85c.29,.05,.58,.06,1.09,.06h1.31v-.72h-1.13c-.5,0-.8,.01-1.12,.04,.02-.3,.04-.54,.04-1.13v-1.45c0-.6-.01-.71-.04-1.07,.31,.02,.64,.04,1.14,.04h1.1v-.67h-1.6c-.49,0-.76,.01-1.07,.06v-.84c.32,.05,.61,.06,1.08,.06h1.58v-.75Zm-1.4,2.82v.77h1.4v-.77h-1.4Zm0,1.44v.79h1.4v-.79h-1.4Zm2.22-.67h1.45v-.77h-1.45v.77Zm0,1.46h1.45v-.79h-1.45v.79Z"/><path class="cls-3" d="M50.56,75.09c0-.47-.02-.76-.08-1.12h1.07c-.06,.36-.08,.66-.08,1.12v.13h3.54c.61,0,.96-.02,1.27-.08v.96c-.4-.05-.77-.07-1.26-.07h-3.55v.95h2.45c.71,0,1.04-.01,1.36-.06-.04,.36-.05,.59-.05,1.25v1.97c0,.67,.01,.89,.05,1.25-.32-.05-.65-.06-1.37-.06h-2.43v.97h3.66c.62,0,.97-.02,1.27-.08v.97c-.38-.05-.76-.07-1.28-.07h-3.65v.5c0,.66,.02,.95,.08,1.34h-1.07c.06-.42,.08-.72,.08-1.34v-.5h-3.45c-.54,0-.94,.02-1.27,.07v-.97c.31,.06,.67,.08,1.26,.08h3.47v-.97h-2.23c-.72,0-1.07,.01-1.38,.06,.04-.37,.05-.61,.05-1.25v-1.94c0-.65-.01-.9-.05-1.27,.31,.05,.62,.06,1.33,.06h2.28v-.95h-3.39c-.48,0-.89,.02-1.24,.07v-.96c.35,.06,.71,.08,1.26,.08h3.37v-.13Zm-2.66,2.65v1.02h2.66v-1.02h-2.66Zm0,1.78v1.03h2.66v-1.03h-2.66Zm6.42-.76v-1.02h-2.85v1.02h2.85Zm0,1.79v-1.03h-2.85v1.03h2.85Z"/><path class="cls-3" d="M61.34,78.63c-.12,.23-.16,.29-.35,.76-.31-.46-.48-.78-.67-1.31,.02,.58,.05,1.26,.05,1.68v3.8c0,.68,.02,1.09,.06,1.42h-.97c.05-.34,.07-.79,.07-1.42v-2.95c0-.5,.04-1.26,.11-2.16-.32,1.47-.7,2.48-1.27,3.39-.11-.33-.28-.65-.47-.88,.67-.97,1.13-2.11,1.51-3.84h-.38c-.32,0-.6,.01-.83,.05v-.9c.22,.04,.42,.05,.83,.05h.49v-1.13c0-.64-.01-.96-.06-1.25h.97c-.05,.3-.06,.64-.06,1.24v1.14h.3c.35,0,.56-.01,.75-.05v.9c-.26-.04-.46-.05-.74-.05h-.24c.22,.52,.38,.78,.9,1.43,.07,.01,.12,.01,.16,.01,.05,0,.08,0,.16-.01,.42-.5,.6-.74,.91-1.16-.41-.55-.8-.97-1.4-1.49l.5-.58q.2,.19,.31,.3c.42-.58,.67-1.06,.88-1.64l.73,.36c-.37,.74-.62,1.15-1.1,1.81,.22,.23,.32,.37,.5,.6,.3-.48,.42-.71,.68-1.26l.67,.47c-.83,1.29-1.18,1.79-1.81,2.53,.46-.05,.9-.11,1.31-.18-.1-.25-.16-.36-.32-.68l.56-.2c.33,.62,.52,1.04,.71,1.73l-.61,.24q-.06-.24-.13-.49c-.44,.1-1.63,.3-2.25,.38-.14,.02-.18,.02-.31,.06l-.13-.72Zm6.49,1.36c.73,0,.92-.01,1.27-.07v.9c-.38-.05-.72-.07-1.27-.07h-1.92c.14,.62,.28,.98,.54,1.47,.55-.5,.86-.86,1.07-1.28l.7,.47c-.47,.58-.92,1.06-1.37,1.46,.47,.66,.9,1.04,1.19,1.04,.13,0,.2-.08,.3-.37,.06-.18,.1-.36,.12-.58,0-.04,.02-.14,.05-.35,0-.06,.01-.18,.04-.29,.26,.25,.44,.37,.71,.5-.26,1.54-.53,1.99-1.14,1.99s-1.2-.47-1.89-1.44c-.89,.66-1.7,1.08-2.88,1.46-.17-.34-.25-.46-.54-.74,1.21-.3,2.07-.7,3.01-1.37-.31-.6-.53-1.2-.71-1.99h-1.9q-.02,.32-.06,.54c.37,.46,.82,.82,1.5,1.2q-.16,.19-.44,.7c-.53-.34-.88-.64-1.22-1.06-.31,1.15-.76,1.87-1.6,2.64-.25-.29-.36-.4-.68-.61,1.06-.75,1.56-1.76,1.69-3.41h-.08c-.42,0-.76,.01-1.06,.05v-.86c.34,.05,.55,.06,1.06,.06h2.66c-.22-1.55-.3-2.66-.36-5.19,0-.36-.01-.5-.06-.77h.97c-.06,.29-.07,.49-.07,1.21,0,1.8,.12,3.53,.31,4.75h1.68c-.26-.3-.52-.52-.9-.76l.47-.37c-.68,.08-1.06,.13-1.1,.14l-.14-.78c.1,.01,.11,.01,.25,.01,.41-.46,.46-.52,.84-1.01-.46-.59-.76-.91-1.36-1.42l.46-.59c.16,.14,.22,.19,.35,.31,.35-.48,.61-.95,.84-1.5l.72,.4c-.41,.68-.61,1.01-1.08,1.61,.2,.22,.28,.3,.52,.59,.44-.64,.56-.82,.86-1.36l.65,.49c-1.19,1.58-1.33,1.76-1.94,2.43,.7-.05,.83-.06,1.27-.13-.11-.24-.16-.34-.32-.61l.59-.22c.32,.55,.54,1.02,.84,1.85l-.66,.24c-.11-.35-.13-.44-.22-.66-.19,.02-.64,.1-1.34,.18,.32,.17,.61,.38,.93,.71l-.46,.43h.34Z"/><path class="cls-3" d="M74.95,78.52c.31-.38,.49-.65,.62-.92-.23-.02-.43-.02-.91-.02h-1.91c-.4,0-.71,.01-1.04,.04,.02-.3,.05-.59,.05-.95v-1.33c0-.4-.02-.68-.05-1,.32,.04,.6,.05,1.07,.05h1.9c.47,0,.77-.01,1.04-.05-.02,.29-.02,.54-.02,.96v1.94l.96,.22c-.28,.47-.38,.61-.71,1.07h4.45c.5,0,.89-.02,1.22-.07v.94c-.4-.05-.73-.07-1.22-.07h-2.21c.98,.94,2.16,1.55,3.79,1.97-.25,.35-.31,.44-.47,.83-.48-.18-.62-.25-1-.42v2.15c0,.38,.02,.8,.06,1.08h-.92v-.56h-2.17v.56h-.91c.04-.28,.06-.56,.06-.9v-2.28c0-.41-.01-.68-.05-.97,.29,.04,.56,.05,.98,.05h1.31c-.71-.46-1.25-.91-1.79-1.5h-1.76c-.5,.56-1.06,1.03-1.74,1.5h1.24c.4,0,.67-.01,.96-.05-.02,.28-.04,.54-.04,.97v2.17c0,.37,.01,.64,.05,.91h-.89v-.47h-1.98v.58h-.95c.05-.32,.07-.7,.07-1.08v-2.13c-.26,.13-.42,.2-.89,.42-.08-.29-.2-.5-.46-.8,1.51-.49,2.47-1.04,3.51-2.01h-2.03c-.52,0-.89,.02-1.22,.07v-.94c.34,.05,.68,.07,1.22,.07h2.76Zm-2.34-1.67h2.23v-1.74h-2.23v1.74Zm.31,6.73h1.98v-2.04h-1.98v2.04Zm7.87-6.92c0,.38,.01,.66,.05,.95-.35-.02-.66-.04-1.06-.04h-2.04c-.46,0-.77,.01-1.07,.05,.04-.3,.05-.5,.05-.86v-1.46c0-.38-.01-.65-.05-.96,.29,.04,.58,.05,1.05,.05h2.03c.47,0,.74-.01,1.08-.05-.04,.3-.05,.59-.05,1.01v1.32Zm-3.31,6.92h2.17v-2.04h-2.17v2.04Zm.11-6.73h2.34v-1.73h-2.34v1.73Z"/></g></g></g></g></g><path d="M45.9,24.87l3.02-.33-1.9-2.37,3.79-3.79H30.91l2.51-5.67,.02-.05c.32-.93,1.2-1.55,2.18-1.55h15.99c.98,0,1.86,.62,2.18,1.55l.02,.05,1.97,4.45,.27-2.42h1.65l-1.34-3.04c-.72-2-2.61-3.33-4.74-3.33h-15.99c-2.13,0-4.02,1.34-4.74,3.33l-3.17,7.17-1.76,2.18c-.83,1.03-1.29,2.33-1.29,3.65v5.34c0,1.68,1.12,3.1,2.65,3.55v3.44c0,.6,.49,1.09,1.09,1.09h3.36c.6,0,1.09-.49,1.09-1.09v-3.29h13.04v-8.87Zm-14.54,3.95c-1.5,0-2.72-1.22-2.72-2.72s1.22-2.72,2.72-2.72,2.72,1.22,2.72,2.72-1.22,2.72-2.72,2.72"/><path d="M72.78,31.73v-4.81l-3.53-.39c-.16-.49-.36-.97-.59-1.42l2.22-2.77-3.4-3.4-2.77,2.22c-.45-.23-.93-.43-1.42-.59l-.39-3.53h-4.81l-.39,3.53c-.49,.16-.97,.36-1.42,.59l-2.77-2.22-3.4,3.4,2.22,2.77c-.23,.45-.43,.93-.59,1.42l-3.53,.39v4.81l3.53,.39c.16,.49,.36,.97,.59,1.42l-2.22,2.77,3.4,3.4,2.77-2.22c.45,.23,.93,.43,1.42,.59l.39,3.53h4.81l.39-3.53c.49-.16,.97-.36,1.42-.59l2.77,2.22,3.4-3.4-2.22-2.77c.23-.45,.43-.93,.59-1.42l3.53-.39Zm-8.82-2.41c0,1.92-1.56,3.48-3.48,3.48s-3.48-1.56-3.48-3.48,1.56-3.48,3.48-3.48,3.48,1.56,3.48,3.48"/><path d="M51.38,42.87l-.44-2.58-1.93,.11c-.13-.25-.28-.49-.45-.71l.94-1.69-2.14-1.51-1.29,1.45c-.26-.08-.54-.15-.82-.19l-.53-1.86-2.58,.44,.11,1.93c-.25,.13-.49,.28-.71,.45l-1.69-.94-1.51,2.14,1.45,1.29c-.09,.26-.15,.54-.19,.82l-1.86,.53,.44,2.58,1.93-.11c.13,.25,.28,.49,.45,.71l-.94,1.69,2.14,1.51,1.29-1.45c.27,.08,.54,.15,.82,.19l.53,1.86,2.58-.44-.11-1.93c.25-.13,.49-.28,.71-.45l1.69,.94,1.52-2.14-1.45-1.29c.08-.26,.15-.54,.19-.82l1.86-.53Zm-4.96-.48c.18,1.03-.52,2.01-1.55,2.19-1.03,.18-2.01-.52-2.19-1.55-.18-1.03,.52-2.01,1.55-2.19,1.03-.18,2.01,.52,2.19,1.55"/><rect class="cls-1" width="101.93" height="101.93"/></g></g></g></svg>